<svg width="1920" height="822" viewBox="0 0 1920 822" fill="none" xmlns="http://www.w3.org/2000/svg">
<g clip-path="url(#clip0)">
<rect width="1920" height="822" fill="white"/>
<path d="M-0.00012207 0H1920V806H-0.00012207V0Z" fill="#72C954"/>
<path fill-rule="evenodd" clip-rule="evenodd" d="M1920 154.711L857.108 156C837.959 156.024 836.37 145.68 855.404 144.912L969.151 140.325C988.122 139.56 986.635 129.26 967.549 129.237L0.00201141 128.055V0H1920V154.711Z" fill="url(#paint0_linear)"/>
<path fill-rule="evenodd" clip-rule="evenodd" d="M1439.68 182.49L1920 166V212L1439.83 198.65C1422.82 198.176 1422.68 183.075 1439.68 182.49Z" fill="#69C04B"/>
<path fill-rule="evenodd" clip-rule="evenodd" d="M14.0251 205.006L677.75 220.289C694.615 220.678 695.258 235.45 678.449 236.36L218.276 261.287C201.701 262.184 201.993 276.685 218.599 277.345L456.078 286.793C472.839 287.461 472.905 302.145 456.152 302.864L14.4777 321.856C6.65907 322.191 0.00249566 318.499 0.00249566 313.822V213.055C4.92824e-05 208.485 6.36793 204.83 14.0251 205.006Z" fill="#68BF4A"/>
<path d="M1231.14 524.265C1252.41 518.239 1268.76 524.755 1276.48 533.652C1277.21 510.006 1295.77 491.054 1318.62 491.054C1324.99 491.054 1331 492.563 1336.41 495.194C1336.4 494.876 1336.36 494.564 1336.36 494.243C1336.36 469.93 1355.26 450.221 1378.57 450.221C1388.08 450.221 1396.82 453.538 1403.88 459.068C1406.06 436.894 1424.03 419.595 1445.87 419.595C1456.66 419.595 1466.48 423.859 1473.95 430.811C1480.14 414.529 1495.35 403 1513.17 403C1535.4 403 1553.58 420.938 1555.22 443.687C1561.54 439.752 1568.9 437.455 1576.79 437.455C1600.1 437.455 1619 457.164 1619 481.477V580H1203V565.07C1203 540.76 1215.32 528.751 1231.14 524.265Z" fill="#69C04B"/>
<path d="M1483.64 296.111H1546.21V511.756H1483.64V296.111Z" fill="#2E7217"/>
<path d="M1451.93 296.111H1483.64V511.756H1441.93V306.111C1441.93 300.588 1446.4 296.111 1451.93 296.111Z" fill="#8BDF6F"/>
<path d="M1446.28 287.402H1541.85C1544.26 287.402 1546.21 289.352 1546.21 291.758C1546.21 294.163 1544.26 296.114 1541.85 296.114H1446.28C1443.88 296.114 1441.93 294.163 1441.93 291.758C1441.93 289.352 1443.88 287.402 1446.28 287.402Z" fill="#5FB641"/>
<path d="M1493.31 305.968H1496.64V308.979H1493.31V305.968Z" fill="#7AD15C"/>
<path d="M1503.32 305.968H1506.65V308.979H1503.32V305.968Z" fill="#7AD15C"/>
<path d="M1513.32 305.968H1516.66V308.979H1513.32V305.968Z" fill="#7AD15C"/>
<path d="M1523.33 305.968H1526.67V308.979H1523.33V305.968Z" fill="#7AD15C"/>
<path d="M1493.31 315.007H1496.64V318.019H1493.31V315.007Z" fill="#7AD15C"/>
<path d="M1503.32 315.007H1506.65V318.019H1503.32V315.007Z" fill="#7AD15C"/>
<path d="M1513.32 315.007H1516.66V318.019H1513.32V315.007Z" fill="#7AD15C"/>
<path d="M1523.33 315.007H1526.67V318.019H1523.33V315.007Z" fill="#7AD15C"/>
<path d="M1493.31 324.044H1496.64V327.056H1493.31V324.044Z" fill="#7AD15C"/>
<path d="M1503.32 324.044H1506.65V327.056H1503.32V324.044Z" fill="#7AD15C"/>
<path d="M1513.32 324.044H1516.66V327.056H1513.32V324.044Z" fill="#7AD15C"/>
<path d="M1523.33 324.044H1526.67V327.056H1523.33V324.044Z" fill="#7AD15C"/>
<path d="M1493.31 333.082H1496.64V336.093H1493.31V333.082Z" fill="#7AD15C"/>
<path d="M1503.32 333.082H1506.65V336.093H1503.32V333.082Z" fill="#7AD15C"/>
<path d="M1513.32 333.082H1516.66V336.093H1513.32V333.082Z" fill="#7AD15C"/>
<path d="M1523.33 333.082H1526.67V336.093H1523.33V333.082Z" fill="#7AD15C"/>
<path d="M1493.31 342.121H1496.64V345.133H1493.31V342.121Z" fill="#7AD15C"/>
<path d="M1503.32 342.121H1506.65V345.133H1503.32V342.121Z" fill="#7AD15C"/>
<path d="M1513.32 342.121H1516.66V345.133H1513.32V342.121Z" fill="#7AD15C"/>
<path d="M1523.33 342.121H1526.67V345.133H1523.33V342.121Z" fill="#7AD15C"/>
<path d="M1493.31 351.158H1496.64V354.17H1493.31V351.158Z" fill="#7AD15C"/>
<path d="M1503.32 351.158H1506.65V354.17H1503.32V351.158Z" fill="#7AD15C"/>
<path d="M1513.32 351.158H1516.66V354.17H1513.32V351.158Z" fill="#7AD15C"/>
<path d="M1523.33 351.158H1526.67V354.17H1523.33V351.158Z" fill="#7AD15C"/>
<path d="M1533.34 305.968H1536.68V308.979H1533.34V305.968Z" fill="#7AD15C"/>
<path d="M1533.34 315.007H1536.68V318.019H1533.34V315.007Z" fill="#7AD15C"/>
<path d="M1533.34 324.044H1536.68V327.056H1533.34V324.044Z" fill="#7AD15C"/>
<path d="M1533.34 333.082H1536.68V336.093H1533.34V333.082Z" fill="#7AD15C"/>
<path d="M1533.34 342.121H1536.68V345.133H1533.34V342.121Z" fill="#7AD15C"/>
<path d="M1533.34 351.158H1536.68V354.17H1533.34V351.158Z" fill="#7AD15C"/>
<path d="M1493.31 360.195H1496.64V363.207H1493.31V360.195Z" fill="#7AD15C"/>
<path d="M1503.32 360.195H1506.65V363.207H1503.32V360.195Z" fill="#7AD15C"/>
<path d="M1513.32 360.195H1516.66V363.207H1513.32V360.195Z" fill="#7AD15C"/>
<path d="M1523.33 360.195H1526.67V363.207H1523.33V360.195Z" fill="#7AD15C"/>
<path d="M1493.31 369.235H1496.64V372.247H1493.31V369.235Z" fill="#7AD15C"/>
<path d="M1503.32 369.235H1506.65V372.247H1503.32V369.235Z" fill="#7AD15C"/>
<path d="M1513.32 369.235H1516.66V372.247H1513.32V369.235Z" fill="#7AD15C"/>
<path d="M1523.33 369.235H1526.67V372.247H1523.33V369.235Z" fill="#7AD15C"/>
<path d="M1493.31 378.272H1496.64V381.284H1493.31V378.272Z" fill="#7AD15C"/>
<path d="M1503.32 378.272H1506.65V381.284H1503.32V378.272Z" fill="#7AD15C"/>
<path d="M1513.32 378.272H1516.66V381.284H1513.32V378.272Z" fill="#7AD15C"/>
<path d="M1523.33 378.272H1526.67V381.284H1523.33V378.272Z" fill="#7AD15C"/>
<path d="M1493.31 387.312H1496.64V390.323H1493.31V387.312Z" fill="#7AD15C"/>
<path d="M1503.32 387.312H1506.65V390.323H1503.32V387.312Z" fill="#7AD15C"/>
<path d="M1513.32 387.312H1516.66V390.323H1513.32V387.312Z" fill="#7AD15C"/>
<path d="M1523.33 387.312H1526.67V390.323H1523.33V387.312Z" fill="#7AD15C"/>
<path d="M1493.31 396.349H1496.64V399.361H1493.31V396.349Z" fill="#7AD15C"/>
<path d="M1503.32 396.349H1506.65V399.361H1503.32V396.349Z" fill="#7AD15C"/>
<path d="M1513.32 396.349H1516.66V399.361H1513.32V396.349Z" fill="#7AD15C"/>
<path d="M1523.33 396.349H1526.67V399.361H1523.33V396.349Z" fill="#7AD15C"/>
<path d="M1493.31 405.386H1496.64V408.397H1493.31V405.386Z" fill="#7AD15C"/>
<path d="M1503.32 405.386H1506.65V408.397H1503.32V405.386Z" fill="#7AD15C"/>
<path d="M1513.32 405.386H1516.66V408.397H1513.32V405.386Z" fill="#7AD15C"/>
<path d="M1523.33 405.386H1526.67V408.397H1523.33V405.386Z" fill="#7AD15C"/>
<path d="M1493.31 414.426H1496.64V417.437H1493.31V414.426Z" fill="#7AD15C"/>
<path d="M1503.32 414.426H1506.65V417.437H1503.32V414.426Z" fill="#7AD15C"/>
<path d="M1513.32 414.426H1516.66V417.437H1513.32V414.426Z" fill="#7AD15C"/>
<path d="M1523.33 414.426H1526.67V417.437H1523.33V414.426Z" fill="#7AD15C"/>
<path d="M1533.34 360.195H1536.68V363.207H1533.34V360.195Z" fill="#7AD15C"/>
<path d="M1533.34 369.235H1536.68V372.246H1533.34V369.235Z" fill="#7AD15C"/>
<path d="M1533.34 378.272H1536.68V381.284H1533.34V378.272Z" fill="#7AD15C"/>
<path d="M1533.34 387.312H1536.68V390.323H1533.34V387.312Z" fill="#7AD15C"/>
<path d="M1533.34 396.349H1536.68V399.36H1533.34V396.349Z" fill="#7AD15C"/>
<path d="M1533.34 405.386H1536.68V408.397H1533.34V405.386Z" fill="#7AD15C"/>
<path d="M1533.34 414.426H1536.68V417.437H1533.34V414.426Z" fill="#7AD15C"/>
<path d="M1493.31 414.426H1496.64V417.437H1493.31V414.426Z" fill="#7AD15C"/>
<path d="M1503.32 414.426H1506.65V417.437H1503.32V414.426Z" fill="#7AD15C"/>
<path d="M1513.32 414.426H1516.66V417.437H1513.32V414.426Z" fill="#7AD15C"/>
<path d="M1523.33 414.426H1526.67V417.437H1523.33V414.426Z" fill="#7AD15C"/>
<path d="M1493.31 423.463H1496.64V426.475H1493.31V423.463Z" fill="#7AD15C"/>
<path d="M1503.32 423.463H1506.65V426.475H1503.32V423.463Z" fill="#7AD15C"/>
<path d="M1513.32 423.463H1516.66V426.475H1513.32V423.463Z" fill="#7AD15C"/>
<path d="M1523.33 423.463H1526.67V426.475H1523.33V423.463Z" fill="#7AD15C"/>
<path d="M1493.31 432.503H1496.64V435.514H1493.31V432.503Z" fill="#7AD15C"/>
<path d="M1503.32 432.503H1506.65V435.514H1503.32V432.503Z" fill="#7AD15C"/>
<path d="M1513.32 432.503H1516.66V435.514H1513.32V432.503Z" fill="#7AD15C"/>
<path d="M1523.33 432.503H1526.67V435.514H1523.33V432.503Z" fill="#7AD15C"/>
<path d="M1493.31 441.54H1496.64V444.551H1493.31V441.54Z" fill="#7AD15C"/>
<path d="M1503.32 441.54H1506.65V444.551H1503.32V441.54Z" fill="#7AD15C"/>
<path d="M1513.32 441.54H1516.66V444.551H1513.32V441.54Z" fill="#7AD15C"/>
<path d="M1523.33 441.54H1526.67V444.551H1523.33V441.54Z" fill="#7AD15C"/>
<path d="M1493.31 450.577H1496.64V453.588H1493.31V450.577Z" fill="#7AD15C"/>
<path d="M1503.32 450.577H1506.65V453.588H1503.32V450.577Z" fill="#7AD15C"/>
<path d="M1513.32 450.577H1516.66V453.588H1513.32V450.577Z" fill="#7AD15C"/>
<path d="M1523.33 450.577H1526.67V453.588H1523.33V450.577Z" fill="#7AD15C"/>
<path d="M1493.31 459.616H1496.64V462.628H1493.31V459.616Z" fill="#7AD15C"/>
<path d="M1503.32 459.616H1506.65V462.628H1503.32V459.616Z" fill="#7AD15C"/>
<path d="M1513.32 459.616H1516.66V462.628H1513.32V459.616Z" fill="#7AD15C"/>
<path d="M1523.33 459.616H1526.67V462.628H1523.33V459.616Z" fill="#7AD15C"/>
<path d="M1533.34 414.426H1536.68V417.437H1533.34V414.426Z" fill="#7AD15C"/>
<path d="M1533.34 423.463H1536.68V426.474H1533.34V423.463Z" fill="#7AD15C"/>
<path d="M1533.34 432.503H1536.68V435.514H1533.34V432.503Z" fill="#7AD15C"/>
<path d="M1533.34 441.54H1536.68V444.551H1533.34V441.54Z" fill="#7AD15C"/>
<path d="M1533.34 450.577H1536.68V453.588H1533.34V450.577Z" fill="#7AD15C"/>
<path d="M1533.34 459.616H1536.68V462.628H1533.34V459.616Z" fill="#7AD15C"/>
<path d="M1493.31 468.654H1496.64V471.665H1493.31V468.654Z" fill="#7AD15C"/>
<path d="M1503.32 468.654H1506.65V471.665H1503.32V468.654Z" fill="#7AD15C"/>
<path d="M1513.32 468.654H1516.66V471.665H1513.32V468.654Z" fill="#7AD15C"/>
<path d="M1523.33 468.654H1526.67V471.666H1523.33V468.654Z" fill="#7AD15C"/>
<path d="M1493.31 477.691H1496.64V480.703H1493.31V477.691Z" fill="#7AD15C"/>
<path d="M1503.32 477.691H1506.65V480.703H1503.32V477.691Z" fill="#7AD15C"/>
<path d="M1513.32 477.691H1516.66V480.703H1513.32V477.691Z" fill="#7AD15C"/>
<path d="M1523.33 477.691H1526.67V480.703H1523.33V477.691Z" fill="#7AD15C"/>
<path d="M1493.31 486.731H1496.64V489.742H1493.31V486.731Z" fill="#7AD15C"/>
<path d="M1503.32 486.731H1506.65V489.742H1503.32V486.731Z" fill="#7AD15C"/>
<path d="M1513.32 486.731H1516.66V489.742H1513.32V486.731Z" fill="#7AD15C"/>
<path d="M1523.33 486.731H1526.67V489.742H1523.33V486.731Z" fill="#7AD15C"/>
<path d="M1493.31 495.768H1496.64V498.78H1493.31V495.768Z" fill="#7AD15C"/>
<path d="M1503.32 495.768H1506.65V498.78H1503.32V495.768Z" fill="#7AD15C"/>
<path d="M1513.32 495.768H1516.66V498.78H1513.32V495.768Z" fill="#7AD15C"/>
<path d="M1523.33 495.768H1526.67V498.78H1523.33V495.768Z" fill="#7AD15C"/>
<path d="M1533.34 468.654H1536.68V471.666H1533.34V468.654Z" fill="#7AD15C"/>
<path d="M1533.34 477.691H1536.68V480.702H1533.34V477.691Z" fill="#7AD15C"/>
<path d="M1533.34 486.731H1536.68V489.742H1533.34V486.731Z" fill="#7AD15C"/>
<path d="M1533.34 495.768H1536.68V498.779H1533.34V495.768Z" fill="#7AD15C"/>
<path d="M193.877 419.351C200.095 419.351 205.893 421.156 210.872 424.241C212.163 406.389 226.484 392.312 243.998 392.312C258.035 392.312 270.015 401.359 274.896 414.137C280.777 408.682 288.512 405.335 297.016 405.335C314.221 405.335 328.374 418.91 330.093 436.312C335.652 431.972 342.541 429.369 350.031 429.369C368.396 429.369 383.285 444.835 383.285 463.915C383.285 464.167 383.253 464.412 383.248 464.661C387.512 462.596 392.249 461.412 397.261 461.412C415.264 461.412 429.889 476.284 430.461 494.841C436.545 487.856 449.425 482.743 466.178 487.474C478.642 490.992 488.35 500.419 488.35 519.498V531.214H160.621V453.899C160.621 434.817 175.509 419.351 193.877 419.351Z" fill="#8BDF6F"/>
<path d="M45.9434 379.51C45.0798 377.638 44.5955 375.554 44.5955 373.357C44.5955 368.9 46.5843 364.912 49.7206 362.216C51.0294 361.091 51.4673 359.197 50.6307 357.688C49.8625 356.303 49.4173 354.715 49.3977 353.022C49.339 347.704 53.6984 343.156 59.0193 343.004C64.624 342.845 69.2182 347.339 69.2182 352.907C69.2182 354.644 68.768 356.271 67.9827 357.688C67.1461 359.195 67.5864 361.088 68.8952 362.211C72.0315 364.905 74.0181 368.892 74.0181 373.35C74.0181 375.549 73.5336 377.634 72.67 379.508C72.0976 380.748 72.2346 382.206 73.0664 383.292C75.503 386.475 76.8582 390.529 76.5842 394.905C76.0412 403.598 68.8513 410.67 60.152 411.081C50.2099 411.554 41.9998 403.632 41.9998 393.795C41.9998 389.827 43.3355 386.172 45.5813 383.253C46.4009 382.189 46.5085 380.736 45.9434 379.51Z" fill="#5FB641"/>
<path d="M121.832 389.428C121.712 388.613 121.688 387.769 121.771 386.903C122.231 382.089 126.077 378.177 130.884 377.646C137.122 376.956 142.401 381.822 142.401 387.919C142.401 388.315 142.379 388.706 142.335 389.093C141.91 392.853 142.323 396.694 143.852 400.158C144.659 401.988 145.053 404.038 144.914 406.196C144.503 412.571 139.351 417.751 132.975 418.188C125.45 418.707 119.183 412.757 119.183 405.345C119.183 403.51 119.567 401.763 120.259 400.183C121.741 396.806 122.365 393.076 121.832 389.428Z" fill="#2E7217"/>
<path d="M131.769 391.207H133.682V463.927H131.769V391.207Z" fill="#459C27"/>
<path d="M82.5004 385.559C82.3439 384.488 82.3121 383.374 82.4197 382.237C83.024 375.898 88.0856 370.751 94.4144 370.051C102.624 369.143 109.572 375.546 109.572 383.573C109.572 384.094 109.543 384.61 109.487 385.116C108.926 390.068 109.472 395.122 111.483 399.68C112.544 402.087 113.063 404.788 112.88 407.628C112.339 416.02 105.555 422.836 97.1666 423.415C87.2612 424.098 79.0118 416.267 79.0118 406.508C79.0118 404.091 79.5183 401.794 80.4308 399.714C82.383 395.271 83.205 390.361 82.5004 385.559Z" fill="#8BDF6F"/>
<path d="M95.9287 387.812H97.8418V443.31H95.9287V387.812Z" fill="#459C27"/>
<path d="M59.0342 375.899H60.9473V434.266H59.0342V375.899Z" fill="#459C27"/>
<path d="M1611.68 566.356H1546.21V293.435L1611.68 251.045V566.356Z" fill="#5FB641"/>
<path d="M1611.98 251.045H1677.46V566.356H1611.98V251.045Z" fill="#459C27"/>
<path d="M1546.21 310.658H1611.68V313.503H1546.21V310.658Z" fill="#459C27"/>
<path d="M1546.21 327.881H1611.68V330.726H1546.21V327.881Z" fill="#459C27"/>
<path d="M1546.21 345.104H1611.68V347.949H1546.21V345.104Z" fill="#459C27"/>
<path d="M1546.21 362.327H1611.68V365.172H1546.21V362.327Z" fill="#459C27"/>
<path d="M1546.21 379.55H1611.68V382.395H1546.21V379.55Z" fill="#459C27"/>
<path d="M1546.21 396.775H1611.68V399.62H1546.21V396.775Z" fill="#459C27"/>
<path d="M1546.21 413.998H1611.68V416.843H1546.21V413.998Z" fill="#459C27"/>
<path d="M1546.21 431.221H1611.68V434.066H1546.21V431.221Z" fill="#459C27"/>
<path d="M1546.21 448.444H1611.68V451.289H1546.21V448.444Z" fill="#459C27"/>
<path d="M1546.21 465.667H1611.68V468.512H1546.21V465.667Z" fill="#459C27"/>
<path d="M1546.21 482.89H1611.68V485.735H1546.21V482.89Z" fill="#459C27"/>
<path d="M1546.21 500.113H1611.68V502.958H1546.21V500.113Z" fill="#459C27"/>
<path d="M1546.21 517.336H1611.68V520.181H1546.21V517.336Z" fill="#459C27"/>
<path d="M1546.21 534.559H1611.68V537.404H1546.21V534.559Z" fill="#459C27"/>
<path d="M1546.21 551.785H1611.68V554.63H1546.21V551.785Z" fill="#459C27"/>
<path d="M1546.21 293.435H1611.68V296.28H1546.21V293.435Z" fill="#459C27"/>
<path d="M1611.68 293.435H1677.16V296.28H1611.68V293.435Z" fill="#2E7217"/>
<path d="M1611.68 310.658H1677.16V313.503H1611.68V310.658Z" fill="#2E7217"/>
<path d="M1611.68 327.881H1677.16V330.726H1611.68V327.881Z" fill="#2E7217"/>
<path d="M1611.68 345.104H1677.16V347.949H1611.68V345.104Z" fill="#2E7217"/>
<path d="M1611.68 362.327H1677.16V365.172H1611.68V362.327Z" fill="#2E7217"/>
<path d="M1611.68 379.55H1677.16V382.395H1611.68V379.55Z" fill="#2E7217"/>
<path d="M1611.68 396.775H1677.16V399.62H1611.68V396.775Z" fill="#2E7217"/>
<path d="M1611.68 413.998H1677.16V416.843H1611.68V413.998Z" fill="#2E7217"/>
<path d="M1611.68 431.221H1677.16V434.066H1611.68V431.221Z" fill="#2E7217"/>
<path d="M1611.68 448.444H1677.16V451.289H1611.68V448.444Z" fill="#2E7217"/>
<path d="M1611.68 465.667H1677.16V468.513H1611.68V465.667Z" fill="#2E7217"/>
<path d="M1611.68 482.89H1677.16V485.735H1611.68V482.89Z" fill="#2E7217"/>
<path d="M1611.68 500.113H1677.16V502.958H1611.68V500.113Z" fill="#2E7217"/>
<path d="M1611.68 517.336H1677.16V520.181H1611.68V517.336Z" fill="#2E7217"/>
<path d="M1611.68 534.559H1677.16V537.404H1611.68V534.559Z" fill="#2E7217"/>
<path d="M1611.68 551.784H1677.16V554.629H1611.68V551.784Z" fill="#2E7217"/>
<path d="M1879.46 158.579H1919.54V533.292H1879.46V158.579Z" fill="#2E7217"/>
<path d="M1879.46 182.197H1919.37V189.14H1879.46V182.197Z" fill="#459C27"/>
<path d="M1879.46 205.812H1919.37V212.756H1879.46V205.812Z" fill="#459C27"/>
<path d="M1879.46 229.43H1919.37V236.373H1879.46V229.43Z" fill="#459C27"/>
<path d="M1879.46 253.048H1919.37V259.991H1879.46V253.048Z" fill="#459C27"/>
<path d="M1879.46 276.664H1919.37V283.607H1879.46V276.664Z" fill="#459C27"/>
<path d="M1879.46 300.282H1919.37V307.225H1879.46V300.282Z" fill="#459C27"/>
<path d="M1879.46 323.897H1919.37V330.84H1879.46V323.897Z" fill="#459C27"/>
<path d="M1879.46 347.516H1919.37V354.459H1879.46V347.516Z" fill="#459C27"/>
<path d="M1879.46 371.134H1919.37V378.077H1879.46V371.134Z" fill="#459C27"/>
<path d="M1879.46 394.749H1919.37V401.692H1879.46V394.749Z" fill="#459C27"/>
<path d="M1879.46 418.367H1919.37V425.31H1879.46V418.367Z" fill="#459C27"/>
<path d="M1879.46 441.982H1919.37V448.925H1879.46V441.982Z" fill="#459C27"/>
<path d="M1824.92 158.579H1879.46V533.292H1814.92V168.579C1814.92 163.056 1819.4 158.579 1824.92 158.579Z" fill="#A4E38E"/>
<path d="M1842.13 182.197H1854.46V189.14H1842.13V182.197Z" fill="#7AD15C"/>
<path d="M1859.59 182.197H1871.91V189.14H1859.59V182.197Z" fill="#7AD15C"/>
<path d="M1824.66 182.197H1836.99V189.14H1824.66V182.197Z" fill="#7AD15C"/>
<path d="M1859.59 205.812H1871.91V212.756H1859.59V205.812Z" fill="#7AD15C"/>
<path d="M1824.66 205.812H1836.99V212.756H1824.66V205.812Z" fill="#7AD15C"/>
<path d="M1842.13 205.812H1854.46V212.756H1842.13V205.812Z" fill="#7AD15C"/>
<path d="M1859.59 229.43H1871.91V236.373H1859.59V229.43Z" fill="#7AD15C"/>
<path d="M1824.66 229.43H1836.99V236.373H1824.66V229.43Z" fill="#7AD15C"/>
<path d="M1842.13 229.43H1854.46V236.373H1842.13V229.43Z" fill="#7AD15C"/>
<path d="M1824.66 253.049H1836.99V259.992H1824.66V253.049Z" fill="#7AD15C"/>
<path d="M1859.59 253.049H1871.91V259.992H1859.59V253.049Z" fill="#7AD15C"/>
<path d="M1842.13 253.049H1854.46V259.992H1842.13V253.049Z" fill="#7AD15C"/>
<path d="M1842.13 276.664H1854.46V283.607H1842.13V276.664Z" fill="#7AD15C"/>
<path d="M1859.59 276.664H1871.91V283.607H1859.59V276.664Z" fill="#7AD15C"/>
<path d="M1824.66 276.664H1836.99V283.607H1824.66V276.664Z" fill="#7AD15C"/>
<path d="M1824.66 300.282H1836.99V307.225H1824.66V300.282Z" fill="#7AD15C"/>
<path d="M1859.59 300.282H1871.91V307.225H1859.59V300.282Z" fill="#7AD15C"/>
<path d="M1842.13 300.282H1854.46V307.225H1842.13V300.282Z" fill="#7AD15C"/>
<path d="M1824.66 323.897H1836.99V330.84H1824.66V323.897Z" fill="#7AD15C"/>
<path d="M1842.13 323.897H1854.46V330.84H1842.13V323.897Z" fill="#7AD15C"/>
<path d="M1859.59 323.897H1871.91V330.84H1859.59V323.897Z" fill="#7AD15C"/>
<path d="M1824.66 347.516H1836.99V354.459H1824.66V347.516Z" fill="#7AD15C"/>
<path d="M1859.59 347.516H1871.91V354.459H1859.59V347.516Z" fill="#7AD15C"/>
<path d="M1842.13 347.516H1854.46V354.459H1842.13V347.516Z" fill="#7AD15C"/>
<path d="M1859.59 371.134H1871.91V378.077H1859.59V371.134Z" fill="#7AD15C"/>
<path d="M1842.13 371.134H1854.46V378.077H1842.13V371.134Z" fill="#7AD15C"/>
<path d="M1824.66 371.134H1836.99V378.077H1824.66V371.134Z" fill="#7AD15C"/>
<path d="M1842.13 394.749H1854.46V401.692H1842.13V394.749Z" fill="#7AD15C"/>
<path d="M1824.66 394.749H1836.99V401.692H1824.66V394.749Z" fill="#7AD15C"/>
<path d="M1859.59 394.749H1871.91V401.692H1859.59V394.749Z" fill="#7AD15C"/>
<path d="M1859.59 418.367H1871.91V425.31H1859.59V418.367Z" fill="#7AD15C"/>
<path d="M1842.13 418.367H1854.46V425.31H1842.13V418.367Z" fill="#7AD15C"/>
<path d="M1824.66 418.367H1836.99V425.31H1824.66V418.367Z" fill="#7AD15C"/>
<path d="M1824.66 441.985H1836.99V448.928H1824.66V441.985Z" fill="#7AD15C"/>
<path d="M1859.59 441.985H1871.91V448.928H1859.59V441.985Z" fill="#7AD15C"/>
<path d="M1842.13 441.985H1854.46V448.928H1842.13V441.985Z" fill="#7AD15C"/>
<path d="M1762.47 220.494C1762.47 221.945 1763.64 223.121 1765.1 223.121V223.121C1766.55 223.121 1767.72 224.298 1767.72 225.749V590.777C1767.72 596.3 1763.25 600.777 1757.72 600.777H1687.72C1682.19 600.777 1677.72 596.3 1677.72 590.777V223.25C1677.72 223.179 1677.66 223.121 1677.59 223.121V223.121C1677.52 223.121 1677.46 223.064 1677.46 222.993V214.627C1677.46 209.936 1681.26 206.133 1685.95 206.133H1753.97C1758.66 206.133 1762.47 209.936 1762.47 214.627V220.494Z" fill="#7AD15C"/>
<path d="M1762.47 223.121V223.121C1765.37 223.121 1767.72 225.474 1767.72 228.376V555.773C1767.72 580.628 1747.57 600.777 1722.72 600.777V600.777C1697.86 600.777 1677.72 580.628 1677.72 555.773V228.374C1677.72 225.473 1680.07 223.121 1682.97 223.121V223.121H1762.47Z" fill="#A4E38E"/>
<path d="M1713.14 206.133H1814.92V600.777H1713.14V206.133Z" fill="#358B17"/>
<path d="M1713.14 206.133H1814.92V223.121H1713.14V206.133Z" fill="#459C27"/>
<path d="M1786.49 246.994H1795.84V264.537H1786.49V246.994Z" fill="#7AD15C"/>
<path d="M1768.4 246.994H1777.75V264.537H1768.4V246.994Z" fill="#7AD15C"/>
<path d="M1750.31 246.994H1759.66V264.537H1750.31V246.994Z" fill="#7AD15C"/>
<path d="M1732.22 246.994H1741.57V264.537H1732.22V246.994Z" fill="#7AD15C"/>
<path d="M1786.49 277.286H1795.84V294.829H1786.49V277.286Z" fill="#7AD15C"/>
<path d="M1768.4 277.286H1777.75V294.829H1768.4V277.286Z" fill="#7AD15C"/>
<path d="M1750.31 277.286H1759.66V294.829H1750.31V277.286Z" fill="#7AD15C"/>
<path d="M1732.22 277.286H1741.57V294.829H1732.22V277.286Z" fill="#7AD15C"/>
<path d="M1786.49 307.58H1795.84V325.123H1786.49V307.58Z" fill="#7AD15C"/>
<path d="M1768.4 307.58H1777.75V325.123H1768.4V307.58Z" fill="#7AD15C"/>
<path d="M1750.31 307.58H1759.66V325.123H1750.31V307.58Z" fill="#7AD15C"/>
<path d="M1732.22 307.58H1741.57V325.123H1732.22V307.58Z" fill="#7AD15C"/>
<path d="M1786.49 337.872H1795.84V355.416H1786.49V337.872Z" fill="#7AD15C"/>
<path d="M1768.4 337.872H1777.75V355.416H1768.4V337.872Z" fill="#7AD15C"/>
<path d="M1750.31 337.872H1759.66V355.416H1750.31V337.872Z" fill="#7AD15C"/>
<path d="M1732.22 337.872H1741.57V355.416H1732.22V337.872Z" fill="#7AD15C"/>
<path d="M1889.14 415.022L1858.73 446.613H1762.98L1793.39 415.022H1889.14Z" fill="#2E7217"/>
<path d="M1919.56 446.591V546.788H1858.65V446.591L1889.11 415L1919.56 446.591Z" fill="#7AD15C"/>
<path d="M1762.98 446.613H1858.73V565.586H1762.98V446.613Z" fill="#5FB641"/>
<path d="M1828.41 461.328H1835.43V466.145H1828.41V461.328Z" fill="#8ACE73"/>
<path d="M1828.41 475.779H1835.43V480.596H1828.41V475.779Z" fill="#8ACE73"/>
<path d="M1807.35 461.328H1814.37V466.145H1807.35V461.328Z" fill="#8ACE73"/>
<path d="M1807.35 475.779H1814.37V480.596H1807.35V475.779Z" fill="#8ACE73"/>
<path d="M1786.28 461.328H1793.3V466.145H1786.28V461.328Z" fill="#8ACE73"/>
<path d="M1786.28 475.779H1793.3V480.596H1786.28V475.779Z" fill="#8ACE73"/>
<path d="M1828.41 490.23H1835.43V495.048H1828.41V490.23Z" fill="#8ACE73"/>
<path d="M1807.35 490.23H1814.37V495.048H1807.35V490.23Z" fill="#8ACE73"/>
<path d="M1786.28 490.23H1793.3V495.048H1786.28V490.23Z" fill="#8ACE73"/>
<path d="M1896.16 461.328H1903.18V466.145H1896.16V461.328Z" fill="#5FB641"/>
<path d="M1896.16 475.779H1903.18V480.596H1896.16V475.779Z" fill="#5FB641"/>
<path d="M1875.09 461.328H1882.12V466.145H1875.09V461.328Z" fill="#5FB641"/>
<path d="M1875.09 475.779H1882.12V480.596H1875.09V475.779Z" fill="#5FB641"/>
<path d="M1896.16 490.23H1903.18V495.048H1896.16V490.23Z" fill="#5FB641"/>
<path d="M1875.09 490.23H1882.12V495.048H1875.09V490.23Z" fill="#5FB641"/>
<path d="M1677.34 444.959H1522.17L1495 402.271H1650.17L1677.34 444.959Z" fill="#2A6117"/>
<path d="M1522.03 444.959V559.037H1467.72V444.959L1494.87 402.271L1522.03 444.959Z" fill="#8BDF6E"/>
<path d="M1522.17 444.958H1677.34V559.142H1522.17V444.958Z" fill="#5FB641"/>
<path d="M1523.86 526.946C1543.91 520.588 1564.53 528.363 1585 524.011C1613.17 518.022 1629.02 493.685 1652.98 487.816C1680.96 480.963 1688.78 494.448 1711.74 488.735C1727.64 484.777 1742.81 464.75 1776.97 475.884V590.777H1535.14H1446.87C1474.7 580.218 1463.74 546.009 1523.86 526.946Z" fill="#2E7217"/>
<path d="M1315.79 479.475C1316.96 473.516 1323.69 473.506 1324.87 479.46L1336.23 540.959C1337.26 546.559 1333.81 551.892 1329.14 551.892H1310.82C1306.12 551.892 1302.65 546.473 1303.75 540.844L1315.79 479.475Z" fill="#2E7217"/>
<path d="M1319.25 492.505H1321.37V575.307H1319.25V492.505Z" fill="#2A6117"/>
<path d="M1319.25 517.913V511.027L1324.34 501.124L1326.23 502.095L1321.37 511.541V524L1312.47 512.798L1314.13 511.477L1319.25 517.913Z" fill="#2A6117"/>
<path d="M1270.3 469.475C1271.47 463.516 1278.2 463.506 1279.38 469.46L1290.74 530.959C1291.77 536.559 1288.32 541.892 1283.65 541.892H1265.33C1260.62 541.892 1257.16 536.473 1258.26 530.844L1270.3 469.475Z" fill="#358B17"/>
<path d="M1273.76 482.505H1275.88V565.307H1273.76V482.505Z" fill="#2A6117"/>
<path d="M1273.76 507.913V501.027L1278.85 491.124L1280.74 492.095L1275.88 501.541V514L1266.98 502.798L1268.64 501.477L1273.76 507.913Z" fill="#2A6117"/>
<path d="M444.645 465.009C444.645 482.134 432.322 496.017 432.322 496.017C432.322 496.017 420 482.134 420 465.009C420 447.884 432.322 434 432.322 434C432.322 434 444.645 447.881 444.645 465.009Z" fill="#5FB641"/>
<path d="M431.366 459.551H433.279V500.693H431.366V459.551Z" fill="#459C27"/>
<path d="M432.323 470.383L436.183 466.437L437.551 467.775L432.323 473.118L427.095 467.775L428.462 466.437L432.323 470.383Z" fill="#459C27"/>
<path d="M480.383 481.39C480.383 496.519 469.499 508.781 469.499 508.781C469.499 508.781 458.615 496.517 458.615 481.39C458.615 466.264 469.499 454 469.499 454C469.499 454 480.383 466.262 480.383 481.39Z" fill="#2E7217"/>
<path d="M463.951 463.009C463.951 480.136 451.629 494.02 451.629 494.02C451.629 494.02 439.306 480.136 439.306 463.009C439.306 445.884 451.629 432 451.629 432C451.629 432 463.951 445.884 463.951 463.009Z" fill="#8BDF6F"/>
<path d="M450.671 459.231H452.584V511.289H450.671V459.231Z" fill="#459C27"/>
<path d="M468.542 475.513H470.455V515.395H468.542V475.513Z" fill="#2A6117"/>
<path d="M304.496 422.118C307.378 426.084 309.949 431.182 309.949 436.743C309.949 449.384 296.663 459.629 296.663 459.629C296.663 459.629 283.377 449.384 283.377 436.743C283.377 431.182 285.948 426.084 288.83 422.118C292.685 416.812 300.643 416.812 304.496 422.118Z" fill="#79D15B"/>
<path d="M295.708 433.956H297.621V472.375H295.708V433.956Z" fill="#459C27"/>
<path d="M283.119 411.98C286.001 415.945 288.572 421.044 288.572 426.605C288.572 439.245 275.286 449.491 275.286 449.491C275.286 449.491 262 439.245 262 426.605C262 421.044 264.571 415.945 267.453 411.98C271.306 406.673 279.264 406.673 283.119 411.98Z" fill="#5FB641"/>
<path d="M274.329 423.818H276.242V462.237H274.329V423.818Z" fill="#459C27"/>
<path fill-rule="evenodd" clip-rule="evenodd" d="M592.891 510.37C576.021 503.945 560.32 497.965 532.609 505.547C519.259 509.2 497.575 536.724 478.094 561.45C463.934 579.424 450.937 595.92 443.152 600.697V629.765L1124.97 645.229V643.625L1125.28 652.274H1534.59H1590.22C1575.57 647.986 1552.5 638.587 1530.92 629.797C1508.17 620.532 1487.09 611.944 1479.28 610.726C1451.94 606.466 1438.79 608.371 1427.6 609.991C1416.87 611.545 1407.95 612.836 1390.07 608.172C1370.07 602.958 1362.54 594.834 1354.33 585.972C1346.68 577.724 1338.45 568.835 1319.01 561.059C1297.7 552.529 1285.71 555.859 1268.8 560.558C1261.38 562.618 1253.02 564.941 1242.51 566.644C1240.03 567.045 1237.7 567.622 1235.4 568.193C1224.2 570.969 1213.5 573.621 1188.5 555.431C1159.32 534.204 1124.01 559.579 1122.08 560.997C1092.27 557.263 1050.38 555.286 1021.75 561.407C993.244 567.498 981.885 573.105 972.029 577.971C961.087 583.372 951.998 587.859 923.362 591.077C900.337 593.664 883.168 587.396 865.588 580.976C844.586 573.308 822.997 565.425 790.134 572.169C754.602 579.46 736.735 562.659 718.916 545.904C702.18 530.166 685.486 514.468 654.236 518.812C625.532 522.802 608.698 516.391 592.891 510.37Z" fill="#8BDF6F"/>
<path d="M1227.29 520.308C1227.29 543.121 1213.96 561.617 1213.96 561.617C1213.96 561.617 1200.63 543.121 1200.63 520.308C1200.63 497.495 1213.96 479 1213.96 479C1213.96 479 1227.29 497.493 1227.29 520.308Z" fill="#2E7217"/>
<path d="M1212.9 515.273H1215.02V611.269H1212.9V515.273Z" fill="#459C27"/>
<path d="M1193.92 530.308C1193.92 553.121 1180.59 571.616 1180.59 571.616C1180.59 571.616 1167.26 553.121 1167.26 530.308C1167.26 507.495 1180.59 489 1180.59 489C1180.59 489 1193.92 507.493 1193.92 530.308Z" fill="#5FB641"/>
<path d="M1179.53 525.273H1181.65V621.269H1179.53V525.273Z" fill="#459C27"/>
<path d="M1160.55 540.308C1160.55 563.121 1147.22 581.616 1147.22 581.616C1147.22 581.616 1133.9 563.121 1133.9 540.308C1133.9 517.495 1147.22 499 1147.22 499C1147.22 499 1160.55 517.493 1160.55 540.308Z" fill="#5FB641"/>
<path d="M1146.16 535.273H1148.29V631.269H1146.16V535.273Z" fill="#459C27"/>
<path d="M834.842 577.937C834.842 598.337 820.163 614.873 820.163 614.873C820.163 614.873 805.485 598.335 805.485 577.937C805.485 557.536 820.163 541 820.163 541C820.163 541 834.842 557.536 834.842 577.937Z" fill="#2E7217"/>
<path d="M818.989 573.435H821.34V635.443H818.989V573.435Z" fill="#459C27"/>
<path d="M798.098 567.937C798.098 588.337 783.419 604.873 783.419 604.873C783.419 604.873 768.741 588.335 768.741 567.937C768.741 547.536 783.419 531 783.419 531C783.419 531 798.098 547.536 798.098 567.937Z" fill="#5FB641"/>
<path d="M782.245 563.435H784.596V625.443H782.245V563.435Z" fill="#459C27"/>
<path d="M761.355 557.937C761.355 578.337 746.677 594.873 746.677 594.873C746.677 594.873 731.999 578.335 731.999 557.937C731.999 537.536 746.677 521 746.677 521C746.677 521 761.355 537.536 761.355 557.937Z" fill="#5FB641"/>
<path d="M745.503 553.435H747.854V615.443H745.503V553.435Z" fill="#459C27"/>
<path d="M974.381 589.223C974.381 611.302 961.481 629.2 961.481 629.2C961.481 629.2 948.581 611.302 948.581 589.223C948.581 567.144 961.481 549.246 961.481 549.246C961.481 549.246 974.381 567.144 974.381 589.223Z" fill="#5FB641"/>
<path d="M960.42 582.187H962.543V648.298H960.42V582.187Z" fill="#459C27"/>
<path d="M943.141 595.952C943.141 618.031 930.241 635.93 930.241 635.93C930.241 635.93 917.341 618.031 917.341 595.952C917.341 573.873 930.241 555.975 930.241 555.975C930.241 555.975 943.141 573.873 943.141 595.952Z" fill="#459C27"/>
<path d="M929.181 595.064H931.305V648.103H929.181V595.064Z" fill="#5FB641"/>
<path d="M913.475 575.88C913.475 604.88 895.029 628.388 895.029 628.388C895.029 628.388 876.583 604.88 876.583 575.88C876.583 546.88 895.029 523.372 895.029 523.372C895.029 523.372 913.475 546.88 913.475 575.88Z" fill="#5FB641"/>
<path d="M893.966 566.637H896.09V636.302H893.966V566.637Z" fill="#459C27"/>
<path d="M1048.86 580.321C1048.86 602.4 1035.96 620.299 1035.96 620.299C1035.96 620.299 1023.06 602.4 1023.06 580.321C1023.06 558.242 1035.96 540.344 1035.96 540.344C1035.96 540.344 1048.86 558.242 1048.86 580.321Z" fill="#459C27"/>
<path d="M1034.9 579.433H1037.02V647.516H1034.9V579.433Z" fill="#2A6117"/>
<path d="M1028.65 565.508C1028.65 594.508 1010.2 618.016 1010.2 618.016C1010.2 618.016 991.755 594.506 991.755 565.508C991.755 536.51 1010.2 513 1010.2 513C1010.2 513 1028.65 536.508 1028.65 565.508Z" fill="#2E7217"/>
<path d="M1009.14 556.268H1011.26V638.613H1009.14V556.268Z" fill="#459C27"/>
<path d="M1369.98 590.777H1370.68C1370.44 590.789 1370.21 590.789 1369.98 590.777Z" fill="#EF810A"/>
<path fill-rule="evenodd" clip-rule="evenodd" d="M1462.84 577.426C1188.92 583.177 975.253 714.511 628.657 571.105C271.874 423.489 0 435.221 0 435.221V822H1920V688.965C1920 688.965 1704.71 572.349 1462.84 577.426Z" fill="#69C04B"/>
<path d="M1566.47 517.985H1452.92L1410.48 474.737H1524.04L1566.47 517.985Z" fill="#2A6117"/>
<path d="M1452.8 517.967V625.414H1368V517.967L1410.4 474.717L1452.8 517.967Z" fill="#A4E38E"/>
<path d="M1488.7 517.984L1467.71 496.587H1509.7L1488.7 517.984Z" fill="#2E7217"/>
<path d="M1509.6 496.597L1530.6 517.996H1566.3V625.415H1452.8V517.996H1488.61L1509.6 496.597Z" fill="#8FDF74"/>
<path fill-rule="evenodd" clip-rule="evenodd" d="M1532.56 535.987V526H1531.03L1527.83 531.766C1527.54 532.304 1527.29 532.939 1527.29 532.939H1527.27C1527.27 532.939 1527.29 532.236 1527.29 531.601V526H1525.72V535.987H1527.18L1530.45 530.068C1530.75 529.516 1530.99 528.895 1530.99 528.895H1531.01C1531.01 528.895 1530.99 529.571 1530.99 530.192V535.985H1532.56V535.987ZM1524.71 535.987L1523.32 532.551C1522.93 531.586 1522.33 530.896 1521.49 530.536L1524.6 526H1522.55L1519.69 530.497H1519.66V526H1517.88V535.987H1519.66V531.325C1520.53 531.325 1521.19 531.96 1521.5 532.788L1522.71 535.988H1524.71V535.987ZM1514.75 533.021C1514.75 534.069 1514.13 534.676 1512.99 534.676C1512.6 534.676 1512.21 534.592 1511.98 534.51V531.49C1512.19 531.435 1512.56 531.378 1512.89 531.378C1514.11 531.38 1514.75 532.001 1514.75 533.021ZM1516.52 533.062C1516.52 531.173 1515.32 529.931 1513.06 529.931C1512.65 529.931 1512.22 529.986 1511.98 530.056V527.628H1515.55V526H1510.27V535.614C1510.92 535.918 1511.98 536.153 1513.01 536.153C1515.38 536.153 1516.52 534.911 1516.52 533.062ZM1509.04 526H1507.16C1506.96 528.055 1506.4 529.917 1505.72 531.531H1505.7C1504.89 529.89 1504.24 528.041 1504 526H1502.13C1502.39 528.552 1503.46 531.022 1504.81 533.16L1503.32 535.988H1505.33L1506.81 533.037C1507.84 530.967 1508.81 528.413 1509.04 526ZM1498.86 534.455H1494.82C1495.87 533.213 1496.35 530.703 1496.55 528.703L1496.66 527.598H1498.2L1498.86 534.455ZM1501.23 534.663L1500.59 534.359L1499.74 526H1495.18L1494.9 528.511C1494.66 530.732 1494.14 533.339 1492.56 534.663L1492.66 538H1493.89L1493.94 535.987H1499.87L1499.92 538H1501.14L1501.23 534.663Z" fill="white"/>
<path d="M1378.56 569H1397.56C1398.67 569 1399.56 569.895 1399.56 571V618C1399.56 619.105 1398.67 620 1397.56 620H1378.56C1377.46 620 1376.56 619.105 1376.56 618V571C1376.56 569.895 1377.46 569 1378.56 569Z" fill="#348817"/>
<path d="M1379.56 582H1381.56V595H1379.56" stroke="#BCDFB0" stroke-linecap="round" stroke-linejoin="round"/>
<path d="M1378.06 564H1398.06C1398.89 564 1399.56 564.672 1399.56 565.5C1399.56 566.328 1398.89 567 1398.06 567H1378.06C1377.24 567 1376.56 566.328 1376.56 565.5C1376.56 564.672 1377.24 564 1378.06 564Z" fill="#348817"/>
<path d="M1411.56 545.901H1442.56C1444.22 545.901 1445.56 547.244 1445.56 548.901V575C1445.56 576.657 1444.22 578 1442.56 578H1411.56C1409.91 578 1408.56 576.657 1408.56 575V548.901C1408.56 547.244 1409.91 545.901 1411.56 545.901Z" fill="#88D26E"/>
<path d="M1411.56 580H1442.56C1444.22 580 1445.56 581.343 1445.56 583V594C1445.56 595.657 1444.22 597 1442.56 597H1411.56C1409.91 597 1408.56 595.657 1408.56 594V583C1408.56 581.343 1409.91 580 1411.56 580Z" fill="#88D26E"/>
<path d="M1462.56 546H1487.75C1489.41 546 1490.75 547.343 1490.75 549V594C1490.75 595.657 1489.41 597 1487.75 597H1462.56C1460.91 597 1459.56 595.657 1459.56 594V549C1459.56 547.343 1460.91 546 1462.56 546Z" fill="#63BA45"/>
<path d="M1496.56 546H1522.56C1524.22 546 1525.56 547.343 1525.56 549V594C1525.56 595.657 1524.22 597 1522.56 597H1496.56C1494.91 597 1493.56 595.657 1493.56 594V549C1493.56 547.343 1494.91 546 1496.56 546Z" fill="#63BA45"/>
<path d="M1531.56 546H1556.75C1558.41 546 1559.75 547.343 1559.75 549V594C1559.75 595.657 1558.41 597 1556.75 597H1531.56C1529.91 597 1528.56 595.657 1528.56 594V549C1528.56 547.343 1529.91 546 1531.56 546Z" fill="#63BA45"/>
<path d="M1378.57 522H1453.57C1455.22 522 1456.57 523.343 1456.57 525V539C1456.57 540.657 1455.22 542 1453.57 542H1378.57C1376.91 542 1375.57 540.657 1375.57 539V525C1375.57 523.343 1376.91 522 1378.57 522Z" fill="#348817"/>
<path fill-rule="evenodd" clip-rule="evenodd" d="M1436.56 536.651V525H1434.56L1430.42 531.727C1430.04 532.355 1429.71 533.095 1429.71 533.095H1429.68C1429.68 533.095 1429.71 532.275 1429.71 531.535V525H1427.66V536.651H1429.56L1433.81 529.746C1434.2 529.102 1434.52 528.377 1434.52 528.377H1434.55C1434.55 528.377 1434.52 529.166 1434.52 529.89V536.649H1436.56V536.651ZM1426.35 536.651L1424.54 532.643C1424.03 531.517 1423.27 530.712 1422.17 530.292L1426.22 525H1423.55L1419.82 530.246H1419.79V525H1417.48V536.651H1419.79V531.213C1420.92 531.213 1421.77 531.953 1422.19 532.919L1423.76 536.653H1426.35V536.651ZM1413.41 533.192C1413.41 534.414 1412.61 535.122 1411.11 535.122C1410.61 535.122 1410.1 535.024 1409.8 534.928V531.405C1410.08 531.341 1410.56 531.275 1410.98 531.275C1412.57 531.277 1413.41 532.001 1413.41 533.192ZM1415.71 533.24C1415.71 531.035 1414.15 529.586 1411.21 529.586C1410.67 529.586 1410.11 529.65 1409.8 529.732V526.899H1414.44V525H1407.59V536.217C1408.42 536.571 1409.8 536.845 1411.15 536.845C1414.23 536.845 1415.71 535.396 1415.71 533.24ZM1405.98 525H1403.54C1403.27 527.397 1402.55 529.57 1401.67 531.453H1401.63C1400.59 529.538 1399.75 527.381 1399.44 525H1396.99C1397.34 527.977 1398.73 530.859 1400.49 533.354L1398.55 536.653H1401.16L1403.08 533.21C1404.42 530.794 1405.69 527.815 1405.98 525ZM1392.75 534.864H1387.5C1388.86 533.416 1389.48 530.486 1389.75 528.153L1389.89 526.865H1391.89L1392.75 534.864ZM1395.83 535.106L1394.99 534.752L1393.9 525H1387.96L1387.6 527.929C1387.29 530.52 1386.61 533.562 1384.56 535.106L1384.69 539H1386.29L1386.35 536.651H1394.06L1394.12 539H1395.71L1395.83 535.106Z" fill="#BCDFB0"/>
<path d="M1452.56 522H1556.56C1558.22 522 1559.56 523.343 1559.56 525V539C1559.56 540.657 1558.22 542 1556.56 542H1452.56V522Z" fill="#2A6117"/>
<path fill-rule="evenodd" clip-rule="evenodd" d="M1493.23 529.72V524.094H1488.92V529.72H1490.13V524.995H1492.02V529.72H1493.23ZM1498.55 525.803C1498.55 524.706 1497.7 524 1496.16 524C1495.46 524 1494.85 524.116 1494.38 524.302V529.717H1495.56V527.534C1495.69 527.558 1495.92 527.571 1496.13 527.571C1497.73 527.574 1498.55 526.819 1498.55 525.803ZM1497.37 525.795C1497.37 526.385 1496.91 526.744 1496.07 526.744C1495.87 526.744 1495.68 526.73 1495.56 526.706V524.927C1495.7 524.879 1495.94 524.841 1496.18 524.841C1496.96 524.841 1497.37 525.151 1497.37 525.795ZM1504.02 526.908C1504.02 525.267 1503.25 524 1501.63 524C1500 524 1499.23 525.267 1499.23 526.906C1499.23 528.544 1500 529.811 1501.63 529.811C1503.25 529.814 1504.02 528.547 1504.02 526.908ZM1502.81 526.908C1502.81 528.065 1502.41 528.844 1501.62 528.844C1500.84 528.844 1500.44 528.067 1500.44 526.908C1500.44 525.749 1500.84 524.973 1501.62 524.973C1502.41 524.973 1502.81 525.749 1502.81 526.908ZM1510.55 528.973L1510.11 528.801L1509.54 524.094H1506.45L1506.26 525.509C1506.1 526.76 1505.75 528.229 1504.68 528.976L1504.75 530.857H1505.58L1505.61 529.722H1509.63L1509.66 530.857H1510.49L1510.55 528.973ZM1508.95 528.857H1506.21C1506.92 528.159 1507.24 526.744 1507.38 525.617L1507.46 524.995H1508.5L1508.95 528.857ZM1515.84 524.094H1514.57C1514.43 525.253 1514.06 526.302 1513.6 527.21H1513.58C1513.03 526.286 1512.6 525.245 1512.43 524.094H1511.16C1511.34 525.531 1512.07 526.922 1512.98 528.127L1511.97 529.72H1513.33L1514.33 528.057C1515.03 526.892 1515.69 525.453 1515.84 524.094ZM1521.31 529.72L1520.37 527.784C1520.1 527.24 1519.7 526.852 1519.13 526.65L1521.24 524.094H1519.84L1517.9 526.628H1517.89V524.094H1516.68V529.72H1517.89V527.094C1518.48 527.094 1518.92 527.45 1519.14 527.919L1519.96 529.722H1521.31V529.72ZM1525.49 525.011V524.094H1521.68V525.011H1522.99V529.72H1524.19V525.011H1525.49ZM1532.35 524.094H1531.15V529.72H1532.35V524.094ZM1530.5 528.003C1530.5 526.97 1529.68 526.216 1528.12 526.216C1527.9 526.216 1527.64 526.245 1527.51 526.278V524.094H1526.34V529.509C1526.81 529.695 1527.41 529.811 1528.12 529.811C1529.65 529.814 1530.5 529.097 1530.5 528.003ZM1529.31 528.003C1529.31 528.647 1528.9 528.973 1528.12 528.973C1527.88 528.973 1527.65 528.935 1527.5 528.887V527.108C1527.62 527.078 1527.86 527.046 1528.06 527.046C1528.87 527.046 1529.31 527.396 1529.31 528.003Z" fill="#BCDFB0"/>
<path fill-rule="evenodd" clip-rule="evenodd" d="M1478.35 536.052C1478.35 534.41 1477.66 533.146 1476.21 533.146C1474.75 533.146 1474.06 534.413 1474.06 536.052C1474.06 537.692 1474.75 538.959 1476.21 538.959C1477.66 538.959 1478.35 537.692 1478.35 536.052ZM1477.27 536.052C1477.27 537.209 1476.91 537.988 1476.21 537.988C1475.5 537.988 1475.14 537.212 1475.14 536.052C1475.14 534.893 1475.51 534.116 1476.21 534.116C1476.91 534.116 1477.27 534.893 1477.27 536.052ZM1482.35 534.154V533.237H1478.94V534.154H1480.11V538.865H1481.19V534.154H1482.35ZM1488.68 538.865V533.237H1484.82V538.865H1485.9V534.138H1487.6V538.865H1488.68ZM1493.44 534.947C1493.44 533.849 1492.68 533.143 1491.3 533.143C1490.67 533.143 1490.12 533.259 1489.7 533.445V538.862H1490.76V536.678C1490.88 536.699 1491.09 536.716 1491.27 536.716C1492.7 536.718 1493.44 535.963 1493.44 534.947ZM1492.38 534.939C1492.38 535.529 1491.97 535.888 1491.22 535.888C1491.04 535.888 1490.86 535.874 1490.76 535.85V534.07C1490.89 534.022 1491.1 533.984 1491.32 533.984C1492.01 533.981 1492.38 534.294 1492.38 534.939ZM1498.33 536.05C1498.33 534.41 1497.64 533.143 1496.19 533.143C1494.74 533.143 1494.05 534.41 1494.05 536.05C1494.05 537.692 1494.74 538.956 1496.19 538.956C1497.64 538.956 1498.33 537.692 1498.33 536.05ZM1497.25 536.05C1497.25 537.209 1496.89 537.986 1496.19 537.986C1495.48 537.986 1495.13 537.209 1495.13 536.05C1495.13 534.893 1495.48 534.114 1496.19 534.114C1496.89 534.116 1497.25 534.893 1497.25 536.05ZM1503.35 538.865V533.237H1502.42L1500.48 536.486C1500.31 536.788 1500.15 537.147 1500.15 537.147H1500.14C1500.14 537.147 1500.15 536.751 1500.15 536.392V533.237H1499.2V538.865H1500.08L1502.06 535.529C1502.25 535.219 1502.39 534.869 1502.39 534.869H1502.41C1502.41 534.869 1502.39 535.249 1502.39 535.599V538.865H1503.35ZM1507.83 537.247C1507.83 536.454 1507.24 536.033 1506.68 535.847V535.834C1507.18 535.632 1507.64 535.165 1507.64 534.596C1507.64 533.717 1507.02 533.143 1505.78 533.143C1505.2 533.143 1504.65 533.259 1504.16 533.456L1504.48 534.294C1504.82 534.146 1505.25 534.043 1505.64 534.043C1506.24 534.043 1506.56 534.283 1506.56 534.683C1506.56 535.173 1505.95 535.529 1504.99 535.562V536.362H1505.12C1506.04 536.362 1506.73 536.656 1506.73 537.241C1506.73 537.721 1506.34 538.042 1505.65 538.042C1505.16 538.042 1504.75 537.948 1504.41 537.808L1504.06 538.646C1504.53 538.84 1505.07 538.956 1505.66 538.956C1507.03 538.956 1507.83 538.282 1507.83 537.247ZM1512.55 537.333C1512.55 536.532 1511.98 536.09 1511.54 535.942V535.926C1511.98 535.802 1512.4 535.327 1512.4 534.683C1512.4 533.787 1511.74 533.143 1510.34 533.143C1509.7 533.143 1509.08 533.267 1508.67 533.445V538.654C1509.05 538.824 1509.72 538.956 1510.35 538.956C1511.8 538.956 1512.55 538.344 1512.55 537.333ZM1511.38 534.785C1511.38 535.063 1511.27 535.297 1511.11 535.429C1510.95 535.562 1510.75 535.615 1510.37 535.615H1509.69V534.068C1509.84 534.014 1510.09 533.973 1510.33 533.973C1511.05 533.976 1511.38 534.278 1511.38 534.785ZM1511.49 537.263C1511.49 537.845 1511.1 538.126 1510.34 538.126C1510.12 538.126 1509.85 538.088 1509.69 538.032V536.392H1510.39C1510.76 536.392 1510.95 536.454 1511.14 536.57C1511.36 536.713 1511.49 536.95 1511.49 537.263ZM1517.5 536.05C1517.5 534.41 1516.81 533.143 1515.36 533.143C1513.91 533.143 1513.22 534.41 1513.22 536.05C1513.22 537.692 1513.91 538.956 1515.36 538.956C1516.82 538.956 1517.5 537.692 1517.5 536.05ZM1516.43 536.05C1516.43 537.209 1516.07 537.986 1515.36 537.986C1514.66 537.986 1514.3 537.209 1514.3 536.05C1514.3 534.893 1514.66 534.114 1515.36 534.114C1516.07 534.114 1516.43 534.893 1516.43 536.05ZM1523.35 538.118L1522.96 537.945L1522.45 533.235H1519.68L1519.51 534.65C1519.37 535.901 1519.05 537.371 1518.1 538.118L1518.16 540H1518.9L1518.93 538.865H1522.53L1522.56 540H1523.3L1523.35 538.118ZM1521.91 538.002H1519.46C1520.1 537.303 1520.39 535.888 1520.51 534.761L1520.58 534.141H1521.52L1521.91 538.002ZM1528.33 538.865V533.237H1527.4L1525.46 536.486C1525.29 536.788 1525.13 537.147 1525.13 537.147H1525.12C1525.12 537.147 1525.13 536.751 1525.13 536.392V533.237H1524.18V538.865H1525.06L1527.04 535.529C1527.23 535.219 1527.37 534.869 1527.37 534.869H1527.39C1527.39 534.869 1527.37 535.249 1527.37 535.599V538.865H1528.33ZM1532.49 534.154V533.237H1529.08V534.154H1530.25V538.865H1531.33V534.154H1532.49ZM1536.19 538.865V537.948H1534.3V536.465H1536.01V535.562H1534.3V534.154H1536.19V533.237H1533.24V538.865H1536.19ZM1541.46 538.865L1540.85 533.237H1537.99L1537.76 535.421C1537.64 536.648 1537.43 537.568 1536.62 538.056L1536.94 539.013C1538.27 538.439 1538.66 537.069 1538.81 535.537L1538.95 534.138H1539.88L1540.36 538.865H1541.46ZM1546.06 538.865V533.445C1545.63 533.253 1545.02 533.143 1544.39 533.143C1542.99 533.143 1542.27 533.782 1542.27 534.839C1542.27 535.648 1542.77 536.077 1543.34 536.238V536.255C1543.05 536.416 1542.86 536.713 1542.71 537.08L1541.96 538.867H1543.1L1543.79 537.142C1543.93 536.799 1544.17 536.581 1544.55 536.581H1545.01V538.867H1546.06V538.865ZM1545.01 535.802H1544.38C1543.7 535.802 1543.33 535.521 1543.33 534.901C1543.33 534.31 1543.65 533.976 1544.37 533.976C1544.61 533.976 1544.87 534.014 1545.01 534.07V535.802Z" fill="#BCDFB0"/>
<path fill-rule="evenodd" clip-rule="evenodd" d="M1668.03 584.742C1668.03 584.742 1655.79 570.613 1647.8 551.455C1650.36 538.259 1653.48 525.442 1656.87 513.768C1665.02 519.774 1672.85 523.774 1672.85 523.774C1672.85 523.774 1665.96 514.531 1660.62 501.606C1668.9 476.403 1678.04 458.994 1684.2 459.197C1690.76 459.413 1699.05 471.831 1706.84 490.813C1702.83 503.767 1698.05 513.773 1698.05 513.773C1698.05 513.773 1703.98 507.59 1710.44 500.161C1713.84 509.511 1717.07 520.001 1719.94 531.123C1710.22 550.019 1701.63 562.817 1701.63 562.817C1701.63 562.817 1713.26 558.066 1724.43 550.56C1727.67 566.435 1730.04 582.948 1731.02 598.826C1722.18 608.768 1712.76 616.264 1712.76 616.264C1712.76 616.264 1722.03 613.722 1731.45 608.448C1731.93 627.019 1730.3 644.32 1725.72 658.201C1713.31 695.815 1671.48 703.384 1650.79 666.203C1639.06 645.122 1639.08 607.853 1644.52 570.692C1654.84 581.184 1668.03 584.742 1668.03 584.742Z" fill="#7AD15C"/>
<path fill-rule="evenodd" clip-rule="evenodd" d="M1735.69 547.494C1735.69 547.494 1729.51 538.555 1725.19 530.08C1726.95 515.969 1729.75 501.724 1733 488.897C1740.14 494.766 1747.78 498.012 1747.78 498.012C1747.78 498.012 1742.47 490.179 1736.4 476.589C1742.6 455.814 1749.64 441.152 1754.29 441.309C1758.78 441.458 1764.39 450.04 1769.73 463.336C1765.34 471.718 1761.66 476.398 1761.66 476.398C1761.66 476.398 1766.36 473.426 1771.81 468.772C1775.46 478.813 1778.9 490.888 1781.67 503.754C1774.61 516.461 1767.51 524.05 1767.51 524.05C1767.51 524.05 1776.43 520.116 1783.77 514.457C1785.76 525.53 1787.18 536.918 1787.77 547.891C1781.61 558.929 1776.85 564.382 1776.85 564.382C1776.85 564.382 1782.53 562.961 1788.07 558.9C1788.06 571.232 1786.8 582.664 1783.87 592.039C1774.94 620.548 1744.95 626.319 1730.16 598.17C1723.35 585.214 1722.1 564.169 1723.98 541.642C1727.84 545.065 1735.69 547.494 1735.69 547.494Z" fill="#459C27"/>
<path fill-rule="evenodd" clip-rule="evenodd" d="M1901.16 548.595C1901.16 548.595 1886.96 532.201 1877.69 509.968C1880.66 494.653 1884.3 479.781 1888.23 466.233C1897.69 473.203 1906.82 477.844 1906.82 477.844C1906.82 477.844 1898.91 467.119 1892.72 452.122C1902.03 423.79 1912.23 403.946 1919.56 402.951V671.206C1904.89 669.877 1891.21 660.923 1881.31 643.133C1867.7 618.668 1867.56 575.423 1873.87 532.299C1885.85 544.465 1901.16 548.595 1901.16 548.595Z" fill="#2A6117"/>
<path fill-rule="evenodd" clip-rule="evenodd" d="M456.895 637.463C730.651 641.803 811.5 724.5 1230.59 652.694C1609 558.167 1920 558.167 1920 558.167L1918.88 822H0V721.622C0 721.622 215.163 633.633 456.895 637.463Z" fill="#72C954"/>
<path fill-rule="evenodd" clip-rule="evenodd" d="M302.666 735.208C299.018 744.043 296.491 749.608 296.491 749.608C296.491 749.608 298.744 744.062 302.666 735.208Z" fill="#DD400A"/>
</g>
<defs>
<linearGradient id="paint0_linear" x1="960.002" y1="0" x2="960.002" y2="180.5" gradientUnits="userSpaceOnUse">
<stop stop-color="#007D1C"/>
<stop offset="1" stop-color="#007D2F" stop-opacity="0"/>
</linearGradient>
<clipPath id="clip0">
<rect width="1920" height="822" fill="white"/>
</clipPath>
</defs>
</svg>
