<svg width="226" height="249" viewBox="0 0 226 249" fill="none" xmlns="http://www.w3.org/2000/svg">
<path d="M193.989 235.373C189.839 232.444 185.349 231.447 180.92 229.147C175.793 226.443 176.518 223.505 175.293 218.479C172.627 207.755 158.018 212.05 149.532 210.098C143.728 208.72 137.947 206.536 136.288 200.166C134.981 194.71 139.349 191.813 139.409 186.55C139.347 177.393 124.419 178.854 118.192 178.978C109.808 179.188 101.513 181.251 93.0089 181.528C85.8575 181.689 78.5858 181.916 71.3761 180.842C60.9369 179.339 47.1605 173.822 43.2472 162.838C41.6086 158.2 41.9619 152.616 44.7318 148.545C47.1555 144.983 52.7176 142.533 52.0412 137.362C50.6412 128.629 40.2729 124.71 33.043 121.903C24.4317 118.595 15.7856 113.245 9.53057 106.253C2.49545 98.4261 -3.22967 83.0582 3.55131 73.7525C6.56184 69.5481 14.1943 69.1204 16.0111 64.4683C18.6351 57.3086 8.8663 49.0951 7.08726 42.7914C5.59257 37.281 6.21209 34.7189 11.1199 32.7906C21.4841 28.7884 13.514 18.1515 20.0126 12.0134C24.0291 8.20209 30.6556 7.38127 35.7476 8.04497C39.1648 8.52779 42.3706 9.7617 45.6327 8.27027C52.7056 5.14181 54.5315 -0.624609 63.1081 0.64301C69.5141 1.68761 75.3152 5.60315 79.7933 10.2521C85.5617 16.0875 92.5968 23.9148 100.24 15.8744C114.112 1.2116 129.886 17.6647 136.072 31.0338C141.434 42.641 145.786 100.767 170.104 82.5315C186.557 70.2414 194.251 106.387 193.26 116.762C192.513 124.466 186.179 141.923 193.382 148.073C197.883 151.916 201.413 146.948 206.077 147.691C210.553 148.379 214.016 153.749 214.822 157.74C216.597 166.581 211.996 174.996 210.542 183.408C209.913 187.085 209.199 192.869 210.351 196.351C211.922 200.868 217.612 203.736 219.973 207.974C222.521 212.267 221.088 215.913 221.668 220.346C222.239 225.893 225.5 230.9 225.334 236.538C225.278 239.264 224.937 241.196 222.734 242.893C221.666 243.802 219.909 243.191 219.014 243.845C218.119 244.5 218.447 246.22 217.432 246.941C209.74 252.631 199.993 239.652 193.989 235.373Z" fill="#EDEDED"/>
</svg>
