<svg width="88" height="168" viewBox="0 0 88 168" fill="none" xmlns="http://www.w3.org/2000/svg">
<path fill-rule="evenodd" clip-rule="evenodd" d="M43.9685 167.631H14.2719C14.2768 167.142 14.3599 166.188 14.5287 165.388C16.4809 156.089 32.8057 162.249 43.9685 167.631Z" fill="#62B944"/>
<path fill-rule="evenodd" clip-rule="evenodd" d="M1.66816 36.3428C5.76829 27.7093 17.9096 39.3054 23.9032 45.8692C21.3517 39.9611 18.668 34.4492 15.8596 29.341C15.6712 29.001 15.6149 28.6243 15.6688 28.2646C9.14428 21.9112 -6.79143 4.75427 6.54377 0.421612C17.9463 -3.28231 18.5628 18.3981 18.3598 27.1271C18.5604 27.2714 18.7341 27.4597 18.8613 27.6897C21.7285 32.9031 24.4634 38.5275 27.0664 44.5531C27.3893 35.719 29.1141 16.6978 38.0653 20.1082C51.1045 25.0744 33.5566 42.7549 28.3654 47.6258C31.0907 54.1969 33.6643 61.2256 36.0813 68.702C39.2836 60.4207 49.7076 35.6676 57.1226 43.5109C66.1473 53.0569 42.9654 66.9478 36.6464 70.4683C38.7161 76.9905 40.6658 83.8479 42.4982 91.0307C47.1536 82.5464 62.2184 56.8024 68.9777 65.8592C77.0801 76.7165 50.3682 89.553 42.9557 92.8435C44.8027 100.219 46.5273 107.933 48.1248 115.98C53.0934 108.033 69.1343 84.2736 76.745 95.5492C84.659 107.278 56.2419 115.874 48.5138 117.959C49.4581 122.803 50.3559 127.764 51.2097 132.843C51.7822 136.251 52.3179 139.62 52.8194 142.942C57.6999 136.275 74.2497 115.003 81.7968 122.277C93.784 133.831 60.8509 142.565 53.0519 144.446C54.2579 152.547 55.2609 160.29 56.1 167.629H52.6555C51.8409 160.534 50.8672 153.024 49.7052 145.195C42.7354 146.467 10.1473 151.656 10.8641 136.745C11.5637 122.211 42.3807 139.805 49.5339 144.087C49.0055 140.576 48.4404 137.014 47.8337 133.403C46.9848 128.346 46.0895 123.412 45.1525 118.592C37.3901 119.632 8.83604 122.582 10.1106 109.487C11.3558 96.6673 36.9595 111.862 44.81 116.843C43.2149 108.794 41.4927 101.081 39.6506 93.7144C32.7445 94.6538 1.98864 98.1253 6.13525 84.6943C9.19566 74.7764 32.8032 88.4545 39.3375 92.4692C37.444 85.0002 35.4232 77.8884 33.2753 71.1411C27.426 71.0725 -2.02102 70.2016 1.98859 59.5033C5.88811 49.101 27.2988 65.4922 32.9206 70.0303C30.599 62.8256 28.1306 56.0416 25.5203 49.6882C18.92 49.1035 -3.09738 46.3757 1.66816 36.3428Z" fill="#62B944"/>
<path fill-rule="evenodd" clip-rule="evenodd" d="M86.0339 154C89.5444 160.414 86.0192 164.94 80.2604 167.631H59.608C66.8713 159.069 80.8451 144.52 86.0339 154Z" fill="#62B944"/>
</svg>
