<svg width="578" height="636" viewBox="0 0 578 636" fill="none" xmlns="http://www.w3.org/2000/svg">
<path d="M401.964 87.2066C401.964 87.2066 409.43 58.4073 439.68 75.0454C469.925 91.6889 463.438 122.675 451.902 161.109C442.461 192.576 462.365 228.468 470.551 258.148C480.86 295.52 470.536 333.408 438.627 357.86C412.524 377.858 378.348 365.875 355.198 347.314C284.361 290.525 265.02 278.667 294.672 229.231C324.324 179.794 401.964 87.2066 401.964 87.2066Z" fill="#009035"/>
<path d="M313.058 39.5882C314.543 38.8683 316.147 40.3325 315.562 41.8777C313.385 47.5918 310.473 58.2086 314.998 66.0778C315.225 66.4751 315.435 66.8602 315.634 67.2371C316.609 66.5502 317.392 65.5 317.481 63.8533C317.745 59.1396 324.697 57.5687 324.697 57.5687C324.697 57.5687 322.129 61.5714 323.258 66.1188C324.228 70.0378 322.033 75.5341 317.53 78.0589C303.543 89.4478 284.411 104.047 295.508 133.198C306.605 162.35 365.251 145.052 365.251 145.052L316.005 180.953C316.005 180.953 280.838 180.969 271.77 137.798C262.703 94.6269 305.622 73.1894 305.622 73.1894C305.622 73.1894 291.425 50.1369 313.058 39.5882Z" fill="white"/>
<path d="M371.013 141.368C378.723 144.131 399.686 154.194 405.277 183.231C406.223 188.154 404.368 193.211 400.439 196.321C382.991 210.151 332.919 252.106 327.483 282.232C327.483 282.232 292.763 289.222 284.418 256.801C284.418 256.801 305.171 209.033 306.116 182.038C306.767 163.406 353.919 145.507 365.563 141.363C367.323 140.744 369.249 140.733 371.013 141.368Z" fill="#FFE401"/>
<path d="M413.785 119.865C413.785 119.865 403.646 153.169 395.751 165.343C395.751 165.343 381.97 162.424 378.084 147.333C378.084 147.333 396.521 120.19 398.531 114.378L413.785 119.865Z" fill="white"/>
<path d="M407.764 83.4563C407.764 83.4563 362.885 110.129 374.533 128.721C386.178 147.319 418.106 128.376 418.106 128.376C418.106 128.376 433.909 109.925 430.339 99.744C426.769 89.5627 407.764 83.4563 407.764 83.4563Z" fill="white"/>
<path d="M424.707 79.8117C424.707 79.8117 410.613 77.2245 406.287 82.2141C401.96 87.2038 419.496 101.301 424.953 104.012L419.197 129.292C419.197 129.292 442.11 113.203 442.416 98.2281C442.727 83.257 424.707 79.8117 424.707 79.8117Z" fill="#009035"/>
<path d="M413.967 123.144C413.967 123.144 430.286 115.375 431.002 125.428C431.714 135.488 414.984 135.447 411.887 129.304L413.967 123.144Z" fill="white"/>
<path d="M196.785 324.604C195.489 326.511 181.386 338.82 173.827 345.363C170.787 347.995 168.846 351.668 168.38 355.661L153.592 504.22C153.417 506.017 152.952 507.769 152.241 509.427C149.794 515.103 143.361 528.705 134.177 538.617L126.14 542.873L142.173 549.88L172.35 515.205L170.21 509.971C168.364 505.449 168.006 500.457 169.187 495.712C173.578 478.143 185.102 433.659 193.879 414.313C203.861 392.328 194.132 361.332 194.132 361.332L204.305 355.301L196.785 324.604Z" fill="#CDFFBC"/>
<path d="M166.785 548.439C166.785 548.439 168.041 531.216 170.537 525.993C173.039 520.774 176.569 510.903 170.204 509.967C170.204 509.967 151.658 530.613 145.995 539.841C140.335 549.079 129.977 541.007 129.977 541.007C129.977 541.007 126.767 539.271 123.06 539.827C120.5 540.214 119.674 543.541 121.647 545.209C124.94 547.978 130.387 552.088 136.972 555.222C139.276 556.316 142.033 555.708 143.664 553.749L164.052 529.289L164.698 547.999L166.785 548.439Z" fill="#007C2E"/>
<path d="M221.32 368.094C221.32 368.094 155.35 462.095 145.968 475.431C136.583 488.773 112.776 516.114 93.2073 515.105L95.8055 523.565C95.8055 523.565 107.444 522.757 123.06 516.207C140.604 508.847 144.753 508.2 144.753 508.2L146.083 500.941C146.662 497.764 148.281 494.876 150.681 492.718C163.665 481.049 206.9 442.276 216.748 434.328C228.38 424.943 240.057 409.568 239.021 388.729C237.984 367.89 221.32 368.094 221.32 368.094Z" fill="white"/>
<path d="M111.933 541.89C112.338 542.196 112.901 542.16 113.254 541.798C115.961 539.04 126.891 528.03 130.743 525.937C135.156 523.533 152.1 512.237 145.767 505.548C145.767 505.548 108.109 518.672 101.997 519.67C95.8866 520.677 93.2063 515.113 93.2063 515.113C93.2063 515.113 89.0805 513.613 84.1059 514.998C81.7439 515.659 81.1946 518.773 83.1543 520.252L95.2785 529.371C98.7977 532.017 103.575 532.217 107.324 529.894C113.431 526.107 122.928 520.958 129.809 520.639L111.787 540.401C111.387 540.839 111.457 541.53 111.933 541.89Z" fill="#007C2E"/>
<path d="M288.879 244.71C288.879 244.71 285.166 255.512 270.287 266.839L176.54 339.081C175.064 340.216 174.731 342.297 175.768 343.837C181.536 352.436 201.455 379.409 238.445 402.934C240.307 404.119 242.715 403.961 244.384 402.507C254.398 393.779 288.58 363.991 295.605 357.872C322.376 334.565 351.485 309.6 334.399 268.927C315.896 264.588 300.175 258.475 288.879 244.71Z" fill="#FFE401"/>
<path d="M405.237 188.527C405.237 188.527 416.789 235.319 399.212 274.666C381.634 314.014 327.973 280.003 327.973 280.003C327.973 280.003 326.753 267.166 316.494 263.862C306.24 260.562 325.81 249.898 335.393 257.032C344.976 264.166 334.913 268.487 353.065 272.354C370.746 276.12 392.624 263.597 379.567 210.515C378.812 207.436 378.775 204.205 379.586 201.14C385.217 179.763 398.417 172.77 405.237 188.527Z" fill="white"/>
</svg>
