<svg width="433" height="558" viewBox="0 0 433 558" fill="none" xmlns="http://www.w3.org/2000/svg">
<path d="M322.3 379.867C335.56 348.783 306.981 356.535 292.581 341.987C273.574 322.784 318.746 310.309 330.731 307.282C351.358 302.011 386.275 291.421 398.494 272.11C424.892 229.923 323.369 258.947 350.686 226.7C369.128 204.896 400.127 196.239 419.952 175.485C428.827 166.197 438.74 150.334 428.373 138.127C419.849 127.898 399.336 135.133 393.002 122.38C383.904 104.639 412.142 75.9795 414.451 58.6721C417.453 36.4034 412.044 10.49 387.617 3.48885C373.215 -0.663722 365.261 9.32404 352.24 11.9965C339.794 14.6734 336.917 0.791398 325.971 0.130243C318.02 -0.277016 304.421 9.32108 300.04 15.5246C292.778 25.7487 290.7 44.0973 277.101 49.0754C261.544 54.7316 256.479 34.7113 242.652 32.8731C188.036 26.3342 207.256 116.456 196.763 143.287C190.767 158.372 181.554 137.511 176.831 132.047C166.694 120.304 156.44 116.414 143.877 126.944C119.789 147.204 127.27 183.643 134.061 210.029C136.249 217.9 162.851 276.084 144.184 276.635C129.089 278.021 120.57 246.424 103.17 250.103C73.9001 256.463 87.367 313.623 90.704 331.32C93.6957 347.744 97.3806 356.896 87.9281 371.377C78.1299 386.317 65.7967 400.776 67.8658 419.965C69.4749 435.916 82.492 449.991 78.2242 466.822C73.9564 483.652 55.0559 495.289 43.0693 506.401C30.8522 517.626 -14.8991 539.337 5.95251 557.63C24.509 539.523 43.4112 520.956 62.5437 503.431C78.6795 488.539 88.1317 475.213 112.098 477.822C130.074 479.923 153.122 468.549 165.685 456.287C175.943 446.316 171.108 429.07 181.942 420.259C203.263 403.097 234.487 415.694 258.57 416.225C283.574 416.878 312.039 403.697 322.3 379.867Z" fill="#FFE401"/>
</svg>
