<svg width="347" height="333" viewBox="0 0 347 333" fill="none" xmlns="http://www.w3.org/2000/svg">
<path d="M220.818 12.4893C288.785 36.8341 354.723 97.7687 345.544 175.57C337.738 241.727 261.829 261.25 215.778 268.227C202.932 270.174 191.26 276.752 182.927 286.723C162.985 310.567 120.255 350.314 73.3664 323.858C69.9549 321.93 71.4741 316.69 75.3951 316.844C87.8586 317.335 105.553 315.543 117.589 303.835C133.992 287.878 128.051 260.204 106.854 251.579C66.7525 235.267 -8.92905 190.836 0.868896 90.1633C14.1239 -45.9981 220.818 12.4893 220.818 12.4893Z" fill="#009035"/>
<path d="M238.081 154.779C238.081 154.779 254.61 134.941 233.193 120.164C212.9 106.165 195.382 135.511 205.315 174.548C206.393 178.781 209.466 182.223 213.541 183.783C228.808 189.635 266.736 200.802 270.515 169.077C272.953 148.587 238.081 154.779 238.081 154.779Z" fill="#FFE401"/>
<path d="M186.292 44.2307C186.292 44.2307 188.544 35.1468 197.454 38.2353C205.896 41.1622 201.079 52.5741 187.543 58.0439C186.075 58.6368 184.41 58.4768 183.081 57.6208C178.097 54.4152 166.7 45.7284 175.159 37.8205C180.623 32.7141 186.292 44.2307 186.292 44.2307Z" fill="#FFE401"/>
<path d="M110.112 165.321L92.9361 160.604C79.4076 156.889 77.8748 149.006 78.4224 144.01C73.0417 140.617 70.8381 135.298 72.2803 129.015C70.9042 127.688 69.8476 126.199 69.1412 124.556C67.8403 121.742 67.6586 118.552 68.6049 115.106C69.0749 113.395 69.8898 111.762 71.0519 110.199C69.4981 105.85 69.3085 101.475 70.5015 97.1311C71.769 92.5158 75.3561 86.4889 85.2456 84.0165C91.0743 82.5941 97.8596 82.692 105.479 84.3014C105.385 83.9173 105.266 83.5016 105.134 83.0407C104.82 81.9717 104.426 80.6145 104.066 78.8918L103.391 76.3163C101.603 68.1219 104.473 56.5183 105.396 53.1575C107.913 43.9888 118.1 38.0087 124.357 39.727C126.92 40.4309 128.72 42.3075 129.306 44.8751C129.571 46.0307 129.803 47.8264 130.122 50.304C131.493 60.8988 134.709 85.6994 147.23 100.056C149.977 102.942 154.705 107.921 155.742 109.122C156.214 109.435 157.673 110.094 159.33 110.549L163.822 111.782C167.81 112.877 167.1 115.856 164.775 125.718C163.498 131.097 161.679 138.143 159.906 144.601C158.609 149.325 157.434 153.358 156.53 156.257C155.067 160.886 153.902 164.555 150.045 163.496L140.149 160.778C133.965 164.401 128.247 165.088 122.689 165.768C121.042 165.974 119.346 166.174 117.617 166.466C116.808 166.593 116.021 166.577 115.266 166.445C112.911 166.014 111.289 165.644 110.112 165.321Z" fill="#FFE401"/>
<path d="M165.989 236.135L167.66 239.661C168.976 242.439 170.735 242.47 171.792 242.162C172.729 243.194 173.96 243.467 175.261 242.917C175.6 243.164 175.961 243.335 176.343 243.425C176.999 243.599 177.695 243.517 178.402 243.182C178.754 243.015 179.075 242.777 179.368 242.467C180.365 242.637 181.317 242.512 182.209 242.089C183.156 241.64 184.32 240.637 184.478 238.409C184.563 237.097 184.284 235.637 183.647 234.054C183.733 234.06 183.828 234.07 183.932 234.081C184.175 234.108 184.483 234.141 184.868 234.153L185.449 234.201C187.285 234.275 189.68 233.215 190.37 232.888C192.253 231.996 193.156 229.571 192.547 228.286C192.298 227.76 191.824 227.443 191.248 227.414C190.989 227.401 190.592 227.419 190.046 227.444C187.708 227.551 182.234 227.8 178.66 225.644C177.933 225.161 176.679 224.331 176.38 224.153C176.295 224.063 176.097 223.773 175.936 223.432L175.499 222.51C175.111 221.691 174.496 221.958 172.456 222.834C171.344 223.315 169.893 223.975 168.567 224.603C167.597 225.062 166.771 225.469 166.18 225.775C165.237 226.266 164.49 226.657 164.865 227.449L165.828 229.481C165.281 230.953 165.35 232.213 165.415 233.438C165.433 233.801 165.454 234.175 165.457 234.559C165.46 234.738 165.494 234.908 165.551 235.065C165.733 235.557 165.875 235.893 165.989 236.135Z" fill="#FFE401"/>
</svg>
