<svg width="379" height="644" viewBox="0 0 379 644" fill="none" xmlns="http://www.w3.org/2000/svg">
<path d="M64.3892 598.535C64.462 598.225 64.5058 597.902 64.4949 597.567C63.8086 577.832 42.9716 561.255 42.9716 561.255L33.5654 560.039C24.7062 575.444 23.2156 585.718 23.1048 590.414C23.1016 590.547 23.1132 590.671 23.1235 590.801C30.6104 593.09 46.2135 596.835 64.3892 598.535Z" fill="#009035"/>
<path d="M23.1398 590.702C23.2297 592.308 24.086 593.723 25.4403 594.324C35.8213 598.932 53.4983 600.717 60.9593 601.296C62.6052 601.425 64.0943 600.172 64.4782 598.492C46.2699 596.781 30.6388 593.011 23.1398 590.702Z" fill="#62B944"/>
<path d="M32.7503 545.449L32.6069 565.21C32.5953 566.655 33.4339 567.922 34.6959 568.309C36.2366 568.786 38.4569 569.348 40.7808 569.486C42.8602 569.61 44.7106 567.843 44.8259 565.559L45.7099 548.173L32.7503 545.449Z" fill="white"/>
<path d="M104.489 607.723C94.3141 605.27 89.2823 602.932 86.7897 601.222C86.5645 602.249 86.3475 603.297 86.147 604.387C85.9369 605.552 86.5852 606.66 87.6352 606.87L143.906 618.377C145.705 618.744 147.199 616.866 146.776 615.033C139.274 614.104 120.213 611.516 104.489 607.723Z" fill="#62B944"/>
<path d="M146.695 615.082C146.658 614.927 146.629 614.767 146.562 614.606C143.098 606.594 133.442 590.067 109.788 578.8L97.8995 575.903C97.8995 575.903 90.5754 584.102 86.7749 601.342C89.2646 603.042 94.2967 605.367 104.453 607.803C120.165 611.574 139.205 614.146 146.695 615.082Z" fill="#009035"/>
<path d="M98.859 557.735C98.8575 558.66 98.4523 572.655 98.2979 578.081C98.263 579.368 99.0256 580.485 100.159 580.787C102.18 581.333 105.472 582.038 108.478 581.86C110.096 581.766 111.457 580.414 111.722 578.646L114.953 557.056L98.859 557.735Z" fill="white"/>
<path d="M142.533 307.306C142.533 307.306 134.654 424.17 117.593 561.628C117.273 564.186 114.818 565.957 112.253 565.959C108.472 565.966 102.965 565.757 98.5934 564.71C96.2573 564.148 94.6692 561.985 94.7754 559.567C95.8403 534.925 94.4102 401.16 92.8797 371.461C92.8797 371.461 58.6469 489.03 48.162 551.555C47.8984 553.112 46.4918 554.212 44.9334 554.069C42.568 553.851 38.8296 553.275 34.2419 551.787C32.5013 551.223 31.3507 549.56 31.4787 547.72C32.9188 526.975 42.0542 403.621 61.2415 317.418C62.3269 312.555 76.5248 273.732 76.5248 273.732L142.533 307.306Z" fill="#009035"/>
<path d="M68.1325 298.569C66.5672 297.607 65.7114 295.821 65.9026 293.99C68.224 272.255 85.5983 138.115 164.131 98.0866C164.131 98.0866 170.109 88.8461 196.45 120.267C222.792 151.688 200.385 174.01 185.235 208.14C166.904 249.437 143.347 281.375 144.807 309.495C144.905 311.432 143.533 313.158 141.609 313.437C115.149 317.274 90.6424 312.385 68.1325 298.569Z" fill="#FFE401"/>
<path d="M198.66 64.1234C198.243 65.9956 163.412 98.329 163.412 98.329C163.412 98.329 166.21 108.808 187.506 121.355L215.94 84.8562L198.66 64.1234Z" fill="white"/>
<path d="M224.378 46.7089C224.378 46.7089 229.171 70.6287 227.341 82.2716C225.512 93.9145 226.378 101.9 212.649 101.433C198.918 100.972 189.189 91.9978 185.604 79.2618C185.604 79.2618 179.928 59.61 183.598 52.8204C187.273 46.0382 224.378 46.7089 224.378 46.7089Z" fill="white"/>
<path d="M191.821 72.0041L192.647 71.8265C193.698 71.6007 194.357 70.5394 194.072 69.5029C192.984 65.4833 191.127 56.4067 196.244 55.4588C202.836 54.2338 227.899 54.3567 234.909 46.8821C241.648 39.7013 239.515 28.148 233.534 23.7382C233.134 23.4435 232.578 23.4925 232.254 23.8776L231.476 24.8118C230.945 25.4533 229.911 25.1213 229.854 24.2923C229.796 23.4952 228.838 23.1405 228.282 23.7194C226.142 25.9438 220.957 29.1941 209.005 28.9162C192.02 28.5125 179.801 32.8885 177.096 44.1782C176.923 44.895 176.077 45.1385 175.545 44.6309C174.5 43.6392 172.643 42.8851 169.594 44.5228C164.298 47.3732 164.025 57.5913 172.12 67.7489C172.505 68.232 172.342 68.9636 171.767 69.1874C169.737 69.9798 166.481 72.1994 172.578 77.342C178.877 82.6674 184.266 83.4682 186.386 83.5625C186.914 83.5842 187.348 83.1585 187.348 82.6286L187.298 72.196C187.297 71.6086 187.838 71.1605 188.415 71.2818L191.823 71.998L191.821 72.0041Z" fill="#009035"/>
<path d="M191.808 74.1068C191.808 74.1068 191.19 59.3462 184.104 61.9577C177.023 64.5704 183.984 78.3235 188.891 79.9034L191.808 74.1068Z" fill="white"/>
<path d="M204.306 133.899L195.51 183.918C200.34 186.821 205.014 189.27 209.521 191.314C214.535 182.352 223.571 171.958 230.782 164.338C212.662 153.247 204.306 133.899 204.306 133.899Z" fill="#FFE401"/>
<path d="M302.66 153.716C269.43 177.316 247.247 174.455 230.896 164.443C223.669 172.08 214.613 182.495 209.588 191.476C278.154 222.565 309.363 159.585 309.363 159.585L302.66 153.716Z" fill="white"/>
<path d="M308.801 151.999C308.801 151.999 312.628 149.297 318.152 151.56C323.676 153.824 328.368 156.917 332.608 154.602C336.849 152.288 337.227 156.669 337.227 156.669L324.736 162.623L308.801 151.999Z" fill="white"/>
<path d="M301.172 156.37C301.172 156.37 305.22 147.854 311.377 150.431C317.533 153.014 330.393 164.058 334.462 163.377C338.531 162.697 344.085 160.191 346.283 161.953L340.783 166.469C340.783 166.469 353.322 162.34 354.388 166.72L333.579 173.328C333.578 173.334 307.012 164.886 301.172 156.37Z" fill="white"/>
<path d="M160.438 192.387C160.438 192.387 202.188 245.684 260.95 238.766C264.593 238.336 268.262 239.376 271.08 241.725L285.076 253.396C290.949 258.296 299.628 257.739 304.834 252.135C307.798 248.938 310.556 245.151 311.778 241.222L283.59 222.19L286.664 218.89C286.664 218.89 271.878 214.421 265.647 224.372C265.647 224.372 234.433 230.217 197.356 166.747C197.35 166.746 171.438 180.75 160.438 192.387Z" fill="white"/>
</svg>
