<svg width="113" height="140" viewBox="0 0 113 140" fill="none" xmlns="http://www.w3.org/2000/svg">
<path d="M31.3425 31.3659C32.2681 30.9874 33.3284 31.4307 33.7069 32.3589C47.5202 66.2165 56.5684 94.1057 63.0446 122.902C64.4472 129.133 65.7331 135.376 66.9102 141.857H63.2572C55.9409 101.93 44.6736 68.7909 30.3495 33.6785C29.971 32.7504 30.4144 31.7444 31.3425 31.3659Z" fill="#73CD55"/>
<path fill-rule="evenodd" clip-rule="evenodd" d="M23.2406 0.448528C39.6411 -4.6979 33.2194 36.1416 33.2194 36.1416C33.2194 36.1416 4.91628 6.19905 23.2406 0.448528Z" fill="#73CD55"/>
<path fill-rule="evenodd" clip-rule="evenodd" d="M60.8893 18.7215C77.2096 28.7499 42.2669 58.7391 42.2669 58.7391C42.2669 58.7391 45.0072 8.96018 60.8893 18.7215Z" fill="#73CD55"/>
<path fill-rule="evenodd" clip-rule="evenodd" d="M83.5726 46.9944C102.74 64.5778 51.6396 87.4865 51.6396 87.4865C51.6396 87.4865 64.5404 29.5329 83.5726 46.9944Z" fill="#73CD55"/>
<path fill-rule="evenodd" clip-rule="evenodd" d="M102.802 85.913C114.658 105.757 60.7679 119.063 60.7679 119.063C60.7679 119.063 91.2076 66.5044 102.802 85.913Z" fill="#73CD55"/>
<path fill-rule="evenodd" clip-rule="evenodd" d="M110.896 129.612C113.39 134.631 112.656 139.264 110.014 141.857H76.4529C86.2063 128.634 102.13 111.972 110.896 129.612Z" fill="#73CD55"/>
<path fill-rule="evenodd" clip-rule="evenodd" d="M41.5459 58.6044C41.5459 58.6044 -10.6089 47.4223 1.95209 28.5737C14.0905 10.3578 41.5459 58.6044 41.5459 58.6044Z" fill="#73CD55"/>
<path fill-rule="evenodd" clip-rule="evenodd" d="M52.0127 88.1193C52.0127 88.1193 -7.72596 95.7288 0.930725 69.3511C9.11815 44.4071 52.0127 88.1193 52.0127 88.1193Z" fill="#73CD55"/>
<path fill-rule="evenodd" clip-rule="evenodd" d="M60.1797 119.347C60.1797 119.347 1.27616 127.379 10.9958 102.612C19.3413 81.347 60.1797 119.347 60.1797 119.347Z" fill="#73CD55"/>
<path fill-rule="evenodd" clip-rule="evenodd" d="M42.8613 141.857H16.7566C20.0985 134.857 31.6925 136.931 42.8613 141.857Z" fill="#73CD55"/>
</svg>
