<svg width="53" height="56" viewBox="0 0 53 56" fill="none" xmlns="http://www.w3.org/2000/svg">
<path d="M7.2684 18.4431C7.32517 18.4444 7.38071 18.445 7.43485 18.445C8.32614 18.445 8.5504 18.2746 8.5525 18.273C8.55407 18.2709 8.78567 17.9269 8.26553 16.5525L8.25488 16.5241L8.25283 16.5186C7.74597 15.1532 7.11566 13.4552 6.78809 11.8819C6.39144 9.97836 6.87769 8.21258 8.15759 6.91015C9.39051 5.65537 11.2337 4.96431 13.3476 4.96431C14.3287 4.96431 15.3523 5.11339 16.3902 5.40739L16.4129 5.41394C16.9803 5.58224 17.4126 5.66743 17.6978 5.66743C17.8769 5.66743 18.0796 5.66743 18.7741 4.69414C19.8631 3.1683 20.8003 2.1682 21.8128 1.45108C23.1914 0.474656 24.724 0 26.4988 0C28.2738 0 29.8068 0.474656 31.1854 1.45108C32.1968 2.16701 33.1341 3.16726 34.2238 4.69399C34.9194 5.66877 35.1217 5.66877 35.3002 5.66877C35.5854 5.66877 36.018 5.58298 36.586 5.41364C37.6247 5.10431 38.6542 4.94733 39.6459 4.94733C41.7394 4.94733 43.5757 5.64286 44.817 6.90583C46.11 8.22152 46.6047 9.98878 46.2101 11.882C45.8795 13.467 45.2451 15.1737 44.7353 16.5451L44.728 16.5644C44.1996 17.9215 44.4429 18.2645 44.4455 18.2676C44.4471 18.2694 44.668 18.4452 45.5658 18.4452C45.6231 18.4452 45.6818 18.4444 45.7417 18.4429C45.8559 18.4395 45.981 18.4376 46.1034 18.4376C48.666 18.4376 50.7387 19.2712 51.9396 20.7848C53.1907 22.3613 53.342 24.4706 52.3548 26.572C51.0876 29.2688 48.7051 30.8049 46.401 32.2904L46.4003 32.2908C46.2859 32.3647 46.1628 32.443 46.033 32.5257C44.2295 33.6741 43.2171 34.4831 43.0182 34.9342C43.1029 34.9573 43.2231 34.9817 43.3825 34.9975C45.4299 35.2013 47.1183 36.0742 48.0147 37.3927C48.8597 38.6353 48.9325 40.1698 48.2145 41.6025C46.7942 44.436 43.2406 45.9049 39.9517 46.9683L39.9515 46.9684C36.6236 48.0434 36.4243 48.1077 35.2981 50.3055C33.6652 53.4917 31.2984 55.3507 28.2476 55.8507C28.2476 55.8507 27.1967 55.9999 26.5011 56C25.8056 56.0001 24.7546 55.8514 24.7546 55.8514C21.7019 55.3525 19.3337 53.4933 17.6999 50.3055C16.5736 48.1077 16.3744 48.0434 13.0467 46.9683C9.75747 45.9052 6.20385 44.4365 4.78317 41.6025C4.06515 40.1696 4.13798 38.6353 4.98281 37.3926C5.87934 36.074 7.56777 35.2011 9.61548 34.9974C9.77529 34.9814 9.89546 34.9572 9.97982 34.9342C9.78193 34.4843 8.7703 33.6756 6.96781 32.5276L6.95855 32.5217C6.8308 32.4403 6.70975 32.3632 6.59736 32.2908L6.59697 32.2905C4.29316 30.8053 1.91048 29.2692 0.643048 26.572C-0.344477 24.4717 -0.188855 22.3567 1.07026 20.7695C2.26441 19.2642 4.30915 18.435 6.82774 18.435C6.97235 18.435 7.11872 18.4376 7.2684 18.4431Z" fill="#009035"/>
</svg>
