<svg width="97" height="97" viewBox="0 0 97 97" fill="none" xmlns="http://www.w3.org/2000/svg">
<path d="M48.5 97C75.2858 97 97 75.2858 97 48.5C97 21.7142 75.2858 0 48.5 0C21.7142 0 0 21.7142 0 48.5C0 75.2858 21.7142 97 48.5 97Z" fill="#FFE401"/>
<path d="M30.5 45C25.2636 45 21 40.1668 21 34.2308C21 32.4474 22.2768 31 23.85 31C25.4232 31 26.7 32.4474 26.7 34.2308C26.7 36.6043 28.4062 38.5385 30.5 38.5385C32.5938 38.5385 34.3 36.6043 34.3 34.2308C34.3 32.4474 35.5768 31 37.15 31C38.7232 31 40 32.4474 40 34.2308C40 40.1668 35.7364 45 30.5 45Z" fill="#2E322C"/>
<path d="M67 45C61.488 45 57 40.1668 57 34.2308C57 32.4474 58.344 31 60 31C61.656 31 63 32.4474 63 34.2308C63 36.6043 64.796 38.5385 67 38.5385C69.204 38.5385 71 36.6043 71 34.2308C71 32.4474 72.344 31 74 31C75.656 31 77 32.4474 77 34.2308C77 40.1668 72.512 45 67 45Z" fill="#2E322C"/>
<path d="M49.642 52.2688C47.4967 50.1617 44.6071 49 41.5 49C35.1562 49 30 53.9433 30 60.0163V68.9095C30 70.2835 30.9702 71.4813 32.3585 71.8218L49.0858 75.9079C49.3451 75.972 49.6044 76 49.8636 76C50.5536 76 51.2311 75.7837 51.7873 75.3671C52.5525 74.7982 53 73.9249 53 72.9955V60.0163C53 57.0399 51.7873 54.2718 49.642 52.2688Z" fill="#73CD55"/>
<path d="M48.0009 76C36.8969 76 26.6089 70.5574 20.4809 61.448C19.5809 60.1104 19.9809 58.327 21.3729 57.4621C22.7609 56.5973 24.6209 56.9817 25.5209 58.3193C30.5369 65.7798 38.9409 70.2345 48.0009 70.2345C57.0609 70.2345 65.4649 65.7798 70.4808 58.3193C71.3848 56.9817 73.2368 56.5973 74.6288 57.4621C76.0208 58.327 76.4168 60.1104 75.5208 61.448C69.3928 70.5574 59.1049 76 48.0009 76Z" fill="#009035"/>
</svg>
