<svg width="76" height="90" viewBox="0 0 76 90" fill="none" xmlns="http://www.w3.org/2000/svg">
<path d="M43.2196 29.7823C43.2196 29.7823 56.7499 10.8828 61.8742 16.1959C66.9984 21.5089 64.0509 26.0837 65.4886 28.4855C66.9255 30.8889 69.7266 45.0758 43.2196 29.7823Z" fill="#009035"/>
<path d="M43.9867 30.0734C43.9867 30.0734 55.1705 9.73963 48.332 7.28236C41.4935 4.8251 39.6806 14.8068 33.676 12.7038C27.6699 10.6001 19.9679 21.6629 43.9867 30.0734Z" fill="#009035"/>
<path d="M7.17217 73.4151L34.9498 85.2148C38.1622 86.5794 41.7977 85.4778 43.3073 82.6811L63.8429 44.64C65.5383 41.5009 63.898 37.4972 60.2907 35.9649L28.9373 22.6463C25.5282 21.1981 21.69 22.5338 20.3631 25.629L3.40325 65.1891C2.07629 68.2844 3.7631 71.967 7.17217 73.4151Z" fill="#FFE401"/>
<path d="M18.1712 78.008L27.7279 82.0754L49.4028 31.4192L39.8462 27.3518L18.1712 78.008Z" fill="#62B944"/>
</svg>
