<svg width="203" height="172" viewBox="0 0 203 172" fill="none" xmlns="http://www.w3.org/2000/svg">
<path d="M61.3265 160.669C62.0526 157.849 61.6743 155.249 62.0063 152.411C62.4136 149.117 64.1347 148.894 66.5785 147.198C71.7821 143.55 66.5128 136.655 65.8344 131.727C65.3932 128.347 65.3884 124.813 68.4642 122.606C71.1216 120.777 73.5613 122.504 76.393 121.444C81.2861 119.51 77.4703 111.857 76.1385 108.563C74.3226 104.138 71.5317 100.145 69.6556 95.6697C68.1163 91.8914 66.5168 88.0628 65.6275 83.9969C64.3116 78.1208 64.4679 69.6329 69.5573 65.2672C71.7093 63.4311 74.7727 62.4604 77.5165 63.0918C79.9175 63.6443 82.3599 66.1005 84.9931 64.6666C89.3869 62.1078 89.38 55.768 89.4146 51.3319C89.4374 46.0552 90.5465 40.3365 93.0214 35.5512C95.7854 30.1769 102.855 23.9356 109.219 25.6184C112.083 26.3503 113.863 30.3297 116.724 30.3325C121.093 30.2451 123.509 23.3334 126.524 21.0768C129.173 19.1364 130.671 18.9348 132.701 21.1504C136.951 25.844 141.031 19.388 145.639 21.5778C148.497 22.9276 150.284 26.2892 150.963 29.141C151.398 31.0626 151.389 33.0274 152.851 34.4566C155.964 37.5771 159.424 37.3534 160.488 42.1879C161.23 45.8192 160.311 49.724 158.73 53.0757C156.776 57.3615 154.012 62.7359 159.872 65.1409C170.546 69.4913 164.937 81.3141 159.031 87.3863C153.902 92.6536 123.646 107.037 138.357 116.214C148.284 122.433 130.483 134.036 124.723 135.662C120.444 136.862 109.805 137.11 107.973 142.225C106.829 145.422 110.208 146.273 110.757 148.913C111.298 151.441 109.125 154.402 107.151 155.66C102.775 158.441 97.3319 157.735 92.5294 158.706C90.432 159.134 87.1882 159.954 85.5569 161.291C83.4561 163.066 83.0758 166.694 81.2848 168.832C79.5028 171.081 77.2582 171.074 75.0011 172.303C72.1452 173.759 70.1253 176.536 67.0709 177.618C65.5994 178.154 64.4951 178.373 63.1383 177.551C62.4344 177.17 62.4046 176.107 61.8722 175.766C61.3397 175.425 60.485 175.957 59.8924 175.565C55.2807 172.646 60.254 164.757 61.3265 160.669Z" fill="#55AC37"/>
</svg>
