<svg width="149" height="209" viewBox="0 0 149 209" fill="none" xmlns="http://www.w3.org/2000/svg">
<path fill-rule="evenodd" clip-rule="evenodd" d="M127.588 96.7237C113.03 95.5347 100.291 110.182 97.7151 134.257C96.0467 149.853 98.8674 183.259 117.932 184.977C136.084 186.613 145.845 164.806 148.133 144.703C151.33 116.611 142.146 97.9126 127.588 96.7237Z" fill="#62B944"/>
<path fill-rule="evenodd" clip-rule="evenodd" d="M38.1433 109.489C26.8362 98.4701 17.2709 94.5852 7.99421 98.2793C-4.32083 103.184 -1.24818 124.251 9.34707 137.709C17.0776 147.529 37.2626 166.917 48.5526 154.469C59.3118 142.609 50.4902 121.523 38.1433 109.489Z" fill="#62B944"/>
<path fill-rule="evenodd" clip-rule="evenodd" d="M47.5102 0.228301C23.1026 3.84415 20.3186 34.2217 27.6235 62.9112C35.4862 93.7976 59.1134 109.621 75.3843 103.143C88.8468 97.7828 100.093 77.0761 89.6981 42.4198C84.0934 23.7363 67.4947 -2.7319 47.5102 0.228301Z" fill="#62B944"/>
<path d="M124.635 118.932C123.696 118.842 122.859 119.48 122.769 120.422C121.159 137.193 116.563 174.723 109.806 208.974H113.321C114.211 204.57 115.092 199.704 115.966 194.738C121.012 166.058 124.621 136.982 126.177 120.774C126.267 119.835 125.577 119.023 124.635 118.932Z" fill="#009035"/>
<path d="M25.0183 125.183C24.3259 124.54 23.2422 124.589 22.5988 125.281C21.9554 125.973 21.9921 127.013 22.6844 127.657C39.2806 143.116 56.5642 173.014 67.064 208.977H70.6626C68.0181 199.925 65.1411 191.754 62.4354 184.987C52.3295 159.7 38.691 137.919 25.0183 125.183Z" fill="#009035"/>
<path d="M75.3769 61.6195C75.5848 60.6971 75.0074 59.8042 74.0851 59.5962C73.1653 59.3858 72.2454 59.9657 72.0374 60.888C70.9684 65.6023 69.2951 72.9783 68.1428 79.9335C67.2988 76.2639 66.4523 72.7336 65.6059 69.3575C66.0071 61.9497 67.0542 52.7853 68.16 43.1096L68.2676 42.1751C68.3753 41.2357 67.7 40.3867 66.7606 40.2791C65.8261 40.1666 64.9723 40.8466 64.8647 41.7861L64.757 42.7206C64.0965 48.4918 63.458 54.082 62.9638 59.2415C60.2459 49.2869 57.6503 41.1794 55.4314 35.484C55.0889 34.6033 54.0932 34.1678 53.2149 34.5103C52.3342 34.8529 51.8988 35.8461 52.2413 36.7268C54.4675 42.4369 57.0729 50.5884 59.8006 60.6066C56.0038 55.7161 51.4096 51.2245 47.4024 47.3053C45.7706 45.7102 44.2294 44.2032 42.8423 42.7745C42.1842 42.0968 41.1004 42.0796 40.4228 42.7377C39.7451 43.3958 39.728 44.4796 40.3861 45.1573C41.805 46.6178 43.3609 48.142 45.0097 49.7517C51.8107 56.4012 59.5193 63.9387 62.7657 72.1954C62.7877 72.2542 62.8146 72.3104 62.8415 72.3642C63.4066 74.6663 63.9767 77.0443 64.5418 79.4785C58.9469 70.6542 52.3416 65.2769 46.7149 60.6947L45.7877 59.9387C45.0563 59.3418 43.9774 59.4494 43.378 60.1834C42.7811 60.9148 42.8888 61.9938 43.6203 62.5931L44.5524 63.3515C52.1508 69.5386 61.6061 77.2376 67.5337 93.3621C67.568 93.4575 67.612 93.4967 67.6609 93.5823C74.594 126.771 80.6952 168.61 81.6395 208.976H85.0425C84.059 167.142 77.5834 123.754 70.3544 89.8784C70.8559 81.5189 73.7892 68.6138 75.3769 61.6195Z" fill="#009035"/>
</svg>
