<svg width="47" height="74" viewBox="0 0 47 74" fill="none" xmlns="http://www.w3.org/2000/svg">
<path d="M18.5863 79.1069C19.2124 77.8151 20.1908 76.9539 20.9735 75.7795C21.8736 74.4094 21.2866 73.7831 20.8953 72.3738C20.0734 69.3596 24.3 68.4201 26.1394 66.776C27.3917 65.6408 28.5266 64.3098 28.057 62.5091C27.6265 60.9824 26.1394 60.865 25.3958 59.5732C24.1435 57.3027 28.057 55.6195 29.6224 54.7974C31.7357 53.7013 34.0839 53.075 36.2363 51.9789C38.0365 51.0394 39.8759 50.0999 41.5196 48.8473C43.9068 47.0466 46.568 43.7975 46.0201 40.5484C45.7853 39.1783 44.9243 37.8474 43.672 37.221C42.5762 36.673 40.8543 36.8296 40.3064 35.4595C39.4454 33.1107 41.4804 30.7228 42.8893 29.0396C44.5721 27.0432 45.981 24.5378 46.568 21.9542C47.2333 19.0574 46.5289 14.4774 43.5546 13.1073C42.224 12.481 40.2672 13.4205 39.1715 12.5201C37.5278 11.1109 38.8192 7.74434 38.3887 5.94364C37.9974 4.37781 37.4886 3.82977 36.0015 4.0255C32.8707 4.4561 33.3794 0.737264 30.9139 0.110933C29.3876 -0.280523 27.6265 0.424099 26.4525 1.2853C25.6698 1.87249 25.0436 2.61626 24.0261 2.69455C21.8345 2.89028 20.5822 1.71591 18.6254 3.20344C17.1774 4.33866 16.2773 6.10022 15.8077 7.86177C15.1815 10.0931 14.5162 12.9899 11.5028 12.0504C6.02384 10.328 4.38015 16.5521 4.69324 20.7016C4.96718 24.303 11.9333 39.2566 3.36263 38.0822C-2.42939 37.2993 0.662301 47.2815 2.34512 49.7085C3.59745 51.5092 7.58925 54.954 6.65 57.4593C6.06297 59.0252 4.49756 58.2814 3.44091 59.1034C2.42339 59.8864 2.30598 61.6871 2.6582 62.7831C3.44091 65.2102 5.74989 66.6586 7.27617 68.5376C7.94147 69.3596 8.91985 70.6906 9.11553 71.7083C9.35034 73.0393 8.33282 74.5268 8.33282 75.8969C8.29369 77.3062 9.15466 78.0108 9.62429 79.1852C10.2505 80.6336 10.133 82.3168 10.9549 83.6869C11.3462 84.3524 11.6985 84.783 12.4812 84.9004C12.8725 84.9787 13.2247 84.5873 13.5378 84.6264C13.8509 84.6656 14.0074 85.1353 14.3597 85.1745C17.06 85.5268 17.6862 80.9859 18.5863 79.1069Z" fill="#459C27"/>
</svg>
