<svg width="94" height="155" viewBox="0 0 94 155" fill="none" xmlns="http://www.w3.org/2000/svg">
<path d="M37.0019 157.488C38.2484 154.916 40.1962 153.201 41.7545 150.863C43.5464 148.136 42.3777 146.889 41.5986 144.083C39.9625 138.082 48.3769 136.212 52.0388 132.939C54.5319 130.679 56.7913 128.029 55.8564 124.444C54.9994 121.405 52.0388 121.171 50.5584 118.599C48.0653 114.079 55.8564 110.728 58.9729 109.092C63.1801 106.91 67.8548 105.663 72.1399 103.481C75.7238 101.61 79.3856 99.7399 82.6579 97.2461C87.4105 93.6613 92.7085 87.1929 91.6177 80.7246C91.1503 77.9969 89.4362 75.3473 86.943 74.1003C84.7615 73.0093 81.3334 73.321 80.2427 70.5934C78.5286 65.9175 82.58 61.1636 85.3848 57.8126C88.735 53.838 91.5398 48.8504 92.7085 43.7069C94.033 37.9399 92.6306 28.8219 86.7093 26.0943C84.0603 24.8473 80.1648 26.7177 77.9832 24.9253C74.711 22.1197 77.282 15.4176 76.425 11.8327C75.6459 8.71543 74.633 7.62438 71.6724 8.01404C65.4395 8.87129 66.4524 1.46776 61.5439 0.220848C58.5054 -0.558471 54.9994 0.844304 52.662 2.55881C51.1038 3.72779 49.8572 5.20849 47.8315 5.36436C43.4685 5.75402 40.9753 3.41606 37.0798 6.37747C34.1971 8.6375 32.4051 12.1444 31.4702 15.6514C30.2236 20.0935 28.8991 25.8605 22.8999 23.9901C11.9923 20.5611 8.72003 32.9523 9.34332 41.2131C9.8887 48.3828 23.7569 78.1528 6.69433 75.8148C-4.83655 74.2562 1.31845 94.1289 4.66864 98.9606C7.16181 102.546 15.1088 109.404 13.2389 114.391C12.0702 117.508 8.95377 116.028 6.85016 117.664C4.82446 119.223 4.59073 122.808 5.29193 124.99C6.85016 129.822 11.4469 132.705 14.4855 136.446C15.81 138.082 17.7577 140.732 18.1473 142.758C18.6148 145.408 16.5891 148.369 16.5891 151.097C16.5112 153.903 18.2252 155.305 19.1602 157.643C20.4067 160.527 20.173 163.878 21.8091 166.606C22.5883 167.93 23.2895 168.788 24.8477 169.021C25.6268 169.177 26.328 168.398 26.9513 168.476C27.5746 168.554 27.8862 169.489 28.5874 169.567C33.9633 170.268 35.2099 161.228 37.0019 157.488Z" fill="#358B17"/>
</svg>
