<svg width="1049" height="903" viewBox="0 0 1049 903" fill="none" xmlns="http://www.w3.org/2000/svg">
<path d="M327.029 625.68C308.145 579.122 350.398 591.695 372.17 570.691C400.909 542.966 334.129 522.761 316.404 517.82C285.899 509.224 234.305 492.203 216.658 463.128C178.546 399.619 328.606 446.489 288.868 397.672C262.041 364.665 216.217 350.658 187.31 319.154C174.368 305.056 160.056 281.176 175.777 263.486C188.707 248.656 218.991 260.157 228.734 241.504C242.714 215.566 201.515 172.03 198.537 146.3C194.66 113.193 203.374 75.0076 239.844 65.5662C261.348 59.963 272.902 75.0636 292.176 79.5194C310.594 83.9598 315.232 63.5026 331.511 62.9404C343.332 62.6401 363.284 77.3786 369.629 86.7365C380.15 102.161 382.758 129.424 402.829 137.318C425.792 146.291 433.84 116.823 454.428 114.627C535.735 107.021 504.826 239.808 519.711 279.96C528.224 302.538 542.456 271.983 549.615 264.067C564.981 247.056 580.316 241.683 598.703 257.763C633.957 288.697 621.891 342.399 611.112 381.232C607.656 392.81 566.615 477.999 594.331 479.526C616.72 482.155 630.201 435.668 655.954 441.781C699.27 452.319 677.769 536.491 672.348 562.583C667.474 586.802 661.761 600.222 675.424 622.036C689.589 644.544 707.532 666.436 703.957 694.786C701.149 718.357 681.443 738.714 687.343 763.812C693.243 788.91 721.016 806.87 738.532 823.79C756.388 840.887 823.786 874.797 792.331 901.104C765.238 873.57 737.643 845.342 709.68 818.648C686.098 795.97 672.405 775.867 636.733 778.818C609.975 781.245 576.033 763.516 557.69 744.869C542.713 729.707 550.347 704.34 534.483 690.873C503.257 664.634 456.544 682.107 420.754 681.975C383.591 681.989 341.65 661.376 327.029 625.68Z" fill="#EDEDED"/>
</svg>
