<svg width="119" height="100" viewBox="0 0 119 100" fill="none" xmlns="http://www.w3.org/2000/svg">
<path d="M25.5734 24.3914C41.79 27.4365 57.4011 20.2948 60.903 1.64576C64.4048 -17.0033 52.4477 -29.3216 36.2311 -32.3666C20.0146 -35.4117 4.40343 -28.27 0.901606 -9.62097C-2.60022 9.0281 9.35684 21.3464 25.5734 24.3914ZM19.3239 84.4955L108.587 -16.2618L99.6677 -17.9366L10.4048 82.8207L19.3239 84.4955ZM26.1824 21.1481C20.5066 20.0823 17.8228 12.0236 21.1723 -5.81464C24.5219 -23.6529 29.9463 -30.1891 35.6221 -29.1233C41.2979 -28.0575 44.3777 -22.107 40.6322 -2.16057C37.2827 15.6777 31.8582 22.2139 26.1824 21.1481ZM82.7605 98.9255C98.9771 101.971 114.588 94.8289 118.09 76.1799C121.592 57.5308 109.635 45.2125 93.4182 42.1675C77.2016 39.1224 61.5905 46.264 58.0887 64.9131C54.5869 83.5622 66.5439 95.8804 82.7605 98.9255ZM83.3695 95.6822C77.6937 94.6164 75.0098 86.5577 78.3594 68.7194C81.709 50.8812 87.1334 44.345 92.8092 45.4108C98.485 46.4765 101.169 54.5353 97.8193 72.3735C94.4697 90.2118 89.0453 96.748 83.3695 95.6822Z" fill="#FBEE82"/>
</svg>
