<svg width="290" height="265" viewBox="0 0 290 265" fill="none" xmlns="http://www.w3.org/2000/svg">
<path d="M68.816 276.087C72.9648 273.173 77.4623 272.193 81.8928 269.91C87.0216 267.224 86.2837 264.284 87.4928 259.262C90.1259 248.547 104.785 252.897 113.283 250.976C119.097 249.62 124.883 247.458 126.522 241.094C127.812 235.642 123.422 232.729 123.343 227.466C123.371 218.309 138.339 219.825 144.582 219.972C152.986 220.213 161.309 222.308 169.834 222.616C177.003 222.803 184.292 223.058 191.515 222.01C201.973 220.546 215.761 215.081 219.643 204.111C221.268 199.479 220.893 193.893 218.102 189.812C215.659 186.24 210.075 183.77 210.733 178.601C212.104 169.873 222.482 165.992 229.719 163.213C238.338 159.936 246.984 154.619 253.228 147.65C260.251 139.848 265.932 124.501 259.1 115.17C256.067 110.954 248.415 110.498 246.576 105.839C243.92 98.6695 253.681 90.4921 255.441 84.1948C256.918 78.6898 256.288 76.1253 251.361 74.1787C240.957 70.1379 248.907 59.5303 242.37 53.3678C238.33 49.5414 231.684 48.6959 226.583 49.3406C223.159 49.8108 219.951 51.0328 216.675 49.5292C209.574 46.3743 207.722 40.6009 199.13 41.8366C192.713 42.8574 186.913 46.7515 182.442 51.384C176.681 57.1981 169.659 64.9994 161.968 56.9304C148.008 42.2154 132.258 58.6104 126.107 71.9569C120.776 83.5445 116.631 141.656 92.1875 123.33C75.6502 110.978 68.0725 147.096 69.1044 157.475C69.8818 165.182 76.2959 182.663 69.0992 188.786C64.6012 192.613 61.0444 187.632 56.3725 188.357C51.8884 189.029 48.4374 194.386 47.6446 198.374C45.8979 207.209 50.5415 215.641 52.0302 224.059C52.674 227.738 53.4114 233.525 52.2697 237.003C50.7117 241.514 45.019 244.361 42.669 248.59C40.131 252.874 41.5802 256.526 41.0156 260.956C40.4643 266.502 37.2146 271.497 37.4016 277.136C37.4683 279.862 37.817 281.795 40.0318 283.5C41.1056 284.413 42.8644 283.809 43.7638 284.467C44.6631 285.124 44.3406 286.843 45.3608 287.568C53.0926 293.287 62.8144 280.343 68.816 276.087Z" fill="#CEF3C1"/>
</svg>
