<svg width="957" height="562" viewBox="0 0 957 562" fill="none" xmlns="http://www.w3.org/2000/svg">
<path d="M496.49 507.387C496.49 507.387 814.731 510.545 903.373 439.537C992.015 368.529 958.652 297.739 890.776 277.686C822.9 257.632 811.324 236.775 847.845 208.647C884.366 180.514 930.751 122.772 853.736 64.7428C776.721 6.71353 688.843 90.0654 620.005 78.9959C551.173 67.9264 578.435 30.6503 487.913 56.3934C397.392 82.1366 417.351 7.1812 344.576 0.389307C271.8 -6.40258 279.261 78.348 204.409 46.3579C129.556 14.3635 68.3304 18.7785 36.1473 69.5868C3.96837 120.395 17.9469 188.825 88.5474 229.61C159.148 270.392 151.571 267.611 125.184 307.685C98.7974 347.758 75.1395 479.546 195.257 498.368C315.374 517.191 496.49 507.387 496.49 507.387Z" fill="#4EAD2D"/>
<path d="M854.27 324.564C854.27 324.564 899.625 244.983 885.553 233.129C871.484 221.274 871.231 255.705 865.537 250.827C859.844 245.949 869.128 217.202 866.601 197.225C864.07 177.249 858.578 150.527 851.482 177.382C844.385 204.236 845.273 230.713 842.197 217.03C839.125 203.348 828.523 132.035 814.892 153.316C801.261 174.597 798.399 202.297 812.142 218.438C825.88 234.579 844.325 252.603 821.65 240.706C798.974 228.808 783.515 234.115 807.77 255.671C807.77 255.671 844.243 285.859 828.411 284.443C812.575 283.027 787.364 299.743 813.347 311.821C813.352 311.817 850.263 317.18 854.27 324.564Z" fill="#009035"/>
<path d="M835.428 397.138C835.428 397.138 747.03 392.942 750.943 372.476C754.856 352.01 783.706 365.714 796.543 367.014C809.38 368.314 801.85 359.536 775.7 341.129C749.549 322.723 735.176 295.762 762.862 308.333C790.549 320.904 801.614 344.51 799.739 327.859C797.864 311.207 762.275 264.333 792.377 283.525C822.479 302.721 820.42 320.479 821.329 334.492C822.239 348.505 826.246 307.372 835.66 313.499C845.073 319.625 839.727 325.92 836.359 342.211C832.991 358.497 842.421 345.368 845.541 340.023C848.66 334.677 856.318 347.501 848.814 365.191C841.314 382.889 835.428 397.138 835.428 397.138Z" fill="#8DD873"/>
<path d="M853.03 490.324C852.97 490.375 852.931 490.435 852.914 490.5C852.906 490.504 852.901 490.624 852.91 490.534L852.923 490.281L852.974 489.277L853.056 487.222L853.193 483.073L853.408 474.74L853.695 458.05C853.837 446.921 853.888 435.787 853.849 424.653C853.785 402.385 853.382 380.117 852.532 357.875C852.09 346.754 851.528 335.642 850.829 324.538C850.091 313.438 849.199 302.356 848.066 291.299C846.925 280.247 845.483 269.233 843.569 258.322C841.613 247.442 839.245 236.569 835.336 226.384L835.314 226.328C834.928 225.328 835.43 224.204 836.43 223.818C837.421 223.436 838.537 223.925 838.927 224.912C843.162 235.518 845.689 246.519 847.834 257.533C849.924 268.56 851.528 279.655 852.828 290.767C854.12 301.884 855.171 313.018 856.063 324.16C856.917 335.303 857.638 346.458 858.23 357.614C859.389 379.929 860.096 402.256 860.465 424.589C860.654 435.757 860.757 446.921 860.766 458.093L860.706 474.852L860.607 483.244L860.526 487.453L860.47 489.577L860.431 490.663L860.423 490.933C860.423 491.014 860.397 491.306 860.375 491.486C860.332 491.898 860.264 492.306 860.174 492.705C859.517 494.678 857.381 495.747 855.407 495.09C853.442 494.434 852.374 492.302 853.03 490.324Z" fill="#8DD873"/>
<path d="M852.546 494.614C852.511 494.713 852.498 494.82 852.503 494.923C852.498 494.949 852.52 495.078 852.511 495.022L852.49 494.863L852.4 494.232L852.202 492.937L851.786 490.306L850.911 485.025L849.083 474.457C847.835 467.417 846.535 460.38 845.183 453.352C842.489 439.301 839.605 425.284 836.473 411.327C833.324 397.378 829.935 383.481 826.013 369.76C824.048 362.904 821.929 356.095 819.547 349.402C817.145 342.73 814.519 336.105 811.091 330.068L811.065 330.021C810.537 329.09 810.863 327.902 811.794 327.374C812.713 326.851 813.88 327.164 814.42 328.069C818.213 334.436 821.023 341.147 823.619 347.9C826.189 354.666 828.48 361.509 830.613 368.391C834.864 382.16 838.567 396.065 842.034 410.018C845.479 423.975 848.676 437.988 851.679 452.039C853.185 459.067 854.639 466.099 856.042 473.149L858.106 483.733L859.102 489.045L859.582 491.718L859.818 493.074L859.934 493.773L859.964 493.949L860.015 494.378C860.046 494.704 860.058 495.03 860.05 495.356C859.848 497.429 858.003 498.943 855.931 498.742C853.854 498.531 852.34 496.687 852.546 494.614Z" fill="#8DD873"/>
<path d="M871.492 340.627C871.492 340.627 961.108 326.344 952.557 307.342C944.006 288.339 919.121 308.359 906.932 312.598C894.747 316.837 892.996 314.721 914.165 290.755C935.335 266.788 937.313 241.92 913.29 260.566C889.272 279.213 897.583 296.508 895.549 279.874C893.515 263.244 925.621 199.74 900.783 225.388C875.95 251.037 872.912 272.867 875.281 286.709C877.645 300.55 864.211 261.467 856.475 269.611C848.739 277.754 855.398 282.637 862.452 297.701C869.506 312.765 857.286 302.18 853.013 297.701C848.739 293.222 844.264 307.47 855.66 322.942C867.06 338.418 871.492 340.627 871.492 340.627Z" fill="#009035"/>
<path d="M864.739 492.709C864.653 492.357 864.589 491.988 864.55 491.624C864.533 491.469 864.512 491.194 864.512 491.134L864.503 490.928L864.477 490.109L864.439 488.509L864.383 485.355L864.323 479.074L864.306 466.533C864.331 458.175 864.43 449.821 864.589 441.467C864.906 424.76 865.473 408.057 866.378 391.363C867.305 374.668 868.553 357.982 870.54 341.344C871.535 333.025 872.754 324.722 874.337 316.459C875.963 308.208 877.872 299.962 881.082 291.981C881.481 290.986 882.613 290.505 883.609 290.905C884.591 291.299 885.076 292.41 884.699 293.397L884.677 293.453C881.794 301.013 880.048 309.131 878.606 317.248C877.199 325.392 876.139 333.621 875.307 341.876C873.642 358.394 872.702 375.003 872.084 391.624C871.488 408.25 871.226 424.893 871.213 441.536C871.205 449.855 871.261 458.179 871.389 466.498L871.634 478.967L871.806 485.188L871.917 488.286L871.981 489.813L872.02 490.555L872.029 490.74C872.033 490.808 872.029 490.667 872.016 490.641C871.999 490.534 871.956 490.426 871.891 490.332C872.548 492.306 871.484 494.442 869.506 495.099C867.532 495.751 865.4 494.683 864.739 492.709Z" fill="#8DD873"/>
<path d="M821.839 475.431H896.043C900.909 475.431 904.504 479.958 903.41 484.694C898.665 505.263 892.971 526.132 881.331 547.315C879.181 551.227 875.088 553.682 870.622 553.682H846.41C842.013 553.682 837.98 551.266 835.894 547.392C826.567 530.058 817.595 509.399 813.163 485.947C812.133 480.494 816.287 475.431 821.839 475.431Z" fill="#009035"/>
<path d="M115.984 325.448C115.984 325.448 166.934 249.325 153.749 236.492C140.568 223.659 137.844 257.979 132.515 252.71C127.186 247.437 138.513 219.429 137.423 199.324C136.334 179.218 132.772 152.171 123.767 178.446C114.761 204.721 113.744 231.194 111.663 217.327C109.578 203.46 104.129 131.572 89.0049 151.819C73.8808 172.066 69.0411 199.491 81.5866 216.576C94.1321 233.661 111.234 252.964 89.4726 239.466C67.7068 225.972 51.9091 230.155 74.5544 253.397C74.5544 253.397 108.767 286.125 93.0766 283.576C77.3819 281.028 51.0381 295.89 76.0862 309.8C76.0819 309.796 112.513 317.793 115.984 325.448Z" fill="#009035"/>
<path d="M102.844 490.693C102.779 490.74 102.736 490.8 102.719 490.86C102.711 490.864 102.698 490.984 102.711 490.89L102.741 490.641L102.861 489.641L103.092 487.599L103.526 483.467L104.337 475.174L105.821 458.548C106.761 447.457 107.61 436.353 108.374 425.249C109.906 403.033 111.103 380.795 111.854 358.549C112.214 347.424 112.45 336.298 112.549 325.177C112.609 314.056 112.514 302.935 112.175 291.827C111.828 280.723 111.184 269.632 110.06 258.614C108.889 247.622 107.31 236.608 104.144 226.169L104.126 226.114C103.813 225.088 104.392 224.003 105.422 223.694C106.439 223.385 107.516 223.951 107.838 224.964C111.3 235.844 113.034 247.004 114.381 258.138C115.672 269.289 116.475 280.466 116.977 291.643C117.47 302.819 117.719 314.001 117.809 325.182C117.86 336.358 117.779 347.531 117.569 358.703C117.122 381.044 116.226 403.363 114.99 425.666C114.376 436.817 113.677 447.963 112.883 459.106L111.618 475.817L110.914 484.18L110.532 488.372L110.322 490.487L110.206 491.564L110.176 491.834C110.167 491.915 110.125 492.207 110.09 492.383C110.017 492.791 109.919 493.194 109.803 493.585C109.005 495.507 106.799 496.416 104.877 495.618C102.959 494.82 102.046 492.615 102.844 490.693Z" fill="#8DD873"/>
<path d="M137.078 397.138C137.078 397.138 225.476 392.942 221.563 372.476C217.65 352.01 188.801 365.714 175.963 367.014C163.126 368.314 170.656 359.536 196.807 341.129C222.957 322.723 237.331 295.762 209.644 308.333C181.957 320.904 170.892 344.51 172.767 327.859C174.642 311.207 210.232 264.333 180.129 283.525C150.027 302.721 152.087 320.479 151.177 334.492C150.267 348.505 146.26 307.372 136.847 313.499C127.433 319.625 132.779 325.92 136.147 342.211C139.515 358.497 130.085 345.368 126.966 340.023C123.846 334.677 116.188 347.501 123.692 365.191C131.196 382.889 137.078 397.138 137.078 397.138Z" fill="#009035"/>
<path d="M119.968 494.614C120.002 494.713 120.015 494.82 120.011 494.923C120.015 494.949 119.994 495.078 120.002 495.022L120.024 494.863L120.114 494.232L120.311 492.937L120.728 490.306L121.603 485.025L123.431 474.457C124.679 467.417 125.979 460.38 127.331 453.352C130.025 439.301 132.908 425.284 136.04 411.327C139.19 397.378 142.579 383.481 146.501 369.76C148.466 362.904 150.585 356.095 152.966 349.402C155.369 342.73 157.995 336.105 161.423 330.068L161.449 330.021C161.977 329.09 161.65 327.902 160.719 327.374C159.801 326.851 158.634 327.164 158.094 328.069C154.301 334.436 151.491 341.147 148.895 347.9C146.325 354.666 144.034 361.509 141.901 368.391C137.649 382.16 133.947 396.065 130.48 410.018C127.035 423.975 123.838 437.988 120.835 452.039C119.329 459.067 117.874 466.099 116.471 473.149L114.408 483.733L113.412 489.045L112.932 491.718L112.696 493.074L112.58 493.773L112.55 493.949L112.498 494.378C112.468 494.704 112.455 495.03 112.464 495.356C112.666 497.429 114.511 498.943 116.583 498.742C118.655 498.531 120.17 496.687 119.968 494.614Z" fill="#8DD873"/>
<path d="M84.4695 360.656C84.4695 360.656 -6.15488 355.953 0.332381 336.152C6.81964 316.352 33.6912 333.617 46.2581 336.543C58.825 339.469 60.3396 337.178 36.7503 315.588C13.1567 293.998 8.55731 269.482 34.4206 285.477C60.2838 301.472 53.848 319.552 54.1097 302.798C54.3715 286.043 15.7139 226.302 43.126 249.175C70.5381 272.048 75.8713 293.432 74.9874 307.449C74.1036 321.462 83.3196 281.178 91.8749 288.455C100.43 295.731 94.3291 301.296 88.9101 317.021C83.4912 332.746 94.5221 320.925 98.2935 316.021C102.065 311.117 108.029 324.808 98.3364 341.4C88.6441 357.983 84.4695 360.656 84.4695 360.656Z" fill="#8DD873"/>
<path d="M107.308 511.163C107.356 510.802 107.381 510.429 107.381 510.06C107.381 509.901 107.377 509.631 107.368 509.571L107.356 509.365L107.295 508.545L107.167 506.949L106.888 503.804L106.283 497.553L104.97 485.081C104.056 476.774 103.078 468.476 102.031 460.183C99.9458 443.604 97.6118 427.051 94.9431 410.55C92.2486 394.049 89.241 377.59 85.5039 361.256C83.6333 353.091 81.5438 344.961 79.0896 336.916C76.5968 328.884 73.8252 320.887 69.7878 313.288C69.2858 312.34 68.1102 311.98 67.162 312.486C66.2266 312.984 65.8619 314.138 66.3425 315.077L66.3682 315.129C70.0366 322.341 72.6324 330.227 74.9278 338.147C77.1932 346.094 79.1154 354.164 80.8187 362.286C84.2254 378.534 86.9198 394.95 89.2968 411.412C91.6523 427.879 93.6774 444.402 95.4494 460.951C96.3375 469.223 97.1656 477.504 97.9207 485.789L98.9976 498.214L99.4867 504.422L99.7056 507.511L99.8042 509.035L99.8429 509.777L99.8514 509.961C99.8557 510.03 99.8472 509.888 99.8514 509.863C99.86 509.755 99.8901 509.644 99.9415 509.545C99.4953 511.579 100.782 513.587 102.816 514.033C104.854 514.479 106.862 513.192 107.308 511.163Z" fill="#8DD873"/>
<path d="M76.0648 475.431H150.265C155.13 475.431 158.726 479.958 157.632 484.694C152.882 505.263 147.193 526.132 135.553 547.315C133.403 551.227 129.31 553.682 124.844 553.682H100.632C96.2345 553.682 92.2014 551.266 90.1162 547.392C80.7887 530.058 71.8172 509.399 67.3851 485.947C66.3554 480.494 70.5129 475.431 76.0648 475.431Z" fill="#009035"/>
<path d="M569.707 272.224C569.707 272.224 578.104 250.827 553.262 254.083C528.42 257.336 532.646 271.975 530.681 279.303C528.716 286.631 518.294 294.938 489.29 306.248C460.286 317.557 468.885 348.385 481.915 358.618C494.941 368.85 502.046 362.05 505.075 379.71C508.104 397.37 520.191 411.713 535.272 396.743C550.353 381.774 567.494 364.067 562.701 340.855C557.909 317.639 563.336 322.032 572.694 311.383C582.056 300.73 562.221 290.42 569.707 272.224Z" fill="#009035"/>
<path d="M411.695 472.81H404.525V550.357H411.695V472.81Z" fill="#8DD873"/>
<path d="M439.51 551.854H376.706C376.706 549.275 378.795 547.186 381.374 547.186H434.842C437.421 547.186 439.51 549.275 439.51 551.854Z" fill="#8DD873"/>
<path d="M448.832 470.12C448.832 474.363 445.361 477.83 441.122 477.83H377.58C373.336 477.83 369.87 474.359 369.87 470.12V463.147C369.87 458.904 373.341 455.437 377.58 455.437H441.122C445.366 455.437 448.832 458.908 448.832 463.147V470.12Z" fill="#8DD873"/>
<path d="M367.797 218.433C367.797 218.433 374.73 201.16 353.32 198.307C331.911 195.458 323.673 213.469 315.212 237.106C308.283 256.456 284.934 267.139 269.793 279.046C250.726 294.037 241.857 316.948 248.846 341.108C254.566 360.87 276.224 367.525 294.772 366.774C351.527 364.478 365.669 365.688 369.092 329.785C372.516 293.882 367.797 218.433 367.797 218.433Z" fill="#009035"/>
<path d="M430.245 227.465C429.765 226.551 428.413 226.693 428.134 227.688C427.109 231.374 424.633 237.801 419.433 240.083C419.172 240.199 418.923 240.315 418.682 240.431C418.446 239.723 418.442 238.903 419.008 238.041C420.626 235.57 417.708 232.197 417.708 232.197C417.708 232.197 417.515 235.166 415.259 237.037C413.315 238.65 412.38 242.233 413.71 245.176C416.524 256.104 420.738 270.559 404.326 281.118C387.915 291.677 364.806 261.193 364.806 261.193L376.275 297.555C376.275 297.555 393.978 310.619 414.572 292.247C435.167 273.875 421.514 247.146 421.514 247.146C421.514 247.146 437.222 240.808 430.245 227.465Z" fill="white"/>
<path d="M363.273 257.198C358.365 255.727 344.073 253.011 330.476 265.556C328.172 267.684 327.228 270.919 328.052 273.944C331.703 287.386 341.34 327.104 332.892 344.292C332.892 344.292 347.78 360.703 364.02 347.475C364.02 347.475 371.305 315.717 380.851 301.773C387.442 292.149 370.344 265.629 366.019 259.219C365.362 258.254 364.397 257.533 363.273 257.198Z" fill="#FFE401"/>
<path d="M349.719 230.49C349.719 230.49 342.459 251.024 341.915 260.086C341.915 260.086 349.938 263.733 357.498 257.576C357.498 257.576 358.291 237.063 359.437 233.39L349.719 230.49Z" fill="white"/>
<path d="M366.269 214.392C366.269 214.392 378.965 244.486 366.196 249.523C353.427 254.564 344.383 233.171 344.383 233.171C344.383 233.171 343.276 218.013 348.854 214.212C354.431 210.41 366.269 214.392 366.269 214.392Z" fill="white"/>
<path d="M359.09 206.266C359.09 206.266 367.148 210.196 367.474 214.315C367.8 218.433 353.736 219.021 349.981 218.361L343.494 233.227C343.494 233.227 337.929 216.619 343.335 208.964C348.737 201.31 359.09 206.266 359.09 206.266Z" fill="#009035"/>
<path d="M348.41 232.073C348.41 232.073 343.077 222.102 338.984 226.899C334.89 231.7 343.33 237.891 347.17 235.947L348.41 232.073Z" fill="white"/>
<path d="M382.973 414.154C382.917 415.596 385.449 427.03 386.826 433.131C387.379 435.585 386.993 438.155 385.745 440.339L338.034 520.636C337.455 521.606 337.039 522.661 336.781 523.76C335.906 527.527 334.095 536.764 335.039 545.165L337.506 550.292L326.832 547.868L324.51 519.203L327.531 517.362C330.14 515.771 332.173 513.389 333.34 510.562C337.652 500.085 348.366 473.406 351.129 460.406C354.265 445.629 370.672 433.633 370.672 433.633L367.789 426.82L382.973 414.154Z" fill="#CDFFBC"/>
<path d="M314.973 538.004C314.973 538.004 320.735 528.865 321.417 525.309C322.095 521.752 323.983 515.47 327.536 517.363C327.536 517.363 329.209 534.645 328.634 541.394C328.055 548.147 336.267 547.928 336.267 547.928C336.267 547.928 338.528 548.246 340.188 549.902C341.334 551.047 340.514 553.03 338.901 553.137C336.215 553.308 331.946 553.356 327.467 552.489C325.901 552.184 324.738 550.854 324.644 549.263L323.46 529.376L316.187 538.558L314.973 538.004Z" fill="#007C2E"/>
<path d="M354.471 426.944C354.471 426.944 352.789 498.772 352.562 508.97C352.334 519.173 354.171 541.78 364.399 548.537L359.95 551.833C359.95 551.833 354.389 547.104 348.958 538.009C342.856 527.789 341.007 525.922 341.007 525.922L343.032 521.773C343.921 519.958 344.178 517.903 343.77 515.925C341.565 505.229 334.19 469.652 332.182 461.993C329.809 452.949 329.637 440.871 337.897 430.763C346.156 420.654 354.471 426.944 354.471 426.944Z" fill="white"/>
<path d="M345.025 555.072C344.708 555.076 344.437 554.849 344.394 554.536C344.055 552.141 342.64 542.539 341.477 540.055C340.147 537.206 335.809 525.227 341.481 524.21C341.481 524.21 355.571 544.8 358.278 547.572C360.982 550.348 364.397 548.542 364.397 548.542C364.397 548.542 367.031 549.318 369.022 551.863C369.966 553.073 369.086 554.844 367.55 554.862L358.06 554.952C355.305 554.977 352.825 553.304 351.8 550.743C350.131 546.568 347.26 540.45 343.914 537.734L345.651 554.377C345.69 554.746 345.398 555.068 345.025 555.072Z" fill="#007C2E"/>
<path d="M366.262 339.731C366.262 339.731 364.121 346.548 367.408 357.777L387.792 428.961C388.114 430.08 387.509 431.252 386.415 431.642C380.318 433.83 360.273 440.017 332.912 438.13C331.535 438.035 330.381 437.061 330.08 435.71C328.278 427.596 322.126 399.905 320.86 394.216C316.033 372.54 310.644 349.161 334.349 335.024C345.277 339.709 355.463 342.468 366.262 339.731Z" fill="#FFE401"/>
<path d="M328.53 268.238C328.53 268.238 305.34 287.511 299.582 313.85C293.824 340.19 333.473 342.987 333.473 342.987C333.473 342.987 338.853 336.976 345.246 339.122C351.635 341.267 345.739 328.631 338.265 328.666C330.791 328.7 334.254 334.612 323.678 329.82C313.376 325.152 307.009 310.723 333.293 288.841C334.816 287.571 336.034 285.958 336.764 284.113C341.865 271.258 337.815 262.836 328.53 268.238Z" fill="white"/>
<path d="M183.758 463.426C181.887 466.198 174.447 528.908 173.28 552.069C173.203 553.635 174.456 554.939 176.022 554.939C177.373 554.939 178.523 553.952 178.734 552.618L192.339 465.421L183.758 463.426Z" fill="#8DD873"/>
<path d="M243.57 463.426C245.44 466.198 252.88 528.908 254.047 552.069C254.124 553.635 252.872 554.939 251.306 554.939C249.954 554.939 248.804 553.952 248.594 552.618L234.989 465.421L243.57 463.426Z" fill="#8DD873"/>
<path d="M172.505 458.531L172.501 459.213C172.458 464.134 176.693 468.167 182 468.258L244.895 469.326C250.125 469.416 254.484 465.636 254.738 460.792L254.772 460.166C255.038 455.116 250.747 450.859 245.294 450.761L182.374 449.632C176.985 449.542 172.548 453.541 172.505 458.531Z" fill="#8DD873"/>
<path d="M733.22 463.426C731.349 466.198 723.909 528.908 722.742 552.069C722.665 553.635 723.918 554.939 725.484 554.939C726.835 554.939 727.985 553.952 728.195 552.618L741.801 465.421L733.22 463.426Z" fill="#8DD873"/>
<path d="M793.027 463.426C794.898 466.198 802.338 528.908 803.501 552.069C803.578 553.635 802.325 554.939 800.759 554.939C799.407 554.939 798.258 553.952 798.047 552.618L784.442 465.421L793.027 463.426Z" fill="#8DD873"/>
<path d="M721.967 458.531L721.963 459.213C721.92 464.134 726.155 468.167 731.462 468.258L794.357 469.326C799.587 469.416 803.946 465.636 804.199 460.792L804.234 460.166C804.5 455.116 800.209 450.859 794.756 450.761L731.835 449.632C726.447 449.542 722.014 453.541 721.967 458.531Z" fill="#8DD873"/>
<path d="M328.715 407.21L333.125 406.034L346.52 402.932C348.134 402.559 349.828 402.847 351.227 403.726L362.743 410.973L330.941 410.917L328.715 407.21Z" fill="white"/>
<path d="M304.986 549.79C293.805 549.79 288.858 548.829 286.649 547.958C287.078 549.794 288.712 551.245 290.78 551.245H330.335C331.665 551.245 332.506 549.97 332.188 548.816C327.679 549.177 318.102 549.79 304.986 549.79Z" fill="#74CD5F"/>
<path d="M332.19 548.812C332.125 548.58 332.031 548.348 331.868 548.138C328.856 544.29 322.802 538.249 314.568 538.364C302.508 538.536 298.303 539.84 288.928 538.437L286.719 545.766C286.491 546.512 286.491 547.259 286.65 547.954C288.864 548.829 293.807 549.786 304.988 549.786C318.104 549.79 327.68 549.177 332.19 548.812Z" fill="#007C2E"/>
<path d="M291.648 530.543L288.932 539.772C288.932 539.772 294.943 542.509 300.233 540.312L301.271 532.315L291.648 530.543Z" fill="white"/>
<path d="M373.623 543.977C364.909 550.979 360.455 553.334 358.185 554.042C359.666 555.196 361.845 555.299 363.454 554.004L394.286 529.23C395.324 528.398 395.182 526.879 394.217 526.184C390.931 529.286 383.847 535.765 373.623 543.977Z" fill="#74CD5F"/>
<path d="M394.219 526.184C394.021 526.042 393.807 525.926 393.545 525.866C388.8 524.768 380.313 523.871 373.967 529.118C364.67 536.803 362.207 540.454 354.025 545.234L356.87 552.304C357.161 553.025 357.621 553.604 358.183 554.042C360.452 553.334 364.906 550.983 373.62 543.977C383.848 535.764 390.932 529.286 394.219 526.184Z" fill="#007C2E"/>
<path d="M233.582 425.374C233.582 425.374 300.518 430.84 314.252 437.301C327.982 443.767 303.046 534.366 303.046 534.366C303.046 534.366 299.309 536.164 290.989 533.581C290.989 533.581 299.519 466.722 293.173 452.224L220.698 440.369L233.582 425.374Z" fill="#007C2E"/>
<path d="M347.378 532.508C348 533.074 354.029 545.234 354.029 545.234C354.029 545.234 360.739 543.783 362.108 539.532L356.067 528.556L347.378 532.508Z" fill="white"/>
<path d="M193.27 424.816C193.27 424.816 191.09 430.063 191.176 437.04C191.3 446.685 199.053 454.515 208.69 454.995L287.82 458.604C289.489 458.681 290.905 459.835 291.325 461.457C293.183 468.648 302.274 490.735 346.703 534.808C347.883 535.979 349.728 536.181 351.135 535.292L357.459 531.298C358.124 530.878 358.334 530.007 357.94 529.329L311.864 450.649C309.444 446.655 305.552 443.771 301.03 442.613L233.588 425.374L193.27 424.816Z" fill="#009035"/>
<path d="M271.247 301.914C271.247 301.914 262.769 316.901 254.128 324.165L271.993 334.132C271.993 334.132 276.018 318.265 285.217 313.619L271.247 301.914Z" fill="white"/>
<path d="M191.835 425.374C191.835 425.374 213.197 430.578 233.586 425.374C233.586 425.374 262.118 387.016 273.157 376.578C273.157 376.578 290.766 404.363 329.955 408.297L332.139 403.415C332.139 403.415 300.938 389.033 291.336 366.933C281.73 344.832 277.873 335.41 269.137 329.644C263.697 326.053 260.436 323.598 258.754 322.26C257.832 321.526 256.562 321.444 255.553 322.058C246.277 327.713 202.643 357.596 191.835 425.374Z" fill="#FFE401"/>
<path d="M284.717 279.44C284.717 279.44 292.955 293.136 294.384 300.704C295.813 308.272 298.108 313.005 289.493 315.699C280.877 318.398 272.871 314.983 267.847 307.916C267.847 307.916 260 297.044 260.785 292.063C261.566 287.086 284.717 279.44 284.717 279.44Z" fill="white"/>
<path d="M270.833 289.965C270.833 289.965 296.885 281.315 294.581 269.096C292.273 256.881 280.718 256.19 274.72 266.522C268.722 276.849 251.688 278.441 254.915 288.094C256.224 293.912 244.686 299.421 269.687 310.585C266.77 301.631 268.988 301.485 270.121 301.485C271.253 301.485 271.562 301.485 271.562 301.485C271.562 301.485 263.989 290.857 270.833 289.965Z" fill="#007C2E"/>
<path d="M270.599 303.42C270.599 303.42 266.965 294.457 263.147 297.606C259.328 300.756 266.673 307.719 270.067 307.625L270.599 303.42Z" fill="white"/>
<path d="M587.632 472.81H580.463V550.357H587.632V472.81Z" fill="#8DD873"/>
<path d="M615.448 551.854H552.643C552.643 549.275 554.733 547.186 557.311 547.186H610.78C613.358 547.186 615.448 549.275 615.448 551.854Z" fill="#8DD873"/>
<path d="M624.77 470.12C624.77 474.363 621.299 477.83 617.06 477.83H553.517C549.274 477.83 545.807 474.359 545.807 470.12V463.147C545.807 458.904 549.278 455.437 553.517 455.437H617.06C621.303 455.437 624.77 458.908 624.77 463.147V470.12Z" fill="#8DD873"/>
<path d="M531.108 421.105C531.108 421.105 520.454 422.756 508.471 430.767C506.588 432.028 505.553 434.225 505.837 436.473C507.27 447.835 513.169 484.617 532.618 520.537C533.644 522.43 533.94 524.635 533.485 526.741L530.104 542.466L523.835 548.34H539.976L550.724 519.259L546.129 517.804C542.568 516.676 540.122 513.402 540.058 509.665L539.517 478.469C539.976 464.568 530.996 454.978 530.996 454.978L556.774 453.725L531.108 421.105Z" fill="#CDFFBC"/>
<path d="M517.537 551.18C516.065 553.102 533.356 555.642 542.096 551.433C542.096 551.433 554.203 530.363 554.203 519.516C554.203 519.516 553.242 517.302 546.133 517.804C546.133 517.804 542.066 542.754 537.775 545.547C533.48 548.34 525.762 545.83 525.762 545.83C525.762 545.83 519.703 548.34 517.537 551.18Z" fill="#007C2E"/>
<path d="M553.512 455.433C553.375 455.197 525.757 452.112 525.757 452.112C525.757 452.112 526.662 460.509 523.835 472.067C521.012 483.626 480.462 533.705 480.462 533.705L484.714 547.181C471.568 551.759 458.64 552.493 445.915 549.516L472.263 533.705C472.263 533.705 496.92 449.675 512.027 434.684L539.71 425.108L553.512 455.433Z" fill="white"/>
<path d="M615.448 406.538C615.448 406.538 631.358 430.205 632.666 441C633.97 451.795 628.307 456.18 611.613 456.905C594.918 457.63 550.348 457.617 550.348 457.617L512.308 425.108C512.308 425.108 540.029 415.218 547.238 412.421C554.446 409.623 615.448 406.538 615.448 406.538Z" fill="#007C2E"/>
<path d="M483.111 542.646C483.111 542.646 487.688 547.079 484.595 552.013C484.595 552.013 448.336 558.44 438.493 555.522C438.493 555.522 440.536 550.859 451.622 545.547L450.803 546.173C449.769 546.967 450.374 548.623 451.678 548.55C458.985 548.134 474.1 546.795 483.111 542.646Z" fill="#007C2E"/>
<path d="M572.414 403.406C572.414 403.406 553.888 385.764 544.766 374.076C539.836 367.761 538.288 359.446 540.57 351.761C544.732 337.731 552.133 323.204 552.811 320.943C553.845 317.476 574.62 317.622 574.62 317.622C574.62 317.622 615.5 344.154 631.563 389.097L613.526 394.714C613.526 394.714 602.851 376.805 592.305 365.422C592.305 365.422 610.553 389.531 611.196 399.399L572.414 403.406Z" fill="#FFE401"/>
<path d="M550.293 301.571C550.511 302.292 555.93 320.269 556.355 320.642C556.78 321.015 568.248 321.633 573.646 317.943L560.255 291.754L550.293 301.571Z" fill="white"/>
<path d="M558.618 268.941C558.618 268.941 568.293 273.335 574.57 287.652C580.847 301.97 575.707 308.367 569.443 309.096C563.178 309.826 553.847 309.444 544.219 300.048C534.587 290.647 546.025 263.703 558.618 268.941Z" fill="white"/>
<path d="M551.054 292.672C551.054 292.672 544.219 271.786 562.569 272.031L566.804 275.163C566.804 275.163 573.841 263.87 562.938 258.104C552.036 252.333 538.989 256.516 533.896 271.271C528.799 286.026 527.735 295.968 535.363 303.296C542.996 310.624 546.433 302.635 546.433 302.635C546.433 302.635 542.353 295.865 544.18 292.346C546.008 288.828 549.895 293.234 549.895 293.234L551.054 292.672Z" fill="#009035"/>
<path d="M534.67 404.715L548.283 391.594L567.114 399.549C567.114 399.549 585.86 402.454 596.59 399.549C607.321 396.644 607.321 396.644 607.321 396.644L631.567 389.097L635.372 399.858C636.338 402.591 635.368 405.624 633.004 407.302C630.906 408.791 628.447 410.43 626.881 411.116C623.689 412.515 548.176 410.151 548.176 410.151L534.67 404.715Z" fill="white"/>
<path d="M681.286 534.276C681.286 534.276 682.063 538.588 682.368 543.702C682.496 545.881 680.883 547.778 678.708 547.988C671.139 548.722 653.909 550.078 642.903 548.49C641.363 548.267 640.75 546.375 641.891 545.315C646.426 541.089 657.384 532.868 675.417 531.071L681.286 534.276Z" fill="#007C2E"/>
<path d="M685.049 524.558L681.222 533.937C680.698 535.224 679.394 536.022 678.012 535.876C677.077 535.777 675.966 535.597 674.885 535.271C672.727 534.615 671.508 532.328 672.152 530.165L675.039 520.503L685.049 524.558Z" fill="white"/>
<path d="M750.484 541.745C750.484 541.745 742.821 548.16 739.835 556.385C739.015 558.646 740.748 561.031 743.155 561.031H758.927C761.236 561.031 763.003 558.955 762.604 556.681C761.596 551 758.7 541.771 750.484 541.745Z" fill="#007C2E"/>
<path d="M759.981 533.4C759.981 533.4 758.432 540.252 757.243 544.779C757.029 545.603 756.149 546.053 755.351 545.766C752.966 544.912 751.022 544.534 749.61 544.723C748.958 544.809 748.388 544.268 748.379 543.607L748.229 532.229L759.981 533.4Z" fill="white"/>
<path d="M719.22 379.221L672.603 521.434C672.603 521.434 681.545 527.291 685.805 527.046L741.174 412.755C741.174 412.755 750.862 483.176 746.168 533.735L762.026 534.945C762.026 534.945 787.812 405.745 768.282 361.492L719.22 379.221Z" fill="#009035"/>
<path d="M710.478 254.079C710.478 254.079 748.248 257.434 742.902 284.344C742.902 284.344 763.779 323.633 773.54 369.915C773.858 371.421 772.85 372.888 771.331 373.15L708.436 383.919C706.703 384.215 705.029 383.134 704.587 381.43L689.558 323.35L683.701 350.354L665.093 345.506L680.758 266.157C680.758 266.157 682.946 254.577 710.478 254.079Z" fill="#FFE401"/>
<path d="M689.245 320.749C689.28 320.749 689.31 320.745 689.344 320.741C689.597 320.685 689.756 320.436 689.7 320.183L684.457 296.109C684.401 295.856 684.157 295.697 683.899 295.753C683.646 295.809 683.488 296.057 683.543 296.311L688.786 320.385C688.834 320.599 689.027 320.749 689.245 320.749Z" fill="white"/>
<path d="M693.034 392.388C695.016 391.298 697.333 390.998 699.53 391.543L703.906 392.633C704.837 392.864 705.76 392.225 705.867 391.273L710.393 350.968C716.057 353.658 724.226 353.336 726.92 353.139L716.499 400.656H680.025L693.034 392.388Z" fill="white"/>
<path d="M596.13 304.956L597.232 301.292C597.867 299.185 599.425 297.478 601.467 296.658L621.405 288.639C621.405 288.639 621.705 286.082 617.192 284.344C612.678 282.607 613.734 277.552 613.734 277.552C613.734 277.552 619.899 280.367 628.926 284.829C634.088 287.382 636.988 291.887 638.524 295.277L683.703 350.354L678.4 353.997C671.424 358.789 661.83 356.434 657.866 348.96L633.388 302.026C621.105 305.715 608.671 306.419 596.13 304.956Z" fill="white"/>
<path d="M698.241 228.387L709.856 260.897C709.856 260.897 699.571 268.937 692.063 266.221L686.211 247.583C686.211 247.583 690.681 224.809 698.241 228.387Z" fill="white"/>
<path d="M679.817 205.661C679.508 206.103 670.035 240.418 670.035 240.418L689.745 245.408L703.552 214.216C703.552 214.216 685.008 198.294 679.817 205.661Z" fill="white"/>
<path d="M696.132 218.961L690.151 235.952C690.074 236.17 689.971 236.372 689.838 236.561C689.027 237.719 685.938 241.491 682.27 238.097C678.94 235.016 675.855 232.253 673.011 231.756C671.732 231.532 670.496 232.313 670.149 233.562C669.291 236.681 667.48 243.743 666.849 250.119C666.721 251.41 667.613 252.582 668.892 252.822C672.74 253.551 680.901 254.86 687.714 254.371C688.637 254.306 689.448 253.749 689.834 252.908C691.709 248.802 697.449 236.351 699.586 233.128C701.594 230.104 706.515 230.185 708.579 230.365C709.257 230.425 709.922 230.207 710.433 229.756C712.239 228.173 715.671 224.127 710.832 219.292C709.819 218.279 709.845 216.644 710.887 215.666C712.964 213.714 715.182 210.247 711.715 205.957C708.197 201.593 703.555 202.293 700.71 203.331C699.56 203.751 698.308 203.266 697.681 202.215C697.325 201.615 696.703 201.164 695.626 201.259C694.176 201.383 692.957 200.173 692.979 198.719C693.026 195.921 692.022 192.39 687.169 190.884C678.558 188.211 673.199 196.53 672.672 202.739C672.144 208.943 681.643 211.311 687.229 210.886C691.477 210.565 694.631 214.769 695.901 216.807C696.304 217.451 696.385 218.245 696.132 218.961Z" fill="#009035"/>
<path d="M697.341 239.294C697.341 239.294 698.723 228.52 703.206 227.988C707.685 227.456 712.053 231.138 707.6 237.187C702.065 244.713 697.341 239.294 697.341 239.294Z" fill="white"/>
<path d="M723.25 353.739C725.829 353.739 727.669 353.542 727.867 353.52L728.201 353.482L741.952 289.364C742.008 289.111 741.845 288.862 741.592 288.806C741.335 288.751 741.09 288.914 741.034 289.167L727.425 352.619C725.378 352.8 714.45 353.525 708.679 349.436L720.594 293.728L718.106 289.042C717.986 288.815 717.702 288.725 717.471 288.849C717.243 288.97 717.153 289.253 717.278 289.484L719.603 293.869L707.637 349.831L707.877 350.011C712.052 353.147 718.766 353.739 723.25 353.739Z" fill="white"/>
<path d="M280.802 558.045C280.463 558.045 280.124 557.972 279.794 557.818C278.494 557.209 277.898 555.565 278.455 554.149L332.113 417.998C332.67 416.582 334.176 415.926 335.472 416.535C336.772 417.145 337.368 418.788 336.811 420.204L283.153 556.355C282.737 557.41 281.793 558.045 280.802 558.045Z" fill="#74CD5F"/>
<path d="M341.253 558.045C340.262 558.045 339.318 557.414 338.902 556.355L285.24 420.204C284.682 418.788 285.283 417.145 286.579 416.535C287.875 415.926 289.381 416.578 289.938 417.998L343.596 554.149C344.153 555.565 343.553 557.209 342.257 557.818C341.935 557.972 341.592 558.045 341.253 558.045Z" fill="#74CD5F"/>
<path d="M644.971 558.045C644.632 558.045 644.293 557.972 643.962 557.818C642.667 557.209 642.066 555.565 642.624 554.149L696.281 417.998C696.839 416.582 698.345 415.926 699.64 416.535C700.94 417.145 701.537 418.788 700.979 420.204L647.322 556.355C646.906 557.41 645.962 558.045 644.971 558.045Z" fill="#74CD5F"/>
<path d="M705.422 558.045C704.431 558.045 703.487 557.414 703.07 556.355L649.413 420.204C648.855 418.788 649.456 417.145 650.752 416.535C652.048 415.926 653.554 416.578 654.111 417.998L707.769 554.149C708.326 555.565 707.726 557.209 706.43 557.818C706.104 557.972 705.761 558.045 705.422 558.045Z" fill="#74CD5F"/>
<path d="M637.19 408.379H714.908V400.36H637.19C638.854 400.36 638.854 408.379 637.19 408.379Z" fill="#A8EB91"/>
<path d="M714.478 408.379C714.714 408.379 714.907 408.186 714.907 407.95V400.789C714.907 400.553 714.714 400.36 714.478 400.36H635.249C635.013 400.36 634.82 400.167 634.82 399.931V398.974C634.82 398.738 635.013 398.545 635.249 398.545H719.356C721.21 398.545 722.711 400.047 722.711 401.9V407.028C722.711 408.774 721.295 410.194 719.545 410.194H635.245C635.009 410.194 634.816 410.001 634.816 409.765V408.808C634.816 408.572 635.009 408.379 635.245 408.379H714.478Z" fill="#8DD873"/>
<path d="M726.169 413.785C726.431 412.888 726.075 411.966 725.199 411.262C724.324 410.559 723.02 410.151 721.647 410.151H255.971C254.165 410.151 252.479 410.76 251.505 411.773C250.531 412.781 250.398 414.051 251.157 415.141L256.203 422.388C257.357 424.048 259.863 425.108 262.617 425.108H718.45C721.012 425.108 723.217 423.902 723.702 422.233L726.169 413.785Z" fill="#8DD873"/>
<path d="M538.915 406.461C538.589 406.461 538.263 406.453 537.932 406.431L538.185 402.308C541.176 402.488 543.652 401.587 545.342 399.695C547.23 397.58 548.006 394.323 547.419 390.99C547.234 389.956 546.784 388.171 545.81 387.862C544.329 387.394 541.202 389.458 539.515 391.131L536.607 388.196C537.576 387.235 542.639 382.516 547.063 383.923C549.388 384.661 550.877 386.798 551.486 390.269C552.306 394.907 551.19 399.347 548.423 402.445C546.097 405.054 542.746 406.461 538.915 406.461Z" fill="#8DD873"/>
<path d="M538.765 382.112H512.357C511.893 382.112 511.138 382.602 511.138 383.065V403.11C511.138 407.088 514.738 409.945 518.719 409.945H532.402C536.379 409.945 538.971 407.092 538.971 403.11V383.065C538.971 382.602 539.228 382.112 538.765 382.112Z" fill="#8DD873"/>
<path d="M530.968 379.924C530.826 379.924 530.685 379.86 530.59 379.74C530.427 379.53 530.466 379.229 530.672 379.066C530.71 379.036 534.447 376.089 534.765 372.914C534.876 371.789 534.538 370.755 533.748 369.837C533.169 369.164 532.504 368.584 531.86 368.027C530.037 366.439 528.149 364.8 529.582 361.539C530.032 360.518 530.556 359.604 531.062 358.725C532.723 355.829 533.924 353.739 530.642 350.68C530.449 350.5 530.436 350.195 530.616 350.002C530.796 349.809 531.101 349.796 531.294 349.976C535.138 353.555 533.559 356.296 531.895 359.201C531.401 360.059 530.891 360.947 530.462 361.926C529.312 364.538 530.646 365.697 532.491 367.302C533.16 367.885 533.855 368.486 534.477 369.215C535.443 370.339 535.859 371.618 535.717 373.012C535.357 376.595 531.427 379.693 531.26 379.821C531.174 379.894 531.071 379.924 530.968 379.924Z" fill="white"/>
<path d="M524.25 379.924C524.109 379.924 523.967 379.86 523.873 379.74C523.71 379.53 523.748 379.229 523.954 379.066C523.993 379.036 527.73 376.089 528.048 372.914C528.159 371.789 527.82 370.755 527.031 369.837C526.451 369.164 525.786 368.584 525.143 368.027C523.319 366.439 521.432 364.8 522.865 361.539C523.315 360.518 523.839 359.604 524.345 358.725C526.005 355.829 527.207 353.739 523.924 350.68C523.731 350.5 523.718 350.195 523.899 350.002C524.079 349.809 524.383 349.796 524.576 349.976C528.421 353.555 526.842 356.296 525.177 359.201C524.684 360.059 524.173 360.947 523.744 361.926C522.594 364.538 523.929 365.697 525.774 367.302C526.443 367.885 527.138 368.486 527.76 369.215C528.725 370.339 529.142 371.618 529 373.012C528.64 376.595 524.71 379.693 524.542 379.821C524.456 379.894 524.353 379.924 524.25 379.924Z" fill="white"/>
<path d="M517.529 379.924C517.387 379.924 517.245 379.86 517.151 379.74C516.988 379.53 517.027 379.229 517.233 379.066C517.271 379.036 521.008 376.089 521.326 372.914C521.437 371.789 521.098 370.755 520.309 369.837C519.73 369.164 519.065 368.584 518.421 368.027C516.598 366.439 514.71 364.8 516.143 361.539C516.593 360.518 517.117 359.604 517.623 358.725C519.283 355.829 520.485 353.739 517.202 350.68C517.009 350.5 516.997 350.195 517.177 350.002C517.357 349.809 517.662 349.796 517.855 349.976C521.699 353.555 520.12 356.296 518.455 359.201C517.962 360.059 517.451 360.947 517.022 361.926C515.872 364.538 517.207 365.697 519.052 367.302C519.721 367.885 520.416 368.486 521.038 369.215C522.004 370.339 522.42 371.618 522.278 373.012C521.918 376.595 517.988 379.693 517.82 379.821C517.735 379.894 517.632 379.924 517.529 379.924Z" fill="white"/>
<path d="M405.298 406.461C405.624 406.461 405.951 406.453 406.281 406.431L406.028 402.308C403.037 402.488 400.562 401.587 398.871 399.695C396.983 397.58 396.207 394.323 396.795 390.99C396.979 389.956 397.43 388.171 398.403 387.862C399.884 387.394 403.012 389.458 404.698 391.131L407.607 388.196C406.637 387.235 401.574 382.516 397.151 383.923C394.825 384.661 393.336 386.798 392.727 390.269C391.908 394.907 393.023 399.347 395.791 402.445C398.116 405.054 401.467 406.461 405.298 406.461Z" fill="#8DD873"/>
<path d="M405.444 382.112H431.852C432.316 382.112 433.071 382.602 433.071 383.065V403.11C433.071 407.088 429.471 409.945 425.49 409.945H411.807C407.83 409.945 405.238 407.092 405.238 403.11V383.065C405.238 382.602 404.981 382.112 405.444 382.112Z" fill="#8DD873"/>
<path d="M413.242 379.924C413.384 379.924 413.525 379.86 413.619 379.74C413.783 379.53 413.744 379.229 413.538 379.066C413.499 379.036 409.762 376.089 409.445 372.914C409.333 371.789 409.672 370.755 410.462 369.837C411.041 369.164 411.706 368.584 412.35 368.027C414.173 366.439 416.061 364.8 414.628 361.539C414.177 360.518 413.654 359.604 413.148 358.725C411.487 355.829 410.286 353.739 413.568 350.68C413.761 350.5 413.774 350.195 413.594 350.002C413.414 349.809 413.109 349.796 412.916 349.976C409.072 353.555 410.65 356.296 412.315 359.201C412.809 360.059 413.319 360.947 413.748 361.926C414.898 364.538 413.564 365.697 411.719 367.302C411.05 367.885 410.354 368.486 409.732 369.215C408.767 370.339 408.351 371.618 408.492 373.012C408.853 376.595 412.783 379.693 412.95 379.821C413.036 379.894 413.139 379.924 413.242 379.924Z" fill="white"/>
<path d="M419.959 379.924C420.101 379.924 420.243 379.86 420.337 379.74C420.5 379.53 420.461 379.229 420.255 379.066C420.217 379.036 416.48 376.089 416.162 372.914C416.051 371.789 416.39 370.755 417.179 369.837C417.758 369.164 418.423 368.584 419.067 368.027C420.89 366.439 422.778 364.8 421.345 361.539C420.895 360.518 420.371 359.604 419.865 358.725C418.205 355.829 417.003 353.739 420.285 350.68C420.478 350.5 420.491 350.195 420.311 350.002C420.131 349.809 419.826 349.796 419.633 349.976C415.789 353.555 417.368 356.296 419.033 359.201C419.526 360.059 420.037 360.947 420.466 361.926C421.615 364.538 420.281 365.697 418.436 367.302C417.767 367.885 417.072 368.486 416.45 369.215C415.484 370.339 415.068 371.618 415.21 373.012C415.57 376.595 419.5 379.693 419.668 379.821C419.753 379.894 419.856 379.924 419.959 379.924Z" fill="white"/>
<path d="M426.682 379.924C426.823 379.924 426.965 379.86 427.059 379.74C427.222 379.53 427.184 379.229 426.978 379.066C426.939 379.036 423.202 376.089 422.884 372.914C422.773 371.789 423.112 370.755 423.901 369.837C424.481 369.164 425.146 368.584 425.789 368.027C427.613 366.439 429.5 364.8 428.067 361.539C427.617 360.518 427.093 359.604 426.587 358.725C424.927 355.829 423.725 353.739 427.008 350.68C427.201 350.5 427.214 350.195 427.033 350.002C426.853 349.809 426.549 349.796 426.355 349.976C422.511 353.555 424.09 356.296 425.755 359.201C426.248 360.059 426.759 360.947 427.188 361.926C428.338 364.538 427.003 365.697 425.158 367.302C424.489 367.885 423.794 368.486 423.172 369.215C422.207 370.339 421.79 371.618 421.932 373.012C422.292 376.595 426.222 379.693 426.39 379.821C426.476 379.894 426.579 379.924 426.682 379.924Z" fill="white"/>
<path d="M365.956 406.461C365.63 406.461 365.304 406.453 364.973 406.431L365.226 402.308C368.217 402.488 370.693 401.587 372.383 399.695C374.271 397.58 375.047 394.323 374.46 390.99C374.275 389.956 373.825 388.171 372.851 387.862C371.37 387.394 368.243 389.458 366.556 391.131L363.648 388.196C364.617 387.235 369.68 382.516 374.104 383.923C376.429 384.661 377.918 386.798 378.527 390.269C379.347 394.907 378.231 399.347 375.464 402.445C373.138 405.054 369.787 406.461 365.956 406.461Z" fill="#8DD873"/>
<path d="M365.808 382.112H339.4C338.937 382.112 338.182 382.602 338.182 383.065V403.11C338.182 407.088 341.781 409.945 345.763 409.945H359.445C363.423 409.945 366.014 407.092 366.014 403.11V383.065C366.014 382.602 366.272 382.112 365.808 382.112Z" fill="#8DD873"/>
<path d="M358.014 379.924C357.873 379.924 357.731 379.86 357.637 379.74C357.474 379.53 357.512 379.229 357.718 379.066C357.757 379.036 361.494 376.089 361.812 372.914C361.923 371.789 361.584 370.755 360.795 369.837C360.215 369.164 359.55 368.584 358.907 368.027C357.083 366.439 355.196 364.8 356.629 361.539C357.079 360.518 357.603 359.604 358.109 358.725C359.769 355.829 360.971 353.739 357.688 350.68C357.495 350.5 357.482 350.195 357.663 350.002C357.843 349.809 358.147 349.796 358.341 349.976C362.185 353.555 360.606 356.296 358.941 359.201C358.448 360.059 357.937 360.947 357.508 361.926C356.358 364.538 357.693 365.697 359.538 367.302C360.207 367.885 360.902 368.486 361.524 369.215C362.489 370.339 362.906 371.618 362.764 373.012C362.404 376.595 358.474 379.693 358.306 379.821C358.22 379.894 358.117 379.924 358.014 379.924Z" fill="white"/>
<path d="M351.297 379.924C351.155 379.924 351.014 379.86 350.919 379.74C350.756 379.53 350.795 379.229 351.001 379.066C351.04 379.036 354.777 376.089 355.094 372.914C355.206 371.789 354.867 370.755 354.077 369.837C353.498 369.164 352.833 368.584 352.189 368.027C350.366 366.439 348.478 364.8 349.911 361.539C350.362 360.518 350.885 359.604 351.391 358.725C353.052 355.829 354.253 353.739 350.971 350.68C350.778 350.5 350.765 350.195 350.945 350.002C351.125 349.809 351.43 349.796 351.623 349.976C355.467 353.555 353.889 356.296 352.224 359.201C351.73 360.059 351.22 360.947 350.791 361.926C349.641 364.538 350.975 365.697 352.82 367.302C353.49 367.885 354.185 368.486 354.807 369.215C355.772 370.339 356.188 371.618 356.047 373.012C355.686 376.595 351.756 379.693 351.589 379.821C351.503 379.894 351.4 379.924 351.297 379.924Z" fill="white"/>
<path d="M344.575 379.924C344.434 379.924 344.292 379.86 344.198 379.74C344.035 379.53 344.073 379.229 344.279 379.066C344.318 379.036 348.055 376.089 348.373 372.914C348.484 371.79 348.145 370.756 347.356 369.837C346.776 369.164 346.111 368.585 345.468 368.027C343.644 366.439 341.757 364.8 343.19 361.54C343.64 360.518 344.164 359.605 344.67 358.725C346.33 355.829 347.532 353.739 344.249 350.68C344.056 350.5 344.043 350.195 344.224 350.002C344.404 349.809 344.708 349.796 344.901 349.977C348.746 353.555 347.167 356.297 345.502 359.201C345.009 360.059 344.498 360.947 344.069 361.926C342.919 364.539 344.254 365.697 346.099 367.302C346.768 367.885 347.463 368.486 348.085 369.215C349.05 370.339 349.467 371.618 349.325 373.012C348.965 376.595 345.034 379.693 344.867 379.821C344.781 379.894 344.678 379.924 344.575 379.924Z" fill="white"/>
<path d="M656.083 406.461C656.409 406.461 656.735 406.453 657.066 406.431L656.813 402.308C653.822 402.488 651.346 401.587 649.656 399.695C647.768 397.58 646.992 394.323 647.579 390.99C647.764 389.956 648.214 388.171 649.188 387.862C650.669 387.394 653.796 389.458 655.482 391.131L658.391 388.196C657.422 387.235 652.359 382.516 647.935 383.923C645.61 384.661 644.121 386.798 643.512 390.269C642.692 394.907 643.808 399.347 646.575 402.445C648.901 405.054 652.252 406.461 656.083 406.461Z" fill="#8DD873"/>
<path d="M656.23 382.112H682.638C683.102 382.112 683.857 382.602 683.857 383.065V403.11C683.857 407.088 680.257 409.945 676.275 409.945H662.593C658.616 409.945 656.024 407.092 656.024 403.11V383.065C656.024 382.602 655.767 382.112 656.23 382.112Z" fill="#8DD873"/>
<path d="M664.028 379.924C664.17 379.924 664.312 379.86 664.406 379.74C664.569 379.53 664.53 379.229 664.324 379.066C664.286 379.036 660.549 376.089 660.231 372.914C660.12 371.789 660.459 370.755 661.248 369.837C661.827 369.164 662.492 368.584 663.136 368.027C664.959 366.439 666.847 364.8 665.414 361.539C664.964 360.518 664.44 359.604 663.934 358.725C662.274 355.829 661.072 353.739 664.354 350.68C664.548 350.5 664.56 350.195 664.38 350.002C664.2 349.809 663.895 349.796 663.702 349.976C659.858 353.555 661.437 356.296 663.102 359.201C663.595 360.059 664.106 360.947 664.535 361.926C665.685 364.538 664.35 365.697 662.505 367.302C661.836 367.885 661.141 368.486 660.519 369.215C659.553 370.339 659.137 371.618 659.279 373.012C659.639 376.595 663.569 379.693 663.737 379.821C663.822 379.894 663.925 379.924 664.028 379.924Z" fill="white"/>
<path d="M670.746 379.924C670.887 379.924 671.029 379.86 671.123 379.74C671.286 379.53 671.248 379.229 671.042 379.066C671.003 379.036 667.266 376.089 666.949 372.914C666.837 371.789 667.176 370.755 667.966 369.837C668.545 369.164 669.21 368.584 669.853 368.027C671.677 366.439 673.565 364.8 672.132 361.539C671.681 360.518 671.158 359.604 670.651 358.725C668.991 355.829 667.79 353.739 671.072 350.68C671.265 350.5 671.278 350.195 671.098 350.002C670.917 349.809 670.613 349.796 670.42 349.976C666.575 353.555 668.154 356.296 669.819 359.201C670.312 360.059 670.823 360.947 671.252 361.926C672.402 364.538 671.068 365.697 669.223 367.302C668.553 367.885 667.858 368.486 667.236 369.215C666.271 370.339 665.855 371.618 665.996 373.012C666.357 376.595 670.287 379.693 670.454 379.821C670.54 379.894 670.643 379.924 670.746 379.924Z" fill="white"/>
<path d="M677.467 379.924C677.609 379.924 677.751 379.86 677.845 379.74C678.008 379.53 677.969 379.229 677.763 379.066C677.725 379.036 673.988 376.089 673.67 372.914C673.559 371.79 673.898 370.756 674.687 369.837C675.266 369.164 675.931 368.585 676.575 368.027C678.398 366.439 680.286 364.8 678.853 361.54C678.403 360.518 677.879 359.605 677.373 358.725C675.713 355.829 674.511 353.739 677.794 350.68C677.987 350.5 677.999 350.195 677.819 350.002C677.639 349.809 677.334 349.796 677.141 349.977C673.297 353.555 674.876 356.297 676.541 359.201C677.034 360.059 677.545 360.947 677.974 361.926C679.124 364.539 677.789 365.697 675.944 367.302C675.275 367.885 674.58 368.486 673.958 369.215C672.992 370.339 672.576 371.618 672.718 373.012C673.078 376.595 677.008 379.693 677.176 379.821C677.261 379.894 677.364 379.924 677.467 379.924Z" fill="white"/>
<path d="M611.11 88.1047C581.66 90.5374 549.146 107.652 544.543 139.385C540.63 166.368 568.578 182.119 586.045 189.747C590.919 191.875 594.836 195.711 597.076 200.533C602.439 212.071 615.126 232.305 636.463 226.809C638.016 226.41 637.969 224.174 636.403 223.818C631.421 222.694 624.617 220.115 621.098 214.207C616.302 206.163 621.579 195.848 630.872 194.681C648.455 192.476 683.075 182.917 689.854 142.079C699.019 86.8476 611.11 88.1047 611.11 88.1047Z" fill="#62B944"/>
<path d="M673.346 120.695C673.346 121.948 672.329 122.965 671.076 122.965H579.637C578.384 122.965 577.367 121.948 577.367 120.695V120.438C577.367 119.185 578.384 118.168 579.637 118.168H671.076C672.329 118.168 673.346 119.185 673.346 120.438V120.695Z" fill="#4EAD2D"/>
<path d="M666.62 167.968C666.62 169.161 666.418 169.993 665.247 169.993H579.75C578.578 169.993 577.355 169.157 577.355 167.968V167.724C577.355 166.531 578.578 165.197 579.75 165.197H665.247C666.418 165.197 666.62 166.531 666.62 167.724V167.968Z" fill="#4EAD2D"/>
<path d="M674.304 137.613C674.304 138.973 673.441 139.282 672.06 139.282H571.49C570.113 139.282 568.723 138.973 568.723 137.613V137.334C568.723 135.974 570.113 134.485 571.49 134.485H672.06C673.437 134.485 674.304 135.974 674.304 137.334V137.613Z" fill="#4EAD2D"/>
<path d="M674.304 152.008C674.304 153.368 673.441 153.677 672.06 153.677H571.49C570.113 153.677 568.723 153.368 568.723 152.008V151.729C568.723 150.369 570.113 148.88 571.49 148.88H672.06C673.437 148.88 674.304 150.369 674.304 151.729V152.008Z" fill="#4EAD2D"/>
<path d="M808.218 458.574L809.861 454.065C809.973 453.76 810.308 453.605 810.612 453.713C810.917 453.824 811.071 454.159 810.964 454.464L810.96 454.472L809.269 458.964C809.162 459.252 808.84 459.398 808.548 459.29C808.261 459.183 808.115 458.861 808.218 458.574Z" fill="white"/>
<path d="M812.025 446.779L813.05 442.09C813.127 441.738 813.475 441.515 813.827 441.592C814.179 441.669 814.402 442.017 814.324 442.369V442.377L813.247 447.054C813.17 447.393 812.836 447.603 812.497 447.526C812.162 447.444 811.952 447.114 812.025 446.779Z" fill="white"/>
<path d="M813.982 434.607L814.047 429.81C814.051 429.411 814.377 429.094 814.776 429.098C815.175 429.102 815.492 429.428 815.488 429.827V429.836L815.372 434.633C815.364 435.015 815.046 435.319 814.664 435.311C814.278 435.302 813.978 434.985 813.982 434.607Z" fill="white"/>
<path d="M813.128 422.388C813.128 422.388 812.832 421.225 812.536 420.062C812.176 418.959 811.82 417.857 811.82 417.857L811.803 417.805C811.67 417.393 811.893 416.947 812.309 416.814C812.721 416.681 813.167 416.904 813.3 417.32L813.304 417.329C813.304 417.329 813.673 418.509 814.042 419.693C814.326 420.86 814.609 422.023 814.609 422.023C814.707 422.43 814.459 422.842 814.051 422.941C813.643 423.04 813.231 422.791 813.128 422.388Z" fill="white"/>
<path d="M808.519 411.172C808.519 411.172 807.837 410.185 807.155 409.199C806.434 408.293 805.713 407.392 805.713 407.392L805.679 407.349C805.383 406.98 805.447 406.444 805.812 406.148C806.181 405.852 806.717 405.916 807.013 406.281L807.018 406.29C807.018 406.29 807.781 407.268 808.545 408.25C809.219 409.246 809.888 410.237 809.888 410.237C810.145 410.614 810.042 411.129 809.665 411.387C809.287 411.64 808.777 411.545 808.519 411.172Z" fill="white"/>
<path d="M800.342 402.218L796.442 399.429C796.03 399.133 795.931 398.558 796.227 398.142C796.524 397.73 797.098 397.631 797.515 397.927L797.523 397.936L801.393 400.768C801.792 401.059 801.878 401.621 801.586 402.02C801.299 402.415 800.741 402.505 800.342 402.218Z" fill="white"/>
<path d="M789.9 395.829L785.49 393.937C784.988 393.723 784.756 393.139 784.97 392.637C785.185 392.135 785.768 391.903 786.27 392.118L786.283 392.122L790.672 394.062C791.157 394.276 791.38 394.847 791.166 395.332C790.947 395.816 790.385 396.035 789.9 395.829Z" fill="white"/>
<path d="M778.36 391.513L773.727 390.269C773.164 390.118 772.83 389.539 772.98 388.973C773.13 388.411 773.709 388.076 774.276 388.226L774.289 388.231L778.91 389.526C779.459 389.681 779.776 390.247 779.626 390.796C779.467 391.341 778.905 391.659 778.36 391.513Z" fill="white"/>
<path d="M766.32 388.698L761.587 387.918C760.974 387.815 760.562 387.24 760.66 386.626C760.763 386.013 761.338 385.601 761.952 385.699L761.965 385.704L766.689 386.536C767.285 386.643 767.684 387.21 767.581 387.81C767.478 388.398 766.912 388.797 766.32 388.698Z" fill="white"/>
<path d="M754.052 386.969L749.277 386.527C748.62 386.467 748.14 385.888 748.2 385.232C748.26 384.575 748.839 384.095 749.496 384.155H749.509L754.28 384.648C754.919 384.713 755.387 385.287 755.318 385.927C755.254 386.566 754.687 387.029 754.052 386.969Z" fill="white"/>
<path d="M741.675 386.047L736.883 385.854C736.192 385.828 735.656 385.245 735.681 384.554C735.707 383.863 736.291 383.327 736.981 383.352H736.99L741.782 383.576C742.465 383.606 742.988 384.185 742.958 384.867C742.928 385.549 742.353 386.073 741.675 386.047Z" fill="white"/>
<path d="M729.262 385.717L724.466 385.725C723.753 385.725 723.174 385.15 723.174 384.438C723.174 383.726 723.749 383.146 724.461 383.146H724.47L729.267 383.168C729.97 383.172 730.537 383.743 730.537 384.446C730.528 385.15 729.962 385.717 729.262 385.717Z" fill="white"/>
<path d="M716.83 385.88L712.034 386.051C711.3 386.077 710.686 385.506 710.661 384.773C710.635 384.039 711.205 383.425 711.939 383.4H711.948L716.745 383.258C717.47 383.237 718.075 383.807 718.096 384.528C718.118 385.249 717.551 385.854 716.83 385.88Z" fill="white"/>
<path d="M704.408 386.437L699.615 386.742C698.864 386.789 698.216 386.219 698.165 385.468C698.118 384.717 698.688 384.069 699.439 384.017H699.448L704.24 383.739C704.982 383.696 705.622 384.262 705.665 385.009C705.712 385.755 705.146 386.39 704.408 386.437Z" fill="white"/>
<path d="M691.99 387.325L687.21 387.742C686.438 387.81 685.76 387.24 685.691 386.467C685.623 385.695 686.193 385.017 686.966 384.949H686.974L691.758 384.562C692.522 384.502 693.191 385.069 693.251 385.832C693.311 386.592 692.749 387.257 691.99 387.325Z" fill="white"/>
<path d="M679.589 388.48L674.818 388.986C674.029 389.072 673.316 388.497 673.235 387.707C673.149 386.918 673.724 386.206 674.513 386.124H674.522L679.297 385.648C680.082 385.571 680.778 386.141 680.859 386.926C680.936 387.699 680.37 388.394 679.589 388.48Z" fill="white"/>
<path d="M667.209 389.853L662.447 390.428C661.636 390.526 660.898 389.947 660.803 389.136C660.705 388.325 661.284 387.587 662.095 387.493H662.103L666.87 386.944C667.672 386.854 668.398 387.428 668.492 388.231C668.582 389.033 668.007 389.754 667.209 389.853Z" fill="white"/>
<path d="M654.837 391.389L650.079 392.011C649.246 392.118 648.487 391.534 648.38 390.702C648.272 389.87 648.856 389.11 649.688 389.003H649.697L654.459 388.411C655.283 388.308 656.034 388.891 656.137 389.715C656.236 390.535 655.656 391.281 654.837 391.389Z" fill="white"/>
<path d="M642.468 393.023L637.709 393.65C636.86 393.761 636.079 393.16 635.967 392.311C635.856 391.461 636.457 390.681 637.306 390.569H637.315L642.077 389.973C642.922 389.865 643.69 390.466 643.798 391.311C643.901 392.144 643.304 392.912 642.468 393.023Z" fill="white"/>
<path d="M630.069 394.594L625.302 395.147C624.427 395.25 623.638 394.624 623.539 393.748C623.44 392.873 624.062 392.084 624.938 391.985H624.946L629.717 391.461C630.584 391.367 631.36 391.989 631.459 392.856C631.549 393.718 630.927 394.495 630.069 394.594Z" fill="white"/>
<path d="M617.642 395.979L612.867 396.46C611.97 396.55 611.172 395.898 611.082 395.001C610.992 394.104 611.644 393.306 612.541 393.216H612.549L617.324 392.761C618.213 392.676 619.002 393.328 619.084 394.216C619.169 395.104 618.526 395.889 617.642 395.979Z" fill="white"/>
<path d="M605.202 397.181L600.422 397.593C599.504 397.67 598.697 396.992 598.616 396.074C598.539 395.156 599.216 394.349 600.135 394.267H600.143L604.927 393.886C605.837 393.813 606.635 394.491 606.708 395.4C606.781 396.31 606.107 397.104 605.202 397.181Z" fill="white"/>
<path d="M592.737 398.193L587.949 398.532C587.009 398.601 586.194 397.893 586.125 396.953C586.057 396.014 586.765 395.199 587.704 395.13H587.713L592.501 394.817C593.432 394.757 594.239 395.46 594.299 396.396C594.367 397.327 593.664 398.129 592.737 398.193Z" fill="white"/>
<path d="M580.267 399.013L575.474 399.275C574.526 399.326 573.715 398.601 573.664 397.653C573.612 396.705 574.337 395.894 575.286 395.842H575.29L580.082 395.589C581.026 395.538 581.833 396.267 581.884 397.211C581.936 398.155 581.211 398.961 580.267 399.013Z" fill="white"/>
<path d="M567.781 399.639L562.988 399.832C562.032 399.871 561.225 399.129 561.186 398.172C561.148 397.215 561.89 396.408 562.847 396.37H562.851L567.644 396.185C568.596 396.147 569.398 396.893 569.437 397.846C569.471 398.802 568.733 399.605 567.781 399.639Z" fill="white"/>
<path d="M555.291 400.09L550.49 400.214C549.529 400.24 548.726 399.48 548.701 398.515C548.675 397.554 549.434 396.752 550.4 396.726H550.404L555.205 396.61C556.166 396.589 556.964 397.348 556.986 398.309C557.007 399.27 556.248 400.064 555.291 400.09Z" fill="white"/>
<path d="M542.788 400.36L537.992 400.42C537.022 400.433 536.224 399.656 536.215 398.687C536.202 397.717 536.979 396.919 537.949 396.91H537.953L542.75 396.863C543.719 396.855 544.509 397.631 544.517 398.597C544.526 399.558 543.754 400.351 542.788 400.36Z" fill="white"/>
<path d="M530.286 400.459L525.485 400.45C524.507 400.45 523.718 399.656 523.718 398.678C523.718 397.7 524.511 396.91 525.49 396.91H525.494L530.295 396.928C531.269 396.932 532.058 397.726 532.054 398.7C532.05 399.678 531.26 400.463 530.286 400.459Z" fill="white"/>
<path d="M517.78 400.381L512.983 400.308C512.001 400.291 511.216 399.485 511.229 398.498C511.246 397.515 512.052 396.73 513.039 396.743H513.043L517.84 396.829C518.823 396.846 519.604 397.657 519.586 398.635C519.569 399.618 518.763 400.399 517.78 400.381Z" fill="white"/>
<path d="M505.287 400.133L500.491 399.991C499.499 399.961 498.719 399.137 498.749 398.146C498.779 397.155 499.602 396.374 500.594 396.404H500.598L505.395 396.554C506.381 396.584 507.158 397.412 507.128 398.399C507.098 399.39 506.274 400.167 505.287 400.133Z" fill="white"/>
<path d="M492.79 399.716L487.998 399.51C487.003 399.468 486.226 398.622 486.269 397.627C486.312 396.632 487.157 395.855 488.152 395.898H488.157L492.949 396.112C493.945 396.155 494.713 397 494.67 397.996C494.623 398.991 493.782 399.759 492.79 399.716Z" fill="white"/>
<path d="M480.303 399.124L475.51 398.854C474.506 398.798 473.738 397.936 473.798 396.936C473.854 395.932 474.716 395.164 475.716 395.224H475.72L480.513 395.507C481.513 395.568 482.276 396.426 482.216 397.425C482.156 398.421 481.302 399.184 480.303 399.124Z" fill="white"/>
<path d="M467.819 398.365L463.031 398.03C462.023 397.957 461.259 397.082 461.332 396.074C461.405 395.065 462.28 394.302 463.288 394.375H463.293L468.081 394.722C469.089 394.795 469.844 395.67 469.771 396.679C469.698 397.678 468.828 398.438 467.819 398.365Z" fill="white"/>
<path d="M455.357 397.434L450.573 397.031C449.556 396.945 448.806 396.052 448.891 395.04C448.977 394.023 449.87 393.272 450.882 393.358H450.886L455.666 393.77C456.679 393.856 457.429 394.748 457.344 395.761C457.254 396.773 456.365 397.524 455.357 397.434Z" fill="white"/>
<path d="M442.9 396.336L438.124 395.868C437.103 395.769 436.357 394.86 436.455 393.838C436.554 392.817 437.463 392.071 438.485 392.169H438.489L443.264 392.646C444.281 392.749 445.023 393.654 444.925 394.671C444.822 395.696 443.916 396.438 442.9 396.336Z" fill="white"/>
<path d="M430.46 395.07L425.689 394.538C424.664 394.422 423.921 393.499 424.037 392.474C424.153 391.449 425.075 390.706 426.101 390.822H426.105L430.872 391.363C431.897 391.479 432.631 392.401 432.515 393.427C432.404 394.452 431.481 395.186 430.46 395.07Z" fill="white"/>
<path d="M418.041 393.637L413.279 393.04C412.249 392.912 411.515 391.972 411.644 390.938C411.773 389.908 412.712 389.175 413.746 389.303H413.751L418.513 389.908C419.543 390.037 420.268 390.977 420.139 392.006C420.006 393.04 419.071 393.77 418.041 393.637Z" fill="white"/>
<path d="M405.64 392.036L400.886 391.376C399.847 391.23 399.127 390.273 399.268 389.239C399.414 388.201 400.371 387.48 401.405 387.622H401.409L406.163 388.291C407.197 388.437 407.918 389.393 407.772 390.427C407.626 391.462 406.674 392.182 405.64 392.036Z" fill="white"/>
<path d="M393.265 390.264L388.52 389.539C387.477 389.381 386.765 388.407 386.923 387.364C387.082 386.321 388.056 385.609 389.099 385.768H389.103L393.844 386.502C394.882 386.66 395.595 387.634 395.432 388.673C395.273 389.715 394.303 390.427 393.265 390.264Z" fill="white"/>
<path d="M380.911 388.325L376.178 387.536C375.131 387.36 374.428 386.373 374.599 385.326C374.775 384.279 375.762 383.575 376.809 383.747H376.813L381.546 384.545C382.588 384.721 383.292 385.708 383.116 386.75C382.94 387.797 381.953 388.501 380.911 388.325Z" fill="white"/>
<path d="M368.587 386.206L363.868 385.343C362.834 385.155 362.147 384.159 362.336 383.125C362.525 382.091 363.516 381.4 364.55 381.593L369.274 382.447C370.312 382.636 371.003 383.631 370.814 384.67C370.625 385.704 369.63 386.39 368.587 386.206Z" fill="white"/>
<path d="M356.297 383.902L351.591 382.975C350.565 382.773 349.896 381.778 350.098 380.748C350.299 379.723 351.295 379.053 352.32 379.255L357.031 380.173C358.061 380.375 358.734 381.37 358.533 382.4C358.331 383.43 357.331 384.103 356.297 383.902Z" fill="white"/>
<path d="M344.039 381.43L339.345 380.435C338.328 380.22 337.676 379.221 337.895 378.204C338.109 377.187 339.105 376.535 340.121 376.749L344.82 377.736C345.841 377.951 346.493 378.95 346.278 379.972C346.06 380.988 345.06 381.645 344.039 381.43Z" fill="white"/>
<path d="M331.82 378.787L327.139 377.728C326.131 377.5 325.5 376.496 325.728 375.492C325.955 374.484 326.955 373.853 327.963 374.081L332.648 375.132C333.661 375.359 334.296 376.363 334.069 377.371C333.837 378.38 332.837 379.015 331.82 378.787Z" fill="white"/>
<path d="M319.64 375.973L314.972 374.861C313.972 374.625 313.359 373.622 313.595 372.626C313.831 371.626 314.83 371.009 315.83 371.249L320.502 372.347C321.502 372.583 322.124 373.587 321.888 374.587C321.648 375.591 320.644 376.209 319.64 375.973Z" fill="white"/>
<path d="M307.496 373.064L302.837 371.922C301.846 371.678 301.241 370.683 301.481 369.691C301.726 368.7 302.721 368.095 303.708 368.336L308.372 369.468C309.363 369.709 309.976 370.708 309.732 371.704C309.491 372.695 308.492 373.304 307.496 373.064Z" fill="white"/>
<path d="M295.367 370.06L290.716 368.876C289.734 368.627 289.142 367.628 289.39 366.649C289.639 365.667 290.635 365.075 291.617 365.324L296.272 366.495C297.255 366.744 297.856 367.744 297.607 368.726C297.358 369.709 296.358 370.309 295.367 370.06Z" fill="white"/>
<path d="M283.268 366.941L278.626 365.71C277.652 365.452 277.077 364.453 277.334 363.483C277.592 362.509 278.587 361.93 279.557 362.192L284.199 363.414C285.173 363.672 285.757 364.671 285.499 365.645C285.246 366.619 284.246 367.199 283.268 366.941Z" fill="white"/>
<path d="M271.194 363.685L266.573 362.393C265.612 362.123 265.05 361.127 265.316 360.166C265.587 359.205 266.578 358.639 267.543 358.909L272.168 360.192C273.134 360.458 273.7 361.458 273.43 362.423C273.164 363.389 272.164 363.955 271.194 363.685Z" fill="white"/>
<path d="M259.167 360.269L254.563 358.909C253.611 358.63 253.066 357.631 253.349 356.678C253.628 355.726 254.628 355.181 255.576 355.464L260.18 356.811C261.136 357.09 261.681 358.09 261.402 359.047C261.128 360.003 260.124 360.553 259.167 360.269Z" fill="white"/>
<path d="M247.188 356.67L242.61 355.237C241.67 354.941 241.147 353.941 241.438 353.001C241.734 352.062 242.73 351.538 243.669 351.83L248.252 353.254C249.196 353.546 249.723 354.55 249.427 355.494C249.14 356.438 248.136 356.966 247.188 356.67Z" fill="white"/>
<path d="M235.272 352.864L230.72 351.345C229.793 351.036 229.291 350.032 229.6 349.101C229.909 348.174 230.909 347.672 231.84 347.981L236.396 349.492C237.327 349.8 237.834 350.804 237.525 351.735C237.211 352.671 236.203 353.173 235.272 352.864Z" fill="white"/>
<path d="M223.427 348.831L218.909 347.218C217.995 346.892 217.515 345.883 217.845 344.969C218.171 344.055 219.175 343.575 220.089 343.901L224.611 345.506C225.529 345.832 226.01 346.84 225.684 347.758C225.358 348.676 224.35 349.157 223.427 348.831Z" fill="white"/>
<path d="M211.664 344.54L207.181 342.824C206.28 342.481 205.829 341.468 206.172 340.567C206.516 339.666 207.524 339.216 208.425 339.559L212.909 341.267C213.814 341.61 214.269 342.622 213.921 343.528C213.582 344.433 212.57 344.884 211.664 344.54Z" fill="white"/>
<path d="M200.004 339.975L195.568 338.148C194.68 337.783 194.259 336.77 194.624 335.882C194.989 334.994 196.001 334.574 196.885 334.938L201.326 336.757C202.214 337.122 202.643 338.139 202.278 339.027C201.914 339.915 200.897 340.34 200.004 339.975Z" fill="white"/>
<path d="M188.464 335.11L184.08 333.162C183.209 332.776 182.818 331.759 183.204 330.888C183.59 330.017 184.607 329.627 185.474 330.013L189.863 331.952C190.734 332.338 191.133 333.359 190.747 334.23C190.361 335.101 189.344 335.496 188.464 335.11Z" fill="white"/>
<path d="M177.058 329.927L172.729 327.85C171.875 327.443 171.519 326.422 171.927 325.568C172.334 324.714 173.355 324.354 174.205 324.765L178.538 326.833C179.392 327.241 179.757 328.267 179.349 329.12C178.942 329.974 177.916 330.335 177.058 329.927Z" fill="white"/>
<path d="M165.815 324.388L161.559 322.165C160.735 321.736 160.418 320.719 160.847 319.896C161.276 319.076 162.284 318.754 163.108 319.179L167.377 321.376C168.209 321.805 168.539 322.826 168.11 323.658C167.681 324.491 166.66 324.821 165.828 324.392L165.815 324.388Z" fill="white"/>
<path d="M154.762 318.476L150.583 316.111C149.794 315.665 149.515 314.661 149.961 313.872C150.407 313.082 151.407 312.803 152.196 313.245L156.388 315.584C157.19 316.03 157.474 317.042 157.027 317.84C156.581 318.643 155.569 318.926 154.771 318.48L154.762 318.476Z" fill="white"/>
<path d="M143.905 312.1L139.902 309.452C139.16 308.963 138.958 307.964 139.447 307.226C139.936 306.488 140.927 306.286 141.67 306.767L145.69 309.392C146.441 309.882 146.651 310.886 146.162 311.636C145.673 312.387 144.669 312.597 143.918 312.108L143.905 312.1Z" fill="white"/>
<path d="M133.581 304.789L129.891 301.721C129.226 301.167 129.131 300.176 129.689 299.507C130.243 298.842 131.229 298.752 131.894 299.301L135.601 302.347C136.279 302.905 136.374 303.901 135.82 304.578C135.262 305.256 134.267 305.351 133.589 304.797L133.581 304.789Z" fill="white"/>
<path d="M124.168 296.268L120.954 292.702C120.388 292.072 120.435 291.102 121.066 290.536C121.692 289.969 122.657 290.021 123.228 290.643L126.463 294.187C127.038 294.818 126.995 295.796 126.364 296.375C125.734 296.95 124.755 296.907 124.176 296.276L124.168 296.268Z" fill="white"/>
<path d="M116.157 286.352L113.652 282.259C113.218 281.556 113.441 280.633 114.145 280.2C114.849 279.771 115.767 279.99 116.2 280.689L118.731 284.765C119.173 285.473 118.955 286.404 118.242 286.846C117.534 287.288 116.603 287.069 116.161 286.357L116.157 286.352Z" fill="white"/>
<path d="M110.239 275.025L108.698 270.482C108.441 269.718 108.848 268.89 109.612 268.628C110.372 268.371 111.2 268.774 111.461 269.533L113.032 274.069C113.298 274.837 112.89 275.678 112.122 275.944C111.354 276.21 110.513 275.802 110.247 275.034L110.239 275.025Z" fill="white"/>
<path d="M107.029 262.643L106.596 257.868C106.523 257.087 107.102 256.392 107.883 256.323C108.664 256.25 109.355 256.825 109.428 257.602L109.891 262.377C109.968 263.166 109.389 263.87 108.6 263.947C107.81 264.025 107.107 263.445 107.029 262.656V262.643Z" fill="white"/>
<path d="M106.761 249.891L107.362 245.133C107.457 244.374 108.152 243.838 108.911 243.932C109.666 244.026 110.202 244.717 110.117 245.472L109.546 250.235C109.456 251.003 108.757 251.552 107.989 251.458C107.221 251.367 106.671 250.668 106.766 249.9L106.761 249.891Z" fill="white"/>
<path d="M109.081 237.406L110.51 232.824C110.733 232.112 111.488 231.717 112.196 231.936C112.904 232.155 113.303 232.91 113.084 233.618L111.681 238.208C111.462 238.929 110.703 239.333 109.982 239.114C109.261 238.895 108.853 238.135 109.077 237.415L109.081 237.406Z" fill="white"/>
<path d="M113.384 225.508L115.426 221.166C115.735 220.51 116.516 220.227 117.172 220.536C117.825 220.84 118.108 221.621 117.807 222.273L115.791 226.628C115.482 227.293 114.697 227.585 114.032 227.276C113.367 226.967 113.075 226.182 113.384 225.517V225.508Z" fill="white"/>
<path d="M119.142 214.289L121.631 210.191C121.995 209.591 122.78 209.398 123.381 209.762C123.982 210.127 124.175 210.904 123.814 211.509L121.352 215.623C120.987 216.232 120.193 216.434 119.584 216.069C118.975 215.705 118.773 214.911 119.138 214.302L119.142 214.289Z" fill="white"/>
<path d="M125.951 203.717L128.774 199.834C129.177 199.28 129.95 199.16 130.499 199.559C131.048 199.958 131.172 200.726 130.778 201.28L127.98 205.18C127.577 205.742 126.796 205.871 126.234 205.467C125.672 205.064 125.543 204.283 125.946 203.721L125.951 203.717Z" fill="white"/>
<path d="M133.564 193.733L136.644 190.056C137.061 189.563 137.799 189.494 138.292 189.91C138.785 190.322 138.85 191.056 138.446 191.549L135.404 195.26C134.984 195.771 134.233 195.844 133.723 195.428C133.212 195.007 133.139 194.256 133.555 193.746L133.564 193.733Z" fill="white"/>
<path d="M141.784 184.268L145.062 180.767C145.478 180.321 146.177 180.299 146.624 180.715C147.065 181.132 147.091 181.822 146.684 182.269L143.44 185.804C143.019 186.263 142.303 186.293 141.844 185.873C141.385 185.452 141.355 184.736 141.775 184.277L141.784 184.268Z" fill="white"/>
<path d="M150.478 175.254L153.919 171.907C154.331 171.508 154.988 171.517 155.387 171.928C155.786 172.336 155.777 172.988 155.374 173.392L151.971 176.772C151.555 177.189 150.882 177.184 150.465 176.768C150.049 176.352 150.054 175.678 150.47 175.262L150.478 175.254Z" fill="white"/>
<path d="M159.57 166.642L163.144 163.437C163.543 163.077 164.161 163.111 164.517 163.51C164.873 163.909 164.843 164.519 164.448 164.879L160.909 168.123C160.501 168.496 159.87 168.466 159.497 168.063C159.124 167.655 159.154 167.024 159.557 166.651L159.57 166.642Z" fill="white"/>
<path d="M168.976 158.396L172.661 155.32C173.048 154.998 173.618 155.05 173.94 155.436C174.257 155.818 174.21 156.384 173.833 156.706L170.177 159.821C169.787 160.155 169.199 160.108 168.864 159.718C168.53 159.327 168.577 158.739 168.967 158.405L168.976 158.396Z" fill="white"/>
<path d="M178.671 150.48L182.459 147.528C182.824 147.241 183.356 147.309 183.639 147.674C183.922 148.039 183.858 148.562 183.502 148.85L179.748 151.84C179.374 152.141 178.83 152.076 178.529 151.703C178.229 151.33 178.293 150.785 178.666 150.484L178.671 150.48Z" fill="white"/>
<path d="M188.599 142.886L192.473 140.05C192.821 139.797 193.306 139.874 193.555 140.217C193.803 140.561 193.735 141.041 193.392 141.294L189.547 144.169C189.191 144.435 188.693 144.362 188.427 144.006C188.161 143.65 188.234 143.152 188.59 142.886H188.599Z" fill="white"/>
<path d="M198.763 135.596L202.723 132.876C203.045 132.653 203.487 132.735 203.71 133.061C203.929 133.382 203.851 133.82 203.534 134.043L199.604 136.806C199.273 137.038 198.814 136.961 198.583 136.626C198.351 136.296 198.428 135.837 198.763 135.601V135.596Z" fill="white"/>
<path d="M209.129 128.616L213.17 126.016C213.471 125.823 213.866 125.908 214.059 126.209C214.247 126.505 214.166 126.9 213.87 127.093L209.858 129.731C209.549 129.933 209.133 129.847 208.931 129.538C208.73 129.229 208.816 128.813 209.125 128.611L209.129 128.616Z" fill="white"/>
<path d="M219.714 121.957L223.837 119.494C224.112 119.331 224.464 119.421 224.631 119.696C224.794 119.966 224.704 120.318 224.438 120.485L220.34 122.991C220.057 123.162 219.684 123.077 219.512 122.789C219.341 122.506 219.427 122.133 219.714 121.961V121.957Z" fill="white"/>
<path d="M241.014 95.9863L243.048 110.926L252.294 103.126L241.014 95.9863Z" fill="#DCC500"/>
<path d="M307.025 78.2708L271.499 119.147C270.817 119.927 269.852 120.399 268.813 120.455C267.779 120.507 266.767 120.138 266.007 119.43L226.312 82.218C225.857 81.7933 225.707 81.1325 225.93 80.5533C226.153 79.9741 226.711 79.5837 227.333 79.5751L307.025 78.2708Z" fill="#FFE401"/>
<path d="M241.027 95.9863L307.028 78.2708L247.411 102.014L247.801 106.181L241.027 95.9863Z" fill="#DCC500"/>
<path d="M251.219 105.558L243.045 110.926L247.405 102.015L251.219 105.558Z" fill="#DCC500"/>
</svg>
