<svg width="110" height="127" viewBox="0 0 110 127" fill="none" xmlns="http://www.w3.org/2000/svg">
<path d="M66.313 185.939C64.8412 182.903 62.5416 180.879 60.7018 178.118C58.5861 174.898 59.9659 173.426 60.8858 170.113C62.8175 163.028 52.883 160.82 48.5596 156.956C45.616 154.287 42.9484 151.159 44.0522 146.926C45.0641 143.338 48.5596 143.062 50.3073 140.026C53.2509 134.689 44.0522 130.732 40.3728 128.8C35.4055 126.224 29.8863 124.752 24.827 122.175C20.5956 119.967 16.2722 117.759 12.4088 114.815C6.7976 110.582 0.542495 102.945 1.83031 95.3082C2.38223 92.0878 4.40594 88.9594 7.34952 87.4873C9.92515 86.1991 13.9726 86.5672 15.2604 83.3468C17.2841 77.8261 12.5008 72.2134 9.18925 68.2569C5.23382 63.5644 1.9223 57.6757 0.542495 51.6029C-1.02128 44.7941 0.634481 34.0288 7.62548 30.8084C10.753 29.3363 15.3524 31.5445 17.928 29.4283C21.7914 26.1159 18.7559 18.2029 19.7677 13.9704C20.6876 10.29 21.8834 9.0018 25.3789 9.46185C32.7379 10.474 31.542 1.73292 37.3372 0.260746C40.9247 -0.659364 45.0641 0.996835 47.8237 3.02108C49.6634 4.40125 51.1352 6.14946 53.5269 6.33348C58.6781 6.79353 61.6217 4.0332 66.221 7.52962C69.6246 10.1979 71.7403 14.3384 72.8441 18.4789C74.3159 23.7236 75.8797 30.5324 82.9626 28.3241C95.8408 24.2756 99.7042 38.9054 98.9683 48.6586C98.3244 57.1236 81.9508 92.2718 102.096 89.5115C115.71 87.6713 108.443 111.134 104.488 116.839C101.544 121.071 92.1613 129.168 94.369 135.057C95.7488 138.737 99.4283 136.989 101.912 138.921C104.304 140.762 104.58 144.994 103.752 147.571C101.912 153.275 96.4847 156.68 92.8972 161.096C91.3334 163.028 89.0338 166.157 88.5738 168.549C88.0219 171.677 90.4136 175.174 90.4136 178.394C90.5056 181.707 88.4818 183.363 87.378 186.123C85.9062 189.528 86.1822 193.484 84.2505 196.704C83.3306 198.269 82.5027 199.281 80.663 199.557C79.7431 199.741 78.9152 198.821 78.1793 198.913C77.4434 199.005 77.0755 200.109 76.2476 200.201C69.9005 201.029 68.4287 190.356 66.313 185.939Z" fill="#4EAD2D"/>
</svg>
