<svg width="92" height="36" viewBox="0 0 92 36" fill="none" xmlns="http://www.w3.org/2000/svg">
<path fill-rule="evenodd" clip-rule="evenodd" d="M92 21.0984V0H88.4615L81.1213 12.1815C80.454 13.3192 79.8733 14.6598 79.8733 14.6598H79.8156C79.8156 14.6598 79.8733 13.1743 79.8733 11.8336V0H76.2483V21.0984H79.6136L87.127 8.59443C87.8231 7.42773 88.375 6.1161 88.375 6.1161H88.4327C88.4327 6.1161 88.375 7.54368 88.375 8.8553V21.0948H92V21.0984ZM73.9254 21.0984L70.7332 13.8409C69.8314 11.801 68.4716 10.3445 66.5274 9.58358L73.6909 0H68.9657L62.3794 9.50025H62.3216V0H58.2313V21.0984H62.3216V11.2503C64.3235 11.2503 65.8313 12.5909 66.5599 14.341L69.3445 21.102H73.9254V21.0984ZM51.0318 14.8337C51.0318 17.0475 49.6106 18.3302 46.9703 18.3302C46.0721 18.3302 45.174 18.1526 44.651 17.9787V11.5981C45.1451 11.4822 45.9856 11.3626 46.7394 11.3626C49.5529 11.3662 51.0318 12.6779 51.0318 14.8337ZM55.0968 14.9207C55.0968 10.9278 52.3411 8.30457 47.147 8.30457C46.1876 8.30457 45.2029 8.42051 44.651 8.56906V3.4385H52.8605V0H40.7338V20.3121C42.2127 20.9534 44.651 21.4498 47.0316 21.4498C52.4854 21.4498 55.0968 18.8266 55.0968 14.9207ZM37.8915 0H33.5667C33.1014 4.34069 31.8281 8.27558 30.2591 11.6851H30.2014C28.3474 8.21761 26.8649 4.31171 26.313 0H21.9918C22.6014 5.39145 25.0686 10.609 28.1706 15.1272L24.7476 21.102H29.3609L32.7551 14.8663C35.1357 10.493 37.3685 5.09796 37.8915 0ZM14.4785 17.8628H5.19407C7.60354 15.2395 8.70368 9.93504 9.16898 5.71029L9.42868 3.3769H12.9671L14.4785 17.8628ZM19.9323 18.3012L18.4534 17.6599L16.5092 0H6.00565L5.36721 5.30449C4.81534 9.99664 3.62503 15.504 0 18.3012L0.230848 25.3521H3.0443L3.15973 21.0984H16.7942L16.9096 25.3521H19.723L19.9323 18.3012Z" fill="#ECECEC"/>
<path fill-rule="evenodd" clip-rule="evenodd" d="M3.12203 35.0749V30.4993H0V35.0749H0.872364V31.2316H2.24752V35.0749H3.12203V35.0749ZM6.97461 31.8893C6.97461 30.997 6.36009 30.4226 5.24707 30.4226C4.73999 30.4226 4.29306 30.5169 3.95142 30.6682V35.0727H4.8066V33.2968C4.90543 33.3166 5.07303 33.3275 5.22129 33.3275C6.37943 33.3297 6.97461 32.7159 6.97461 31.8893ZM6.11944 31.8827C6.11944 32.3629 5.79069 32.6545 5.17832 32.6545C5.0365 32.6545 4.89469 32.6435 4.8066 32.6238V31.1768C4.91188 31.1373 5.08592 31.1066 5.25782 31.1066C5.82292 31.1066 6.11944 31.3588 6.11944 31.8827ZM10.9389 32.7882C10.9389 31.453 10.3803 30.4226 9.20494 30.4226C8.02747 30.4226 7.47096 31.453 7.47096 32.786C7.47096 34.119 8.02747 35.1494 9.20494 35.1494C10.3803 35.1516 10.9389 34.1212 10.9389 32.7882ZM10.0644 32.7882C10.0644 33.7287 9.77219 34.3623 9.20279 34.3623C8.63339 34.3623 8.34332 33.7309 8.34332 32.7882C8.34332 31.8455 8.63339 31.2141 9.20279 31.2141C9.77434 31.2141 10.0644 31.8455 10.0644 32.7882ZM15.6703 34.4676L15.3545 34.3273L14.9398 30.4993H12.6965L12.5612 31.6504C12.443 32.6676 12.1895 33.8625 11.4159 34.4698L11.4654 36.0001H12.067L12.0906 35.0771H15.0021L15.0257 36.0001H15.6273L15.6703 34.4676ZM14.5079 34.3733H12.5247C13.0382 33.8055 13.2745 32.6545 13.3734 31.738L13.4292 31.2316H14.1856L14.5079 34.3733ZM19.5057 30.4993H18.5818C18.4829 31.4421 18.2101 32.2949 17.877 33.0338H17.8641C17.4688 32.2818 17.1529 31.4355 17.0347 30.4993H16.1129C16.244 31.6679 16.7704 32.7992 17.4322 33.7792L16.7017 35.0749H17.6858L18.412 33.7222C18.917 32.7751 19.394 31.6043 19.5057 30.4993ZM23.4636 35.0749L22.7824 33.5007C22.5912 33.0579 22.299 32.7422 21.8843 32.5777L23.4142 30.4993H22.4043L20.999 32.5602H20.9861V30.4993H20.1116V35.0749H20.9861V32.9395C21.4137 32.9395 21.736 33.2289 21.8907 33.6104L22.4859 35.0771H23.4636V35.0749ZM26.4975 31.2448V30.4993H23.7343V31.2448H24.6819V35.0749H25.5542V31.2448H26.4975ZM31.4653 30.4993H30.5929V35.0749H31.4653V30.4993ZM30.1223 33.6783C30.1223 32.8386 29.5336 32.2248 28.4012 32.2248C28.2401 32.2248 28.0553 32.2489 27.9565 32.2752V30.4993H27.1077V34.9039C27.4494 35.0551 27.8877 35.1494 28.3969 35.1494C29.51 35.1516 30.1223 34.5684 30.1223 33.6783ZM29.2607 33.6783C29.2607 34.2023 28.9642 34.4676 28.3991 34.4676C28.225 34.4676 28.0596 34.4369 27.9543 34.3974V32.9504C28.0403 32.9263 28.2143 32.9 28.3583 32.9C28.9449 32.9 29.2607 33.185 29.2607 33.6783ZM37.1764 32.7882C37.1764 31.453 36.6199 30.4248 35.4425 30.4248C34.265 30.4248 33.7085 31.4552 33.7085 32.7882C33.7085 34.1212 34.265 35.1516 35.4425 35.1516C36.6199 35.1516 37.1764 34.1212 37.1764 32.7882ZM36.3041 32.7882C36.3041 33.7287 36.0119 34.3623 35.4425 34.3623C34.8731 34.3623 34.583 33.7309 34.583 32.7882C34.583 31.8455 34.8752 31.2141 35.4425 31.2141C36.0119 31.2141 36.3041 31.8455 36.3041 32.7882ZM40.4167 31.2448V30.4993H37.6535V31.2448H38.601V35.0749H39.4755V31.2448H40.4167ZM45.5391 35.0749V30.4993H42.4171V35.0749H43.2894V31.2316H44.6646V35.0749H45.5391V35.0749ZM49.3917 31.8893C49.3917 30.997 48.7772 30.4226 47.6642 30.4226C47.1549 30.4226 46.7101 30.5169 46.3685 30.6682V35.0727H47.2237V33.2968C47.3225 33.3144 47.4901 33.3275 47.6384 33.3275C48.7965 33.3297 49.3917 32.7159 49.3917 31.8893ZM48.5365 31.8827C48.5365 32.3629 48.2078 32.6545 47.5954 32.6545C47.4536 32.6545 47.3096 32.6435 47.2237 32.6238V31.1768C47.329 31.1373 47.503 31.1066 47.6749 31.1066C48.24 31.1044 48.5365 31.3588 48.5365 31.8827ZM53.356 32.786C53.356 31.453 52.7973 30.4226 51.622 30.4226C50.4445 30.4226 49.888 31.453 49.888 32.786C49.888 34.1212 50.4445 35.1494 51.622 35.1494C52.7973 35.1494 53.356 34.1212 53.356 32.786ZM52.4815 32.786C52.4815 33.7287 52.1893 34.3602 51.6199 34.3602C51.0505 34.3602 50.7604 33.7287 50.7604 32.786C50.7604 31.8455 51.0505 31.2119 51.6199 31.2119C52.1914 31.2141 52.4815 31.8455 52.4815 32.786ZM57.4192 35.0749V30.4993H56.6628L55.0964 33.1412C54.9546 33.3867 54.83 33.6783 54.83 33.6783H54.8171C54.8171 33.6783 54.83 33.356 54.83 33.0644V30.4993H54.0565V35.0749H54.7741L56.377 32.3629C56.5253 32.1108 56.6435 31.8257 56.6435 31.8257H56.6564C56.6564 31.8257 56.6435 32.1349 56.6435 32.4199V35.0749H57.4192V35.0749ZM61.0483 33.7594C61.0483 33.1149 60.5713 32.7729 60.1136 32.6216V32.6106C60.5218 32.4462 60.8936 32.0669 60.8936 31.6043C60.8936 30.8896 60.3908 30.4226 59.3895 30.4226C58.9189 30.4226 58.472 30.5169 58.0767 30.6769L58.3302 31.3588C58.6095 31.2382 58.9555 31.1549 59.2713 31.1549C59.7612 31.1549 60.0148 31.35 60.0148 31.6745C60.0148 32.0735 59.5249 32.3629 58.7449 32.3892V33.0403H58.8502C59.6001 33.0403 60.1566 33.2793 60.1566 33.7551C60.1566 34.1453 59.8407 34.4062 59.2778 34.4062C58.8803 34.4062 58.5515 34.3295 58.2743 34.2155L57.995 34.8973C58.3732 35.0551 58.8115 35.1494 59.2907 35.1494C60.3994 35.1494 61.0483 34.6013 61.0483 33.7594ZM64.8643 33.8296C64.8643 33.1785 64.4067 32.8189 64.0457 32.6983V32.6852C64.4045 32.5843 64.7461 32.1985 64.7461 31.6745C64.7461 30.9466 64.2133 30.4226 63.0745 30.4226C62.5609 30.4226 62.0582 30.5235 61.723 30.6682V34.9039C62.0324 35.042 62.5781 35.1494 63.0852 35.1494C64.2584 35.1494 64.8643 34.6517 64.8643 33.8296ZM63.9168 31.7578C63.9168 31.9836 63.8308 32.1743 63.6997 32.2818C63.5687 32.3892 63.4075 32.433 63.1046 32.433H62.5523V31.1746C62.6705 31.1308 62.8747 31.0979 63.0723 31.0979C63.6503 31.1001 63.9168 31.3456 63.9168 31.7578ZM64.0049 33.7726C64.0049 34.2462 63.6954 34.4742 63.0809 34.4742C62.8961 34.4742 62.677 34.4435 62.5545 34.3974V33.0644H63.1175C63.4204 33.0644 63.5751 33.1149 63.7255 33.2091C63.9039 33.3253 64.0049 33.5183 64.0049 33.7726ZM68.8781 32.786C68.8781 31.453 68.3194 30.4226 67.1441 30.4226C65.9666 30.4226 65.4101 31.453 65.4101 32.786C65.4101 34.1212 65.9666 35.1494 67.1441 35.1494C68.3216 35.1494 68.8781 34.1212 68.8781 32.786ZM68.0057 32.786C68.0057 33.7287 67.7135 34.3602 67.1441 34.3602C66.5747 34.3602 66.2825 33.7287 66.2825 32.786C66.2825 31.8455 66.5747 31.2119 67.1441 31.2119C67.7135 31.2119 68.0057 31.8455 68.0057 32.786ZM73.6116 34.4676L73.2957 34.3273L72.8811 30.4971H70.6378L70.5025 31.6482C70.3843 32.6654 70.1307 33.8603 69.3572 34.4676L69.4066 35.9979H70.0083L70.0319 35.0749H72.9434L72.967 35.9979H73.5686L73.6116 34.4676ZM72.4449 34.3733H70.4638C70.9773 33.8055 71.2137 32.6545 71.3125 31.738L71.3684 31.2338H72.1247L72.4449 34.3733ZM77.6425 35.0749V30.4993H76.8862L75.3198 33.1412C75.178 33.3867 75.0534 33.6783 75.0534 33.6783H75.0405C75.0405 33.6783 75.0534 33.356 75.0534 33.0644V30.4993H74.2798V35.0749H74.9975L76.6004 32.3629C76.7487 32.1108 76.8668 31.8257 76.8668 31.8257H76.8776C76.8776 31.8257 76.8668 32.1349 76.8668 32.4199V35.0749H77.6425V35.0749ZM81.0138 31.2448V30.4993H78.2506V31.2448H79.1982V35.0749H80.0727V31.2448H81.0138ZM84.0048 35.0749V34.3295H82.4749V33.1236H83.8565V32.3892H82.4749V31.2448H84.0048V30.4993H81.6197V35.0749H84.0048V35.0749ZM88.272 35.0749L87.7757 30.4993H85.4594L85.2789 32.2752C85.1801 33.2727 85.0125 34.0203 84.3507 34.4172L84.6107 35.1955C85.6893 34.7285 86.0052 33.6147 86.1277 32.3695L86.2394 31.2316H86.9893L87.3803 35.0749H88.272ZM92 35.0749V30.6682C91.6476 30.5125 91.1513 30.4226 90.6442 30.4226C89.5118 30.4226 88.9295 30.9422 88.9295 31.8016C88.9295 32.4593 89.3335 32.8079 89.7955 32.9395V32.9526C89.5612 33.0842 89.4044 33.3253 89.2819 33.6235L88.6803 35.0771H89.5978L90.1607 33.6739C90.2725 33.3955 90.4637 33.2179 90.7731 33.2179H91.1448V35.0771H92V35.0749ZM91.147 32.5843H90.6399C90.0877 32.5843 89.7847 32.3563 89.7847 31.8521C89.7847 31.3719 90.0447 31.1001 90.627 31.1001C90.8247 31.1001 91.0309 31.1308 91.147 31.1768V32.5843Z" fill="#ECECEC"/>
</svg>
