<svg width="106" height="144" viewBox="0 0 106 144" fill="none" xmlns="http://www.w3.org/2000/svg">
<path fill-rule="evenodd" clip-rule="evenodd" d="M90.6445 68.3591C80.3951 67.5221 71.427 77.8338 69.6134 94.7834C68.4388 105.763 70.4246 129.282 83.8465 130.491C96.626 131.643 103.498 116.29 105.108 102.138C107.359 82.3601 100.894 69.1962 90.6445 68.3591Z" fill="#62B944"/>
<path fill-rule="evenodd" clip-rule="evenodd" d="M27.675 77.3462C19.7145 69.5887 12.9803 66.8536 6.44938 69.4543C-2.22067 72.9076 -0.0574569 87.7388 7.40182 97.2135C12.8443 104.127 27.0549 117.777 35.0033 109.013C42.578 100.663 36.3674 85.8184 27.675 77.3462Z" fill="#62B944"/>
<path fill-rule="evenodd" clip-rule="evenodd" d="M34.2694 0.4244C17.086 2.97003 15.126 24.3565 20.2688 44.5545C25.8043 66.2991 42.4383 77.4393 53.8934 72.8785C63.3713 69.1048 71.2887 54.5269 63.9706 30.1281C60.0248 16.9745 48.339 -1.65964 34.2694 0.4244Z" fill="#62B944"/>
<path d="M88.5666 83.9945C87.9052 83.9308 87.3162 84.3803 87.2525 85.0434C86.1192 96.8501 82.8831 123.273 78.1261 147.386H80.601C81.2279 144.285 81.8479 140.86 82.4628 137.363C86.0159 117.172 88.5563 96.702 89.6516 85.2914C89.7154 84.63 89.2296 84.0583 88.5666 83.9945Z" fill="#009035"/>
<path d="M18.4349 88.3952C17.9475 87.9422 17.1845 87.9767 16.7316 88.4641C16.2786 88.9515 16.3044 89.6835 16.7919 90.1365C28.4759 101.02 40.6439 122.069 48.036 147.387H50.5695C48.7077 141.015 46.6822 135.262 44.7774 130.498C37.6626 112.696 28.0608 97.3617 18.4349 88.3952Z" fill="#009035"/>
<path d="M53.8898 43.6451C54.0362 42.9958 53.6296 42.3671 52.9803 42.2207C52.3327 42.0726 51.6851 42.4808 51.5387 43.1301C50.7861 46.4491 49.608 51.642 48.7968 56.5386C48.2026 53.9551 47.6067 51.4697 47.0108 49.0929C47.2932 43.8776 48.0305 37.4257 48.809 30.6138L48.8847 29.9559C48.9605 29.2945 48.4851 28.6968 47.8238 28.621C47.1658 28.5418 46.5647 29.0206 46.489 29.682L46.4132 30.3399C45.9482 34.403 45.4986 38.3385 45.1507 41.971C43.2372 34.9627 41.4099 29.2549 39.8477 25.2452C39.6066 24.6252 38.9056 24.3186 38.2873 24.5597C37.6673 24.8009 37.3607 25.5001 37.6018 26.1202C39.1691 30.1402 41.0034 35.879 42.9237 42.932C40.2507 39.489 37.0163 36.3268 34.1951 33.5676C33.0464 32.4447 31.9613 31.3837 30.9847 30.3778C30.5214 29.9007 29.7584 29.8887 29.2813 30.352C28.8043 30.8153 28.7922 31.5783 29.2555 32.0554C30.2545 33.0836 31.3498 34.1567 32.5107 35.29C37.2987 39.9713 42.7257 45.2779 45.0112 51.0908C45.0267 51.1322 45.0457 51.1718 45.0646 51.2097C45.4625 52.8304 45.8638 54.5045 46.2616 56.2183C42.3227 50.0057 37.6725 46.22 33.7112 42.9941L33.0584 42.4618C32.5434 42.0416 31.7839 42.1174 31.3619 42.6341C30.9417 43.149 31.0175 43.9086 31.5325 44.3306L32.1887 44.8645C37.5382 49.2203 44.1949 54.6406 48.368 65.9926C48.3921 66.0598 48.4231 66.0873 48.4576 66.1476C53.3386 89.513 57.634 118.969 58.2988 147.387H60.6946C60.0022 117.935 55.4432 87.3894 50.3538 63.54C50.7069 57.6547 52.772 48.5693 53.8898 43.6451Z" fill="#009035"/>
</svg>
