<svg width="105" height="190" viewBox="0 0 105 190" fill="none" xmlns="http://www.w3.org/2000/svg">
<path d="M62.8931 176.35C61.4972 173.47 59.3161 171.55 57.5713 168.932C55.5647 165.878 56.8733 164.482 57.7458 161.34C59.5779 154.621 50.1557 152.526 46.0552 148.861C43.2635 146.33 40.7334 143.363 41.7803 139.349C42.74 135.946 46.0552 135.684 47.7129 132.804C50.5046 127.743 41.7803 123.99 38.2906 122.158C33.5795 119.714 28.345 118.318 23.5466 115.875C19.5334 113.78 15.433 111.686 11.7688 108.893C6.44702 104.879 0.514517 97.636 1.73592 90.3929C2.25937 87.3386 4.17871 84.3716 6.97048 82.9753C9.41328 81.7536 13.252 82.1026 14.4734 79.0483C16.3927 73.8124 11.8561 68.4892 8.71534 64.7367C4.9639 60.2862 1.82316 54.7012 0.514517 48.9416C-0.96861 42.484 0.601759 32.2739 7.23221 29.2196C10.1985 27.8233 14.5606 29.9177 17.0034 27.9106C20.6676 24.769 17.7886 17.2641 18.7483 13.2499C19.6207 9.75927 20.7548 8.53755 24.0701 8.97388C31.0495 9.93381 29.9153 1.64355 35.4116 0.247299C38.8141 -0.625359 42.74 0.945426 45.3573 2.86527C47.1021 4.17426 48.498 5.83231 50.7663 6.00684C55.6519 6.44317 58.4437 3.8252 62.8059 7.1413C66.0338 9.67201 68.0404 13.599 69.0873 17.5259C70.4832 22.5001 71.9663 28.9578 78.684 26.8634C90.898 23.0237 94.5622 36.8989 93.8643 46.1491C93.2536 54.1776 77.7244 87.5131 96.8305 84.8951C109.742 83.1498 102.85 105.403 99.0988 110.813C96.3071 114.827 87.4083 122.507 89.5021 128.092C90.8108 131.582 94.3005 129.924 96.656 131.757C98.9244 133.502 99.1861 137.516 98.4009 139.96C96.656 145.37 91.5087 148.599 88.1063 152.788C86.6231 154.621 84.4421 157.588 84.0059 159.856C83.4824 162.824 85.7507 166.14 85.7507 169.194C85.8379 172.335 83.9186 173.906 82.8717 176.524C81.4758 179.753 81.7375 183.506 79.9054 186.56C79.033 188.043 78.2478 189.003 76.503 189.265C75.6305 189.44 74.8454 188.567 74.1474 188.654C73.4495 188.741 73.1005 189.789 72.3153 189.876C66.2956 190.661 64.8997 180.538 62.8931 176.35Z" fill="#009035"/>
</svg>
