<svg width="111" height="131" viewBox="0 0 111 131" fill="none" xmlns="http://www.w3.org/2000/svg">
<path d="M43.9526 186.311C45.4244 183.275 47.724 181.25 49.5638 178.49C51.6795 175.27 50.2997 173.798 49.3798 170.485C47.4481 163.4 57.3827 161.192 61.706 157.328C64.6496 154.659 67.3172 151.531 66.2134 147.298C65.2015 143.71 61.706 143.434 59.9583 140.398C57.0147 135.061 66.2134 131.104 69.8929 129.172C74.8601 126.596 80.3794 125.124 85.4386 122.547C89.67 120.339 93.9934 118.131 97.8568 115.187C103.468 110.954 109.723 103.317 108.435 95.6801C107.883 92.4598 105.86 89.3314 102.916 87.8592C100.34 86.5711 96.2931 86.9391 95.0052 83.7187C92.9815 78.1981 97.7649 72.5854 101.076 68.6289C105.032 63.9363 108.343 58.0476 109.723 51.9749C111.287 45.1661 109.631 34.4008 102.64 31.1804C99.5126 29.7082 94.9133 31.9165 92.3376 29.8002C88.4742 26.4878 91.5097 18.5749 90.4979 14.3423C89.578 10.6619 88.3822 9.37375 84.8867 9.8338C77.5278 10.8459 78.7236 2.10487 72.9284 0.632695C69.3409 -0.287416 65.2015 1.36878 62.4419 3.39303C60.6022 4.77319 59.1304 6.5214 56.7388 6.70543C51.5875 7.16548 48.6439 4.40515 44.0446 7.90157C40.6411 10.5699 38.5254 14.7104 37.4215 18.8509C35.9497 24.0955 34.386 30.9043 27.303 28.6961C14.4248 24.6476 10.5614 39.2774 11.2973 49.0305C11.9412 57.4955 28.3148 92.6438 8.16973 89.8834C-5.44431 88.0432 1.82265 111.506 5.77808 117.211C8.72166 121.443 18.1043 129.54 15.8966 135.429C14.5168 139.109 10.8373 137.361 8.35371 139.293C5.96205 141.134 5.68609 145.366 6.51397 147.942C8.35371 153.647 13.7809 157.052 17.3684 161.468C18.9322 163.4 21.2318 166.529 21.6918 168.921C22.2437 172.049 19.8521 175.546 19.8521 178.766C19.7601 182.079 21.7838 183.735 22.8876 186.495C24.3594 189.9 24.0834 193.856 26.0152 197.076C26.935 198.641 27.7629 199.653 29.6026 199.929C30.5225 200.113 31.3504 199.193 32.0863 199.285C32.8222 199.377 33.1901 200.481 34.018 200.573C40.3651 201.401 41.8369 190.728 43.9526 186.311Z" fill="#4EAD2D"/>
</svg>
