<svg width="414" height="353" viewBox="0 0 414 353" fill="none" xmlns="http://www.w3.org/2000/svg">
<path d="M130.464 247.031C122.6 228.788 139.41 233.396 147.837 224.906C158.96 213.7 132.389 206.285 125.34 204.484C113.207 201.347 92.6659 195.061 85.4407 183.718C69.8305 158.939 129.552 176.182 113.425 157.224C102.537 144.406 84.3029 139.262 72.6056 127.056C67.369 121.593 61.5066 112.276 67.5696 105.148C72.5542 99.175 84.6239 103.462 88.3158 96.0049C93.6201 85.6318 76.9605 68.7744 75.563 58.6287C73.747 45.5747 76.8642 30.4049 91.2003 26.3602C99.6531 23.9609 104.35 29.8313 112.007 31.4277C119.326 33.0252 120.984 24.8985 127.414 24.5368C132.085 24.3169 140.098 29.9722 142.687 33.6171C146.978 39.6243 148.242 50.3795 156.244 53.328C165.399 56.6783 168.327 44.9605 176.448 43.9159C208.524 40.2128 197.442 92.9693 203.671 108.714C207.229 117.566 212.593 105.366 215.356 102.175C221.284 95.3189 227.3 93.0639 234.707 99.2628C248.908 111.189 244.598 132.521 240.67 147.965C239.403 152.571 223.909 186.599 234.878 186.965C243.751 187.812 248.682 169.32 258.915 171.516C276.128 175.311 268.35 208.769 266.431 219.13C264.711 228.745 262.568 234.099 268.156 242.605C273.948 251.382 281.229 259.882 280.058 271.12C279.15 280.462 271.535 288.678 274.082 298.548C276.629 308.419 287.762 315.281 294.831 321.82C302.036 328.426 328.97 341.253 316.761 351.922C305.815 341.269 294.665 330.347 283.382 320.034C273.866 311.272 268.28 303.442 254.204 304.914C243.647 306.103 230.078 299.385 222.667 292.171C216.616 286.306 219.417 276.212 213.03 271.025C200.462 260.92 182.145 268.227 167.996 268.481C153.306 268.806 136.549 261.016 130.464 247.031Z" fill="white"/>
</svg>
