<svg width="528" height="472" viewBox="0 0 528 472" fill="none" xmlns="http://www.w3.org/2000/svg">
<path d="M379.582 330.347C390.112 305.92 367.603 312.091 356.32 300.723C341.426 285.718 377.005 275.789 386.443 273.377C402.688 269.178 430.193 260.76 439.867 245.572C460.769 212.394 380.803 235.481 402.397 210.098C416.975 192.935 441.391 186.046 457.053 169.703C464.065 162.388 471.915 149.913 463.796 140.369C457.122 132.371 440.961 138.111 436.018 128.126C428.915 114.237 451.222 91.665 453.093 78.0801C455.525 60.6009 451.351 40.2888 432.155 34.8731C420.837 31.6606 414.548 39.5209 404.295 41.6583C394.495 43.7974 392.275 32.916 383.665 32.4317C377.411 32.1371 366.682 39.7095 363.216 44.5899C357.47 52.6335 355.777 67.0345 345.063 70.9825C332.805 75.4685 328.883 59.7786 318.011 58.3799C275.061 53.4215 289.899 124.062 281.559 145.144C276.795 156.997 269.612 140.66 265.913 136.388C257.975 127.208 249.92 124.188 240.003 132.488C220.987 148.458 226.758 177.021 232.018 197.7C233.714 203.867 254.461 249.43 239.773 249.92C227.892 251.055 221.29 226.294 207.588 229.234C184.54 234.315 194.955 279.115 197.525 292.988C199.827 305.863 202.697 313.032 195.215 324.422C187.459 336.173 177.71 347.555 179.278 362.602C180.493 375.111 190.69 386.112 187.28 399.329C183.869 412.545 168.962 421.734 159.497 430.489C149.85 439.333 113.786 456.509 130.134 470.795C144.79 456.531 159.72 441.906 174.828 428.098C187.57 416.365 195.048 405.881 213.896 407.852C228.031 409.444 246.201 400.449 256.123 390.789C264.225 382.936 260.476 369.421 269.027 362.475C285.856 348.944 310.382 358.729 329.327 359.069C348.997 359.503 371.434 349.074 379.582 330.347Z" fill="white"/>
</svg>
