<svg width="64" height="91" viewBox="0 0 64 91" fill="none" xmlns="http://www.w3.org/2000/svg">
<path d="M62.158 47.5147L62.6478 47.6156L62.158 47.5147ZM0.723904 88.4168C0.493679 88.2643 0.430656 87.9541 0.583138 87.7239L3.06798 83.9721C3.22046 83.7419 3.5307 83.6789 3.76093 83.8314C3.99116 83.9838 4.05418 84.2941 3.9017 84.5243L1.69295 87.8592L5.02784 90.0679C5.25806 90.2204 5.32108 90.5307 5.1686 90.7609C5.01612 90.9911 4.70587 91.0541 4.47565 90.9017L0.723904 88.4168ZM18.2275 9.61426C18.3124 9.12153 18.3128 9.12158 18.3133 9.12167C18.3137 9.12175 18.3144 9.12187 18.3153 9.12202C18.317 9.12232 18.3195 9.12275 18.3227 9.12331C18.3291 9.12443 18.3386 9.12609 18.3509 9.12828C18.3757 9.13267 18.4123 9.13922 18.4603 9.14796C18.5562 9.16544 18.6978 9.19173 18.8817 9.22717C19.2496 9.29807 19.787 9.40564 20.4681 9.55285C21.8302 9.84724 23.7674 10.3003 26.0726 10.9357C30.6805 12.2058 36.7698 14.2078 42.6763 17.1338C48.5773 20.0572 54.3317 23.9204 58.2326 28.9301C62.1469 33.9569 64.1886 40.1331 62.6478 47.6156L61.6683 47.4139C63.1429 40.2529 61.201 34.3697 57.4436 29.5445C53.673 24.7022 48.0679 20.9208 42.2324 18.0299C36.4023 15.1417 30.3783 13.1598 25.8069 11.8997C23.5224 11.27 21.6035 10.8213 20.2569 10.5303C19.5836 10.3848 19.0535 10.2787 18.6925 10.2091C18.512 10.1743 18.3737 10.1487 18.281 10.1318C18.2346 10.1233 18.1996 10.1171 18.1764 10.1129C18.1648 10.1109 18.1562 10.1094 18.1505 10.1084C18.1477 10.1079 18.1456 10.1075 18.1443 10.1073C18.1436 10.1072 18.1432 10.1071 18.1428 10.107C18.1426 10.107 18.1426 10.107 18.2275 9.61426ZM62.6478 47.6156C61.1102 55.0825 56.45 61.3639 50.3837 66.5751C44.317 71.7868 36.8129 75.9556 29.5206 79.1967C22.2253 82.4392 15.1226 84.7616 9.84557 86.2732C7.20638 87.0293 5.02221 87.583 3.49686 87.9478C2.73415 88.1303 2.13605 88.2656 1.72803 88.3554C1.52402 88.4002 1.36752 88.4338 1.26171 88.4561C1.20881 88.4673 1.16857 88.4757 1.14141 88.4813C1.12783 88.4841 1.11752 88.4863 1.11052 88.4877C1.10703 88.4884 1.10435 88.489 1.10252 88.4893C1.1016 88.4895 1.10086 88.4897 1.1004 88.4898C1.09986 88.4899 1.09954 88.4899 1 88C0.900459 87.51 0.900555 87.5099 0.900856 87.5099C0.901237 87.5098 0.901749 87.5097 0.902508 87.5095C0.90403 87.5092 0.906384 87.5088 0.909565 87.5081C0.915928 87.5068 0.925602 87.5048 0.938541 87.5021C0.96442 87.4968 1.00335 87.4886 1.05494 87.4777C1.15811 87.4559 1.3119 87.423 1.51312 87.3787C1.91558 87.2902 2.50775 87.1562 3.2642 86.9753C4.77718 86.6133 6.94696 86.0634 9.57018 85.3119C14.8179 83.8086 21.874 81.501 29.1144 78.2829C36.3578 75.0636 43.7663 70.9415 49.7321 65.8166C55.6984 60.6912 60.1906 54.5902 61.6683 47.4139L62.6478 47.6156Z" fill="#FFE401"/>
<path d="M62.158 38.9009L62.6478 39.0018L62.158 38.9009ZM0.723904 79.803C0.493679 79.6506 0.430656 79.3403 0.583138 79.1101L3.06798 75.3584C3.22046 75.1281 3.5307 75.0651 3.76093 75.2176C3.99116 75.3701 4.05418 75.6803 3.9017 75.9105L1.69295 79.2454L5.02784 81.4542C5.25806 81.6066 5.32108 81.9169 5.1686 82.1471C5.01612 82.3773 4.70587 82.4404 4.47565 82.2879L0.723904 79.803ZM18.2275 1.00049C18.3124 0.507757 18.3128 0.507815 18.3133 0.507905C18.3137 0.507979 18.3144 0.508102 18.3153 0.508251C18.317 0.508547 18.3195 0.508976 18.3227 0.509539C18.3291 0.510663 18.3386 0.51232 18.3509 0.514515C18.3757 0.518905 18.4123 0.525448 18.4603 0.53419C18.5562 0.551674 18.6978 0.577956 18.8817 0.613405C19.2496 0.684301 19.787 0.791875 20.4681 0.939083C21.8302 1.23347 23.7674 1.68652 26.0726 2.32192C30.6805 3.59206 36.7698 5.59401 42.6763 8.52005C48.5773 11.4434 54.3317 15.3066 58.2326 20.3163C62.1469 25.3431 64.1886 31.5193 62.6478 39.0018L61.6683 38.8001C63.1429 31.6391 61.201 25.756 57.4436 20.9307C53.673 16.0884 48.0679 12.307 42.2324 9.41612C36.4023 6.52792 30.3783 4.54607 25.8069 3.28597C23.5224 2.65626 21.6035 2.20757 20.2569 1.91651C19.5836 1.771 19.0535 1.66491 18.6925 1.59534C18.512 1.56055 18.3737 1.53489 18.281 1.51799C18.2346 1.50954 18.1996 1.50328 18.1764 1.49917C18.1648 1.49711 18.1562 1.49559 18.1505 1.4946C18.1477 1.49411 18.1456 1.49375 18.1443 1.49352C18.1436 1.4934 18.1432 1.49333 18.1428 1.49327C18.1426 1.49323 18.1426 1.49322 18.2275 1.00049ZM62.6478 39.0018C61.1102 46.4688 56.45 52.7501 50.3837 57.9613C44.317 63.173 36.8129 67.3419 29.5206 70.583C22.2253 73.8254 15.1226 76.1478 9.84557 77.6595C7.20638 78.4155 5.02221 78.9692 3.49686 79.3341C2.73415 79.5165 2.13605 79.6518 1.72803 79.7416C1.52402 79.7865 1.36752 79.82 1.26171 79.8424C1.20881 79.8535 1.16857 79.8619 1.14141 79.8676C1.12783 79.8704 1.11752 79.8725 1.11052 79.8739C1.10703 79.8746 1.10435 79.8752 1.10252 79.8756C1.1016 79.8758 1.10086 79.8759 1.1004 79.876C1.09986 79.8761 1.09954 79.8762 1 79.3862C0.900459 78.8962 0.900555 78.8962 0.900856 78.8961C0.901237 78.896 0.901749 78.8959 0.902508 78.8958C0.90403 78.8955 0.906384 78.895 0.909565 78.8943C0.915928 78.893 0.925602 78.891 0.938541 78.8884C0.96442 78.883 1.00335 78.8749 1.05494 78.864C1.15811 78.8422 1.3119 78.8092 1.51312 78.765C1.91558 78.6764 2.50775 78.5425 3.2642 78.3615C4.77718 77.9996 6.94696 77.4496 9.57018 76.6981C14.8179 75.1949 21.874 72.8872 29.1144 69.6692C36.3578 66.4498 43.7663 62.3277 49.7321 57.2028C55.6984 52.0774 60.1906 45.9765 61.6683 38.8001L62.6478 39.0018Z" fill="#009035"/>
</svg>
