<svg width="1195" height="953" viewBox="0 0 1195 953" fill="none" xmlns="http://www.w3.org/2000/svg">
<path d="M1009.65 671.044C1023.04 639.985 994.416 647.831 980.069 633.377C961.131 614.298 1006.37 601.673 1018.37 598.606C1039.03 593.266 1074 582.563 1086.3 563.251C1112.88 521.064 1011.2 550.42 1038.66 518.145C1057.19 496.321 1088.24 487.563 1108.15 466.781C1117.07 457.481 1127.05 441.618 1116.73 429.483C1108.24 419.313 1087.69 426.612 1081.41 413.916C1072.38 396.255 1100.74 367.554 1103.12 350.281C1106.21 328.056 1100.9 302.228 1076.5 295.342C1062.1 291.257 1054.11 301.252 1041.07 303.97C1028.61 306.69 1025.79 292.854 1014.84 292.238C1006.89 291.863 993.245 301.492 988.838 307.697C981.532 317.925 979.379 336.236 965.756 341.256C950.17 346.96 945.183 327.01 931.358 325.232C876.747 318.927 895.613 408.748 885.009 435.554C878.951 450.625 869.818 429.853 865.115 424.421C855.021 412.748 844.779 408.909 832.169 419.462C807.991 439.768 815.328 476.087 822.017 502.38C824.173 510.222 850.553 568.156 831.877 568.779C816.77 570.222 808.375 538.738 790.953 542.477C761.647 548.938 774.89 605.902 778.158 623.542C781.085 639.913 784.734 649.028 775.22 663.51C765.359 678.452 752.963 692.924 754.956 712.057C756.502 727.962 769.467 741.951 765.131 758.756C760.794 775.562 741.84 787.245 729.804 798.377C717.537 809.623 671.682 831.463 692.468 849.627C711.104 831.491 730.088 812.895 749.298 795.337C765.499 780.418 775.008 767.087 798.974 769.594C816.947 771.618 840.05 760.18 852.667 747.898C862.969 737.912 858.201 720.728 869.074 711.896C890.473 694.691 921.658 707.132 945.747 707.566C970.758 708.117 999.287 694.856 1009.65 671.044Z" fill="#73CD55"/>
<path d="M730.136 847.641C789.105 804.243 808.481 693.864 779.812 624.009C750.309 552.118 689.642 571.176 619.239 501.404C539.268 422.145 578.08 358.431 503.5 217.784C486.677 186.051 389.296 2.42629 308.304 31.8675C233.418 59.0909 162.173 272.232 227.353 385.888C273.826 466.927 355.447 437.74 409.293 532.415C456.535 615.488 409.325 665.44 454.133 746.38C508.682 844.908 652.704 904.621 730.136 847.641Z" fill="#73CD55"/>
<path d="M752.189 854.678C660.524 785.332 555.285 641.529 483.146 533.108C405.037 415.717 347.814 313.363 347.246 312.344L351.397 310.026C351.964 311.045 409.116 413.265 487.123 530.502C559.059 638.609 663.94 781.951 755.065 850.888L752.189 854.678Z" fill="#62B944"/>
</svg>
