<svg width="214" height="112" viewBox="0 0 214 112" fill="none" xmlns="http://www.w3.org/2000/svg">
<path d="M9.22953 78.5L8.84887 78.8242L9.22953 78.5ZM203.643 90.7815C203.798 90.5533 203.739 90.2422 203.511 90.0868L199.792 87.5532C199.564 87.3978 199.253 87.4567 199.097 87.6849C198.942 87.9132 199.001 88.2242 199.229 88.3797L202.535 90.6317L200.283 93.9375C200.127 94.1657 200.186 94.4768 200.414 94.6322C200.643 94.7877 200.954 94.7287 201.109 94.5005L203.643 90.7815ZM55.7295 1C55.5209 0.545605 55.5205 0.545805 55.5197 0.546147C55.5191 0.546449 55.518 0.546933 55.5167 0.547537C55.5141 0.548747 55.5102 0.550522 55.5052 0.55286C55.495 0.557536 55.4801 0.564464 55.4604 0.573628C55.4209 0.591956 55.3625 0.619228 55.2857 0.655315C55.1323 0.727487 54.9058 0.834921 54.6123 0.976583C54.0252 1.2599 53.1699 1.68015 52.0942 2.22907C49.9428 3.32683 46.9094 4.93955 43.3773 7.00106C36.3163 11.1223 27.249 17.0451 19.253 24.241C11.2648 31.4299 4.29922 39.9308 1.51268 49.2175C-1.28625 58.5454 0.149415 68.6097 8.84887 78.8242L9.61018 78.1758C1.12022 68.2073 -0.226317 58.4925 2.47049 49.5049C5.17969 40.4759 11.9877 32.1247 19.9219 24.9844C27.8483 17.8511 36.8521 11.9675 43.8814 7.86471C47.3946 5.8142 50.4112 4.21048 52.5487 3.1198C53.6173 2.5745 54.466 2.15753 55.0469 1.87719C55.3374 1.73702 55.5609 1.63101 55.7114 1.5602C55.7867 1.52479 55.8437 1.49819 55.8817 1.48051C55.9008 1.47167 55.915 1.46506 55.9245 1.46071C55.9292 1.45853 55.9327 1.45691 55.935 1.45586C55.9361 1.45533 55.9369 1.45497 55.9375 1.4547C55.938 1.45448 55.9382 1.4544 55.7295 1ZM8.84887 78.8242C17.9149 89.4691 34.6694 95.4906 54.5557 98.5878C74.4684 101.689 97.6391 101.875 119.669 100.749C141.702 99.6234 162.614 97.184 178.016 95.0264C185.718 93.9476 192.043 92.939 196.443 92.2001C198.644 91.8307 200.363 91.5286 201.532 91.3188C202.117 91.2139 202.564 91.1321 202.865 91.0765C203.016 91.0487 203.13 91.0274 203.207 91.0131C203.245 91.0059 203.274 91.0005 203.293 90.9968C203.303 90.995 203.31 90.9936 203.315 90.9927C203.317 90.9922 203.319 90.9919 203.321 90.9916C203.322 90.9914 203.323 90.9912 203.229 90.5C203.136 90.0088 203.136 90.0089 203.135 90.0091C203.133 90.0093 203.132 90.0096 203.129 90.0101C203.125 90.011 203.117 90.0123 203.108 90.0141C203.089 90.0177 203.06 90.023 203.023 90.0301C202.947 90.0443 202.833 90.0654 202.684 90.0931C202.384 90.1484 201.938 90.2299 201.355 90.3345C200.189 90.5437 198.474 90.8451 196.278 91.2139C191.885 91.9516 185.569 92.9587 177.878 94.0361C162.494 96.191 141.613 98.6266 119.618 99.7506C97.6189 100.875 74.5253 100.686 54.7096 97.5997C34.8674 94.5094 18.4294 88.5309 9.61018 78.1758L8.84887 78.8242Z" fill="#FFE401"/>
<path d="M19.2295 88.5L18.8489 88.8242L19.2295 88.5ZM213.643 100.782C213.798 100.553 213.739 100.242 213.511 100.087L209.792 97.5532C209.564 97.3978 209.253 97.4567 209.097 97.6849C208.942 97.9132 209.001 98.2242 209.229 98.3797L212.535 100.632L210.283 103.938C210.127 104.166 210.186 104.477 210.414 104.632C210.643 104.788 210.954 104.729 211.109 104.501L213.643 100.782ZM65.7295 11C65.5209 10.5456 65.5205 10.5458 65.5197 10.5461C65.5191 10.5464 65.518 10.5469 65.5167 10.5475C65.5141 10.5487 65.5102 10.5505 65.5052 10.5529C65.495 10.5575 65.4801 10.5645 65.4604 10.5736C65.4209 10.592 65.3625 10.6192 65.2857 10.6553C65.1323 10.7275 64.9058 10.8349 64.6123 10.9766C64.0252 11.2599 63.1699 11.6802 62.0942 12.2291C59.9428 13.3268 56.9094 14.9395 53.3773 17.0011C46.3163 21.1223 37.249 27.0451 29.253 34.241C21.2648 41.4299 14.2992 49.9308 11.5127 59.2175C8.71375 68.5454 10.1494 78.6097 18.8489 88.8242L19.6102 88.1758C11.1202 78.2073 9.77368 68.4925 12.4705 59.5049C15.1797 50.4759 21.9877 42.1247 29.9219 34.9844C37.8483 27.8511 46.8521 21.9675 53.8814 17.8647C57.3946 15.8142 60.4112 14.2105 62.5487 13.1198C63.6173 12.5745 64.466 12.1575 65.0469 11.8772C65.3374 11.737 65.5609 11.631 65.7114 11.5602C65.7867 11.5248 65.8437 11.4982 65.8817 11.4805C65.9008 11.4717 65.915 11.4651 65.9245 11.4607C65.9292 11.4585 65.9327 11.4569 65.935 11.4559C65.9361 11.4553 65.9369 11.455 65.9375 11.4547C65.938 11.4545 65.9382 11.4544 65.7295 11ZM18.8489 88.8242C27.9149 99.4691 44.6694 105.491 64.5557 108.588C84.4684 111.689 107.639 111.875 129.669 110.749C151.702 109.623 172.614 107.184 188.016 105.026C195.718 103.948 202.043 102.939 206.443 102.2C208.644 101.831 210.363 101.529 211.532 101.319C212.117 101.214 212.564 101.132 212.865 101.076C213.016 101.049 213.13 101.027 213.207 101.013C213.245 101.006 213.274 101 213.293 100.997C213.303 100.995 213.31 100.994 213.315 100.993C213.317 100.992 213.319 100.992 213.321 100.992C213.322 100.991 213.323 100.991 213.229 100.5C213.136 100.009 213.136 100.009 213.135 100.009C213.133 100.009 213.132 100.01 213.129 100.01C213.125 100.011 213.117 100.012 213.108 100.014C213.089 100.018 213.06 100.023 213.023 100.03C212.947 100.044 212.833 100.065 212.684 100.093C212.384 100.148 211.938 100.23 211.355 100.335C210.189 100.544 208.474 100.845 206.278 101.214C201.885 101.952 195.569 102.959 187.878 104.036C172.494 106.191 151.613 108.627 129.618 109.751C107.619 110.875 84.5253 110.686 64.7096 107.6C44.8674 104.509 28.4294 98.5309 19.6102 88.1758L18.8489 88.8242Z" fill="#009035"/>
</svg>
