<svg width="107" height="134" viewBox="0 0 107 134" fill="none" xmlns="http://www.w3.org/2000/svg">
<path d="M29.5745 29.597C30.4479 29.2399 31.4484 29.6582 31.8056 30.5341C44.8399 62.4822 53.3778 88.7987 59.4888 115.971C60.8123 121.85 62.0257 127.741 63.1364 133.857H59.6894C52.7857 96.182 42.1538 64.9115 28.6375 31.7793C28.2804 30.9034 28.6987 29.9542 29.5745 29.597Z" fill="#EDEDED"/>
<path fill-rule="evenodd" clip-rule="evenodd" d="M21.9297 0.423233C37.4054 -4.43296 31.3457 34.1035 31.3457 34.1035C31.3457 34.1035 4.6388 5.84945 21.9297 0.423233Z" fill="#EDEDED"/>
<path fill-rule="evenodd" clip-rule="evenodd" d="M57.4559 17.6657C72.8558 27.1285 39.8836 55.4265 39.8836 55.4265C39.8836 55.4265 42.4694 8.45488 57.4559 17.6657Z" fill="#EDEDED"/>
<path fill-rule="evenodd" clip-rule="evenodd" d="M78.8591 44.3442C96.9452 60.936 48.727 82.5527 48.727 82.5527C48.727 82.5527 60.9002 27.8674 78.8591 44.3442Z" fill="#EDEDED"/>
<path fill-rule="evenodd" clip-rule="evenodd" d="M97.0041 81.068C108.191 99.793 57.3408 112.348 57.3408 112.348C57.3408 112.348 86.0639 62.754 97.0041 81.068Z" fill="#EDEDED"/>
<path fill-rule="evenodd" clip-rule="evenodd" d="M104.642 122.302C106.995 127.039 106.303 131.411 103.81 133.857H72.1414C81.3447 121.38 96.3704 105.657 104.642 122.302Z" fill="#EDEDED"/>
<path fill-rule="evenodd" clip-rule="evenodd" d="M39.2032 55.2995C39.2032 55.2995 -10.0103 44.7479 1.84232 26.9624C13.2962 9.77369 39.2032 55.2995 39.2032 55.2995Z" fill="#EDEDED"/>
<path fill-rule="evenodd" clip-rule="evenodd" d="M49.0796 83.1499C49.0796 83.1499 -7.29013 90.3302 0.878368 65.44C8.60406 41.9027 49.0796 83.1499 49.0796 83.1499Z" fill="#EDEDED"/>
<path fill-rule="evenodd" clip-rule="evenodd" d="M56.7856 112.617C56.7856 112.617 1.20396 120.196 10.3754 96.8254C18.2503 76.7597 56.7856 112.617 56.7856 112.617Z" fill="#EDEDED"/>
<path fill-rule="evenodd" clip-rule="evenodd" d="M40.4437 133.857H15.8112C18.9646 127.252 29.9047 129.209 40.4437 133.857Z" fill="#EDEDED"/>
</svg>
