<svg width="140" height="255" viewBox="0 0 140 255" fill="none" xmlns="http://www.w3.org/2000/svg">
<path d="M84.4503 236.187C82.5808 232.331 79.6597 229.759 77.3228 226.253C74.6353 222.162 76.388 220.292 77.5565 216.085C80.0102 207.085 67.3909 204.28 61.8992 199.371C58.1601 195.982 54.7716 192.008 56.1738 186.632C57.4591 182.074 61.8992 181.723 64.1192 177.866C67.8583 171.087 56.1738 166.062 51.4999 163.607C45.1903 160.335 38.1796 158.465 31.7531 155.192C26.3782 152.387 20.8865 149.582 15.9789 145.842C8.85138 140.466 0.905896 130.765 2.54173 121.064C3.2428 116.974 5.8134 113 9.55245 111.13C12.8241 109.494 17.9653 109.961 19.6012 105.87C22.1718 98.8579 16.0958 91.7284 11.8894 86.7028C6.86501 80.7421 2.65858 73.262 0.905896 65.5482C-1.08048 56.8993 1.02274 43.2248 9.90299 39.1341C13.8757 37.2641 19.718 40.0691 22.9897 37.381C27.8972 33.1734 24.0413 23.1221 25.3266 17.7458C26.495 13.0707 28.014 11.4345 32.4541 12.0188C41.8018 13.3045 40.2828 2.20123 47.644 0.331211C52.201 -0.837552 57.4591 1.26622 60.9644 3.8375C63.3013 5.59064 65.1709 7.81129 68.2088 8.04504C74.7522 8.62943 78.4912 5.12314 84.3335 9.56444C88.6568 12.9538 91.3442 18.2133 92.7464 23.4727C94.6159 30.1347 96.6023 38.7835 105.599 35.9785C121.958 30.8359 126.865 49.4192 125.93 61.8081C125.113 72.5607 104.314 117.207 129.903 113.701C147.196 111.364 137.966 141.167 132.941 148.413C129.202 153.79 117.284 164.075 120.088 171.555C121.841 176.23 126.515 174.009 129.669 176.464C132.707 178.801 133.058 184.178 132.006 187.45C129.669 194.696 122.776 199.021 118.219 204.631C116.232 207.085 113.311 211.059 112.727 214.098C112.026 218.072 115.064 222.513 115.064 226.604C115.181 230.811 112.61 232.915 111.208 236.421C109.338 240.746 109.689 245.771 107.235 249.862C106.067 251.849 105.015 253.135 102.678 253.485C101.51 253.719 100.458 252.55 99.5234 252.667C98.5886 252.784 98.1212 254.186 97.0696 254.303C89.0073 255.355 87.1378 241.798 84.4503 236.187Z" fill="#EDEDED"/>
</svg>
