<svg width="225" height="226" viewBox="0 0 225 226" fill="none" xmlns="http://www.w3.org/2000/svg">
<path d="M193.782 235.087C189.633 232.173 185.135 231.193 180.705 228.91C175.576 226.224 176.314 223.284 175.105 218.262C172.472 207.547 157.813 211.897 149.314 209.976C143.501 208.62 137.715 206.458 136.076 200.094C134.786 194.642 139.175 191.729 139.255 186.466C139.227 177.309 124.258 178.825 118.016 178.972C109.612 179.213 101.289 181.308 92.764 181.616C85.5951 181.803 78.3055 182.058 71.0827 181.01C60.6245 179.546 46.8362 174.081 42.9546 163.111C41.3294 158.479 41.7044 152.893 44.4961 148.812C46.9388 145.24 52.5231 142.77 51.8644 137.601C50.4936 128.873 40.1155 124.992 32.8791 122.213C24.2597 118.936 15.6132 113.619 9.3695 106.65C2.34699 98.8484 -3.33432 83.5013 3.49737 74.1701C6.53068 69.9543 14.1828 69.4982 16.0212 64.8392C18.6781 57.6695 8.91686 49.4921 7.15715 43.1948C5.67948 37.6898 6.31002 35.1253 11.2366 33.1787C21.6402 29.1379 13.6909 18.5303 20.2278 12.3678C24.268 8.54138 30.9132 7.69587 36.0147 8.34064C39.4382 8.81076 42.6469 10.0328 45.9223 8.52916C53.0236 5.37427 54.8752 -0.399117 63.4673 0.836628C69.8846 1.85742 75.6848 5.7515 80.1561 10.384C85.9163 16.1981 92.9388 23.9994 100.63 15.9304C114.589 1.21543 130.339 17.6104 136.49 30.9569C141.822 42.5445 145.967 100.656 170.41 82.3295C186.947 69.9778 194.525 106.096 193.493 116.475C192.716 124.182 186.302 141.663 193.498 147.786C197.996 151.613 201.553 146.632 206.225 147.357C210.709 148.029 214.16 153.386 214.953 157.374C216.7 166.209 212.056 174.641 210.567 183.059C209.924 186.738 209.186 192.525 210.328 196.003C211.886 200.514 217.579 203.361 219.929 207.59C222.467 211.874 221.017 215.526 221.582 219.956C222.133 225.502 225.383 230.497 225.196 236.136C225.129 238.862 224.781 240.795 222.566 242.5C221.492 243.413 219.733 242.809 218.834 243.467C217.935 244.124 218.257 245.843 217.237 246.568C209.505 252.287 199.783 239.343 193.782 235.087Z" fill="#009035"/>
</svg>
