<svg width="570" height="345" viewBox="0 0 570 345" fill="none" xmlns="http://www.w3.org/2000/svg">
<path d="M452.004 55.1559C460.059 44.1639 473.91 27.9928 473.91 27.9928C473.91 27.9928 480.042 21.9032 483.329 17.478C487.785 11.4819 486.805 -3.69449 492.749 0.829601C496.064 3.3529 493.416 7.8559 496.254 10.9063C499.371 14.2563 504.353 11.4915 507.207 15.0684C512.809 22.0897 494.719 21.0062 494.063 29.9643C493.555 36.9172 495.378 39.1647 501.292 39.1647C509.463 39.1647 515.75 35.2217 518.379 39.1647C521.152 43.325 507.207 55.1559 525.827 73.7759C533.031 80.9804 520.176 93.085 521.884 103.13C524.811 120.344 544.228 110.359 553.209 130.731C558.182 142.011 569.2 162.494 569.2 162.494C569.2 162.494 537.753 155.336 527.798 144.532C517.234 133.067 521.707 120.623 513.998 107.073C510.102 100.226 502.607 90.4243 502.607 90.4243C502.607 90.4243 509.201 106.168 503.483 112.768C501.261 115.333 498.365 114.931 496.254 117.587C490.065 125.377 506.542 130.662 507.207 140.588C508.353 157.715 481.263 158.571 481.577 176.295C481.737 185.349 483.169 185.728 484.425 194.696C485.727 203.996 481.358 212.659 483.329 216.382C485.301 220.106 488.301 222.053 490.997 220.764C496.035 218.354 494.839 212.377 500.416 210.687C510.806 207.538 516.801 217.068 524.293 224.926C532.135 233.15 534.161 239.962 537.656 250.775C542.877 266.927 548.417 279.13 540.504 294.148C536.804 301.169 534.776 310.402 526.922 309.263C519.901 308.245 517.242 301.231 516.845 294.148C516.469 287.424 524.621 285.321 524.293 278.595C523.898 270.494 519.674 261.526 511.588 262.166C504.339 262.739 507.461 278.861 500.416 277.062C496.251 275.998 496.798 270.908 492.968 268.956C486.908 265.868 482.385 271.964 475.662 270.928C466.381 269.498 464.219 258.207 454.852 258.88C446.498 259.48 441.54 263.821 437.108 270.928C431.314 280.219 445.424 290.789 437.108 298.967C430.807 305.165 427.58 295.787 421.117 301.815C417.424 305.259 419.131 309.999 415.422 313.425C409.812 318.607 403.693 315.555 396.144 316.711C385.572 318.33 379.663 320.765 368.981 320.216C357.812 319.641 348.029 304.599 341.161 313.425C336.538 319.366 346.732 327.639 341.161 332.702C334.653 338.616 328.485 326.034 319.693 325.911C306.376 325.725 301.472 344.485 288.806 340.369C281.596 338.026 281.074 331.235 274.129 327.664C264.848 322.891 262.072 328.447 252.881 323.502C240.763 316.982 250.373 303.224 240.175 300.282C236.641 299.262 228.457 302.713 224.841 302.034C214.137 300.025 222.098 282.591 211.698 285.824C195.487 290.862 185.849 285.824 173.582 287.576C163.761 288.979 174.408 299.197 163.505 305.977C145.451 317.205 136.123 284.509 122.322 279.909C108.698 275.368 91.8004 279.602 88.1491 293.491C85.9757 301.758 98.6128 307.959 93.4065 314.739C88.9094 320.596 80.9054 313.892 74.7866 318.025C65.6626 324.188 71.4201 344.75 65.8052 344.75C62.3003 344.75 59.4931 329.686 50.9093 318.025C45.8519 311.155 40.1626 309.581 35.7943 302.253C31.1246 294.419 27.205 282.538 29.0035 279.909C32.6006 274.652 43.156 280.651 50.9093 276.842C58.0271 273.346 65.8052 263.042 65.8052 263.042C65.8052 263.042 59.5527 253.854 57.0429 247.27C50.7658 230.803 51.1078 218.737 57.0429 202.144C62.2693 187.532 68.4591 179.629 80.9202 170.38C90.6083 163.19 99.6359 165.276 109.179 157.894C119.113 150.209 121.294 142.483 128.894 132.483C133.056 127.007 136.072 122.57 142.695 122.626C151.608 122.7 153.614 132.372 156.495 140.808C159.453 149.47 164.852 160.511 156.495 164.247C150.659 166.856 145.015 164.603 140.723 159.866C136.934 155.683 137.218 145.846 137.218 145.846C137.218 145.846 128.735 153.5 128.894 159.866C129.062 166.606 132.228 173.885 138.971 173.885C159.343 173.885 173.531 173.012 195.487 170.38C228.105 166.471 250.192 171.014 277.853 153.294C293.695 143.145 297.13 127.226 312.245 119.559C321.376 114.927 333.006 115.056 338.094 123.94C341.368 129.656 338.094 140.808 338.094 140.808C338.094 140.808 363.872 141.072 376.429 132.264C384.626 126.515 385.698 119.535 393.078 112.768C405.016 101.822 416.885 102.522 428.565 91.3005C440.696 79.6446 442.06 68.7258 452.004 55.1559Z" fill="#FFF283"/>
<path d="M214.326 133.141C225.013 124.587 236.451 122.407 247.623 122.188C248.951 122.162 249.889 122.214 250.909 123.064C252.223 124.159 251.359 126.087 250.033 126.569C245.214 128.321 238.349 129.454 232.07 132.703C223.149 137.318 216.439 139.079 212.355 148.256C210.107 153.307 210.383 162.275 210.383 162.275C210.383 162.275 201.46 156.386 200.526 150.446C199.182 141.907 207.578 138.542 214.326 133.141Z" fill="#FFF283"/>
<path d="M521.445 217.04C514.833 210.237 505.235 202.801 506.111 198.201C506.344 196.977 507.945 197.142 509.177 197.325C515.092 198.201 525.165 204.542 533.274 212.002C539.636 217.854 541.198 222.968 547.074 229.307C552.876 235.566 559.354 236.518 563.066 244.203C564.844 247.885 566.41 250.221 565.913 254.28C565.673 256.251 556.195 245.021 549.703 239.384C539.081 230.16 531.25 227.129 521.445 217.04Z" fill="#FFF283"/>
<path d="M31.1941 175.638C29.7685 173.005 29.1791 170.185 31.1941 167.971C33.9074 164.989 38.9244 167.613 41.0517 171.038C42.7669 173.799 43.3788 177.092 41.0517 179.362C38.1059 182.235 33.1534 179.257 31.1941 175.638Z" fill="#FFF283"/>
<path d="M5.56389 273.776C11.4825 279.136 23.467 283.122 25.9363 275.528C27.2389 271.522 21.8853 268.893 23.5266 265.013C24.7307 262.167 27.6887 260.194 26.5934 258.88C25.4981 257.565 23.7002 259.756 20.0217 259.756C16.3432 259.756 6.22107 249.46 2.71614 252.089C-1.66503 255.375 -0.767321 268.042 5.56389 273.776Z" fill="#FFF283"/>
<mask id="mask0" mask-type="alpha" maskUnits="userSpaceOnUse" x="0" y="0" width="570" height="345">
<path d="M452.004 55.1559C460.059 44.1639 473.91 27.9928 473.91 27.9928C473.91 27.9928 480.042 21.9032 483.329 17.478C487.785 11.4819 486.805 -3.69449 492.749 0.829601C496.064 3.3529 493.416 7.8559 496.254 10.9063C499.371 14.2563 504.353 11.4915 507.207 15.0684C512.809 22.0897 494.719 21.0062 494.063 29.9643C493.555 36.9172 495.378 39.1647 501.292 39.1647C509.463 39.1647 515.75 35.2217 518.379 39.1647C521.152 43.325 507.207 55.1559 525.827 73.7759C533.031 80.9804 520.176 93.085 521.884 103.13C524.811 120.344 544.228 110.359 553.209 130.731C558.182 142.011 569.2 162.494 569.2 162.494C569.2 162.494 537.753 155.336 527.798 144.532C517.234 133.067 521.707 120.623 513.998 107.073C510.102 100.226 502.607 90.4243 502.607 90.4243C502.607 90.4243 509.201 106.168 503.483 112.768C501.261 115.333 498.365 114.931 496.254 117.587C490.065 125.377 506.542 130.662 507.207 140.588C508.353 157.715 481.263 158.571 481.577 176.295C481.737 185.349 483.169 185.728 484.425 194.696C485.727 203.996 481.358 212.659 483.329 216.382C485.301 220.106 488.301 222.053 490.997 220.764C496.035 218.354 494.839 212.377 500.416 210.687C510.806 207.538 516.801 217.068 524.293 224.926C532.135 233.15 534.161 239.962 537.656 250.775C542.877 266.927 548.417 279.13 540.504 294.148C536.804 301.169 534.776 310.402 526.922 309.263C519.901 308.245 517.242 301.231 516.845 294.148C516.469 287.424 524.621 285.321 524.293 278.595C523.898 270.494 519.674 261.526 511.588 262.166C504.339 262.739 507.461 278.861 500.416 277.062C496.251 275.998 496.798 270.908 492.968 268.956C486.908 265.868 482.385 271.964 475.662 270.928C466.381 269.498 464.219 258.207 454.852 258.88C446.498 259.48 441.54 263.821 437.108 270.928C431.314 280.219 445.424 290.789 437.108 298.967C430.807 305.165 427.58 295.787 421.117 301.815C417.424 305.259 419.131 309.999 415.422 313.425C409.812 318.607 403.693 315.555 396.144 316.711C385.572 318.33 379.663 320.765 368.981 320.216C357.812 319.641 348.029 304.599 341.161 313.425C336.538 319.366 346.732 327.639 341.161 332.702C334.653 338.616 328.485 326.034 319.693 325.911C306.376 325.725 301.472 344.485 288.806 340.369C281.596 338.026 281.074 331.235 274.129 327.664C264.848 322.891 262.072 328.447 252.881 323.502C240.763 316.982 250.373 303.224 240.175 300.282C236.641 299.262 228.457 302.713 224.841 302.034C214.137 300.025 222.098 282.591 211.698 285.824C195.487 290.862 185.849 285.824 173.582 287.576C163.761 288.979 174.408 299.197 163.505 305.977C145.451 317.205 136.123 284.509 122.322 279.909C108.698 275.368 91.8004 279.602 88.1491 293.491C85.9757 301.758 98.6128 307.959 93.4065 314.739C88.9094 320.596 80.9054 313.892 74.7866 318.025C65.6626 324.188 71.4201 344.75 65.8052 344.75C62.3003 344.75 59.4931 329.686 50.9093 318.025C45.8519 311.155 40.1626 309.581 35.7943 302.253C31.1246 294.419 27.205 282.538 29.0035 279.909C32.6006 274.652 43.156 280.651 50.9093 276.842C58.0271 273.346 65.8052 263.042 65.8052 263.042C65.8052 263.042 59.5527 253.854 57.0429 247.27C50.7658 230.803 51.1078 218.737 57.0429 202.144C62.2693 187.532 68.4591 179.629 80.9202 170.38C90.6083 163.19 99.6359 165.276 109.179 157.894C119.113 150.209 121.294 142.483 128.894 132.483C133.056 127.007 136.072 122.57 142.695 122.626C151.608 122.7 153.614 132.372 156.495 140.808C159.453 149.47 164.852 160.511 156.495 164.247C150.659 166.856 145.015 164.603 140.723 159.866C136.934 155.683 137.218 145.846 137.218 145.846C137.218 145.846 128.735 153.5 128.894 159.866C129.062 166.606 132.228 173.885 138.971 173.885C159.343 173.885 173.531 173.012 195.487 170.38C228.105 166.471 250.192 171.014 277.853 153.294C293.695 143.145 297.13 127.226 312.245 119.559C321.376 114.927 333.006 115.056 338.094 123.94C341.368 129.656 338.094 140.808 338.094 140.808C338.094 140.808 363.872 141.072 376.429 132.264C384.626 126.515 385.698 119.535 393.078 112.768C405.016 101.822 416.885 102.522 428.565 91.3005C440.696 79.6446 442.06 68.7258 452.004 55.1559Z" fill="#FFE401"/>
<path d="M214.326 133.141C225.013 124.587 236.451 122.407 247.623 122.188C248.951 122.162 249.889 122.214 250.909 123.064C252.223 124.159 251.359 126.087 250.033 126.569C245.214 128.321 238.349 129.454 232.07 132.703C223.149 137.318 216.439 139.079 212.355 148.256C210.107 153.307 210.383 162.275 210.383 162.275C210.383 162.275 201.46 156.386 200.526 150.446C199.182 141.907 207.578 138.542 214.326 133.141Z" fill="#FFE401"/>
<path d="M521.445 217.04C514.833 210.237 505.235 202.801 506.111 198.201C506.344 196.977 507.945 197.142 509.177 197.325C515.092 198.201 525.165 204.542 533.274 212.002C539.636 217.854 541.198 222.968 547.074 229.307C552.876 235.566 559.354 236.518 563.066 244.203C564.844 247.885 566.41 250.221 565.913 254.28C565.673 256.251 556.195 245.021 549.703 239.384C539.081 230.16 531.25 227.129 521.445 217.04Z" fill="#FFE401"/>
<path d="M31.1941 175.638C29.7685 173.005 29.1791 170.185 31.1941 167.971C33.9074 164.989 38.9244 167.613 41.0517 171.038C42.7669 173.799 43.3788 177.092 41.0517 179.362C38.1059 182.235 33.1534 179.257 31.1941 175.638Z" fill="#FFE401"/>
<path d="M5.56389 273.776C11.4825 279.136 23.467 283.122 25.9363 275.528C27.2389 271.522 21.8853 268.893 23.5266 265.013C24.7307 262.167 27.6887 260.194 26.5934 258.88C25.4981 257.565 23.7002 259.756 20.0217 259.756C16.3432 259.756 6.22107 249.46 2.71614 252.089C-1.66503 255.375 -0.767321 268.042 5.56389 273.776Z" fill="#FFE401"/>
</mask>
<g mask="url(#mask0)">
<path d="M398.712 313.329C402.918 303.572 393.928 306.037 389.421 301.496C383.472 295.503 397.683 291.537 401.453 290.574C407.942 288.896 418.928 285.534 422.792 279.468C431.141 266.215 399.2 275.437 407.825 265.298C413.648 258.443 423.4 255.691 429.656 249.163C432.457 246.242 435.592 241.259 432.35 237.447C429.684 234.252 423.229 236.545 421.254 232.557C418.417 227.009 427.327 217.993 428.075 212.567C429.046 205.585 427.379 197.472 419.712 195.309C415.191 194.026 412.679 197.165 408.584 198.019C404.669 198.874 403.783 194.527 400.343 194.334C397.845 194.216 393.56 197.241 392.175 199.19C389.88 202.403 389.204 208.155 384.925 209.732C380.029 211.524 378.462 205.257 374.119 204.698C356.964 202.718 362.891 230.933 359.56 239.354C357.656 244.088 354.788 237.563 353.31 235.857C350.139 232.19 346.922 230.984 342.961 234.299C335.366 240.678 337.671 252.087 339.772 260.346C340.449 262.81 348.736 281.008 342.869 281.204C338.124 281.657 335.486 271.767 330.014 272.942C320.808 274.971 324.968 292.866 325.994 298.407C326.914 303.549 328.06 306.413 325.071 310.962C321.974 315.656 318.08 320.202 318.706 326.212C319.191 331.209 323.264 335.603 321.902 340.882C320.54 346.161 314.586 349.831 310.805 353.328C306.951 356.861 292.547 363.721 299.076 369.427C304.931 363.73 310.894 357.889 316.928 352.373C322.018 347.686 325.005 343.499 332.533 344.286C338.179 344.922 345.437 341.329 349.4 337.471C352.636 334.334 351.138 328.936 354.554 326.162C361.276 320.757 371.072 324.665 378.639 324.801C386.496 324.975 395.458 320.809 398.712 313.329Z" fill="#FFF7B0"/>
<path d="M183.904 161.424C185.284 163.303 185.779 165.36 186.873 167.374C188.158 169.705 189.502 169.337 191.822 169.843C196.774 170.948 194.919 177.73 195.886 181.617C196.567 184.276 197.618 186.915 200.56 187.605C203.078 188.144 204.374 186.098 206.793 186.009C211.002 185.932 210.453 192.827 210.447 195.698C210.419 199.564 209.539 203.411 209.481 207.332C209.466 210.63 209.42 213.983 209.973 217.293C210.75 222.086 213.398 228.37 218.479 230.046C220.625 230.747 223.188 230.52 225.037 229.196C226.655 228.038 227.735 225.447 230.118 225.699C234.143 226.243 236.03 230.975 237.379 234.274C238.97 238.204 241.5 242.126 244.765 244.927C248.42 248.078 255.531 250.538 259.753 247.306C261.661 245.87 261.795 242.348 263.919 241.457C267.188 240.165 271.044 244.571 273.956 245.318C276.501 245.943 277.674 245.627 278.52 243.343C280.275 238.521 285.229 242.071 287.998 239.005C289.717 237.11 290.04 234.047 289.693 231.708C289.443 230.139 288.85 228.676 289.508 227.156C290.889 223.86 293.524 222.952 292.871 219.015C292.339 216.075 290.491 213.447 288.318 211.437C285.588 208.847 281.933 205.696 285.566 202.081C292.192 195.518 284.5 188.44 278.305 185.745C272.925 183.408 246.172 182.077 254.355 170.659C259.869 162.936 243.191 159.809 238.431 160.386C234.896 160.819 226.923 163.94 224.037 160.692C222.234 158.663 224.488 156.978 224.109 154.838C223.756 152.783 221.259 151.25 219.418 150.925C215.34 150.209 211.51 152.427 207.654 153.194C205.97 153.527 203.317 153.923 201.707 153.432C199.618 152.761 198.253 150.172 196.285 149.133C194.291 148.009 192.627 148.711 190.585 148.495C188.03 148.297 185.702 146.852 183.112 146.994C181.859 147.051 180.974 147.231 180.212 148.266C179.803 148.768 180.098 149.571 179.805 149.991C179.511 150.411 178.718 150.279 178.395 150.756C175.842 154.366 181.888 158.707 183.904 161.424Z" fill="#FFF7B0"/>
<path d="M205.695 165.547C205.695 165.547 214.502 170.843 225.121 178.541M271.173 224.089C271.173 224.089 264.015 215.016 255.857 205.928M255.857 205.928C252.196 201.85 248.333 197.768 244.826 194.502C238.626 188.73 231.542 183.197 225.121 178.541M255.857 205.928C255.857 205.928 257.454 215.249 257.007 221.222C256.623 226.349 254.351 234.116 254.351 234.116M225.121 178.541C225.121 178.541 232.325 178.854 236.451 177.17C240.078 175.69 244.607 171.33 244.607 171.33" stroke="#FFF283" stroke-width="2"/>
<path d="M564.048 56.2766C562.668 58.155 562.173 60.2127 561.08 62.2268C559.794 64.5579 558.45 64.1897 556.13 64.6959C551.178 65.8005 553.033 72.582 552.066 76.4696C551.385 79.1284 550.334 81.767 547.393 82.4575C544.874 82.9966 543.578 80.9501 541.159 80.8615C536.95 80.7841 537.499 87.6798 537.505 90.5509C537.533 94.4164 538.414 98.263 538.471 102.185C538.487 105.482 538.532 108.835 537.979 112.145C537.203 116.938 534.554 123.223 529.473 124.899C527.328 125.6 524.764 125.372 522.915 124.049C521.297 122.891 520.217 120.299 517.834 120.551C513.809 121.095 511.923 125.827 510.573 129.126C508.982 133.056 506.452 136.978 503.187 139.78C499.532 142.931 492.421 145.391 488.199 142.158C486.291 140.722 486.157 137.2 484.033 136.309C480.764 135.017 476.908 139.423 473.996 140.17C471.451 140.795 470.278 140.48 469.432 138.196C467.677 133.374 462.723 136.923 459.955 133.857C458.236 131.962 457.912 128.899 458.259 126.561C458.509 124.992 459.103 123.529 458.444 122.008C457.064 118.713 454.428 117.805 455.081 113.867C455.613 110.927 457.461 108.299 459.634 106.29C462.364 103.699 466.019 100.548 462.386 96.9331C455.76 90.3709 463.452 83.2927 469.648 80.5971C475.027 78.2606 501.78 76.9291 493.598 65.5119C488.083 57.788 504.761 54.6613 509.522 55.2381C513.057 55.6716 521.029 58.7926 523.915 55.5449C525.718 53.515 523.464 51.8308 523.843 49.6904C524.196 47.6358 526.693 46.1023 528.534 45.7772C532.612 45.0615 536.443 47.2793 540.298 48.0468C541.982 48.3791 544.635 48.7752 546.245 48.2847C548.334 47.613 549.699 45.0243 551.667 43.9858C553.661 42.8614 555.325 43.5637 557.367 43.3479C559.922 43.1492 562.25 41.7047 564.841 41.8463C566.093 41.9039 566.978 42.0833 567.74 43.1182C568.149 43.6208 567.854 44.4234 568.148 44.8433C568.441 45.2632 569.234 45.1319 569.557 45.608C572.11 49.2186 566.064 53.5598 564.048 56.2766Z" fill="#FFF7B0"/>
<path d="M542.256 60.3991C542.256 60.3991 533.449 65.6952 522.83 73.3938M476.778 118.941C476.778 118.941 483.936 109.868 492.094 100.78M492.094 100.78C495.755 96.7019 499.618 92.6205 503.125 89.3548C509.325 83.5825 516.409 78.0489 522.83 73.3938M492.094 100.78C492.094 100.78 490.497 110.102 490.944 116.075C491.328 121.201 493.6 128.968 493.6 128.968M522.83 73.3938C522.83 73.3938 515.626 73.7063 511.5 72.0223C507.873 70.5423 503.344 66.182 503.344 66.182" stroke="#FFF283" stroke-width="2"/>
<path d="M156.173 296.133C154.232 291.632 158.38 292.769 160.458 290.675C163.203 287.91 156.647 286.081 154.908 285.636C151.915 284.863 146.848 283.312 145.065 280.514C141.214 274.401 155.947 278.654 151.969 273.978C149.283 270.815 144.785 269.546 141.899 266.535C140.607 265.187 139.161 262.889 140.656 261.13C141.886 259.657 144.864 260.714 145.775 258.875C147.083 256.316 142.973 252.157 142.628 249.654C142.18 246.434 142.949 242.691 146.486 241.693C148.571 241.102 149.73 242.55 151.619 242.944C153.425 243.338 153.834 241.333 155.42 241.244C156.572 241.189 158.549 242.584 159.188 243.484C160.246 244.966 160.558 247.619 162.532 248.346C164.791 249.173 165.513 246.282 167.517 246.024C175.43 245.111 172.696 258.126 174.233 262.01C175.111 264.194 176.434 261.184 177.115 260.397C178.578 258.706 180.062 258.149 181.889 259.678C185.393 262.621 184.329 267.883 183.36 271.693C183.048 272.83 179.225 281.224 181.932 281.315C184.121 281.524 185.337 276.962 187.861 277.503C192.108 278.44 190.189 286.694 189.716 289.25C189.291 291.622 188.763 292.943 190.141 295.041C191.57 297.206 193.366 299.303 193.077 302.076C192.853 304.38 190.975 306.407 191.603 308.842C192.232 311.277 194.978 312.97 196.722 314.583C198.499 316.213 205.144 319.378 202.132 322.01C199.432 319.382 196.681 316.687 193.897 314.143C191.55 311.981 190.172 310.05 186.699 310.413C184.095 310.706 180.747 309.049 178.919 307.269C177.426 305.822 178.117 303.332 176.542 302.052C173.441 299.559 168.922 301.362 165.432 301.425C161.808 301.505 157.674 299.583 156.173 296.133Z" fill="#FFF7B0"/>
</g>
<path d="M109.223 228.578C109.243 228.567 109.262 228.556 109.281 228.545C109.591 228.367 109.635 228.263 109.635 228.262C109.635 228.26 109.647 228.095 109.19 227.722L109.181 227.714L109.179 227.712C108.729 227.34 108.17 226.877 107.741 226.396C107.221 225.815 107.036 225.104 107.22 224.395C107.397 223.712 107.899 223.102 108.633 222.678C108.974 222.482 109.36 222.328 109.779 222.222L109.788 222.22C110.019 222.164 110.186 222.107 110.286 222.05C110.348 222.014 110.418 221.973 110.464 221.496C110.537 220.748 110.662 220.212 110.87 219.76C111.153 219.145 111.591 218.672 112.207 218.316C112.824 217.96 113.452 217.818 114.127 217.88C114.622 217.926 115.148 218.085 115.833 218.397C116.27 218.595 116.34 218.555 116.402 218.519C116.501 218.462 116.634 218.345 116.798 218.173C117.097 217.857 117.423 217.596 117.767 217.397C118.495 216.977 119.272 216.85 119.957 217.039C120.67 217.237 121.196 217.751 121.438 218.488C121.641 219.105 121.763 219.824 121.861 220.403L121.862 220.411C121.951 220.988 122.104 221.059 122.105 221.059C122.106 221.06 122.218 221.076 122.53 220.896C122.55 220.885 122.57 220.873 122.591 220.86C122.63 220.836 122.673 220.81 122.716 220.786C123.606 220.272 124.493 220.145 125.214 220.43C125.965 220.726 126.44 221.428 126.518 222.356C126.619 223.547 126.099 224.558 125.596 225.536L125.596 225.536C125.573 225.581 125.548 225.629 125.522 225.679L125.515 225.692C125.119 226.452 124.929 226.936 124.951 227.133C124.985 227.124 125.031 227.108 125.09 227.082C125.842 226.742 126.604 226.706 127.18 226.984C127.722 227.246 128.055 227.764 128.093 228.406C128.168 229.675 127.227 230.898 126.298 231.927L126.298 231.927C125.357 232.967 125.301 233.03 125.35 234.019C125.421 235.453 124.972 236.573 124.012 237.359C124.012 237.359 123.676 237.621 123.435 237.761C123.193 237.9 122.798 238.06 122.798 238.06C121.637 238.499 120.442 238.328 119.235 237.549C118.403 237.012 118.321 237.03 116.949 237.324C115.593 237.615 114.064 237.817 113.002 237.118C112.465 236.765 112.183 236.218 112.228 235.617C112.275 234.979 112.686 234.337 113.357 233.856C113.409 233.818 113.446 233.785 113.471 233.761C113.312 233.644 112.798 233.566 111.942 233.529L111.938 233.529C111.877 233.526 111.819 233.524 111.766 233.521L111.766 233.521C110.667 233.468 109.532 233.412 108.55 232.73C107.786 232.199 107.416 231.433 107.536 230.629C107.649 229.867 108.193 229.169 109.068 228.664C109.118 228.635 109.17 228.606 109.223 228.578Z" fill="#62B944"/>
<path d="M106.223 157.578C106.243 157.567 106.262 157.556 106.281 157.545C106.591 157.367 106.635 157.263 106.635 157.262C106.635 157.26 106.647 157.095 106.19 156.722L106.181 156.714L106.179 156.712C105.729 156.34 105.17 155.877 104.741 155.396C104.221 154.815 104.036 154.104 104.22 153.395C104.397 152.712 104.899 152.102 105.633 151.678C105.974 151.482 106.36 151.328 106.779 151.222L106.788 151.22C107.019 151.164 107.186 151.107 107.286 151.05C107.348 151.014 107.418 150.973 107.464 150.496C107.537 149.748 107.662 149.212 107.87 148.76C108.153 148.145 108.591 147.672 109.207 147.316C109.824 146.96 110.452 146.818 111.127 146.88C111.622 146.926 112.148 147.085 112.833 147.397C113.27 147.595 113.34 147.555 113.402 147.519C113.501 147.462 113.634 147.345 113.798 147.173C114.097 146.857 114.423 146.596 114.767 146.397C115.495 145.977 116.272 145.85 116.957 146.039C117.67 146.237 118.196 146.751 118.438 147.488C118.641 148.105 118.763 148.824 118.861 149.403L118.862 149.411C118.951 149.988 119.104 150.059 119.105 150.059C119.106 150.06 119.218 150.076 119.53 149.896C119.55 149.885 119.57 149.873 119.591 149.86C119.63 149.836 119.673 149.81 119.716 149.786C120.606 149.272 121.493 149.145 122.214 149.43C122.965 149.726 123.44 150.428 123.518 151.356C123.619 152.547 123.099 153.558 122.596 154.536L122.596 154.536C122.573 154.581 122.548 154.629 122.522 154.679L122.515 154.692C122.119 155.452 121.929 155.936 121.951 156.133C121.985 156.124 122.031 156.108 122.09 156.082C122.842 155.742 123.604 155.706 124.18 155.984C124.722 156.246 125.055 156.764 125.093 157.406C125.168 158.675 124.227 159.898 123.298 160.927L123.298 160.927C122.357 161.967 122.301 162.03 122.35 163.019C122.421 164.453 121.972 165.573 121.012 166.359C121.012 166.359 120.676 166.621 120.435 166.761C120.193 166.9 119.798 167.06 119.798 167.06C118.637 167.499 117.442 167.328 116.235 166.549C115.403 166.012 115.321 166.03 113.949 166.324C112.593 166.615 111.064 166.817 110.002 166.118C109.465 165.765 109.183 165.218 109.228 164.617C109.275 163.979 109.686 163.337 110.357 162.856C110.409 162.818 110.446 162.785 110.471 162.761C110.312 162.644 109.798 162.566 108.942 162.529L108.938 162.529C108.877 162.526 108.819 162.524 108.766 162.521L108.766 162.521C107.667 162.468 106.532 162.412 105.55 161.73C104.786 161.199 104.416 160.433 104.536 159.629C104.649 158.867 105.193 158.169 106.068 157.664C106.118 157.635 106.17 157.606 106.223 157.578Z" fill="#62B944"/>
<path d="M90.2229 199.578C90.2429 199.567 90.2623 199.556 90.2811 199.545C90.5908 199.367 90.6346 199.263 90.635 199.262C90.6351 199.26 90.6466 199.095 90.1903 198.722L90.1809 198.714L90.1791 198.712C89.7293 198.34 89.1699 197.877 88.7406 197.396C88.2212 196.815 88.0362 196.104 88.2198 195.395C88.3966 194.712 88.8985 194.102 89.633 193.678C89.9739 193.482 90.3595 193.328 90.7791 193.222L90.7883 193.22C91.0192 193.164 91.1865 193.107 91.2856 193.05C91.3478 193.014 91.4182 192.973 91.4644 192.496C91.5369 191.748 91.662 191.212 91.8701 190.76C92.1534 190.145 92.5907 189.672 93.2074 189.316C93.8242 188.96 94.452 188.818 95.1267 188.88C95.6217 188.926 96.1479 189.085 96.8326 189.397C97.2697 189.595 97.34 189.555 97.402 189.519C97.5011 189.462 97.6343 189.345 97.7977 189.173C98.0966 188.857 98.4228 188.596 98.7674 188.397C99.4948 187.977 100.272 187.85 100.957 188.039C101.67 188.237 102.196 188.751 102.438 189.488C102.641 190.105 102.763 190.824 102.861 191.403L102.862 191.411C102.951 191.988 103.104 192.059 103.105 192.059C103.106 192.06 103.218 192.076 103.53 191.896C103.55 191.885 103.57 191.873 103.591 191.86C103.63 191.836 103.673 191.81 103.716 191.786C104.606 191.272 105.493 191.145 106.214 191.43C106.965 191.726 107.44 192.428 107.518 193.356C107.619 194.547 107.099 195.558 106.596 196.536L106.596 196.536C106.573 196.581 106.548 196.629 106.522 196.679L106.515 196.692C106.119 197.452 105.929 197.936 105.951 198.133C105.985 198.124 106.031 198.108 106.09 198.082C106.842 197.742 107.604 197.706 108.18 197.984C108.722 198.246 109.055 198.764 109.093 199.406C109.168 200.675 108.227 201.898 107.298 202.927L107.298 202.927C106.357 203.967 106.301 204.03 106.35 205.019C106.421 206.453 105.972 207.573 105.012 208.359C105.012 208.359 104.676 208.621 104.435 208.761C104.193 208.9 103.798 209.06 103.798 209.06C102.637 209.499 101.442 209.328 100.235 208.549C99.4031 208.012 99.321 208.03 97.9492 208.324C96.5932 208.615 95.064 208.817 94.0022 208.118C93.4655 207.765 93.1832 207.218 93.2276 206.617C93.2748 205.979 93.6865 205.337 94.3571 204.856C94.4095 204.818 94.4464 204.785 94.4711 204.761C94.3121 204.644 93.7985 204.566 92.942 204.529L92.9376 204.529C92.8769 204.526 92.8194 204.524 92.7658 204.521L92.7656 204.521C91.6674 204.468 90.5316 204.412 89.5504 203.73C88.7863 203.199 88.4163 202.433 88.5356 201.629C88.6488 200.867 89.193 200.169 90.0682 199.664C90.1184 199.635 90.1698 199.606 90.2229 199.578Z" fill="#62B944"/>
<path d="M46.2229 292.578C46.2429 292.567 46.2623 292.556 46.2811 292.545C46.5908 292.367 46.6346 292.263 46.635 292.262C46.6351 292.26 46.6466 292.095 46.1903 291.722L46.1809 291.714L46.1791 291.712C45.7293 291.34 45.1699 290.877 44.7406 290.396C44.2212 289.815 44.0362 289.104 44.2198 288.395C44.3966 287.712 44.8985 287.102 45.633 286.678C45.9739 286.482 46.3595 286.328 46.7791 286.222L46.7883 286.22C47.0192 286.164 47.1865 286.107 47.2856 286.05C47.3478 286.014 47.4182 285.973 47.4644 285.496C47.5369 284.748 47.662 284.212 47.8701 283.76C48.1534 283.145 48.5907 282.672 49.2074 282.316C49.8242 281.96 50.452 281.818 51.1267 281.88C51.6217 281.926 52.1479 282.085 52.8326 282.397C53.2697 282.595 53.34 282.555 53.402 282.519C53.5011 282.462 53.6343 282.345 53.7977 282.173C54.0966 281.857 54.4228 281.596 54.7674 281.397C55.4948 280.977 56.2723 280.85 56.9568 281.039C57.6698 281.237 58.196 281.751 58.4384 282.488C58.6413 283.105 58.763 283.824 58.8608 284.403L58.8621 284.411C58.9506 284.988 59.1039 285.059 59.1055 285.059C59.1064 285.06 59.2184 285.076 59.5303 284.896C59.5502 284.885 59.5705 284.873 59.591 284.86C59.63 284.836 59.673 284.81 59.7156 284.786C60.606 284.272 61.4933 284.145 62.214 284.43C62.9648 284.726 63.4402 285.428 63.5185 286.356C63.6188 287.547 63.0989 288.558 62.5961 289.536L62.596 289.536C62.573 289.581 62.5482 289.629 62.5221 289.679L62.5154 289.692C62.119 290.452 61.9294 290.936 61.9508 291.133C61.9848 291.124 62.0315 291.108 62.09 291.082C62.8423 290.742 63.6039 290.706 64.1797 290.984C64.7224 291.246 65.0554 291.764 65.0931 292.406C65.1676 293.675 64.2274 294.898 63.2978 295.927L63.2977 295.927C62.3569 296.967 62.3005 297.03 62.3498 298.019C62.4212 299.453 61.9715 300.573 61.0117 301.359C61.0117 301.359 60.6765 301.621 60.4348 301.761C60.1932 301.9 59.7982 302.06 59.7982 302.06C58.6374 302.499 57.4419 302.328 56.2351 301.549C55.4031 301.012 55.321 301.03 53.9492 301.324C52.5932 301.615 51.064 301.817 50.0022 301.118C49.4655 300.765 49.1832 300.218 49.2276 299.617C49.2748 298.979 49.6865 298.337 50.3571 297.856C50.4095 297.818 50.4464 297.785 50.4711 297.761C50.3121 297.644 49.7985 297.566 48.942 297.529L48.9376 297.529C48.8769 297.526 48.8194 297.524 48.7658 297.521L48.7656 297.521C47.6674 297.468 46.5316 297.412 45.5504 296.73C44.7863 296.199 44.4163 295.433 44.5356 294.629C44.6488 293.867 45.193 293.169 46.0682 292.664C46.1184 292.635 46.1698 292.606 46.2229 292.578Z" fill="#62B944"/>
<path d="M79.2229 232.578C79.2429 232.567 79.2623 232.556 79.2811 232.545C79.5908 232.367 79.6346 232.263 79.635 232.262C79.6351 232.26 79.6466 232.095 79.1903 231.722L79.1809 231.714L79.1791 231.712C78.7293 231.34 78.1699 230.877 77.7406 230.396C77.2212 229.815 77.0362 229.104 77.2198 228.395C77.3966 227.712 77.8985 227.102 78.633 226.678C78.9739 226.482 79.3595 226.328 79.7791 226.222L79.7883 226.22C80.0192 226.164 80.1865 226.107 80.2856 226.05C80.3478 226.014 80.4182 225.973 80.4644 225.496C80.5369 224.748 80.662 224.212 80.8701 223.76C81.1534 223.145 81.5907 222.672 82.2074 222.316C82.8242 221.96 83.452 221.818 84.1267 221.88C84.6217 221.926 85.1479 222.085 85.8326 222.397C86.2697 222.595 86.34 222.555 86.402 222.519C86.5011 222.462 86.6343 222.345 86.7977 222.173C87.0966 221.857 87.4228 221.596 87.7674 221.397C88.4948 220.977 89.2723 220.85 89.9568 221.039C90.6698 221.237 91.196 221.751 91.4384 222.488C91.6413 223.105 91.763 223.824 91.8608 224.403L91.8621 224.411C91.9506 224.988 92.1039 225.059 92.1055 225.059C92.1064 225.06 92.2184 225.076 92.5303 224.896C92.5502 224.885 92.5705 224.873 92.591 224.86C92.63 224.836 92.673 224.81 92.7156 224.786C93.606 224.272 94.4933 224.145 95.214 224.43C95.9648 224.726 96.4402 225.428 96.5185 226.356C96.6188 227.547 96.0989 228.558 95.5961 229.536L95.596 229.536C95.573 229.581 95.5482 229.629 95.5221 229.679L95.5154 229.692C95.119 230.452 94.9294 230.936 94.9508 231.133C94.9848 231.124 95.0315 231.108 95.09 231.082C95.8423 230.742 96.6039 230.706 97.1797 230.984C97.7224 231.246 98.0554 231.764 98.0931 232.406C98.1676 233.675 97.2274 234.898 96.2978 235.927L96.2977 235.927C95.3569 236.967 95.3005 237.03 95.3498 238.019C95.4212 239.453 94.9715 240.573 94.0117 241.359C94.0117 241.359 93.6765 241.621 93.4348 241.761C93.1932 241.9 92.7982 242.06 92.7982 242.06C91.6374 242.499 90.4419 242.328 89.2351 241.549C88.4031 241.012 88.321 241.03 86.9492 241.324C85.5932 241.615 84.064 241.817 83.0022 241.118C82.4655 240.765 82.1832 240.218 82.2276 239.617C82.2748 238.979 82.6865 238.337 83.3571 237.856C83.4095 237.818 83.4464 237.785 83.4711 237.761C83.3121 237.644 82.7985 237.566 81.942 237.529L81.9376 237.529C81.8769 237.526 81.8194 237.524 81.7658 237.521L81.7656 237.521C80.6674 237.468 79.5316 237.412 78.5504 236.73C77.7863 236.199 77.4163 235.433 77.5356 234.629C77.6488 233.867 78.193 233.169 79.0682 232.664C79.1184 232.635 79.1698 232.606 79.2229 232.578Z" fill="#62B944"/>
<path d="M186.223 239.578C186.243 239.567 186.262 239.556 186.281 239.545C186.591 239.367 186.635 239.263 186.635 239.262C186.635 239.26 186.647 239.095 186.19 238.722L186.181 238.714L186.179 238.712C185.729 238.34 185.17 237.877 184.741 237.396C184.221 236.815 184.036 236.104 184.22 235.395C184.397 234.712 184.899 234.102 185.633 233.678C185.974 233.482 186.36 233.328 186.779 233.222L186.788 233.22C187.019 233.164 187.186 233.107 187.286 233.05C187.348 233.014 187.418 232.973 187.464 232.496C187.537 231.748 187.662 231.212 187.87 230.76C188.153 230.145 188.591 229.672 189.207 229.316C189.824 228.96 190.452 228.818 191.127 228.88C191.622 228.926 192.148 229.085 192.833 229.397C193.27 229.595 193.34 229.555 193.402 229.519C193.501 229.462 193.634 229.345 193.798 229.173C194.097 228.857 194.423 228.596 194.767 228.397C195.495 227.977 196.272 227.85 196.957 228.039C197.67 228.237 198.196 228.751 198.438 229.488C198.641 230.105 198.763 230.824 198.861 231.403L198.862 231.411C198.951 231.988 199.104 232.059 199.105 232.059C199.106 232.06 199.218 232.076 199.53 231.896C199.55 231.885 199.57 231.873 199.591 231.86C199.63 231.836 199.673 231.81 199.716 231.786C200.606 231.272 201.493 231.145 202.214 231.43C202.965 231.726 203.44 232.428 203.518 233.356C203.619 234.547 203.099 235.558 202.596 236.536L202.596 236.536C202.573 236.581 202.548 236.629 202.522 236.679L202.515 236.692C202.119 237.452 201.929 237.936 201.951 238.133C201.985 238.124 202.031 238.108 202.09 238.082C202.842 237.742 203.604 237.706 204.18 237.984C204.722 238.246 205.055 238.764 205.093 239.406C205.168 240.675 204.227 241.898 203.298 242.927L203.298 242.927C202.357 243.967 202.301 244.03 202.35 245.019C202.421 246.453 201.972 247.573 201.012 248.359C201.012 248.359 200.676 248.621 200.435 248.761C200.193 248.9 199.798 249.06 199.798 249.06C198.637 249.499 197.442 249.328 196.235 248.549C195.403 248.012 195.321 248.03 193.949 248.324C192.593 248.615 191.064 248.817 190.002 248.118C189.465 247.765 189.183 247.218 189.228 246.617C189.275 245.979 189.686 245.337 190.357 244.856C190.409 244.818 190.446 244.785 190.471 244.761C190.312 244.644 189.798 244.566 188.942 244.529L188.938 244.529C188.877 244.526 188.819 244.524 188.766 244.521L188.766 244.521C187.667 244.468 186.532 244.412 185.55 243.73C184.786 243.199 184.416 242.433 184.536 241.629C184.649 240.867 185.193 240.169 186.068 239.664C186.118 239.635 186.17 239.606 186.223 239.578Z" fill="#62B944"/>
<path d="M139.223 281.578C139.243 281.567 139.262 281.556 139.281 281.545C139.591 281.367 139.635 281.263 139.635 281.262C139.635 281.26 139.647 281.095 139.19 280.722L139.181 280.714L139.179 280.712C138.729 280.34 138.17 279.877 137.741 279.396C137.221 278.815 137.036 278.104 137.22 277.395C137.397 276.712 137.899 276.102 138.633 275.678C138.974 275.482 139.36 275.328 139.779 275.222L139.788 275.22C140.019 275.164 140.186 275.107 140.286 275.05C140.348 275.014 140.418 274.973 140.464 274.496C140.537 273.748 140.662 273.212 140.87 272.76C141.153 272.145 141.591 271.672 142.207 271.316C142.824 270.96 143.452 270.818 144.127 270.88C144.622 270.926 145.148 271.085 145.833 271.397C146.27 271.595 146.34 271.555 146.402 271.519C146.501 271.462 146.634 271.345 146.798 271.173C147.097 270.857 147.423 270.596 147.767 270.397C148.495 269.977 149.272 269.85 149.957 270.039C150.67 270.237 151.196 270.751 151.438 271.488C151.641 272.105 151.763 272.824 151.861 273.403L151.862 273.411C151.951 273.988 152.104 274.059 152.105 274.059C152.106 274.06 152.218 274.076 152.53 273.896C152.55 273.885 152.57 273.873 152.591 273.86C152.63 273.836 152.673 273.81 152.716 273.786C153.606 273.272 154.493 273.145 155.214 273.43C155.965 273.726 156.44 274.428 156.518 275.356C156.619 276.547 156.099 277.558 155.596 278.536L155.596 278.536C155.573 278.581 155.548 278.629 155.522 278.679L155.515 278.692C155.119 279.452 154.929 279.936 154.951 280.133C154.985 280.124 155.031 280.108 155.09 280.082C155.842 279.742 156.604 279.706 157.18 279.984C157.722 280.246 158.055 280.764 158.093 281.406C158.168 282.675 157.227 283.898 156.298 284.927L156.298 284.927C155.357 285.967 155.301 286.03 155.35 287.019C155.421 288.453 154.972 289.573 154.012 290.359C154.012 290.359 153.676 290.621 153.435 290.761C153.193 290.9 152.798 291.06 152.798 291.06C151.637 291.499 150.442 291.328 149.235 290.549C148.403 290.012 148.321 290.03 146.949 290.324C145.593 290.615 144.064 290.817 143.002 290.118C142.465 289.765 142.183 289.218 142.228 288.617C142.275 287.979 142.686 287.337 143.357 286.856C143.409 286.818 143.446 286.785 143.471 286.761C143.312 286.644 142.798 286.566 141.942 286.529L141.938 286.529C141.877 286.526 141.819 286.524 141.766 286.521L141.766 286.521C140.667 286.468 139.532 286.412 138.55 285.73C137.786 285.199 137.416 284.433 137.536 283.629C137.649 282.867 138.193 282.169 139.068 281.664C139.118 281.635 139.17 281.606 139.223 281.578Z" fill="#62B944"/>
<path d="M76.2229 269.578C76.2429 269.567 76.2623 269.556 76.2811 269.545C76.5908 269.367 76.6346 269.263 76.635 269.262C76.6351 269.26 76.6466 269.095 76.1903 268.722L76.1809 268.714L76.1791 268.712C75.7293 268.34 75.1699 267.877 74.7406 267.396C74.2212 266.815 74.0362 266.104 74.2198 265.395C74.3966 264.712 74.8985 264.102 75.633 263.678C75.9739 263.482 76.3595 263.328 76.7791 263.222L76.7883 263.22C77.0192 263.164 77.1865 263.107 77.2856 263.05C77.3478 263.014 77.4182 262.973 77.4644 262.496C77.5369 261.748 77.662 261.212 77.8701 260.76C78.1534 260.145 78.5907 259.672 79.2074 259.316C79.8242 258.96 80.452 258.818 81.1267 258.88C81.6217 258.926 82.1479 259.085 82.8326 259.397C83.2697 259.595 83.34 259.555 83.402 259.519C83.5011 259.462 83.6343 259.345 83.7977 259.173C84.0966 258.857 84.4228 258.596 84.7674 258.397C85.4948 257.977 86.2723 257.85 86.9568 258.039C87.6698 258.237 88.196 258.751 88.4384 259.488C88.6413 260.105 88.763 260.824 88.8608 261.403L88.8621 261.411C88.9506 261.988 89.1039 262.059 89.1055 262.059C89.1064 262.06 89.2184 262.076 89.5303 261.896C89.5502 261.885 89.5705 261.873 89.591 261.86C89.63 261.836 89.673 261.81 89.7156 261.786C90.606 261.272 91.4933 261.145 92.214 261.43C92.9648 261.726 93.4402 262.428 93.5185 263.356C93.6188 264.547 93.0989 265.558 92.5961 266.536L92.596 266.536C92.573 266.581 92.5482 266.629 92.5221 266.679L92.5154 266.692C92.119 267.452 91.9294 267.936 91.9508 268.133C91.9848 268.124 92.0315 268.108 92.09 268.082C92.8423 267.742 93.6039 267.706 94.1797 267.984C94.7224 268.246 95.0554 268.764 95.0931 269.406C95.1676 270.675 94.2274 271.898 93.2978 272.927L93.2977 272.927C92.3569 273.967 92.3005 274.03 92.3498 275.019C92.4212 276.453 91.9715 277.573 91.0117 278.359C91.0117 278.359 90.6765 278.621 90.4348 278.761C90.1932 278.9 89.7982 279.06 89.7982 279.06C88.6374 279.499 87.4419 279.328 86.2351 278.549C85.4031 278.012 85.321 278.03 83.9492 278.324C82.5932 278.615 81.064 278.817 80.0022 278.118C79.4655 277.765 79.1832 277.218 79.2276 276.617C79.2748 275.979 79.6865 275.337 80.3571 274.856C80.4095 274.818 80.4464 274.785 80.4711 274.761C80.3121 274.644 79.7985 274.566 78.942 274.529L78.9376 274.529C78.8769 274.526 78.8194 274.524 78.7658 274.521L78.7656 274.521C77.6674 274.468 76.5316 274.412 75.5504 273.73C74.7863 273.199 74.4163 272.433 74.5356 271.629C74.6488 270.867 75.193 270.169 76.0682 269.664C76.1184 269.635 76.1698 269.606 76.2229 269.578Z" fill="#62B944"/>
<path d="M224.223 269.578C224.243 269.567 224.262 269.556 224.281 269.545C224.591 269.367 224.635 269.263 224.635 269.262C224.635 269.26 224.647 269.095 224.19 268.722L224.181 268.714L224.179 268.712C223.729 268.34 223.17 267.877 222.741 267.396C222.221 266.815 222.036 266.104 222.22 265.395C222.397 264.712 222.899 264.102 223.633 263.678C223.974 263.482 224.36 263.328 224.779 263.222L224.788 263.22C225.019 263.164 225.186 263.107 225.286 263.05C225.348 263.014 225.418 262.973 225.464 262.496C225.537 261.748 225.662 261.212 225.87 260.76C226.153 260.145 226.591 259.672 227.207 259.316C227.824 258.96 228.452 258.818 229.127 258.88C229.622 258.926 230.148 259.085 230.833 259.397C231.27 259.595 231.34 259.555 231.402 259.519C231.501 259.462 231.634 259.345 231.798 259.173C232.097 258.857 232.423 258.596 232.767 258.397C233.495 257.977 234.272 257.85 234.957 258.039C235.67 258.237 236.196 258.751 236.438 259.488C236.641 260.105 236.763 260.824 236.861 261.403L236.862 261.411C236.951 261.988 237.104 262.059 237.105 262.059C237.106 262.06 237.218 262.076 237.53 261.896C237.55 261.885 237.57 261.873 237.591 261.86C237.63 261.836 237.673 261.81 237.716 261.786C238.606 261.272 239.493 261.145 240.214 261.43C240.965 261.726 241.44 262.428 241.518 263.356C241.619 264.547 241.099 265.558 240.596 266.536L240.596 266.536C240.573 266.581 240.548 266.629 240.522 266.679L240.515 266.692C240.119 267.452 239.929 267.936 239.951 268.133C239.985 268.124 240.031 268.108 240.09 268.082C240.842 267.742 241.604 267.706 242.18 267.984C242.722 268.246 243.055 268.764 243.093 269.406C243.168 270.675 242.227 271.898 241.298 272.927L241.298 272.927C240.357 273.967 240.301 274.03 240.35 275.019C240.421 276.453 239.972 277.573 239.012 278.359C239.012 278.359 238.676 278.621 238.435 278.761C238.193 278.9 237.798 279.06 237.798 279.06C236.637 279.499 235.442 279.328 234.235 278.549C233.403 278.012 233.321 278.03 231.949 278.324C230.593 278.615 229.064 278.817 228.002 278.118C227.465 277.765 227.183 277.218 227.228 276.617C227.275 275.979 227.686 275.337 228.357 274.856C228.409 274.818 228.446 274.785 228.471 274.761C228.312 274.644 227.798 274.566 226.942 274.529L226.938 274.529C226.877 274.526 226.819 274.524 226.766 274.521L226.766 274.521C225.667 274.468 224.532 274.412 223.55 273.73C222.786 273.199 222.416 272.433 222.536 271.629C222.649 270.867 223.193 270.169 224.068 269.664C224.118 269.635 224.17 269.606 224.223 269.578Z" fill="#62B944"/>
<path d="M265.223 288.578C265.243 288.567 265.262 288.556 265.281 288.545C265.591 288.367 265.635 288.263 265.635 288.262C265.635 288.26 265.647 288.095 265.19 287.722L265.181 287.714L265.179 287.712C264.729 287.34 264.17 286.877 263.741 286.396C263.221 285.815 263.036 285.104 263.22 284.395C263.397 283.712 263.899 283.102 264.633 282.678C264.974 282.482 265.36 282.328 265.779 282.222L265.788 282.22C266.019 282.164 266.186 282.107 266.286 282.05C266.348 282.014 266.418 281.973 266.464 281.496C266.537 280.748 266.662 280.212 266.87 279.76C267.153 279.145 267.591 278.672 268.207 278.316C268.824 277.96 269.452 277.818 270.127 277.88C270.622 277.926 271.148 278.085 271.833 278.397C272.27 278.595 272.34 278.555 272.402 278.519C272.501 278.462 272.634 278.345 272.798 278.173C273.097 277.857 273.423 277.596 273.767 277.397C274.495 276.977 275.272 276.85 275.957 277.039C276.67 277.237 277.196 277.751 277.438 278.488C277.641 279.105 277.763 279.824 277.861 280.403L277.862 280.411C277.951 280.988 278.104 281.059 278.105 281.059C278.106 281.06 278.218 281.076 278.53 280.896C278.55 280.885 278.57 280.873 278.591 280.86C278.63 280.836 278.673 280.81 278.716 280.786C279.606 280.272 280.493 280.145 281.214 280.43C281.965 280.726 282.44 281.428 282.518 282.356C282.619 283.547 282.099 284.558 281.596 285.536L281.596 285.536C281.573 285.581 281.548 285.629 281.522 285.679L281.515 285.692C281.119 286.452 280.929 286.936 280.951 287.133C280.985 287.124 281.031 287.108 281.09 287.082C281.842 286.742 282.604 286.706 283.18 286.984C283.722 287.246 284.055 287.764 284.093 288.406C284.168 289.675 283.227 290.898 282.298 291.927L282.298 291.927C281.357 292.967 281.301 293.03 281.35 294.019C281.421 295.453 280.972 296.573 280.012 297.359C280.012 297.359 279.676 297.621 279.435 297.761C279.193 297.9 278.798 298.06 278.798 298.06C277.637 298.499 276.442 298.328 275.235 297.549C274.403 297.012 274.321 297.03 272.949 297.324C271.593 297.615 270.064 297.817 269.002 297.118C268.465 296.765 268.183 296.218 268.228 295.617C268.275 294.979 268.686 294.337 269.357 293.856C269.409 293.818 269.446 293.785 269.471 293.761C269.312 293.644 268.798 293.566 267.942 293.529L267.938 293.529C267.877 293.526 267.819 293.524 267.766 293.521L267.766 293.521C266.667 293.468 265.532 293.412 264.55 292.73C263.786 292.199 263.416 291.433 263.536 290.629C263.649 289.867 264.193 289.169 265.068 288.664C265.118 288.635 265.17 288.606 265.223 288.578Z" fill="#62B944"/>
<path d="M522.223 288.578C522.243 288.567 522.262 288.556 522.281 288.545C522.591 288.367 522.635 288.263 522.635 288.262C522.635 288.26 522.647 288.095 522.19 287.722L522.181 287.714L522.179 287.712C521.729 287.34 521.17 286.877 520.741 286.396C520.221 285.815 520.036 285.104 520.22 284.395C520.397 283.712 520.899 283.102 521.633 282.678C521.974 282.482 522.36 282.328 522.779 282.222L522.788 282.22C523.019 282.164 523.186 282.107 523.286 282.05C523.348 282.014 523.418 281.973 523.464 281.496C523.537 280.748 523.662 280.212 523.87 279.76C524.153 279.145 524.591 278.672 525.207 278.316C525.824 277.96 526.452 277.818 527.127 277.88C527.622 277.926 528.148 278.085 528.833 278.397C529.27 278.595 529.34 278.555 529.402 278.519C529.501 278.462 529.634 278.345 529.798 278.173C530.097 277.857 530.423 277.596 530.767 277.397C531.495 276.977 532.272 276.85 532.957 277.039C533.67 277.237 534.196 277.751 534.438 278.488C534.641 279.105 534.763 279.824 534.861 280.403L534.862 280.411C534.951 280.988 535.104 281.059 535.105 281.059C535.106 281.06 535.218 281.076 535.53 280.896C535.55 280.885 535.57 280.873 535.591 280.86C535.63 280.836 535.673 280.81 535.716 280.786C536.606 280.272 537.493 280.145 538.214 280.43C538.965 280.726 539.44 281.428 539.518 282.356C539.619 283.547 539.099 284.558 538.596 285.536L538.596 285.536C538.573 285.581 538.548 285.629 538.522 285.679L538.515 285.692C538.119 286.452 537.929 286.936 537.951 287.133C537.985 287.124 538.031 287.108 538.09 287.082C538.842 286.742 539.604 286.706 540.18 286.984C540.722 287.246 541.055 287.764 541.093 288.406C541.168 289.675 540.227 290.898 539.298 291.927L539.298 291.927C538.357 292.967 538.301 293.03 538.35 294.019C538.421 295.453 537.972 296.573 537.012 297.359C537.012 297.359 536.676 297.621 536.435 297.761C536.193 297.9 535.798 298.06 535.798 298.06C534.637 298.499 533.442 298.328 532.235 297.549C531.403 297.012 531.321 297.03 529.949 297.324C528.593 297.615 527.064 297.817 526.002 297.118C525.465 296.765 525.183 296.218 525.228 295.617C525.275 294.979 525.686 294.337 526.357 293.856C526.409 293.818 526.446 293.785 526.471 293.761C526.312 293.644 525.798 293.566 524.942 293.529L524.938 293.529C524.877 293.526 524.819 293.524 524.766 293.521L524.766 293.521C523.667 293.468 522.532 293.412 521.55 292.73C520.786 292.199 520.416 291.433 520.536 290.629C520.649 289.867 521.193 289.169 522.068 288.664C522.118 288.635 522.17 288.606 522.223 288.578Z" fill="#62B944"/>
<path d="M431.223 247.578C431.243 247.567 431.262 247.556 431.281 247.545C431.591 247.367 431.635 247.263 431.635 247.262C431.635 247.26 431.647 247.095 431.19 246.722L431.181 246.714L431.179 246.712C430.729 246.34 430.17 245.877 429.741 245.396C429.221 244.815 429.036 244.104 429.22 243.395C429.397 242.712 429.899 242.102 430.633 241.678C430.974 241.482 431.36 241.328 431.779 241.222L431.788 241.22C432.019 241.164 432.186 241.107 432.286 241.05C432.348 241.014 432.418 240.973 432.464 240.496C432.537 239.748 432.662 239.212 432.87 238.76C433.153 238.145 433.591 237.672 434.207 237.316C434.824 236.96 435.452 236.818 436.127 236.88C436.622 236.926 437.148 237.085 437.833 237.397C438.27 237.595 438.34 237.555 438.402 237.519C438.501 237.462 438.634 237.345 438.798 237.173C439.097 236.857 439.423 236.596 439.767 236.397C440.495 235.977 441.272 235.85 441.957 236.039C442.67 236.237 443.196 236.751 443.438 237.488C443.641 238.105 443.763 238.824 443.861 239.403L443.862 239.411C443.951 239.988 444.104 240.059 444.105 240.059C444.106 240.06 444.218 240.076 444.53 239.896C444.55 239.885 444.57 239.873 444.591 239.86C444.63 239.836 444.673 239.81 444.716 239.786C445.606 239.272 446.493 239.145 447.214 239.43C447.965 239.726 448.44 240.428 448.518 241.356C448.619 242.547 448.099 243.558 447.596 244.536L447.596 244.536C447.573 244.581 447.548 244.629 447.522 244.679L447.515 244.692C447.119 245.452 446.929 245.936 446.951 246.133C446.985 246.124 447.031 246.108 447.09 246.082C447.842 245.742 448.604 245.706 449.18 245.984C449.722 246.246 450.055 246.764 450.093 247.406C450.168 248.675 449.227 249.898 448.298 250.927L448.298 250.927C447.357 251.967 447.301 252.03 447.35 253.019C447.421 254.453 446.972 255.573 446.012 256.359C446.012 256.359 445.676 256.621 445.435 256.761C445.193 256.9 444.798 257.06 444.798 257.06C443.637 257.499 442.442 257.328 441.235 256.549C440.403 256.012 440.321 256.03 438.949 256.324C437.593 256.615 436.064 256.817 435.002 256.118C434.465 255.765 434.183 255.218 434.228 254.617C434.275 253.979 434.686 253.337 435.357 252.856C435.409 252.818 435.446 252.785 435.471 252.761C435.312 252.644 434.798 252.566 433.942 252.529L433.938 252.529C433.877 252.526 433.819 252.524 433.766 252.521L433.766 252.521C432.667 252.468 431.532 252.412 430.55 251.73C429.786 251.199 429.416 250.433 429.536 249.629C429.649 248.867 430.193 248.169 431.068 247.664C431.118 247.635 431.17 247.606 431.223 247.578Z" fill="#62B944"/>
<path d="M381.223 280.578C381.243 280.567 381.262 280.556 381.281 280.545C381.591 280.367 381.635 280.263 381.635 280.262C381.635 280.26 381.647 280.095 381.19 279.722L381.181 279.714L381.179 279.712C380.729 279.34 380.17 278.877 379.741 278.396C379.221 277.815 379.036 277.104 379.22 276.395C379.397 275.712 379.899 275.102 380.633 274.678C380.974 274.482 381.36 274.328 381.779 274.222L381.788 274.22C382.019 274.164 382.186 274.107 382.286 274.05C382.348 274.014 382.418 273.973 382.464 273.496C382.537 272.748 382.662 272.212 382.87 271.76C383.153 271.145 383.591 270.672 384.207 270.316C384.824 269.96 385.452 269.818 386.127 269.88C386.622 269.926 387.148 270.085 387.833 270.397C388.27 270.595 388.34 270.555 388.402 270.519C388.501 270.462 388.634 270.345 388.798 270.173C389.097 269.857 389.423 269.596 389.767 269.397C390.495 268.977 391.272 268.85 391.957 269.039C392.67 269.237 393.196 269.751 393.438 270.488C393.641 271.105 393.763 271.824 393.861 272.403L393.862 272.411C393.951 272.988 394.104 273.059 394.105 273.059C394.106 273.06 394.218 273.076 394.53 272.896C394.55 272.885 394.57 272.873 394.591 272.86C394.63 272.836 394.673 272.81 394.716 272.786C395.606 272.272 396.493 272.145 397.214 272.43C397.965 272.726 398.44 273.428 398.518 274.356C398.619 275.547 398.099 276.558 397.596 277.536L397.596 277.536C397.573 277.581 397.548 277.629 397.522 277.679L397.515 277.692C397.119 278.452 396.929 278.936 396.951 279.133C396.985 279.124 397.031 279.108 397.09 279.082C397.842 278.742 398.604 278.706 399.18 278.984C399.722 279.246 400.055 279.764 400.093 280.406C400.168 281.675 399.227 282.898 398.298 283.927L398.298 283.927C397.357 284.967 397.301 285.03 397.35 286.019C397.421 287.453 396.972 288.573 396.012 289.359C396.012 289.359 395.676 289.621 395.435 289.761C395.193 289.9 394.798 290.06 394.798 290.06C393.637 290.499 392.442 290.328 391.235 289.549C390.403 289.012 390.321 289.03 388.949 289.324C387.593 289.615 386.064 289.817 385.002 289.118C384.465 288.765 384.183 288.218 384.228 287.617C384.275 286.979 384.686 286.337 385.357 285.856C385.409 285.818 385.446 285.785 385.471 285.761C385.312 285.644 384.798 285.566 383.942 285.529L383.938 285.529C383.877 285.526 383.819 285.524 383.766 285.521L383.766 285.521C382.667 285.468 381.532 285.412 380.55 284.73C379.786 284.199 379.416 283.433 379.536 282.629C379.649 281.867 380.193 281.169 381.068 280.664C381.118 280.635 381.17 280.606 381.223 280.578Z" fill="#62B944"/>
<path d="M330.223 299.578C330.243 299.567 330.262 299.556 330.281 299.545C330.591 299.367 330.635 299.263 330.635 299.262C330.635 299.26 330.647 299.095 330.19 298.722L330.181 298.714L330.179 298.712C329.729 298.34 329.17 297.877 328.741 297.396C328.221 296.815 328.036 296.104 328.22 295.395C328.397 294.712 328.899 294.102 329.633 293.678C329.974 293.482 330.36 293.328 330.779 293.222L330.788 293.22C331.019 293.164 331.186 293.107 331.286 293.05C331.348 293.014 331.418 292.973 331.464 292.496C331.537 291.748 331.662 291.212 331.87 290.76C332.153 290.145 332.591 289.672 333.207 289.316C333.824 288.96 334.452 288.818 335.127 288.88C335.622 288.926 336.148 289.085 336.833 289.397C337.27 289.595 337.34 289.555 337.402 289.519C337.501 289.462 337.634 289.345 337.798 289.173C338.097 288.857 338.423 288.596 338.767 288.397C339.495 287.977 340.272 287.85 340.957 288.039C341.67 288.237 342.196 288.751 342.438 289.488C342.641 290.105 342.763 290.824 342.861 291.403L342.862 291.411C342.951 291.988 343.104 292.059 343.105 292.059C343.106 292.06 343.218 292.076 343.53 291.896C343.55 291.885 343.57 291.873 343.591 291.86C343.63 291.836 343.673 291.81 343.716 291.786C344.606 291.272 345.493 291.145 346.214 291.43C346.965 291.726 347.44 292.428 347.518 293.356C347.619 294.547 347.099 295.558 346.596 296.536L346.596 296.536C346.573 296.581 346.548 296.629 346.522 296.679L346.515 296.692C346.119 297.452 345.929 297.936 345.951 298.133C345.985 298.124 346.031 298.108 346.09 298.082C346.842 297.742 347.604 297.706 348.18 297.984C348.722 298.246 349.055 298.764 349.093 299.406C349.168 300.675 348.227 301.898 347.298 302.927L347.298 302.927C346.357 303.967 346.301 304.03 346.35 305.019C346.421 306.453 345.972 307.573 345.012 308.359C345.012 308.359 344.676 308.621 344.435 308.761C344.193 308.9 343.798 309.06 343.798 309.06C342.637 309.499 341.442 309.328 340.235 308.549C339.403 308.012 339.321 308.03 337.949 308.324C336.593 308.615 335.064 308.817 334.002 308.118C333.465 307.765 333.183 307.218 333.228 306.617C333.275 305.979 333.686 305.337 334.357 304.856C334.409 304.818 334.446 304.785 334.471 304.761C334.312 304.644 333.798 304.566 332.942 304.529L332.938 304.529C332.877 304.526 332.819 304.524 332.766 304.521L332.766 304.521C331.667 304.468 330.532 304.412 329.55 303.73C328.786 303.199 328.416 302.433 328.536 301.629C328.649 300.867 329.193 300.169 330.068 299.664C330.118 299.635 330.17 299.606 330.223 299.578Z" fill="#62B944"/>
<path d="M255.223 235.578C255.243 235.567 255.262 235.556 255.281 235.545C255.591 235.367 255.635 235.263 255.635 235.262C255.635 235.26 255.647 235.095 255.19 234.722L255.181 234.714L255.179 234.712C254.729 234.34 254.17 233.877 253.741 233.396C253.221 232.815 253.036 232.104 253.22 231.395C253.397 230.712 253.899 230.102 254.633 229.678C254.974 229.482 255.36 229.328 255.779 229.222L255.788 229.22C256.019 229.164 256.186 229.107 256.286 229.05C256.348 229.014 256.418 228.973 256.464 228.496C256.537 227.748 256.662 227.212 256.87 226.76C257.153 226.145 257.591 225.672 258.207 225.316C258.824 224.96 259.452 224.818 260.127 224.88C260.622 224.926 261.148 225.085 261.833 225.397C262.27 225.595 262.34 225.555 262.402 225.519C262.501 225.462 262.634 225.345 262.798 225.173C263.097 224.857 263.423 224.596 263.767 224.397C264.495 223.977 265.272 223.85 265.957 224.039C266.67 224.237 267.196 224.751 267.438 225.488C267.641 226.105 267.763 226.824 267.861 227.403L267.862 227.411C267.951 227.988 268.104 228.059 268.105 228.059C268.106 228.06 268.218 228.076 268.53 227.896C268.55 227.885 268.57 227.873 268.591 227.86C268.63 227.836 268.673 227.81 268.716 227.786C269.606 227.272 270.493 227.145 271.214 227.43C271.965 227.726 272.44 228.428 272.518 229.356C272.619 230.547 272.099 231.558 271.596 232.536L271.596 232.536C271.573 232.581 271.548 232.629 271.522 232.679L271.515 232.692C271.119 233.452 270.929 233.936 270.951 234.133C270.985 234.124 271.031 234.108 271.09 234.082C271.842 233.742 272.604 233.706 273.18 233.984C273.722 234.246 274.055 234.764 274.093 235.406C274.168 236.675 273.227 237.898 272.298 238.927L272.298 238.927C271.357 239.967 271.301 240.03 271.35 241.019C271.421 242.453 270.972 243.573 270.012 244.359C270.012 244.359 269.676 244.621 269.435 244.761C269.193 244.9 268.798 245.06 268.798 245.06C267.637 245.499 266.442 245.328 265.235 244.549C264.403 244.012 264.321 244.03 262.949 244.324C261.593 244.615 260.064 244.817 259.002 244.118C258.465 243.765 258.183 243.218 258.228 242.617C258.275 241.979 258.686 241.337 259.357 240.856C259.409 240.818 259.446 240.785 259.471 240.761C259.312 240.644 258.798 240.566 257.942 240.529L257.938 240.529C257.877 240.526 257.819 240.524 257.766 240.521L257.766 240.521C256.667 240.468 255.532 240.412 254.55 239.73C253.786 239.199 253.416 238.433 253.536 237.629C253.649 236.867 254.193 236.169 255.068 235.664C255.118 235.635 255.17 235.606 255.223 235.578Z" fill="#62B944"/>
<path d="M143.223 243.578C143.243 243.567 143.262 243.556 143.281 243.545C143.591 243.367 143.635 243.263 143.635 243.262C143.635 243.26 143.647 243.095 143.19 242.722L143.181 242.714L143.179 242.712C142.729 242.34 142.17 241.877 141.741 241.396C141.221 240.815 141.036 240.104 141.22 239.395C141.397 238.712 141.899 238.102 142.633 237.678C142.974 237.482 143.36 237.328 143.779 237.222L143.788 237.22C144.019 237.164 144.186 237.107 144.286 237.05C144.348 237.014 144.418 236.973 144.464 236.496C144.537 235.748 144.662 235.212 144.87 234.76C145.153 234.145 145.591 233.672 146.207 233.316C146.824 232.96 147.452 232.818 148.127 232.88C148.622 232.926 149.148 233.085 149.833 233.397C150.27 233.595 150.34 233.555 150.402 233.519C150.501 233.462 150.634 233.345 150.798 233.173C151.097 232.857 151.423 232.596 151.767 232.397C152.495 231.977 153.272 231.85 153.957 232.039C154.67 232.237 155.196 232.751 155.438 233.488C155.641 234.105 155.763 234.824 155.861 235.403L155.862 235.411C155.951 235.988 156.104 236.059 156.105 236.059C156.106 236.06 156.218 236.076 156.53 235.896C156.55 235.885 156.57 235.873 156.591 235.86C156.63 235.836 156.673 235.81 156.716 235.786C157.606 235.272 158.493 235.145 159.214 235.43C159.965 235.726 160.44 236.428 160.518 237.356C160.619 238.547 160.099 239.558 159.596 240.536L159.596 240.536C159.573 240.581 159.548 240.629 159.522 240.679L159.515 240.692C159.119 241.452 158.929 241.936 158.951 242.133C158.985 242.124 159.031 242.108 159.09 242.082C159.842 241.742 160.604 241.706 161.18 241.984C161.722 242.246 162.055 242.764 162.093 243.406C162.168 244.675 161.227 245.898 160.298 246.927L160.298 246.927C159.357 247.967 159.301 248.03 159.35 249.019C159.421 250.453 158.972 251.573 158.012 252.359C158.012 252.359 157.676 252.621 157.435 252.761C157.193 252.9 156.798 253.06 156.798 253.06C155.637 253.499 154.442 253.328 153.235 252.549C152.403 252.012 152.321 252.03 150.949 252.324C149.593 252.615 148.064 252.817 147.002 252.118C146.465 251.765 146.183 251.218 146.228 250.617C146.275 249.979 146.686 249.337 147.357 248.856C147.409 248.818 147.446 248.785 147.471 248.761C147.312 248.644 146.798 248.566 145.942 248.529L145.938 248.529C145.877 248.526 145.819 248.524 145.766 248.521L145.766 248.521C144.667 248.468 143.532 248.412 142.55 247.73C141.786 247.199 141.416 246.433 141.536 245.629C141.649 244.867 142.193 244.169 143.068 243.664C143.118 243.635 143.17 243.606 143.223 243.578Z" fill="#62B944"/>
<path d="M136.223 199.578C136.243 199.567 136.262 199.556 136.281 199.545C136.591 199.367 136.635 199.263 136.635 199.262C136.635 199.26 136.647 199.095 136.19 198.722L136.181 198.714L136.179 198.712C135.729 198.34 135.17 197.877 134.741 197.396C134.221 196.815 134.036 196.104 134.22 195.395C134.397 194.712 134.899 194.102 135.633 193.678C135.974 193.482 136.36 193.328 136.779 193.222L136.788 193.22C137.019 193.164 137.186 193.107 137.286 193.05C137.348 193.014 137.418 192.973 137.464 192.496C137.537 191.748 137.662 191.212 137.87 190.76C138.153 190.145 138.591 189.672 139.207 189.316C139.824 188.96 140.452 188.818 141.127 188.88C141.622 188.926 142.148 189.085 142.833 189.397C143.27 189.595 143.34 189.555 143.402 189.519C143.501 189.462 143.634 189.345 143.798 189.173C144.097 188.857 144.423 188.596 144.767 188.397C145.495 187.977 146.272 187.85 146.957 188.039C147.67 188.237 148.196 188.751 148.438 189.488C148.641 190.105 148.763 190.824 148.861 191.403L148.862 191.411C148.951 191.988 149.104 192.059 149.105 192.059C149.106 192.06 149.218 192.076 149.53 191.896C149.55 191.885 149.57 191.873 149.591 191.86C149.63 191.836 149.673 191.81 149.716 191.786C150.606 191.272 151.493 191.145 152.214 191.43C152.965 191.726 153.44 192.428 153.518 193.356C153.619 194.547 153.099 195.558 152.596 196.536L152.596 196.536C152.573 196.581 152.548 196.629 152.522 196.679L152.515 196.692C152.119 197.452 151.929 197.936 151.951 198.133C151.985 198.124 152.031 198.108 152.09 198.082C152.842 197.742 153.604 197.706 154.18 197.984C154.722 198.246 155.055 198.764 155.093 199.406C155.168 200.675 154.227 201.898 153.298 202.927L153.298 202.927C152.357 203.967 152.301 204.03 152.35 205.019C152.421 206.453 151.972 207.573 151.012 208.359C151.012 208.359 150.676 208.621 150.435 208.761C150.193 208.9 149.798 209.06 149.798 209.06C148.637 209.499 147.442 209.328 146.235 208.549C145.403 208.012 145.321 208.03 143.949 208.324C142.593 208.615 141.064 208.817 140.002 208.118C139.465 207.765 139.183 207.218 139.228 206.617C139.275 205.979 139.686 205.337 140.357 204.856C140.409 204.818 140.446 204.785 140.471 204.761C140.312 204.644 139.798 204.566 138.942 204.529L138.938 204.529C138.877 204.526 138.819 204.524 138.766 204.521L138.766 204.521C137.667 204.468 136.532 204.412 135.55 203.73C134.786 203.199 134.416 202.433 134.536 201.629C134.649 200.867 135.193 200.169 136.068 199.664C136.118 199.635 136.17 199.606 136.223 199.578Z" fill="#62B944"/>
</svg>
