<svg width="198" height="192" viewBox="0 0 198 192" fill="none" xmlns="http://www.w3.org/2000/svg">
<path d="M72.9474 21.5927C41.5152 32.2504 10.7362 59.741 14.3464 95.5737C17.4181 126.043 52.1573 135.609 73.2658 139.173C79.1559 140.167 84.4676 143.282 88.2194 147.929C97.2006 159.044 116.528 177.645 138.285 165.854C139.869 164.997 139.21 162.574 137.407 162.612C131.673 162.741 123.556 161.781 118.116 156.299C110.701 148.836 113.648 136.161 123.458 132.363C142.02 125.18 177.149 105.35 173.434 59.0042C168.405 -3.67696 72.9474 21.5927 72.9474 21.5927Z" fill="white"/>
<path d="M149.637 40.189C149.978 41.5543 149.146 42.9389 147.781 43.2795L48.1334 68.1391C46.7682 68.4797 45.3836 67.648 45.043 66.2828L44.973 66.0022C44.6324 64.6369 45.464 63.2524 46.8293 62.9118L146.477 38.0521C147.842 37.7115 149.227 38.5431 149.567 39.9084L149.637 40.189Z" fill="#F5F5F5"/>
<path d="M155.158 93.5335C155.482 94.8333 155.489 95.7952 154.212 96.1136L61.0408 119.358C59.7643 119.676 58.2043 119.097 57.8812 117.802L57.8147 117.535C57.4905 116.235 58.4602 114.449 59.7367 114.13L152.908 90.8863C154.185 90.5678 154.767 91.9671 155.092 93.267L155.158 93.5335Z" fill="#F5F5F5"/>
<path d="M155.277 58.3635C155.646 59.8457 154.791 60.4168 153.285 60.7924L43.6878 88.1343C42.1869 88.5087 40.588 88.55 40.2183 87.0678L40.1424 86.7639C39.7727 85.2817 40.8828 83.2814 42.3837 82.9069L151.981 55.565C153.482 55.1906 154.831 56.5774 155.201 58.0596L155.277 58.3635Z" fill="#F5F5F5"/>
<path d="M159.191 74.0507C159.561 75.5328 158.705 76.1039 157.2 76.4795L47.6026 103.821C46.1017 104.196 44.5028 104.237 44.1331 102.755L44.0572 102.451C43.6875 100.969 44.7976 98.9685 46.2985 98.5941L155.896 71.2522C157.397 70.8777 158.746 72.2646 159.116 73.7468L159.191 74.0507Z" fill="#F5F5F5"/>
</svg>
