<svg width="399" height="388" viewBox="0 0 399 388" fill="none" xmlns="http://www.w3.org/2000/svg">
<path d="M251.117 43.5513C314.514 65.0473 376.594 120.494 369.312 192.767C363.117 254.221 293.05 273.515 250.475 280.705C238.595 282.71 227.882 288.993 220.315 298.364C202.2 320.782 163.219 358.3 119.334 334.519C116.139 332.79 117.469 327.903 121.106 327.979C132.672 328.24 149.042 326.303 160.015 315.247C174.97 300.195 169.026 274.63 149.239 266.969C111.802 252.48 40.9493 212.485 48.442 119.008C58.5846 -7.41615 251.117 43.5513 251.117 43.5513Z" fill="white"/>
<path d="M96.4389 81.059C95.7519 83.8127 97.4294 86.6053 100.183 87.2923L301.166 137.433C303.92 138.12 306.713 136.442 307.4 133.689L307.541 133.123C308.228 130.369 306.55 127.577 303.797 126.89L102.813 76.749C100.06 76.062 97.267 77.7394 96.58 80.4932L96.4389 81.059Z" fill="#F5F5F5"/>
<path d="M85.3055 188.651C84.6515 191.273 84.6382 193.213 87.2128 193.855L275.135 240.737C277.709 241.38 280.856 240.211 281.508 237.599L281.642 237.062C282.296 234.44 280.34 230.836 277.765 230.194L89.8431 183.312C87.2685 182.67 86.0937 185.492 85.4396 188.114L85.3055 188.651Z" fill="#F5F5F5"/>
<path d="M85.0623 117.715C84.3165 120.705 86.0427 121.857 89.0793 122.614L310.131 177.761C313.158 178.517 316.383 178.6 317.129 175.61L317.282 174.997C318.027 172.008 315.788 167.973 312.761 167.218L91.7096 112.071C88.6824 111.316 85.9611 114.113 85.2153 117.102L85.0623 117.715Z" fill="#F5F5F5"/>
<path d="M77.169 149.356C76.4232 152.345 78.1494 153.497 81.186 154.255L302.237 209.402C305.265 210.157 308.49 210.24 309.235 207.251L309.388 206.638C310.134 203.648 307.895 199.614 304.868 198.859L83.8163 143.711C80.7891 142.956 78.0678 145.753 77.322 148.743L77.169 149.356Z" fill="#F5F5F5"/>
</svg>
