<svg width="113" height="107" viewBox="0 0 113 107" fill="none" xmlns="http://www.w3.org/2000/svg">
<path d="M49.8983 7.45471C51.3541 4.44152 55.6459 4.44152 57.1017 7.45471L60.131 13.7247C61.2219 15.9828 64.0977 16.6916 66.1131 15.1992L71.7092 11.0551C74.3985 9.06363 78.1987 11.0581 78.0874 14.4027L77.8559 21.3623C77.7725 23.8687 79.9895 25.8328 82.4676 25.4479L89.3485 24.3792C92.6553 23.8656 95.0933 27.3976 93.4405 30.3074L90.0012 36.3622C88.7626 38.5428 89.8129 41.3122 92.186 42.123L98.7754 44.3744C101.942 45.4564 102.459 49.7169 99.6437 51.5253L93.7846 55.2882C91.6745 56.6434 91.3174 59.5837 93.0419 61.4045L97.8303 66.4603C100.131 68.8899 98.6095 72.9028 95.2759 73.1955L88.3392 73.8046C85.841 74.0239 84.1585 76.4615 84.8392 78.8751L86.7296 85.577C87.638 88.7978 84.4256 91.6438 81.3378 90.3537L74.9126 87.6694C72.5986 86.7026 69.976 88.0791 69.4571 90.5326L68.0164 97.3454C67.324 100.619 63.1569 101.646 61.0224 99.0692L56.5806 93.7064C54.9809 91.775 52.0191 91.775 50.4194 93.7064L45.9777 99.0692C43.8431 101.646 39.676 100.619 38.9836 97.3454L37.5429 90.5326C37.024 88.0791 34.4014 86.7026 32.0874 87.6694L25.6622 90.3537C22.5744 91.6438 19.362 88.7978 20.2704 85.577L22.1608 78.8751C22.8415 76.4615 21.159 74.0239 18.6608 73.8046L11.7241 73.1955C8.39047 72.9028 6.86859 68.8899 9.16974 66.4603L13.9581 61.4045C15.6825 59.5837 15.3255 56.6434 13.2154 55.2882L7.3563 51.5253C4.54056 49.7169 5.05787 45.4564 8.22456 44.3744L14.814 42.123C17.1871 41.3122 18.2374 38.5428 16.9988 36.3622L13.5595 30.3074C11.9067 27.3976 14.3447 23.8656 17.6514 24.3792L24.5324 25.4479C27.0105 25.8328 29.2275 23.8687 29.1441 21.3623L28.9126 14.4027C28.8013 11.0581 32.6015 9.06363 35.2908 11.0551L40.8869 15.1992C42.9023 16.6916 45.7781 15.9828 46.869 13.7247L49.8983 7.45471Z" fill="#FFE401"/>
<path d="M52.4068 36C62.3564 36 70.8136 30 70.8136 18.5C70.8136 7 62.3564 1 52.4068 1C42.4572 1 34 7 34 18.5C34 30 42.4572 36 52.4068 36ZM55.3917 72.5L76.2361 37.5L97.0806 2.5H91.6083L49.9194 72.5H55.3917ZM52.4068 34C48.9244 34 46.437 29.5 46.437 18.5C46.437 7.5 48.9244 3 52.4068 3C55.8892 3 58.3766 6.2 58.3766 18.5C58.3766 29.5 55.8892 34 52.4068 34ZM94.5932 74C104.543 74 113 68 113 56.5C113 45 104.543 39 94.5932 39C84.6436 39 76.1864 45 76.1864 56.5C76.1864 68 84.6436 74 94.5932 74ZM94.5932 72C91.1108 72 88.6234 67.5 88.6234 56.5C88.6234 45.5 91.1108 41 94.5932 41C98.0756 41 100.563 45.5 100.563 56.5C100.563 67.5 98.0756 72 94.5932 72Z" fill="#2E322C"/>
</svg>
