<svg width="68" height="68" viewBox="0 0 68 68" fill="none" xmlns="http://www.w3.org/2000/svg">
<path d="M28.1163 28.2963C28.1163 28.2963 18.6742 11.0575 24.6233 9.10658C30.5724 7.15568 32.9789 11.079 35.344 10.8662C37.71 10.6544 49.5795 13.7297 28.1163 28.2963Z" fill="#FFE401"/>
<path d="M28.6822 27.8045C28.6822 27.8045 17.275 11.8207 12.8732 16.1264C8.4702 20.433 15.4273 25.479 11.6039 29.2796C7.78054 33.0803 13.3897 43.0082 28.6822 27.8045Z" fill="#FFE401"/>
<path d="M41.4499 64.151L60.7245 47.3246C62.9535 45.3787 63.4541 42.2046 61.8742 40.0275L47.1354 18.1418C45.3624 15.6973 41.697 15.4764 39.194 17.6615L17.4382 36.6539C15.0726 38.719 14.6761 42.1334 16.5516 44.2811L33.7717 64.0007C35.6471 66.1484 39.0844 66.216 41.4499 64.151Z" fill="#62B944"/>
<path d="M49.0278 57.5168L55.6816 51.7079L31.6882 24.2302L25.0344 30.0392L49.0278 57.5168Z" fill="#FFE401"/>
</svg>
