<svg width="104" height="98" viewBox="0 0 104 98" fill="none" xmlns="http://www.w3.org/2000/svg">
<path fill-rule="evenodd" clip-rule="evenodd" d="M77.2586 53.5846C77.0391 51.8536 76.3579 50.2137 75.2864 48.8366L45.7816 10.92C42.4841 6.6823 36.3756 5.92018 32.1379 9.2177L14.7088 22.7802C10.4712 26.0777 9.70904 32.1861 13.0066 36.4238L42.5114 74.3405C43.5829 75.7175 45.0052 76.7808 46.6292 77.4188L73.8258 88.1038C77.5267 89.5578 81.4337 86.5176 80.9336 82.5728L77.2586 53.5846ZM64.5693 69.6435C63.5556 70.9149 63.7645 72.7673 65.0358 73.781C66.3072 74.7947 68.1596 74.5859 69.1734 73.3145C70.1871 72.0431 69.9782 70.1907 68.7069 69.177C67.4355 68.1633 65.583 68.3721 64.5693 69.6435Z" fill="#FFE401"/>
<path d="M32.5931 39.0422L32.6913 38.9724C33.0547 37.8214 33.8954 36.9254 35.0729 36.0872L35.171 36.0173L36.4356 37.7937L39.4508 36.8368L37.624 34.2709L45.7682 28.4729L43.9414 25.907L31.2026 25.4588L28.8476 27.1353L32.3606 32.0698L32.2625 32.1396C31.085 32.9779 29.9633 33.4791 28.7567 33.4458L28.6586 33.5156L32.5931 39.0422ZM40.1515 26.5232L34.8137 30.3234L31.8909 26.2179L40.1515 26.5232Z" fill="white"/>
<path d="M38.267 47.6349C40.445 50.6943 45.1597 51.5016 49.5752 48.3581C53.9907 45.2146 54.7709 40.4953 52.5928 37.436C50.4148 34.3766 45.7001 33.5693 41.2846 36.7128C36.8691 39.8563 36.0889 44.5756 38.267 47.6349ZM38.7576 47.2857C37.9004 46.0817 40.0049 43.7209 44.1652 40.7591C48.3256 37.7972 51.245 36.5813 52.1022 37.7853C52.9594 38.9893 50.8549 41.35 46.6946 44.3119C42.5342 47.2737 39.6148 48.4897 38.7576 47.2857Z" fill="white"/>
<path d="M53.1739 52.79C54.5791 54.7638 56.951 55.6032 59.2078 53.9965C61.4646 52.3898 61.4477 49.8739 60.0425 47.9001C58.6373 45.9263 56.2654 45.0869 54.0086 46.6935C51.7518 48.3002 51.7688 50.8162 53.1739 52.79ZM46.4326 58.4816L66.0574 56.9719L65.2846 55.8863L45.6597 57.396L46.4326 58.4816ZM53.5664 52.5106C53.0746 51.8197 53.6064 50.6976 55.7651 49.1608C57.9238 47.6239 59.1582 47.4887 59.65 48.1795C60.1418 48.8703 59.8651 49.8108 57.4513 51.5293C55.2927 53.0661 54.0583 53.2014 53.5664 52.5106ZM51.6747 66.4678C53.0798 68.4416 55.4517 69.2811 57.7085 67.6744C59.9653 66.0677 59.9484 63.5517 58.5432 61.5779C57.138 59.6042 54.7661 58.7647 52.5093 60.3714C50.2525 61.9781 50.2695 64.4941 51.6747 66.4678ZM52.0671 66.1884C51.5753 65.4976 52.1071 64.3755 54.2658 62.8386C56.4245 61.3018 57.6589 61.1665 58.1507 61.8574C58.6425 62.5482 58.1107 63.6703 55.952 65.2072C53.7934 66.744 52.559 66.8792 52.0671 66.1884Z" fill="white"/>
<path d="M29.7252 25.3253L31.0349 24.4264L26.9898 18.5328L25.6801 19.4317L29.7252 25.3253Z" fill="white"/>
</svg>
