<svg width="64" height="75" viewBox="0 0 64 75" fill="none" xmlns="http://www.w3.org/2000/svg">
<path fill-rule="evenodd" clip-rule="evenodd" d="M31.3776 17.778C30.3842 18.1248 29.5025 18.7324 28.8248 19.5373L5.31722 47.4578C3.23181 49.9347 3.54914 53.6333 6.02606 55.7187L20.1705 67.6276C22.6474 69.7129 26.3459 69.3955 28.4313 66.9186L51.9389 38.9981C52.6166 38.1933 53.0651 37.2209 53.2376 36.183L56.2085 18.3C56.9383 13.9072 52.6973 10.3364 48.493 11.8039L31.3776 17.778ZM45.0413 24.2663C46.0996 24.7951 47.3862 24.3659 47.9151 23.3076C48.4439 22.2493 48.0147 20.9626 46.9563 20.4338C45.898 19.905 44.6114 20.3342 44.0826 21.3925C43.5538 22.4508 43.983 23.7375 45.0413 24.2663Z" fill="#FFE401"/>
<path d="M28.9308 52.5126L26.6643 48.7484L26.555 48.8808C26.9338 49.7503 26.6481 50.6277 25.9921 51.4221L23.9258 53.9245L23.956 50.9656C23.9707 49.6194 23.9654 47.6332 22.5176 46.4377C21.0958 45.2637 19.0578 45.4736 17.6147 47.2213C16.0513 49.1146 16.4369 51.4372 18.2947 53.3052L18.4041 53.1728C17.8947 52.1956 17.9196 51.1027 18.6959 50.1627C19.6689 48.9843 21.0634 49.0224 22.0025 49.7979C23.1112 50.7134 23.3091 52.4132 23.5217 54.2811L23.9899 58.2305L24.1203 58.3383L26.5256 55.4254L28.9308 52.5126Z" fill="white"/>
<path d="M33.9936 46.7797C35.6882 44.7275 35.3926 41.366 32.4578 38.9426C29.5229 36.5192 26.1662 36.8649 24.4716 38.9171C22.777 40.9694 23.0726 44.3309 26.0075 46.7543C28.9423 49.1777 32.299 48.8319 33.9936 46.7797ZM33.6675 46.5105C33.0006 47.3181 31.014 46.3234 28.2487 44.04C25.4834 41.7567 24.1308 39.9941 24.7977 39.1864C25.4646 38.3788 27.4513 39.3734 30.2166 41.6568C32.9819 43.9402 34.3344 45.7028 33.6675 46.5105Z" fill="white"/>
<path d="M34.833 35.6675C35.9263 34.3435 36.0729 32.5719 34.5729 31.3332C33.0729 30.0946 31.3609 30.5738 30.2677 31.8978C29.1744 33.2218 29.0277 34.9935 30.5278 36.2321C32.0278 37.4707 33.7397 36.9915 34.833 35.6675ZM39.922 39.2016L35.3721 26.1146L34.7708 26.8428L39.3207 39.9298L39.922 39.2016ZM34.5721 35.4521C34.1895 35.9155 33.3292 35.7618 31.8944 34.5771C30.4596 33.3923 30.1459 32.5766 30.5285 32.1132C30.9112 31.6498 31.6019 31.6635 33.2063 32.9883C34.6411 34.173 34.9548 34.9887 34.5721 35.4521ZM44.4251 34.1466C45.5184 32.8226 45.6651 31.0509 44.165 29.8123C42.665 28.5737 40.9531 29.0528 39.8598 30.3768C38.7665 31.7009 38.6199 33.4725 40.1199 34.7111C41.62 35.9498 43.3319 35.4706 44.4251 34.1466ZM44.1643 33.9312C43.7816 34.3946 42.9213 34.2409 41.4865 33.0561C40.0517 31.8713 39.738 31.0557 40.1207 30.5923C40.5033 30.1288 41.3636 30.2825 42.7984 31.4673C44.2333 32.6521 44.5469 33.4678 44.1643 33.9312Z" fill="white"/>
<path d="M21.8503 53.0077L20.8968 52.2262L17.3801 56.5169L18.3336 57.2984L21.8503 53.0077Z" fill="white"/>
</svg>
