<svg width="177" height="117" viewBox="0 0 177 117" fill="none" xmlns="http://www.w3.org/2000/svg">
<rect x="41.7891" y="69.6133" width="124" height="54.1446" rx="27.0723" transform="rotate(-30 41.7891 69.6133)" fill="#EAD100"/>
<path d="M127.069 45.3414C127.069 45.3414 122.898 32.2664 127.225 31.7432C131.552 31.2201 132.678 34.2309 134.323 34.4077C135.969 34.5854 143.679 38.3062 127.069 45.3414Z" fill="#009035"/>
<path d="M127.501 45.1072C127.501 45.1072 121.822 32.6254 118.241 34.9691C114.66 37.3133 118.747 41.711 115.629 43.7883C112.511 45.8656 115.03 53.4172 127.501 45.1072Z" fill="#009035"/>
<path d="M131.385 71.6567L146.798 62.7777C148.581 61.7508 149.344 59.6485 148.552 57.9444L141.375 40.9694C140.487 39.0561 138.01 38.4053 136.008 39.5584L118.611 49.5804C116.719 50.6701 115.995 52.951 116.993 54.6753L126.154 70.5073C127.152 72.2316 129.493 72.7464 131.385 71.6567Z" fill="#62B944"/>
<path d="M137.439 68.1338L142.748 65.0731L130.012 43.0459L124.703 46.1065L137.439 68.1338Z" fill="#009035"/>
<rect x="63.9814" y="70.9343" width="40" height="7" rx="3.5" transform="rotate(-30 63.9814 70.9343)" fill="#62B944"/>
<rect x="69.4814" y="80.4606" width="25" height="7" rx="3.5" transform="rotate(-30 69.4814 80.4606)" fill="#2E322C"/>
<rect x="74.9814" y="89.9869" width="40" height="7" rx="3.5" transform="rotate(-30 74.9814 89.9869)" fill="#2E322C"/>
<rect y="62" width="124" height="54.1446" rx="27.0723" transform="rotate(-30 0 62)" fill="#FFE401"/>
<path d="M85.2798 37.7281C85.2798 37.7281 81.1091 24.6531 85.4362 24.1299C89.7634 23.6068 90.8887 26.6176 92.5343 26.7944C94.1804 26.9721 101.89 30.6929 85.2798 37.7281Z" fill="#009035"/>
<path d="M85.7124 37.4939C85.7124 37.4939 80.0327 25.0121 76.4522 27.3558C72.8708 29.7 76.9583 34.0978 73.8403 36.1751C70.7223 38.2523 73.2408 45.8039 85.7124 37.4939Z" fill="#009035"/>
<path d="M89.5959 64.0434L105.009 55.1643C106.791 54.1375 107.555 52.0352 106.763 50.3311L99.5863 33.3561C98.6981 31.4428 96.2207 30.7921 94.2191 31.9451L76.8219 41.9672C74.9302 43.0569 74.2062 45.3377 75.2039 47.062L84.3649 62.894C85.3626 64.6183 87.7042 65.1331 89.5959 64.0434Z" fill="#62B944"/>
<path d="M95.65 60.5205L100.959 57.4598L88.2231 35.4326L82.9142 38.4933L95.65 60.5205Z" fill="#009035"/>
<rect x="22.1914" y="63.3213" width="40" height="7" rx="3.5" transform="rotate(-30 22.1914 63.3213)" fill="#2E322C"/>
<rect x="27.6914" y="72.8477" width="25" height="7" rx="3.5" transform="rotate(-30 27.6914 72.8477)" fill="#2E322C"/>
<rect x="33.1914" y="82.374" width="40" height="7" rx="3.5" transform="rotate(-30 33.1914 82.374)" fill="#2E322C"/>
</svg>
