<svg width="149" height="210" viewBox="0 0 149 210" fill="none" xmlns="http://www.w3.org/2000/svg">
<path fill-rule="evenodd" clip-rule="evenodd" d="M21.1797 96.9355C35.738 95.7465 48.4764 110.393 51.0524 134.469C52.7209 150.065 49.9002 183.471 30.8356 185.188C12.6834 186.825 2.92235 165.018 0.634991 144.915C-2.56242 116.823 6.62127 98.1244 21.1797 96.9355Z" fill="#459C27"/>
<path fill-rule="evenodd" clip-rule="evenodd" d="M110.624 109.701C121.931 98.6821 131.497 94.7971 140.773 98.4912C153.088 103.396 150.016 124.463 139.421 137.921C131.69 147.741 111.505 167.129 100.215 154.681C89.4558 142.821 98.2774 121.735 110.624 109.701Z" fill="#459C27"/>
<path fill-rule="evenodd" clip-rule="evenodd" d="M101.257 0.440215C125.665 4.05606 128.449 34.4336 121.144 63.1231C113.281 94.0095 89.6542 109.833 73.3833 103.355C59.9208 97.9947 48.6748 77.288 59.0695 42.6317C64.6742 23.9482 81.2728 -2.51998 101.257 0.440215Z" fill="#459C27"/>
<path d="M24.1331 119.144C25.0725 119.054 25.9092 119.692 25.9997 120.634C27.6094 137.405 32.206 174.935 38.9629 209.186H35.4476C34.5571 204.782 33.6764 199.916 32.803 194.95C27.7562 166.27 24.1477 137.194 22.5919 120.986C22.5013 120.047 23.1913 119.235 24.1331 119.144Z" fill="#2A6117"/>
<path d="M123.748 125.395C124.441 124.752 125.524 124.801 126.168 125.493C126.811 126.185 126.775 127.225 126.082 127.869C109.486 143.328 92.2024 173.226 81.7026 209.188H78.104C80.7485 200.137 83.6255 191.965 86.3312 185.199C96.4371 159.912 110.076 138.131 123.748 125.395Z" fill="#2A6117"/>
<path d="M73.3897 61.8315C73.1818 60.9092 73.7592 60.0162 74.6815 59.8083C75.6013 59.5979 76.5212 60.1777 76.7292 61.1C77.7982 65.8143 79.4715 73.1903 80.6238 80.1456C81.4678 76.4759 82.3143 72.9457 83.1607 69.5696C82.7595 62.1617 81.7124 52.9973 80.6066 43.3216L80.499 42.3871C80.3913 41.4477 81.0666 40.5988 82.006 40.4911C82.9405 40.3786 83.7943 41.0587 83.9019 41.9981L84.0096 42.9327C84.6701 48.7039 85.3086 54.294 85.8028 59.4536C88.5207 49.499 91.1163 41.3914 93.3352 35.6961C93.6777 34.8153 94.6734 34.3799 95.5517 34.7224C96.4324 35.0649 96.8678 36.0582 96.5253 36.9389C94.2991 42.6489 91.6937 50.8004 88.966 60.8186C92.7628 55.9282 97.357 51.4365 101.364 47.5173C102.996 45.9222 104.537 44.4152 105.924 42.9865C106.582 42.3088 107.666 42.2917 108.344 42.9498C109.021 43.6079 109.039 44.6917 108.381 45.3693C106.962 46.8299 105.406 48.354 103.757 49.9638C96.9559 56.6132 89.2473 64.1507 86.0009 72.4075C85.9789 72.4662 85.952 72.5224 85.9251 72.5763C85.36 74.8784 84.7899 77.2563 84.2248 79.6906C89.8197 70.8662 96.425 65.4889 102.052 60.9067L102.979 60.1508C103.71 59.5538 104.789 59.6615 105.389 60.3954C105.986 61.1269 105.878 62.2058 105.146 62.8052L104.214 63.5635C96.6158 69.7506 87.1605 77.4496 81.2329 93.5742C81.1986 93.6696 81.1546 93.7087 81.1057 93.7943C74.1726 126.983 68.0714 168.822 67.1271 209.188H63.7241C64.7076 167.354 71.1832 123.966 78.4122 90.0904C77.9107 81.7309 74.9774 68.8259 73.3897 61.8315Z" fill="#2A6117"/>
</svg>
