<svg width="305" height="291" viewBox="0 0 305 291" fill="none" xmlns="http://www.w3.org/2000/svg">
<path d="M228.784 275.385C237.872 253.02 217.517 258.276 207.021 247.547C193.167 233.385 225.339 224.915 233.877 222.873C248.574 219.314 273.429 212.08 281.925 198.236C300.273 167.989 227.981 187.74 247.116 164.71C260.034 149.138 282.109 143.256 296.03 128.463C302.262 121.842 309.153 110.469 301.574 101.488C295.34 93.9642 280.751 98.9487 276.052 89.623C269.309 76.6464 289.15 56.2291 290.578 43.7118C292.438 27.6068 288.23 8.7527 270.656 3.36715C260.293 0.173927 254.73 7.31333 245.444 9.08534C236.571 10.8678 234.331 0.767834 226.487 0.149531C220.791 -0.246671 211.182 6.53856 208.127 10.9801C203.061 18.2995 201.811 31.5746 192.143 35.0107C181.081 38.9134 177.196 24.3358 167.275 22.8277C128.097 17.3939 143.023 82.9696 135.86 102.287C131.764 113.146 124.899 97.9071 121.448 93.8857C114.04 85.2441 106.65 82.294 97.7942 89.768C80.8154 104.149 86.6422 130.66 91.8456 149.874C93.5133 155.608 113.309 198.125 99.955 198.287C89.1682 199.1 82.661 176.087 70.2539 178.532C49.386 182.771 59.7665 224.379 62.3845 237.25C64.7388 249.195 67.4951 255.876 60.9171 266.254C54.0975 276.96 45.4572 287.285 47.1871 301.222C48.5456 312.806 58.0455 323.174 55.209 335.321C52.3724 347.468 38.9949 355.663 30.5593 363.567C21.9602 371.549 -10.5058 386.707 4.6564 400.233C17.7038 387.342 30.9928 374.123 44.46 361.661C55.8165 351.071 62.4093 341.53 79.5979 343.726C92.4912 345.477 108.841 337.525 117.675 328.795C124.888 321.697 121.203 309.133 128.843 302.884C143.882 290.713 166.395 300.242 183.639 300.932C201.545 301.723 221.749 292.53 228.784 275.385Z" fill="#2A6117"/>
</svg>
