<svg width="310" height="405" viewBox="0 0 310 405" fill="none" xmlns="http://www.w3.org/2000/svg">
<path d="M182.657 245.066C184.303 225.241 169.815 234.973 159.108 229.598C144.975 222.504 167.833 206.997 173.95 203.04C184.466 196.196 201.96 183.682 205.201 170.611C212.115 142.113 160.924 177.514 170.186 154.377C176.433 138.739 192.101 128.044 199.311 112.728C202.54 105.874 205.133 95.1598 197.104 90.3253C190.467 86.2431 180.377 94.1595 174.494 88.2563C166.15 80.0989 176.588 58.7861 174.678 48.7089C172.238 35.7371 164.441 22.3289 149.542 23.0576C140.753 23.4736 138.167 30.5434 131.407 34.4991C124.969 38.3481 120.803 31.1614 114.583 32.8672C110.08 34.1467 104.277 42.0693 102.982 46.3545C100.825 53.4249 103.055 64.0385 96.3999 69.3877C88.7786 75.4856 82.2607 65.2945 74.2194 66.8905C42.5896 73.5968 69.9362 120.15 69.0459 137.083C68.4915 146.621 59.5079 136.748 55.8681 134.599C48.0533 129.979 41.6232 129.755 36.5699 138.001C26.8934 153.848 37.7886 172.727 46.4438 186.137C49.1155 190.106 74.6773 217.473 64.381 221.316C56.2286 224.948 45.6493 208.964 36.6362 214.309C21.5068 223.397 39.5626 252.682 44.6891 261.907C49.3882 270.488 53.1308 274.887 50.5394 284.744C47.8403 294.922 43.6403 305.311 48.336 315.607C52.1777 324.187 62.0274 329.56 62.7578 339.742C63.4883 349.925 55.1091 359.987 50.4841 368.448C45.7518 377.015 24.2763 397.776 39.2688 404.014C46.2616 390.412 53.3622 376.49 60.7833 363.104C67.0215 351.752 69.826 342.539 83.6576 339.451C94.058 337.215 104.796 326.513 109.53 317.303C113.403 309.807 107.525 301.117 111.933 294.157C120.64 280.558 140.358 281.658 153.871 277.391C167.919 273.017 181.341 260.283 182.657 245.066Z" fill="#459C27"/>
</svg>
