<svg width="1920" height="265" viewBox="0 0 1920 265" fill="none" xmlns="http://www.w3.org/2000/svg">
<path fill-rule="evenodd" clip-rule="evenodd" d="M1239 70.7581C1570.88 22.4267 1777 82.8781 1777 82.8781V222.418H0.00012207V112.66C0.00012207 112.66 201.941 48.4025 519.746 36.0901C798.07 25.3096 871.65 124.251 1239 70.7581Z" fill="#5FB641"/>
<path fill-rule="evenodd" clip-rule="evenodd" d="M456.895 97.1617C730.651 101.085 944.195 190.68 1290.59 92.8494C1647.16 -7.85265 1920 0.150538 1920 0.150538L1918.88 264.008H0V173.253C0 173.253 215.163 93.6985 456.895 97.1617Z" fill="#72C954"/>
<path fill-rule="evenodd" clip-rule="evenodd" d="M472.641 193.512C716.838 197.018 874.055 276.74 1183.05 189.325C1426.22 120.532 1673.76 150.895 1777 169.008V264.086H65.0226V261.502C65.0226 261.502 257.01 190.417 472.641 193.512Z" fill="#5FB641"/>
<path fill-rule="evenodd" clip-rule="evenodd" d="M1216.21 97.7728C1534.28 7.7895 1776.66 14.9407 1776.66 14.9407C1776.66 14.9407 1555.7 10.3222 1233.6 111.321C1026.43 176.281 845.982 145.628 675.227 117.988C836.91 137.439 996.642 159.888 1216.21 97.7728Z" fill="#7AD15C"/>
<path fill-rule="evenodd" clip-rule="evenodd" d="M65.022 185.093V169.614C65.022 169.614 98.9851 157.037 154.381 142.692C97.8915 164.562 65.022 185.093 65.022 185.093Z" fill="#F9C41C"/>
<path fill-rule="evenodd" clip-rule="evenodd" d="M1257.14 203.263C1410.3 200.005 1518.05 169.581 1623.88 115.88C1759.51 47.0553 1920 88.081 1920 88.081V264.008H1065C1065 264.008 1103.97 206.52 1257.14 203.263Z" fill="#459C27"/>
<path fill-rule="evenodd" clip-rule="evenodd" d="M242.828 153.574C330.515 175.683 368.705 164.584 577.232 183.666C815.791 205.495 908 264.008 908 264.008H0V134.91C0 134.912 155.142 131.465 242.828 153.574Z" fill="#2E7217"/>
</svg>
