<svg width="203" height="168" viewBox="0 0 203 168" fill="none" xmlns="http://www.w3.org/2000/svg">
<path d="M125.548 63.9286C126.421 63.5714 127.421 63.9898 127.779 64.8656C140.813 96.8138 149.351 123.13 155.462 150.303C156.785 156.182 157.999 162.073 159.109 168.189H155.662C148.759 130.514 138.127 99.2431 124.611 66.1108C124.253 65.235 124.672 64.2858 125.548 63.9286Z" fill="#8BDF6F"/>
<path fill-rule="evenodd" clip-rule="evenodd" d="M117.903 34.7548C133.379 29.8986 127.319 68.435 127.319 68.435C127.319 68.435 100.613 40.181 117.903 34.7548Z" fill="#8BDF6F"/>
<path fill-rule="evenodd" clip-rule="evenodd" d="M153.428 51.9973C168.828 61.4601 135.856 89.758 135.856 89.758C135.856 89.758 138.442 42.7864 153.428 51.9973Z" fill="#8BDF6F"/>
<path fill-rule="evenodd" clip-rule="evenodd" d="M174.832 78.6757C192.918 95.2675 144.7 116.884 144.7 116.884C144.7 116.884 156.873 62.1989 174.832 78.6757Z" fill="#8BDF6F"/>
<path fill-rule="evenodd" clip-rule="evenodd" d="M192.978 115.4C204.165 134.125 153.315 146.68 153.315 146.68C153.315 146.68 182.038 97.0855 192.978 115.4Z" fill="#8BDF6F"/>
<path fill-rule="evenodd" clip-rule="evenodd" d="M200.615 156.634C202.968 161.37 202.276 165.742 199.783 168.189H168.115C177.318 155.712 192.344 139.988 200.615 156.634Z" fill="#8BDF6F"/>
<path fill-rule="evenodd" clip-rule="evenodd" d="M135.176 89.6308C135.176 89.6308 85.9622 79.0792 97.8149 61.2937C109.269 44.105 135.176 89.6308 135.176 89.6308Z" fill="#8BDF6F"/>
<path fill-rule="evenodd" clip-rule="evenodd" d="M145.053 117.481C145.053 117.481 88.683 124.662 96.8515 99.7713C104.577 76.234 145.053 117.481 145.053 117.481Z" fill="#8BDF6F"/>
<path fill-rule="evenodd" clip-rule="evenodd" d="M152.758 146.948C152.758 146.948 97.1761 154.527 106.348 131.157C114.222 111.091 152.758 146.948 152.758 146.948Z" fill="#8BDF6F"/>
<path fill-rule="evenodd" clip-rule="evenodd" d="M136.416 168.189H111.783C114.937 161.583 125.877 163.541 136.416 168.189Z" fill="#8BDF6F"/>
<path fill-rule="evenodd" clip-rule="evenodd" d="M42.9707 168.189H13.2741C13.279 167.7 13.3621 166.745 13.5309 165.945C15.4831 156.646 31.8079 162.807 42.9707 168.189Z" fill="#358B17"/>
<path fill-rule="evenodd" clip-rule="evenodd" d="M0.671089 36.8999C4.77122 28.2664 16.9126 39.8626 22.9062 46.4264C20.3546 40.5182 17.671 35.0064 14.8625 29.8982C14.6741 29.5581 14.6179 29.1814 14.6717 28.8218C8.14721 22.4683 -7.7885 5.3114 5.5467 0.97874C16.9493 -2.72518 17.5658 18.9553 17.3627 27.6842C17.5633 27.8285 17.737 28.0169 17.8642 28.2468C20.7314 33.4602 23.4664 39.0846 26.0693 45.1102C26.3922 36.2761 28.117 17.2549 37.0683 20.6653C50.1075 25.6316 32.5596 43.312 27.3684 48.1829C30.0936 54.7541 32.6672 61.7827 35.0842 69.2591C38.2865 60.9779 48.7106 36.2247 56.1255 44.068C65.1502 53.6141 41.9684 67.505 35.6494 71.0254C37.719 77.5476 39.6687 84.405 41.5011 91.5878C46.1565 83.1035 61.2213 57.3595 67.9807 66.4163C76.0831 77.2736 49.3711 90.1101 41.9586 93.4006C43.8056 100.777 45.5303 108.49 47.1277 116.537C52.0963 108.591 68.1372 84.8307 75.7479 96.1064C83.6619 107.835 55.2448 116.431 47.5167 118.516C48.461 123.36 49.3589 128.321 50.2127 133.4C50.7851 136.808 51.3208 140.177 51.8223 143.499C56.7028 136.832 73.2526 115.561 80.7997 122.834C92.7869 134.388 59.8538 143.122 52.0548 145.003C53.2608 153.104 54.2639 160.847 55.103 168.186H51.6584C50.8438 161.091 49.8701 153.581 48.7081 145.752C41.7384 147.024 9.15019 152.213 9.86698 137.302C10.5666 122.768 41.3837 140.363 48.5369 144.644C48.0084 141.133 47.4433 137.571 46.8366 133.96C45.9878 128.903 45.0924 123.969 44.1554 119.149C36.3931 120.189 7.83897 123.14 9.11353 110.044C10.3587 97.2244 35.9625 112.419 43.8129 117.4C42.2179 109.351 40.4956 101.638 38.6535 94.2715C31.7474 95.211 0.99157 98.6825 5.13818 85.2515C8.19859 75.3336 31.8061 89.0117 38.3404 93.0263C36.4469 85.5573 34.4262 78.4455 32.2783 71.6982C26.429 71.6297 -3.01809 70.7587 0.991516 60.0604C4.89104 49.6581 26.3018 66.0493 31.9235 70.5875C29.6019 63.3827 27.1335 56.5987 24.5233 50.2453C17.9229 49.6606 -4.09445 46.9328 0.671089 36.8999Z" fill="#358B17"/>
<path fill-rule="evenodd" clip-rule="evenodd" d="M85.0357 154.557C88.5463 160.971 85.0211 165.497 79.2623 168.189H58.6098C65.8731 159.626 79.8469 145.077 85.0357 154.557Z" fill="#358B17"/>
</svg>
