<svg width="226" height="229" viewBox="0 0 226 229" fill="none" xmlns="http://www.w3.org/2000/svg">
<path d="M194.912 237.629C190.757 234.632 186.297 233.562 181.877 231.19C176.759 228.402 177.428 225.477 176.132 220.432C173.315 209.665 158.931 213.721 150.503 211.63C144.736 210.157 138.979 207.88 137.232 201.483C135.849 196.006 140.123 193.181 140.095 187.92C139.881 178.763 125.134 179.98 118.974 180.002C110.682 180.075 102.508 182.002 94.0982 182.14C87.0246 182.184 79.8331 182.292 72.6812 181.1C62.3266 179.426 48.6034 173.685 44.5487 162.639C42.8503 157.974 43.1072 152.397 45.7805 148.372C48.1196 144.85 53.5827 142.491 52.8275 137.309C51.2972 128.555 40.9727 124.467 33.7722 121.543C25.1963 118.094 16.5522 112.603 10.2468 105.51C3.15559 97.5689 -2.76454 82.1095 3.79075 72.9161C6.69987 68.7614 14.2451 68.4587 15.9656 63.837C18.4432 56.7212 8.64059 48.349 6.77558 42.0171C5.20511 36.483 5.77559 33.9314 10.5999 32.0837C20.7888 28.2516 12.7257 17.4858 19.0543 11.4548C22.9654 7.70975 29.5086 6.99743 34.5582 7.74433C37.9475 8.28298 41.1401 9.56915 44.3433 8.1313C51.2899 5.11896 53.0009 -0.616784 61.5085 0.790947C67.8646 1.94018 73.6698 5.95007 78.178 10.6717C83.9827 16.6006 91.0739 24.5418 98.5033 16.6276C111.986 2.19374 127.868 18.9026 134.211 32.371C139.71 44.0643 144.98 102.253 168.74 84.4181C184.816 72.3989 193.03 108.666 192.222 119.023C191.61 126.713 185.633 144.064 192.862 150.331C197.38 154.248 200.79 149.338 205.418 150.157C209.858 150.918 213.374 156.344 214.237 160.348C216.141 169.217 211.728 177.555 210.429 185.942C209.868 189.608 209.257 195.38 210.455 198.88C212.084 203.422 217.762 206.383 220.168 210.659C222.761 214.992 221.404 218.615 222.051 223.057C222.708 228.613 226.017 233.672 225.947 239.307C225.937 242.031 225.632 243.957 223.48 245.618C222.438 246.509 220.689 245.87 219.815 246.51C218.94 247.149 219.294 248.874 218.301 249.579C210.784 255.143 200.924 242.005 194.912 237.629Z" fill="#338317"/>
</svg>
