<svg width="84" height="106" viewBox="0 0 84 106" fill="none" xmlns="http://www.w3.org/2000/svg">
<path d="M23.3883 23.406C24.0789 23.1235 24.8702 23.4544 25.1526 24.147C35.4604 49.4123 42.2124 70.224 47.0451 91.7127C48.0918 96.3618 49.0514 101.021 49.9297 105.857H47.2038C41.7442 76.0629 33.3362 51.3335 22.6473 25.1317C22.3648 24.4391 22.6956 23.6885 23.3883 23.406Z" fill="#BEE7B0"/>
<path fill-rule="evenodd" clip-rule="evenodd" d="M17.3441 0.334702C29.5826 -3.50569 24.7905 26.9698 24.7905 26.9698C24.7905 26.9698 3.6701 4.62588 17.3441 0.334702Z" fill="#BEE7B0"/>
<path fill-rule="evenodd" clip-rule="evenodd" d="M45.4395 13.9704C57.6181 21.4539 31.543 43.8325 31.543 43.8325C31.543 43.8325 33.5879 6.68632 45.4395 13.9704Z" fill="#BEE7B0"/>
<path fill-rule="evenodd" clip-rule="evenodd" d="M62.3644 35.0684C76.6673 48.1895 38.5352 65.2845 38.5352 65.2845C38.5352 65.2845 48.1621 22.0381 62.3644 35.0684Z" fill="#BEE7B0"/>
<path fill-rule="evenodd" clip-rule="evenodd" d="M76.7166 64.1104C85.5638 78.9186 45.35 88.8475 45.35 88.8475C45.35 88.8475 68.0648 49.6272 76.7166 64.1104Z" fill="#BEE7B0"/>
<path fill-rule="evenodd" clip-rule="evenodd" d="M82.7551 96.7195C84.6162 100.465 84.0687 103.922 82.0973 105.857H57.0532C64.3313 95.9901 76.214 83.5558 82.7551 96.7195Z" fill="#BEE7B0"/>
<path fill-rule="evenodd" clip-rule="evenodd" d="M31.0039 43.732C31.0039 43.732 -7.91528 35.3877 1.45806 21.3224C10.516 7.72927 31.0039 43.732 31.0039 43.732Z" fill="#BEE7B0"/>
<path fill-rule="evenodd" clip-rule="evenodd" d="M38.8164 65.7567C38.8164 65.7567 -5.76202 71.4351 0.697811 51.7514C6.80746 33.1376 38.8164 65.7567 38.8164 65.7567Z" fill="#BEE7B0"/>
<path fill-rule="evenodd" clip-rule="evenodd" d="M44.9102 89.0599C44.9102 89.0599 0.954926 95.0536 8.20793 76.5715C14.4356 60.7031 44.9102 89.0599 44.9102 89.0599Z" fill="#BEE7B0"/>
<path fill-rule="evenodd" clip-rule="evenodd" d="M31.9844 105.857H12.5044C14.9982 100.634 23.6499 102.181 31.9844 105.857Z" fill="#BEE7B0"/>
</svg>
