<svg width="290" height="265" viewBox="0 0 290 265" fill="none" xmlns="http://www.w3.org/2000/svg">
<path d="M68.816 276.087C72.9648 273.173 77.4623 272.193 81.8929 269.91C87.0216 267.224 86.2837 264.284 87.4928 259.262C90.1259 248.547 104.785 252.897 113.283 250.976C119.097 249.62 124.883 247.458 126.522 241.094C127.812 235.642 123.422 232.729 123.343 227.466C123.371 218.309 138.339 219.825 144.582 219.972C152.986 220.213 161.309 222.308 169.834 222.616C177.003 222.803 184.292 223.058 191.515 222.01C201.973 220.546 215.761 215.081 219.643 204.111C221.268 199.479 220.893 193.893 218.102 189.812C215.659 186.24 210.075 183.77 210.733 178.601C212.104 169.873 222.482 165.992 229.719 163.213C238.338 159.936 246.984 154.619 253.228 147.65C260.251 139.848 265.932 124.501 259.1 115.17C256.067 110.954 248.415 110.498 246.576 105.839C243.92 98.6695 253.681 90.4921 255.441 84.1948C256.918 78.6898 256.288 76.1253 251.361 74.1787C240.957 70.1379 248.907 59.5303 242.37 53.3678C238.33 49.5414 231.684 48.6959 226.583 49.3406C223.16 49.8108 219.951 51.0328 216.675 49.5292C209.574 46.3743 207.722 40.6009 199.13 41.8366C192.713 42.8574 186.913 46.7515 182.442 51.384C176.681 57.1981 169.659 64.9994 161.968 56.9304C148.008 42.2154 132.258 58.6104 126.107 71.9569C120.776 83.5445 116.631 141.656 92.1876 123.33C75.6502 110.978 68.0725 147.096 69.1045 157.475C69.8818 165.182 76.2959 182.663 69.0992 188.786C64.6012 192.613 61.0445 187.632 56.3725 188.357C51.8885 189.029 48.4374 194.386 47.6446 198.374C45.8979 207.209 50.5415 215.641 52.0302 224.059C52.674 227.738 53.4114 233.525 52.2697 237.003C50.7117 241.514 45.019 244.361 42.669 248.59C40.131 252.874 41.5802 256.526 41.0156 260.956C40.4643 266.502 37.2146 271.497 37.4016 277.136C37.4683 279.862 37.817 281.795 40.0318 283.5C41.1057 284.413 42.8644 283.809 43.7638 284.467C44.6631 285.124 44.3407 286.843 45.3608 287.568C53.0926 293.287 62.8144 280.343 68.816 276.087Z" fill="#FBEE82"/>
<path d="M150.832 172.232C165.591 186.055 186.431 188.949 202.328 171.975C218.224 155.001 213.972 134.396 199.212 120.573C184.452 106.75 163.612 103.856 147.716 120.83C131.82 137.804 136.072 158.409 150.832 172.232ZM104.806 230.253L263.411 184.852L255.293 177.249L96.6876 222.65L104.806 230.253ZM153.596 169.28C148.43 164.442 150.961 154.344 166.166 138.109C181.371 121.873 191.282 118.686 196.448 123.525C201.613 128.363 200.88 136.542 183.878 154.696C168.672 170.932 158.762 174.118 153.596 169.28ZM160.886 286.929C175.646 300.752 196.486 303.646 212.382 286.672C228.279 269.698 224.027 249.093 209.267 235.27C194.507 221.447 173.667 218.553 157.771 235.527C141.874 252.501 146.126 273.106 160.886 286.929ZM163.651 283.977C158.485 279.139 161.015 269.042 176.22 252.806C191.426 236.57 201.336 233.384 206.502 238.222C211.668 243.06 209.138 253.158 193.932 269.393C178.727 285.629 168.817 288.816 163.651 283.977Z" fill="#F5E55C"/>
</svg>
