<svg width="150" height="122" viewBox="0 0 150 122" fill="none" xmlns="http://www.w3.org/2000/svg">
<path d="M130.098 -13.1908C127.336 -11.6887 124.496 -11.4024 121.605 -10.309C118.255 -9.0167 118.502 -7.15288 117.402 -4.14434C115.023 2.27121 106.298 -1.44443 100.926 -0.86166C97.2488 -0.436685 93.5309 0.486509 92.0714 4.29195C90.8916 7.55954 93.3901 9.66469 93.0673 12.9132C92.4028 18.5531 83.2874 16.5611 79.4517 16.0292C74.2908 15.2868 69.3107 13.4084 64.0802 12.6161C59.6765 11.9939 55.2032 11.3219 50.679 11.4571C44.132 11.6201 35.2505 14.0133 32.0838 20.4978C30.7551 23.2371 30.5915 26.7049 32.0231 29.417C33.2757 31.79 36.5419 33.7065 35.7707 36.845C34.3095 42.1253 27.641 43.7831 22.986 44.9845C17.4439 46.3942 11.7408 49.0595 7.40146 52.912C2.52345 57.2224 -2.06139 66.2767 1.48844 72.5086C3.05945 75.3204 7.74188 76.1421 8.54537 79.1426C9.67575 83.7478 3.08375 88.0964 1.55458 91.8519C0.255156 95.1393 0.462437 96.7639 3.3603 98.3114C9.4847 101.536 3.83737 107.51 7.42947 111.769C9.64839 114.412 13.6829 115.402 16.8717 115.366C19.0142 115.318 21.0775 114.792 22.9893 115.95C27.1417 118.395 27.8746 122.083 33.2557 121.929C37.2817 121.753 41.1305 119.764 44.2127 117.226C48.1726 114.051 53.0506 109.74 57.2191 115.255C64.7801 125.308 75.6426 116.319 80.3754 108.531C84.4792 101.768 91.139 66.2572 104.904 79.2756C114.221 88.0544 121.442 66.3363 121.539 59.8688C121.605 55.0654 118.888 43.8415 123.755 40.5775C126.797 38.5375 128.636 41.8578 131.566 41.741C134.376 41.6441 136.881 38.5871 137.651 36.1861C139.352 30.8661 137.086 25.343 136.764 20.0509C136.627 17.7388 136.582 14.1212 137.531 12.0593C138.81 9.38974 142.518 8.038 144.265 5.59812C146.132 3.13841 145.497 0.785914 146.158 -1.90416C146.889 -5.28179 149.244 -8.12967 149.528 -11.6174C149.679 -13.3014 149.601 -14.5173 148.357 -15.7243C147.76 -16.3627 146.633 -16.1147 146.126 -16.5835C145.618 -17.0524 145.938 -18.0885 145.361 -18.6073C141.001 -22.6775 134.097 -15.3893 130.098 -13.1908Z" fill="#CEF3C1"/>
</svg>
