<svg width="555" height="448" viewBox="0 0 555 448" fill="none" xmlns="http://www.w3.org/2000/svg">
<path d="M392.191 411.17C412.186 376.833 378.585 386.983 364.612 372.208C346.167 352.704 399.316 336.419 413.371 332.404C437.572 325.427 478.805 311.818 495.736 290.236C532.389 243.106 412.782 280.767 448.882 244.293C473.259 219.633 509.746 208.355 535.52 184.739C547.058 174.171 560.826 156.45 551.044 143.944C543.031 133.454 518.645 142.541 513.517 129.192C506.059 110.641 542.627 77.9767 548.015 59.1766C554.983 34.9854 553.012 7.39413 526.477 1.38233C510.834 -2.18876 500.228 9.07633 485.055 12.775C470.535 16.4421 469.502 1.65994 457.213 1.63501C448.276 1.69552 431.339 12.8953 425.385 19.8571C415.524 31.3334 410.229 51.2414 394.034 57.4614C375.512 64.5353 372.986 43.2743 357.624 42.1617C296.83 38.5448 304.147 134.476 287.966 164.056C278.759 180.692 271.671 158.786 267.199 153.193C257.603 141.172 246.616 137.624 230.704 149.763C200.182 173.113 202.811 211.92 206.272 239.934C207.487 248.28 228.283 309.324 207.058 311.09C189.743 313.532 185.162 280.01 164.87 285.068C130.709 293.762 136.795 354.527 137.737 373.392C138.492 390.907 141.198 400.541 128.174 416.743C114.684 433.462 98.4021 449.822 97.6692 470.375C96.9344 487.467 109.418 501.82 101.887 520.229C94.3574 538.638 71.0914 552.368 55.7379 565.098C40.1052 577.966 -15.1786 604.241 5.49944 622.649C29.4131 601.966 53.792 580.766 78.2646 560.674C98.922 543.609 111.761 528.652 138.48 529.958C158.496 531.093 186.417 517.386 202.608 503.379C215.821 491.988 213.11 473.703 226.789 463.525C253.683 443.687 287.018 455.304 314.201 454.363C342.409 453.496 376.752 437.501 392.191 411.17Z" fill="#4EAD2D"/>
</svg>
