<svg width="806" height="575" viewBox="0 0 806 575" fill="none" xmlns="http://www.w3.org/2000/svg">
<path d="M662.398 161.952C645.819 151.756 631.759 137.895 621.485 121.363C576.194 48.504 495.434 0 403.347 0C316.529 0 239.784 43.1124 193.333 109.101C182.72 124.176 169.18 136.975 153.638 146.889C82.9961 191.937 36.5413 263.537 38.1115 353.902C40.4878 490.626 153.293 576.244 290.004 574.972C315.073 574.737 339.255 570.806 362.035 563.697C405.703 550.071 452.01 547.757 496.941 556.349C511.165 559.07 525.851 560.493 540.873 560.489C669.477 560.472 774.012 480.158 773.268 351.531C772.786 268.283 728.552 202.624 662.398 161.952Z" fill="#7FDB5F"/>
<path d="M376.442 442.212C376.442 442.212 421.461 287.462 480.041 199.587C538.62 111.708 601.659 85.1027 601.659 85.1027C601.659 85.1027 572.098 124.31 553.596 177.332C535.094 230.354 530.727 287.017 501.528 338.322C457.357 415.926 376.442 442.212 376.442 442.212Z" fill="#67C647"/>
<path d="M584.861 202.342C584.861 202.342 542.025 229.384 516.692 267.155C491.355 304.926 484.017 356.731 462.874 382.862C462.874 382.862 498.82 362.37 513.162 340.371C527.503 318.372 528.964 289.113 537.491 267.966C544.893 249.607 563.311 224.392 584.861 202.342Z" fill="#4EAD2D"/>
<path d="M1.00286 291.729C-12.3269 352.276 111.634 381.972 111.432 393.826C111.231 405.68 47.7263 397.441 60.3844 429.619C72.1188 459.433 171.145 471.594 243.714 438.059C245.813 437.089 297.579 348.022 260.176 295.554C222.773 243.09 211.08 332.968 193.615 330.562C176.15 328.156 214.922 217.917 179.374 194.137C142.542 169.497 130.761 248.675 113.506 236.435C97.1577 224.841 89.0801 112.25 43.7883 126.619C42.1467 127.14 40.459 127.825 38.7167 128.69L38.6957 128.698V128.702C37.772 129.16 36.8358 129.668 35.887 130.226C-16.4329 161.031 82.5055 280.055 59.8218 284.506C37.1423 288.961 7.75801 261.046 1.00286 291.729Z" fill="#009035"/>
<path d="M228.707 442.086C228.707 442.086 276.539 355.996 292.979 296.087C309.42 236.178 299.697 202.917 299.697 202.917C299.697 202.917 293.471 230.791 278.084 261.314C262.697 291.838 241.247 319.317 230.025 352.62C213.047 403.001 228.707 442.086 228.707 442.086Z" fill="#4EAD2D"/>
<path d="M671.129 427.524C677.678 429.355 690.219 430.9 696.76 426.663C702.801 422.754 700.799 413.495 705.769 409.295C710.74 405.092 728.285 408.363 735.25 404.021C743.508 398.869 734.31 387.393 741.955 384.689C749.596 381.98 770.579 384.479 774.82 378.965C779.06 373.456 771.604 370.248 783.044 361.652C792.734 354.375 805.598 344.894 801.253 336.458C796.622 327.471 783.473 333.531 775.437 339.3C765.084 346.733 763.925 333.325 755.176 334.988C747.266 336.491 737.467 360.086 730.829 362.618C724.192 365.146 716.95 357.629 707.037 362.757C697.125 367.884 700.584 384.533 694.623 389.056C688.661 393.578 680.411 387.011 671.901 393.419C663.391 399.831 671.129 427.524 671.129 427.524Z" fill="#4EAD2D"/>
<path d="M652.045 441.1C667.227 436.636 693.865 424.219 701.561 407.796C708.66 392.638 693.294 376.836 697.921 362.421C702.547 348.001 741.197 332.821 749.582 315.664C759.527 295.315 727.234 284.019 738.977 269.255C750.719 254.491 795.193 233.541 796.767 217.438C798.341 201.334 779.675 204.211 791.653 173.141C801.797 146.834 815.492 112.263 796.523 100.984C776.308 88.9617 757.836 117.129 749.095 138.427C737.83 165.86 719.018 140.838 703.803 154.905C690.049 167.62 699.802 226.264 689.822 239.441C679.847 252.614 656.29 246.714 643.057 269.053C629.819 291.393 657.172 319.968 650.983 336.256C644.795 352.54 620.423 349.748 611.535 372.881C602.643 396.005 652.045 441.1 652.045 441.1Z" fill="#009035"/>
<path d="M267.246 444.125V442.388C256.782 428.488 253.294 411.114 253.294 390.264V388.527H284.686L298.637 345.09H253.294V200.88H207.95L96.3347 346.827V388.527H183.534V390.264C183.534 411.114 180.046 428.488 169.582 442.388V444.125H267.246ZM183.534 250.572V345.09H110.984L183.534 250.572Z" fill="#FFE401"/>
<path d="M707.977 444.125V442.388C697.513 428.488 694.025 411.114 694.025 390.264V388.527H725.417L739.369 345.09H694.025V200.88H648.681L537.066 346.827V388.527H624.265V390.264C624.265 411.114 620.777 428.488 610.313 442.388V444.125H707.977ZM624.265 250.572V345.09H551.715L624.265 250.572Z" fill="#FFE401"/>
<path d="M417.852 449.745C472.053 449.745 521.01 400.94 521.01 322.503C521.01 244.066 472.053 195.261 417.852 195.261C363.65 195.261 314.693 244.066 314.693 322.503C314.693 400.94 363.65 449.745 417.852 449.745ZM417.852 441.03C396.521 441.03 386.38 396.408 386.38 322.503C386.38 248.598 396.521 203.976 417.852 203.976C439.183 203.976 449.324 248.598 449.324 322.503C449.324 396.408 439.183 441.03 417.852 441.03Z" fill="#FFE401"/>
<path d="M217.76 135.604L209.212 133.248L213.708 116.889L218.935 118.329L217.76 135.604Z" fill="white"/>
<path d="M230.852 112.698C230.449 119.811 227.518 126.29 223.064 126.643C218.882 126.975 213.286 121.516 212.093 114.046C210.838 106.181 213.827 101.385 219.991 100.987C226.54 100.567 231.293 104.9 230.852 112.698Z" fill="white"/>
<path d="M219.336 112.437C220.709 109.842 223.434 109.166 225.499 108.931C227.561 108.7 230.907 109.62 231.318 108.133C231.725 106.647 230.881 101.129 222.443 99.6932C214.802 98.3914 210.024 102.679 208.122 108.15C206.455 112.941 209.264 118.446 213.08 117.703C216.888 116.964 217.669 115.578 219.336 112.437Z" fill="#00782C"/>
<path d="M218.937 114.726C219.122 115.99 218.417 117.14 217.363 117.292C216.309 117.443 215.306 116.544 215.121 115.28C214.936 114.016 215.642 112.866 216.695 112.715C217.749 112.559 218.753 113.462 218.937 114.726Z" fill="white"/>
<path d="M222.097 92.4161C223.365 95.6746 221.594 100.831 217.551 102.402C213.508 103.972 208.721 101.364 207.453 98.1101C206.186 94.8516 209.162 92.7982 213.205 91.2277C217.252 89.6531 220.834 89.1576 222.097 92.4161Z" fill="#00782C"/>
<path d="M258.747 174.95C258.672 176.503 256.253 178.292 252.945 178.532C249.893 178.754 247.878 177.02 247.865 175.449C247.827 171.939 258.865 172.548 258.747 174.95Z" fill="white"/>
<path d="M262.305 192.137L261.688 192.023L217.618 183.869L209.864 182.432L207.932 199.128L215.808 199.502L254.039 201.312L238.568 238.491L237.829 240.263L241.053 241.846L242.002 240.179L265.467 198.948C265.71 198.515 265.899 198.02 265.991 197.507C266.462 195.005 264.808 192.603 262.305 192.137Z" fill="white"/>
<path d="M266.576 194.442L266.018 194.337L217.124 185.334L209.374 183.906L207.359 200.484L215.226 200.955L260.846 203.688L263.348 250.79L263.449 252.705L267.059 252.717L267.172 250.802L270.258 199.149C270.401 196.907 268.848 194.862 266.576 194.442Z" fill="white"/>
<path d="M223.415 179.976C229.003 188.987 262.221 185.867 267.007 192.481C273.392 201.303 247.157 235.409 247.157 235.409L238.424 230.533C238.424 230.533 251.8 206.414 251.263 204.679C250.579 202.483 214.124 207.69 204.262 199.363C196.604 192.897 200.387 179.976 200.387 179.976H223.415Z" fill="#94EC75"/>
<path d="M220.813 179.976C225.687 191.045 265.307 186.955 270.929 196.605C275.463 204.39 270.807 243.908 270.807 243.908L260.324 243.622C260.324 243.622 260.383 209.979 258.33 207.694C256.822 206.015 214.755 209.895 204.259 202.383C195.27 195.95 200.384 179.98 200.384 179.98H220.813V179.976Z" fill="#BAFEA3"/>
<path d="M218.939 139.186L224.896 173.144L222.062 170.713L246.925 172.561L249.184 172.728L248.99 177.112L246.728 177.083L221.798 176.755C220.425 176.739 219.283 175.769 218.997 174.484L218.964 174.324L211.487 140.668L210.664 136.956L218.284 135.44L218.939 139.186Z" fill="white"/>
<path d="M207.206 139.979C206.618 148.109 211.87 169.222 220.162 176.486C225.082 180.799 241.473 177.902 241.473 177.902L242.27 171.502C242.27 171.502 230.011 173.35 227.211 166.224C224.411 159.098 222.639 139.639 218.495 136.67C214.842 134.054 207.47 136.326 207.206 139.979Z" fill="#009035"/>
<path d="M211.167 132.459C211.167 132.459 215.685 136.687 220.425 134.122C220.425 134.122 221.462 151.162 223.317 158.162C225.173 165.162 230.698 183.575 230.698 183.575L196.893 182.475C196.494 166.929 202.926 149.503 211.167 132.459Z" fill="#DBC6AF"/>
<path d="M209.603 131.014C209.603 131.014 192.659 154.655 195.111 180.539C195.111 180.539 193.557 185.557 211.913 185.464C230.268 185.372 231.397 182.873 231.397 182.873C226.044 168.853 222.047 153.047 220.423 134.122C220.423 134.122 213.558 134.151 209.603 131.014Z" fill="#4EAD2D"/>
<path d="M215.053 144.481C212.58 148.352 210.166 152.4 207.937 156.448C206.824 158.481 205.75 160.526 204.763 162.587C203.781 164.641 202.865 166.728 202.194 168.748C202.026 169.256 201.887 169.739 201.757 170.234L201.371 171.876C201.136 172.993 200.905 174.114 200.703 175.256C200.292 177.532 199.926 179.842 199.591 182.16C198.931 186.791 198.365 191.482 197.89 196.138L197.659 198.393L193.272 198.091L193.373 195.828C193.587 191.053 193.885 186.321 194.288 181.555C194.494 179.174 194.733 176.789 195.027 174.391C195.174 173.194 195.346 171.985 195.531 170.776L195.85 168.945C195.98 168.29 196.14 167.626 196.307 167.001C197 164.498 197.886 162.197 198.827 159.934C199.771 157.674 200.783 155.478 201.833 153.303C203.944 148.953 206.165 144.75 208.567 140.521L210.443 137.216L217.094 141.281L215.053 144.481Z" fill="white"/>
<path d="M207.424 136.406C201.349 141.835 197.428 154.601 194.476 165.22C191.525 175.84 192.822 192.216 192.822 192.216L199.489 192.804C199.489 192.804 200.602 176.243 203.545 169.176C206.488 162.109 218.747 146.895 217.836 141.882C217.03 137.464 210.153 133.966 207.424 136.406Z" fill="#009035"/>
<path d="M193.159 211.453C191.647 211.079 190.539 207.455 191.194 202.878C191.799 198.658 194.049 196.197 195.602 196.449C199.07 197.008 195.497 212.028 193.159 211.453Z" fill="white"/>
<path d="M197.621 205.624C198.297 205.519 198.906 203.747 198.767 201.392C198.641 199.221 197.735 197.843 197.042 197.885C195.505 197.974 196.576 205.784 197.621 205.624Z" fill="white"/>
<path d="M280.963 254.691L278.221 254.204L268.192 250.32V250.399C268.192 250.399 268.07 252.117 265.987 252.444C264.451 252.684 263.456 252.272 263.04 252.041C262.939 251.949 262.86 251.899 262.813 251.899C262.142 251.899 261.6 252.994 261.6 254.347C261.6 254.792 261.659 255.207 261.764 255.564V257.441H281.748V255.539C281.74 255.098 281.404 254.733 280.963 254.691Z" fill="#00782C"/>
<path d="M250.132 252.02L248.272 249.946L242.755 240.708L242.705 240.771C242.705 240.771 241.551 242.052 239.712 241.023C238.356 240.267 237.822 239.331 237.633 238.89C237.612 238.755 237.579 238.663 237.541 238.638C237.012 238.226 235.912 238.755 235.081 239.822C234.808 240.17 234.598 240.536 234.459 240.88L233.305 242.358L249.053 254.662L250.224 253.162C250.493 252.818 250.455 252.323 250.132 252.02Z" fill="#00782C"/>
<path d="M255.975 172.17C255.782 171.515 253.939 171.154 251.626 171.607C249.493 172.027 248.255 173.115 248.389 173.795C248.687 175.311 256.278 173.182 255.975 172.17Z" fill="#EFBC90"/>
<path d="M273.982 151.36C273.176 151.104 272.315 151.554 272.059 152.36L266.064 171.331H248.086C247.242 171.331 246.554 172.016 246.554 172.864C246.554 173.712 247.238 174.397 248.086 174.397H267.21C267.982 174.397 268.621 173.822 268.725 173.074L274.981 153.284C275.237 152.477 274.788 151.617 273.982 151.36Z" fill="#009035"/>
<path d="M266.065 171.336H267.019L272.842 152.679H271.96L266.065 171.336Z" fill="#BAFEA3"/>
<path d="M680.115 407.2C679.423 407.356 678.163 405.873 677.403 403.543C676.702 401.397 677.059 399.726 677.743 399.499C679.267 399.003 681.186 406.961 680.115 407.2Z" fill="white"/>
<path d="M635.371 306.686C642.873 301.307 651.904 304.973 653.105 312.737C654.662 322.815 652.693 330.927 655.196 337.612C659.075 347.976 658 358.154 658 358.154C647.764 344.201 637.185 349.975 631.345 335.958C629.468 331.456 628.183 311.838 635.371 306.686Z" fill="#00782C"/>
<path d="M638.357 340.636H647.312V323.499H641.837L638.357 340.636Z" fill="white"/>
<path d="M631.746 314.824C630.23 321.857 631.351 328.95 635.596 330.486C639.58 331.931 646.49 328.114 649.652 321.16C652.981 313.841 651.356 308.37 645.458 306.329C639.194 304.166 633.404 307.114 631.746 314.824Z" fill="white"/>
<path d="M619.862 486.118L625.883 442.515L632.231 398.957L633.381 391.076L649.969 394.657L647.765 402.312L635.602 444.576L623.649 486.908L623.12 488.776L619.598 488.037L619.862 486.118Z" fill="white"/>
<path d="M656.262 391.076L656.54 399.033L658.147 445.315L678.363 475.457L679.442 477.069L676.641 479.278L675.327 477.854L649.499 449.888C649.033 449.384 648.705 448.746 648.584 448.02L648.474 447.352L640.724 400.616L639.423 392.759L656.262 391.076Z" fill="white"/>
<path d="M653.216 389.606H629.726L619.591 471.367L633.261 473.357L653.216 389.606Z" fill="#94EC75"/>
<path d="M659.666 389.606H637.096C637.096 389.606 641.231 441.864 644.599 448.007C648.637 455.372 664.62 472.463 664.62 472.463L675.477 464.077C675.477 464.077 664.045 447.885 661.279 440.285C658.516 432.684 659.666 389.606 659.666 389.606Z" fill="#BAFEA3"/>
<path d="M637.843 346.976C636.122 351.444 634.212 355.971 632.184 360.338C631.159 362.526 630.101 364.688 628.972 366.779C627.847 368.871 626.65 370.915 625.357 372.717C624.165 374.392 622.435 376.122 620.748 377.794C619.035 379.465 617.246 381.107 615.42 382.715C611.767 385.927 607.985 389.068 604.168 392.087L602.325 393.545L605.033 397.219L606.956 395.871C611.049 392.999 615.029 390.063 618.972 386.981C620.937 385.436 622.88 383.853 624.799 382.186C625.756 381.359 626.705 380.494 627.645 379.599C628.116 379.129 628.573 378.709 629.052 378.193C629.547 377.668 629.992 377.139 630.421 376.609C632.112 374.489 633.511 372.326 634.837 370.139C636.164 367.955 637.386 365.746 638.57 363.521C640.925 359.057 643.087 354.594 645.148 349.953L646.752 346.346L639.262 343.294L637.843 346.976Z" fill="white"/>
<path d="M613.207 383.068L621.813 395.086C621.813 395.086 632.872 382.341 638.418 374.271C645.391 364.121 655.085 348.249 647.058 343.134C636.571 336.449 630.672 365.608 626.671 371.012C623.438 375.375 613.207 383.068 613.207 383.068Z" fill="#009035"/>
<path d="M647.526 339.179C647.526 339.179 642.698 343.411 637.87 340.59C637.87 340.59 636.22 358.234 634.058 365.431C631.896 372.629 626.287 390.937 626.287 390.937L660.646 391.542C661.586 375.434 655.503 357.138 647.526 339.179Z" fill="#76D3F4"/>
<path d="M643.925 352.032C647.535 355.144 651.141 358.453 654.563 361.812C656.276 363.5 657.951 365.217 659.547 366.968C661.138 368.719 662.666 370.517 663.938 372.331C664.253 372.784 664.538 373.225 664.816 373.679L665.689 375.199C666.256 376.24 666.818 377.286 667.36 378.361C668.447 380.502 669.497 382.69 670.517 384.895C672.549 389.304 674.51 393.797 676.365 398.286L677.264 400.456L681.533 398.848L680.761 396.631C679.128 391.949 677.423 387.33 675.605 382.715C674.69 380.41 673.745 378.109 672.742 375.812C672.242 374.665 671.709 373.515 671.163 372.369L670.299 370.643C669.971 370.03 669.618 369.417 669.266 368.845C667.83 366.561 666.268 364.537 664.66 362.568C663.052 360.603 661.39 358.717 659.698 356.87C656.301 353.174 652.846 349.655 649.198 346.162L646.347 343.437L640.944 349.458L643.925 352.032Z" fill="white"/>
<path d="M648.742 337.121C648.742 337.121 665.519 362.219 662.105 388.989C662.105 388.989 663.545 394.246 644.51 393.528C625.475 392.81 624.383 390.181 624.383 390.181C630.408 375.816 635.089 359.557 637.415 339.981C637.415 339.981 644.531 340.241 648.742 337.121Z" fill="#4EAD2D"/>
<path d="M665.766 390.622L680.104 387.036C680.104 387.036 673.563 371.68 668.096 363.555C661.228 353.338 650.031 338.482 642.323 344.066C632.251 351.365 657.193 367.569 660.745 373.28C663.617 377.895 665.766 390.622 665.766 390.622Z" fill="#009035"/>
<path d="M684.672 408.2C685.994 407.276 686.12 403.992 684.352 400.708C682.723 397.681 679.99 396.715 678.592 397.563C675.481 399.457 682.623 409.631 684.672 408.2Z" fill="white"/>
<path d="M591.547 402.909C592.462 404.24 596.387 403.984 600.59 401.67C604.465 399.537 606.027 396.446 605.216 395.031C603.399 391.869 590.127 400.851 591.547 402.909Z" fill="white"/>
<path d="M595.565 396.434C595.418 395.736 596.917 394.498 599.255 393.767C601.409 393.091 603.076 393.469 603.294 394.153C603.772 395.686 595.796 397.508 595.565 396.434Z" fill="white"/>
<path d="M606.105 490.33L608.876 489.839L619.007 485.917V485.996C619.007 485.996 619.128 487.735 621.232 488.058C622.781 488.298 623.789 487.886 624.208 487.651C624.309 487.559 624.393 487.504 624.439 487.504C625.115 487.504 625.665 488.612 625.665 489.977C625.665 490.427 625.606 490.846 625.501 491.208V493.101H605.32V491.182C605.324 490.741 605.664 490.372 606.105 490.33Z" fill="#00782C"/>
<path d="M668.02 490.078L669.737 487.848L674.586 478.127L674.64 478.186C674.64 478.186 675.9 479.387 677.676 478.211C678.986 477.346 679.447 476.364 679.603 475.906C679.615 475.772 679.641 475.675 679.674 475.646C680.174 475.192 681.324 475.637 682.244 476.649C682.546 476.981 682.781 477.33 682.949 477.67L684.225 479.072L669.304 492.661L668.011 491.241C667.717 490.91 667.721 490.406 668.02 490.078Z" fill="#00782C"/>
<path d="M643.423 304.414C645.459 304.414 646.853 304.595 648.591 305.497C651.379 306.942 655.056 310.394 655.787 318.217C656.467 325.51 653.549 329.08 659.78 335.962C666.787 341.282 679.277 340.375 677.837 352.318C676.392 364.26 660.56 362.702 656.795 356.731C653.029 350.76 653.453 345.435 651.362 341.673C649.271 337.91 645.635 340.115 643.817 335.962C641.685 332.053 645.388 323.289 646.051 321.782C645.606 320.312 645.031 318.699 642.65 318.049C637.541 316.654 633.305 311.817 633.305 310.259C633.296 308.701 637.969 304.414 643.423 304.414Z" fill="#00782C"/>
<path d="M643.59 319.195C643.061 320.371 643.431 321.685 644.413 322.122C645.396 322.559 646.617 321.962 647.146 320.787C647.675 319.611 647.306 318.297 646.324 317.86C645.341 317.423 644.119 318.019 643.59 319.195Z" fill="white"/>
<path d="M320.495 376.202H310.755V357.567H316.708L320.495 376.202Z" fill="white"/>
<path d="M327.686 348.135C329.332 355.786 328.114 363.5 323.5 365.171C319.167 366.742 311.652 362.589 308.214 355.026C304.595 347.065 306.362 341.114 312.773 338.897C319.587 336.546 325.881 339.75 327.686 348.135Z" fill="white"/>
<path d="M314.102 336.193C307.019 336.747 303.102 343.168 303.555 349.521C303.98 355.45 310.319 358.616 310.319 358.616C310.319 358.616 312.41 352.595 315.836 351.637C320.618 350.298 318.548 346.027 320.781 345.565C323.107 345.083 328.17 343.235 328.086 339.846C324.812 339.964 322.058 335.572 314.102 336.193Z" fill="#00782C"/>
<path d="M314.809 352.889C315.384 354.169 314.985 355.597 313.915 356.076C312.848 356.555 311.518 355.904 310.942 354.623C310.367 353.342 310.766 351.914 311.837 351.436C312.903 350.957 314.234 351.608 314.809 352.889Z" fill="white"/>
<path d="M314.101 351.52C314.101 351.52 314.634 359.788 316.212 362.929C317.589 365.662 323.589 368.488 326.855 361.997C326.855 361.997 323.547 362.689 323.921 361.287C324.361 359.637 327.766 359.62 327.766 359.62C327.766 359.62 328.434 359.586 328.551 358.977C328.728 358.07 328.287 356.592 328.287 356.592C328.287 356.592 323.782 358.201 321.838 358.201C319.638 358.201 317.64 356.647 315.776 351.52H314.101Z" fill="#00782C"/>
<path d="M342.549 533.803L333.598 483.716L327.519 459.038L321.398 434.31L319.315 425.903L301.758 431.505L304.932 439.563L314.185 463.04C317.262 470.876 320.386 478.711 323.43 486.58L338.468 534.807L339.094 536.818L342.923 535.882L342.549 533.803Z" fill="white"/>
<path d="M310.201 426.104L309.5 434.738L305.536 483.645L268.562 500.979L266.651 501.873L268.045 505.514L270.065 504.905L312.464 492.089C314.03 491.611 315.302 490.322 315.667 488.608L315.818 487.903L326.6 437.245L328.405 428.775L310.201 426.104Z" fill="white"/>
<path d="M299.18 420.767L332.003 427.146L342.263 525.267L331.255 526.774L299.18 420.767Z" fill="#94EC75"/>
<path d="M297.575 427.314L330.691 422.686C330.691 422.686 325.615 484.115 315.707 491.951C310.195 496.31 279.568 503.645 279.568 503.645L276.272 494.239C276.272 494.239 299.33 484.905 301.257 482.02C303.352 478.879 297.575 427.314 297.575 427.314Z" fill="#BAFEA3"/>
<path d="M321.17 379.624L342.876 410.647L338.929 409.543L364.527 399.822L366.852 398.94L368.7 403.391L366.433 404.416L341.473 415.678C340.096 416.299 338.514 415.863 337.632 414.716L337.523 414.574L314.44 384.558L311.896 381.249L318.777 376.202L321.17 379.624Z" fill="white"/>
<path d="M309.861 385.864C313.052 394.225 328.095 412.797 339.716 416.169C346.618 418.172 361.581 407.674 361.581 407.674L359.402 400.935C359.402 400.935 348.058 408.472 341.962 402.682C335.866 396.891 325.063 378.352 319.559 377.323C314.71 376.421 308.429 382.11 309.861 385.864Z" fill="#009035"/>
<path d="M311.425 372.268C311.425 372.268 316.534 376.748 321.644 373.763C321.644 373.763 323.39 392.432 325.678 400.049C327.962 407.666 334.688 427.679 334.688 427.679H297.541C296.546 410.631 302.986 391.273 311.425 372.268Z" fill="#DBC6AF"/>
<path d="M309.657 370.735C309.657 370.735 291.902 397.29 295.517 425.617C295.517 425.617 293.993 431.181 314.136 430.421C334.28 429.661 335.435 426.881 335.435 426.881C329.057 411.681 324.103 394.473 321.643 373.758C321.643 373.758 314.111 374.035 309.657 370.735Z" fill="#4EAD2D"/>
<path d="M315.435 383.895C312.907 388.262 310.455 392.818 308.205 397.37C307.08 399.654 306.005 401.951 305.019 404.257C304.04 406.558 303.138 408.888 302.495 411.143C302.336 411.71 302.206 412.243 302.088 412.798L301.744 414.62C301.538 415.855 301.341 417.097 301.173 418.361C300.829 420.881 300.543 423.43 300.287 425.987C299.787 431.101 299.393 436.271 299.099 441.406L298.956 443.888L294.128 443.766V441.28C294.132 436.031 294.233 430.824 294.443 425.575C294.556 422.955 294.699 420.327 294.909 417.681C295.01 416.358 295.144 415.027 295.287 413.692L295.551 411.664C295.665 410.937 295.803 410.202 295.959 409.51C296.601 406.73 297.457 404.16 298.381 401.632C299.305 399.108 300.312 396.648 301.358 394.212C303.465 389.337 305.699 384.617 308.13 379.86L310.031 376.143L317.525 380.28L315.435 383.895Z" fill="white"/>
<path d="M306.675 375.4C300.273 381.653 296.587 395.85 293.862 407.641C291.137 419.436 293.354 437.341 293.354 437.341L300.697 437.665C300.697 437.665 301.117 419.44 304.005 411.542C306.894 403.643 319.61 386.36 318.364 380.901C317.268 376.097 309.551 372.595 306.675 375.4Z" fill="#009035"/>
<path d="M377.993 397.143C378.56 398.756 376.612 401.661 373.031 403.4C369.731 405.004 366.763 404.152 366.087 402.56C364.584 399.012 377.12 394.649 377.993 397.143Z" fill="white"/>
<path d="M300.263 451.262C300.977 451.026 301.317 448.994 300.746 446.466C300.221 444.136 298.987 442.809 298.248 442.977C296.585 443.355 299.155 451.627 300.263 451.262Z" fill="white"/>
<path d="M357.216 539.296C357.216 539.296 354.684 538.628 353.983 538.376C351.183 537.368 343.936 534.4 343.936 534.4C343.936 534.4 343.042 535.84 340.804 536.117C339.154 536.323 337.941 535.727 337.895 535.727C337.177 535.706 336.564 536.86 336.518 538.305C336.505 538.779 336.556 539.224 336.652 539.611L336.593 541.618L357.959 542.26L358.022 540.228C358.034 539.758 357.686 539.355 357.216 539.296Z" fill="#00782C"/>
<path d="M269.398 520.438C269.398 520.438 269.301 517.822 269.335 517.074C269.482 514.101 270.208 506.303 270.208 506.303C270.208 506.303 268.571 505.867 267.651 503.809C266.975 502.293 267.189 500.958 267.177 500.912C266.988 500.219 265.703 499.967 264.309 500.349C263.852 500.475 263.44 500.651 263.096 500.857L261.16 501.386L266.774 522.017L268.734 521.483C269.196 521.353 269.482 520.904 269.398 520.438Z" fill="#00782C"/>
<path d="M373.35 395.228C372.85 394.666 370.852 395.161 368.761 396.694C366.834 398.105 366.108 399.759 366.553 400.376C367.556 401.745 374.122 396.098 373.35 395.228Z" fill="white"/>
<path d="M296.662 454.751C294.958 454.629 293.064 451.69 292.892 447.717C292.733 444.051 294.693 441.67 296.423 441.683C300.277 441.712 299.299 454.944 296.662 454.751Z" fill="white"/>
<path d="M739.017 430.824C737.048 430.824 735.049 430.778 733.017 430.69C707.852 429.59 684.299 421.834 672.502 417.312C643.609 406.23 591.722 402.749 591.201 402.716L591.68 395.355C593.85 395.497 645.2 398.941 675.143 410.421C686.525 414.784 709.217 422.262 733.34 423.316C758.787 424.429 778.699 418.16 792.529 404.685L797.676 409.967C783.46 423.825 763.745 430.824 739.017 430.824Z" fill="#BAFEA3"/>
<path d="M563.727 402.271L562.913 408.494C562.829 409.132 562.241 409.585 561.603 409.501L530.069 405.37C529.431 405.286 528.977 404.698 529.061 404.059L529.876 397.841C529.96 397.202 530.547 396.749 531.186 396.833L562.719 400.965C563.358 401.044 563.811 401.632 563.727 402.271Z" fill="#BAFEA3"/>
<path d="M566.182 383.513L565.368 389.736C565.284 390.375 564.696 390.828 564.058 390.744L532.524 386.612C531.886 386.528 531.433 385.94 531.517 385.302L532.331 379.079C532.415 378.441 533.003 377.987 533.641 378.071L565.175 382.203C565.813 382.287 566.266 382.875 566.182 383.513Z" fill="#BAFEA3"/>
<path d="M565.736 370.848L555.869 369.555C554.727 369.404 553.678 370.21 553.527 371.357L547.552 416.98C547.401 418.122 548.207 419.172 549.354 419.323L559.22 420.617C560.362 420.768 561.411 419.961 561.562 418.815L567.537 373.192C567.684 372.049 566.882 371 565.736 370.848Z" fill="#009035"/>
<path d="M580.385 375.106L567.505 373.418L561.589 418.588L574.47 420.276C583.03 421.397 590.877 415.368 591.998 406.806L593.854 392.638C594.975 384.076 588.942 376.228 580.385 375.106Z" fill="#4EAD2D"/>
<path d="M104.595 467.655C88.5492 467.655 71.9196 465.946 54.5552 462.536L55.9742 455.297C145.991 472.971 196.858 440.512 241.739 411.874C255.887 402.846 269.251 394.317 282.895 388.06C298.412 380.943 312.17 377.743 326.21 377.966C355.586 378.444 381.116 406.436 382.186 407.628L376.707 412.567C376.464 412.298 352.227 385.772 326.088 385.344C325.672 385.335 325.257 385.335 324.841 385.335C297.039 385.335 273.222 400.536 245.706 418.093C223.732 432.113 198.823 448.007 168.247 457.837C147.868 464.388 126.784 467.655 104.595 467.655Z" fill="#BAFEA3"/>
<path d="M384.651 401.959C382.892 400.57 380.339 400.868 378.95 402.623L373.127 409.984C371.737 411.743 372.035 414.297 373.79 415.686L377.959 418.983L388.82 405.256L384.651 401.959Z" fill="#009035"/>
<path d="M429.23 416.396L421.425 410.219C420.523 409.505 419.209 409.656 418.491 410.559L389.946 446.642C389.232 447.545 389.383 448.859 390.286 449.577L398.091 455.754C398.993 456.468 400.308 456.317 401.025 455.414L429.57 419.331C430.288 418.428 430.133 417.114 429.23 416.396Z" fill="#009035"/>
<path d="M408.161 402.682C401.389 397.324 391.561 398.47 386.204 405.239L377.341 416.442C371.984 423.215 373.13 433.045 379.898 438.404L390.083 446.466L418.346 410.74L408.161 402.682Z" fill="#4EAD2D"/>
</svg>
