<svg width="660" height="400" viewBox="0 0 660 400" fill="none" xmlns="http://www.w3.org/2000/svg">
<path d="M151.236 440.492C137.941 407.714 167.687 416.566 183.015 401.779C203.248 382.259 156.234 368.035 143.755 364.556C122.279 358.504 85.956 346.521 73.5321 326.052C46.7002 281.34 152.345 314.338 124.369 279.97C105.483 256.732 73.2217 246.871 52.8701 224.691C43.7592 214.766 33.6829 197.954 44.7505 185.5C53.8541 175.059 75.1741 183.156 82.0337 170.024C91.8762 151.763 62.8706 121.113 60.7744 102.998C58.0452 79.6906 64.1795 52.807 89.8553 46.1601C104.995 42.2153 113.129 52.8464 126.698 55.9834C139.665 59.1096 142.93 44.7073 154.391 44.3114C162.713 44.1 176.76 54.4762 181.227 61.0644C188.633 71.9234 190.47 91.1176 204.6 96.6749C220.766 102.992 226.432 82.246 240.927 80.6998C298.169 75.3453 276.408 168.83 286.888 197.098C292.881 212.993 302.9 191.482 307.94 185.909C318.759 173.932 329.555 170.15 342.5 181.471C367.319 203.249 358.825 241.056 351.236 268.396C348.803 276.546 319.909 336.521 339.422 337.596C355.184 339.447 364.675 306.719 382.806 311.023C413.301 318.442 398.163 377.701 394.347 396.07C390.916 413.121 386.894 422.569 396.513 437.926C406.485 453.773 419.118 469.185 416.6 489.144C414.624 505.739 400.75 520.07 404.904 537.74C409.058 555.409 428.61 568.054 440.942 579.966C453.513 592.002 500.962 615.876 478.818 634.396C459.744 615.012 440.316 595.139 420.629 576.345C404.028 560.38 394.388 546.227 369.274 548.304C350.435 550.013 326.539 537.531 313.626 524.404C303.081 513.729 308.456 495.87 297.287 486.389C275.304 467.916 242.416 480.217 217.22 480.124C191.056 480.135 161.529 465.623 151.236 440.492Z" fill="#F5F5F5"/>
</svg>
