<svg width="480" height="506" viewBox="0 0 480 506" fill="none" xmlns="http://www.w3.org/2000/svg">
<path d="M339.496 371.474C356.705 342.761 327.599 346.703 315.42 330.642C299.344 309.44 345.382 302.99 357.558 301.555C378.522 299.026 414.235 293.114 428.837 275.783C460.444 237.882 356.843 253.343 388.013 225.281C409.061 206.304 440.666 201.784 462.93 184.009C472.896 176.055 484.769 161.802 476.234 148.543C469.243 137.453 448.126 141.918 443.625 128.638C437.082 110.128 468.673 85.6924 473.273 69.0587C479.222 47.6609 477.403 21.6273 454.362 11.6698C440.779 5.77459 431.624 14.5306 418.477 15.4866C405.896 16.5202 404.942 2.57646 394.283 0.536103C386.53 -0.874482 371.883 6.78157 366.746 12.2913C358.237 21.3665 353.723 39.0479 339.699 42.1854C323.661 45.7367 321.386 25.5109 308.057 21.9526C255.309 8.60346 262.034 99.1949 248.115 124.102C240.194 138.092 233.96 116.516 230.059 110.57C221.688 97.7943 212.143 92.6842 198.388 101.384C172.005 118.132 174.439 154.725 177.551 181.396C178.638 189.373 196.917 249.668 178.514 247.829C163.504 247.263 159.398 215.275 141.817 216.658C112.219 219.151 117.738 276.772 118.63 294.506C119.353 310.95 121.738 320.371 110.505 333.331C98.87 346.696 84.8109 359.267 84.2563 378.298C83.6863 394.104 94.5711 409.528 88.112 425.446C81.6528 441.364 61.5256 450.338 48.258 459.68C34.7487 469.104 -13.1019 484.514 4.90721 505.06C25.5688 489.713 46.6318 473.96 67.7806 459.255C85.6319 446.745 96.7093 434.915 119.891 440.518C137.258 444.861 161.423 436.671 175.412 426.277C186.828 417.832 184.405 400.348 196.231 393.11C219.48 379.039 248.441 395.335 272.017 398.92C296.481 402.743 326.208 393.475 339.496 371.474Z" fill="#4BA52D"/>
</svg>
