<svg width="318" height="125" viewBox="0 0 318 125" fill="none" xmlns="http://www.w3.org/2000/svg">
<path d="M285.222 -3.6174C280.917 -0.938478 278.256 2.81748 274.423 6.00254C269.945 9.67264 267.528 7.84366 262.433 6.9927C251.542 5.22606 249.812 20.4188 244.721 27.4893C241.2 32.3091 236.947 36.7893 230.449 35.8089C224.927 34.8641 223.962 29.685 219.149 27.5534C210.71 23.9986 206.252 38.3681 203.947 44.1711C200.882 52.0002 199.555 60.4793 196.505 68.4458C193.874 75.1171 191.258 81.9259 187.469 88.1638C182.032 97.2166 171.61 107.77 159.996 107.052C155.097 106.737 150.103 104.207 147.438 100.042C145.106 96.3969 145.016 90.2913 140.001 88.876C131.432 86.7247 123.802 94.7587 118.414 100.332C112.028 106.983 103.752 112.862 94.8968 115.883C84.9705 119.296 68.6238 118.523 62.7073 108.587C60.0134 104.146 62.586 96.925 59.017 93.4111C53.4572 88.162 42.1137 93.9481 35.6298 93.1051C29.9853 92.3123 27.8716 90.7291 28.0066 85.4336C28.3559 74.2783 15.4845 77.4464 12.369 69.0202C10.4272 63.8054 12.2477 57.3587 14.8361 52.9156C16.6076 49.9486 18.9871 47.4733 18.884 43.8707C18.7574 36.1012 14.1678 32.1393 18.6652 24.7146C22.1142 19.2076 27.9664 15.3921 33.9785 13.0884C41.5821 10.0605 51.5084 6.64799 47.0896 -3.58608C39.0054 -22.1882 60.2539 -30.2728 74.9429 -30.7145C87.6927 -31.0902 142.797 -12.1801 135.489 -41.8437C130.588 -61.8943 166.794 -54.7443 175.942 -49.7358C182.732 -46.0065 196.312 -33.267 204.762 -37.4962C210.043 -40.1395 206.85 -45.3609 209.344 -49.3772C211.716 -53.2415 217.996 -54.3227 221.976 -53.4929C230.791 -51.6456 236.735 -44.0745 243.901 -39.4122C247.035 -37.381 252.073 -34.4394 255.72 -34.1302C260.482 -33.8 265.328 -37.926 270.14 -38.4349C275.074 -39.0958 277.869 -36.3338 282.168 -35.1208C287.487 -33.4597 293.355 -34.4973 298.472 -32.1199C300.954 -30.9927 302.597 -29.9157 303.301 -27.2104C303.721 -25.8651 302.477 -24.4827 302.731 -23.3977C302.985 -22.3127 304.692 -21.9374 304.961 -20.715C307.201 -11.3623 291.486 -7.47653 285.222 -3.6174Z" fill="#009035"/>
</svg>
