<svg width="484" height="456" viewBox="0 0 484 456" fill="none" xmlns="http://www.w3.org/2000/svg">
<path d="M123.774 455.043C108.921 419.532 140.858 425.137 156.927 405.867C178.137 380.431 127.655 371.304 114.262 369.221C91.211 365.564 52.1888 357.375 38.5129 335.826C8.96711 288.711 122.425 310.403 91.8646 275.307C71.2334 251.573 36.5911 245.195 14.4167 222.896C4.48979 212.918 -6.60607 195.2 4.96046 179.251C14.4704 165.907 37.3959 171.932 44.456 155.848C54.5978 133.436 23.0135 102.754 20.4116 82.3291C17.0296 56.053 23.039 24.3312 50.3189 12.807C66.4037 5.9827 75.3019 16.9181 89.8527 18.4431C103.76 20.0474 106.956 3.05643 119.185 0.856918C128.066 -0.653291 143.272 9.08935 148.173 15.9535C156.299 27.2607 158.645 48.9621 173.844 53.1734C191.231 57.9445 196.864 33.3228 212.309 29.3436C273.317 14.4899 251.961 124.864 263.717 155.64C270.435 172.93 280.701 146.769 285.97 139.618C297.28 124.255 308.731 118.278 322.779 129.27C349.716 150.429 341.406 195.02 333.852 227.486C331.419 237.191 301.774 310.276 322.629 308.534C339.495 308.252 348.971 269.326 368.415 271.492C401.123 275.342 386.151 345.512 382.446 367.13C379.125 387.179 375.02 398.612 385.599 414.734C396.564 431.361 410.361 447.086 408.075 470.327C406.297 489.633 391.773 508.159 396.563 527.761C401.352 547.363 422.482 558.865 435.888 570.627C449.551 582.497 500.691 602.607 477.42 627.19C456.666 607.897 435.525 588.099 414.128 569.577C396.082 553.822 385.505 539.083 358.733 545.289C338.654 550.116 312.89 539.463 298.839 526.396C287.367 515.779 292.746 494.508 280.632 485.352C256.789 467.546 221.923 486.645 195.019 490.377C167.086 494.375 135.268 482.255 123.774 455.043Z" fill="#4EAD2D"/>
</svg>
