<svg width="836" height="521" viewBox="0 0 836 521" fill="none" xmlns="http://www.w3.org/2000/svg">
<path d="M41.3336 293.539C67.5043 230.917 78.2827 246.414 102.182 229.672C126.085 212.926 110.889 201.542 76.7137 171.742C42.5382 141.943 48.5948 112.448 65.8721 72.9634C90.6598 16.3203 163.045 17.6513 229.135 41.6582C295.226 65.6688 261.995 97.1896 371.068 79.3918C431.905 69.4648 493.226 -5.8611 606.609 25.8717C619.923 29.5971 639.833 46.5361 657.296 73.5546C678.774 106.786 691.534 109.697 721.918 93.3267C752.301 76.9528 782.026 120.141 797.82 139.916C816.402 163.187 794.407 209.041 752.464 262.152C710.522 315.263 770.69 292.68 797.82 354.714C824.946 416.748 810.264 495.183 684.381 494.353C558.327 493.524 367.771 495.112 367.771 495.112C367.771 495.112 191.056 509.776 126.702 471.886C62.3512 433.996 155.412 404.702 93.7606 385.503C62.526 375.776 15.1591 356.161 41.3336 293.539Z" fill="#4EAD2D"/>
<path d="M173.749 184.275C173.749 184.275 175.255 144.746 157.196 133.901C139.135 123.056 104.602 115.943 104.115 59.1438C103.833 25.8903 103.219 11.3457 102.758 5.00281C102.58 2.52665 104.803 0.563565 107.234 1.05805C124.437 4.55294 180.281 18.7332 191.48 57.1472C204.757 102.692 173.749 184.275 173.749 184.275Z" fill="#8DD873"/>
<path opacity="0.4" d="M120.348 17.0564C120.348 17.0564 120.842 17.5026 121.753 18.3726C122.653 19.2426 123.98 20.5178 125.59 22.2095C127.204 23.8975 129.141 25.9684 131.286 28.4111C132.364 29.6306 133.509 30.9281 134.673 32.3335C135.257 33.0362 135.855 33.7538 136.469 34.4899C137.068 35.2372 137.677 36.0031 138.302 36.7876C138.926 37.5721 139.562 38.3715 140.209 39.1857C140.838 40.0148 141.477 40.8625 142.128 41.7251C142.775 42.5914 143.433 43.4688 144.098 44.3611C144.745 45.2683 145.399 46.1941 146.065 47.1273C146.727 48.0642 147.411 49.0086 148.08 49.9752C148.738 50.9531 149.4 51.942 150.073 52.9459C150.735 53.9535 151.423 54.961 152.084 55.9983C152.735 57.0431 153.393 58.099 154.055 59.1586C154.713 60.2257 155.397 61.289 156.048 62.3821C156.687 63.4826 157.334 64.5905 157.981 65.7059C158.628 66.8213 159.286 67.9441 159.922 69.0818C160.535 70.2344 161.152 71.3907 161.77 72.5544C162.391 73.7181 163.011 74.8856 163.632 76.053C164.216 77.2428 164.8 78.44 165.387 79.6371C165.971 80.8343 166.558 82.0352 167.146 83.2361L167.365 83.686L167.484 83.9463L167.585 84.173L167.986 85.0839L168.785 86.9058C170.912 91.8915 172.697 96.9926 174.158 102.086C175.608 107.187 176.716 112.292 177.56 117.259C178.411 122.23 178.935 127.075 179.278 131.674C179.623 136.273 179.724 140.638 179.701 144.657C179.687 148.68 179.493 152.36 179.252 155.617C179.01 158.874 178.705 161.704 178.408 164.031C178.118 166.359 177.798 168.177 177.578 169.422C177.459 170.043 177.37 170.523 177.311 170.842C177.244 171.173 177.207 171.341 177.207 171.341C177.065 172.021 176.4 172.456 175.723 172.318C175.065 172.181 174.634 171.556 174.734 170.898L174.742 170.861C174.742 170.861 174.764 170.705 174.812 170.4C174.857 170.088 174.92 169.623 175.002 169.017C175.162 167.801 175.351 166.005 175.567 163.715C175.775 161.425 175.976 158.636 176.099 155.435C176.225 152.234 176.259 148.616 176.195 144.675C176.128 140.734 175.902 136.47 175.508 131.979C175.113 127.487 174.485 122.773 173.641 117.932C172.79 113.095 171.663 108.146 170.243 103.198C168.834 98.2455 167.116 93.3044 165.086 88.5193L164.29 86.6975L163.893 85.7866L163.792 85.5598L163.707 85.3665L163.495 84.9204C162.93 83.7343 162.368 82.5483 161.803 81.3623C161.242 80.18 160.677 78.9976 160.119 77.8191C159.517 76.659 158.918 75.5065 158.323 74.3539C157.728 73.2051 157.133 72.0562 156.542 70.9185C155.918 69.7957 155.297 68.6766 154.68 67.5686C154.062 66.457 153.453 65.3527 152.843 64.2559C152.222 63.1666 151.571 62.1032 150.943 61.0399C150.311 59.9766 149.686 58.9244 149.065 57.8833C148.433 56.846 147.775 55.8422 147.143 54.8346C146.511 53.827 145.887 52.8306 145.266 51.8454C144.634 50.8675 143.99 49.9195 143.362 48.9751C142.734 48.0307 142.113 47.1013 141.503 46.1829C140.871 45.2832 140.246 44.3946 139.637 43.5209C139.027 42.6471 138.428 41.7846 137.837 40.9406C137.227 40.1115 136.633 39.2935 136.049 38.4979C135.461 37.6985 134.889 36.9178 134.327 36.1556C133.751 35.4045 133.186 34.6684 132.639 33.9545C131.561 32.5045 130.498 31.1661 129.494 29.9057C127.497 27.3812 125.691 25.2322 124.185 23.481C122.672 21.7336 121.471 20.3728 120.638 19.4619C119.809 18.5547 119.348 18.0788 119.348 18.0788C119.073 17.7963 119.08 17.3427 119.366 17.0713C119.638 16.811 120.062 16.8036 120.337 17.0527L120.348 17.0564Z" fill="#BAFEA3"/>
<path d="M835.002 91.174C817.472 90.2445 759.858 89.9582 739.38 124.334C715.101 165.087 724.653 251.846 724.653 251.846C724.653 251.846 733.111 213.201 753.314 207.238C773.518 201.27 808.734 203.051 823.45 148.189L835.002 91.174Z" fill="#8DD873"/>
<path opacity="0.4" d="M811.927 107.039C809.941 108.266 807.547 109.786 804.855 111.612C803.506 112.523 802.074 113.489 800.594 114.556C799.854 115.088 799.092 115.634 798.315 116.192C797.549 116.768 796.765 117.356 795.966 117.955C795.166 118.557 794.348 119.17 793.515 119.799C792.697 120.446 791.868 121.104 791.021 121.773C790.177 122.45 789.321 123.134 788.451 123.833C787.6 124.55 786.734 125.279 785.853 126.019C784.975 126.762 784.079 127.502 783.187 128.272C782.306 129.053 781.413 129.845 780.514 130.648C779.618 131.454 778.699 132.258 777.8 133.098C776.907 133.945 776.007 134.801 775.097 135.663C774.193 136.529 773.264 137.388 772.356 138.281C771.46 139.184 770.557 140.095 769.65 141.013C768.743 141.932 767.828 142.85 766.924 143.794C766.043 144.754 765.155 145.72 764.262 146.691C763.37 147.661 762.478 148.635 761.582 149.609C760.719 150.617 759.853 151.624 758.983 152.636C758.117 153.647 757.247 154.662 756.377 155.677L756.049 156.056L755.871 156.279L755.719 156.476L755.101 157.257L753.867 158.819C750.558 163.109 747.55 167.6 744.858 172.166C742.178 176.743 739.821 181.402 737.761 186.001C735.69 190.6 733.968 195.158 732.481 199.523C730.99 203.891 729.801 208.085 728.815 211.985C727.819 215.882 727.083 219.496 726.499 222.708C725.919 225.92 725.503 228.739 725.205 231.066C724.904 233.394 724.755 235.234 724.655 236.491C724.614 237.123 724.581 237.606 724.558 237.933C724.54 238.268 724.532 238.442 724.532 238.442C724.499 239.134 725.03 239.725 725.726 239.762C726.395 239.796 726.971 239.298 727.038 238.636L727.042 238.599C727.042 238.599 727.057 238.442 727.09 238.138C727.127 237.825 727.183 237.361 727.254 236.751C727.403 235.531 727.67 233.747 728.038 231.479C728.41 229.211 728.919 226.46 729.604 223.329C730.284 220.198 731.158 216.689 732.206 212.889C733.262 209.093 734.548 205.022 736.054 200.768C737.564 196.519 739.352 192.113 741.386 187.64C743.423 183.171 745.754 178.661 748.372 174.23C750.978 169.787 753.882 165.44 757.046 161.317L758.276 159.752L758.89 158.971L759.042 158.774L759.176 158.61L759.492 158.231C760.336 157.224 761.18 156.216 762.021 155.212C762.861 154.208 763.705 153.205 764.541 152.204C765.415 151.234 766.281 150.267 767.148 149.301C768.014 148.338 768.876 147.375 769.735 146.419C770.62 145.49 771.501 144.564 772.379 143.642C773.252 142.72 774.122 141.805 774.989 140.894C775.862 139.995 776.758 139.132 777.632 138.258C778.51 137.388 779.38 136.526 780.242 135.674C781.112 134.83 782.001 134.02 782.867 133.206C783.733 132.388 784.589 131.581 785.432 130.781C786.288 129.993 787.15 129.239 787.994 128.48C788.838 127.725 789.671 126.978 790.493 126.246C791.329 125.532 792.158 124.829 792.969 124.137C793.779 123.442 794.575 122.762 795.359 122.093C796.155 121.442 796.94 120.802 797.705 120.174C798.471 119.55 799.226 118.936 799.959 118.337C800.706 117.754 801.435 117.185 802.145 116.631C803.554 115.501 804.918 114.467 806.205 113.5C808.77 111.556 811.06 109.931 812.957 108.611L811.927 107.039Z" fill="#BAFEA3"/>
<path d="M20.6945 98.4724C28.5208 108.321 44.9096 131.124 46.3373 151.037C48.2186 177.286 68.619 197.887 88.8894 206.464C109.16 215.042 120.076 221.582 123.496 257.486C126.917 293.39 139.751 352.911 149.544 360.455C152.991 363.109 123.176 304.581 126.723 222.901C128.396 184.413 137.821 137.678 120.243 115.356C105.613 96.777 43.5377 93.9997 23.1223 93.5907L20.6945 98.4724Z" fill="#009035"/>
<path d="M48.6698 109.719C48.6698 109.719 49.2759 109.849 50.3764 110.136C51.4769 110.429 53.0942 110.864 55.1093 111.537C57.1282 112.207 59.556 113.08 62.2924 114.218C65.0251 115.363 68.0813 116.735 71.2936 118.486C74.5097 120.226 77.9079 122.282 81.3358 124.71C84.7601 127.142 88.2364 129.934 91.5156 133.168C94.7949 136.403 97.9031 140.05 100.636 144.066C103.357 148.089 105.681 152.483 107.488 157.086L108.142 158.819C108.369 159.395 108.577 159.975 108.748 160.57C109.109 161.748 109.485 162.927 109.815 164.109C110.433 166.429 111.046 168.742 111.652 171.032C112.243 173.337 112.827 175.624 113.407 177.884C113.954 180.149 114.493 182.387 115.024 184.588C116.069 188.994 117.036 193.262 117.891 197.326C118.757 201.386 119.534 205.234 120.2 208.792C120.527 210.573 120.843 212.279 121.144 213.904C121.419 215.532 121.679 217.075 121.925 218.529C122.397 221.437 122.791 223.972 123.092 226.065C123.405 228.155 123.605 229.806 123.739 230.932C123.869 232.062 123.94 232.665 123.94 232.665C123.985 233.04 123.713 233.379 123.341 233.423C122.984 233.464 122.657 233.222 122.59 232.873L122.587 232.854C122.587 232.854 122.475 232.267 122.271 231.163C122.051 230.058 121.731 228.434 121.326 226.37C120.519 222.24 119.229 216.365 117.649 209.323C116.831 205.81 115.943 202.003 115.006 197.976C114.02 193.961 112.979 189.73 111.905 185.35C110.778 180.985 109.611 176.479 108.429 171.895C107.811 169.604 107.191 167.296 106.562 164.979C106.242 163.849 105.874 162.741 105.547 161.615C105.391 161.049 105.198 160.495 104.982 159.949L104.372 158.298C101.011 149.52 95.5905 141.608 89.3815 135.299C86.2807 132.135 83.035 129.305 79.7743 126.848C76.5174 124.387 73.2641 122.282 70.1745 120.486C67.0775 118.706 64.1737 117.166 61.5377 115.928C58.9054 114.679 56.5593 113.705 54.6074 112.95C52.6555 112.199 51.1051 111.641 50.0418 111.296C48.9747 110.942 48.4096 110.783 48.4096 110.783C48.1196 110.701 47.9485 110.4 48.0303 110.106C48.1084 109.827 48.391 109.66 48.6698 109.716V109.719Z" fill="#4EAD2D"/>
<path d="M640.423 290.364C636.925 292.952 667.891 235.022 665.962 153.286C665.051 114.772 656.552 67.8624 674.565 45.8893C689.56 27.6043 751.679 26.0539 772.098 26.0465C774.649 26.0465 776.051 29.0134 774.426 30.9765C766.406 40.6655 749.571 63.1443 747.749 83.0243C745.348 109.228 724.546 129.424 704.112 137.597C683.678 145.769 672.632 152.093 668.501 187.923C664.371 223.757 650.361 283.013 640.423 290.364Z" fill="#009035"/>
<path d="M746.23 41.6694C746.23 41.6694 745.62 41.7847 744.516 42.0523C743.408 42.3238 741.787 42.7253 739.757 43.3573C737.727 43.9857 735.281 44.8111 732.522 45.8967C729.767 46.9861 726.681 48.2985 723.439 49.9865C720.189 51.6633 716.754 53.6487 713.274 56.0096C709.801 58.3742 706.273 61.0957 702.931 64.2672C699.588 67.4349 696.409 71.019 693.595 74.9823C690.795 78.9531 688.382 83.2994 686.486 87.8651L685.798 89.5865C685.56 90.1553 685.341 90.7353 685.159 91.3265C684.772 92.4976 684.374 93.6688 684.021 94.8437C683.359 97.1525 682.701 99.4502 682.047 101.729C681.411 104.023 680.783 106.295 680.158 108.544C679.567 110.797 678.983 113.025 678.411 115.214C677.28 119.598 676.228 123.847 675.291 127.893C674.347 131.934 673.492 135.764 672.756 139.314C672.391 141.088 672.042 142.791 671.711 144.408C671.406 146.029 671.112 147.568 670.841 149.014C670.313 151.911 669.867 154.439 669.525 156.525C669.171 158.61 668.941 160.254 668.781 161.38C668.629 162.507 668.547 163.109 668.547 163.109C668.495 163.485 668.759 163.827 669.131 163.879C669.488 163.927 669.818 163.689 669.889 163.343L669.893 163.325C669.893 163.325 670.015 162.737 670.242 161.637C670.484 160.536 670.833 158.919 671.283 156.867C672.172 152.755 673.581 146.903 675.299 139.898C676.187 136.403 677.15 132.614 678.165 128.606C679.232 124.613 680.355 120.401 681.515 116.043C682.731 111.705 683.984 107.217 685.259 102.663C685.921 100.383 686.59 98.0895 687.259 95.7843C687.601 94.6615 687.988 93.5573 688.341 92.4382C688.509 91.8767 688.713 91.3265 688.936 90.7837L689.579 89.144C693.115 80.4329 698.692 72.6326 705.02 66.4459C708.18 63.3414 711.482 60.5789 714.791 58.1883C718.096 55.7939 721.39 53.7528 724.517 52.0165C727.651 50.2951 730.585 48.819 733.243 47.6293C735.898 46.4321 738.266 45.5026 740.233 44.7888C742.2 44.0786 743.761 43.5507 744.832 43.2235C745.906 42.8926 746.472 42.7439 746.472 42.7439C746.765 42.6695 746.94 42.3684 746.866 42.0747C746.791 41.7921 746.516 41.6211 746.234 41.6731L746.23 41.6694Z" fill="#4EAD2D"/>
<path d="M0.460938 275.418C6.01557 285.649 21.724 309.151 48.0992 307.496C81.743 305.384 122.514 283.515 134.943 301.759C147.369 320.003 145.774 330.213 146.157 338.861C146.54 347.509 147.391 376.029 163.103 384.313C165.479 385.566 149.73 358.458 148.521 334.578C147.313 310.697 141.926 269.941 121.332 245.559C100.738 221.176 78.1886 218.953 49.7723 241.119C26.0888 259.59 11.3211 268.911 2.65825 270.644L0.460938 275.418Z" fill="#8DD873"/>
<path opacity="0.4" d="M59.3228 270.395C59.3228 270.395 59.6722 270.064 60.3303 269.443C60.9921 268.833 61.9737 267.956 63.2749 266.9C65.8701 264.781 69.7219 261.907 74.7783 259.081C77.3103 257.679 80.1471 256.307 83.2924 255.136C86.4378 253.987 89.8881 253.021 93.5949 252.608C94.517 252.478 95.4651 252.467 96.4094 252.403C97.3612 252.418 98.3205 252.366 99.2908 252.463C99.7742 252.5 100.261 252.537 100.748 252.578L102.206 252.79C102.696 252.846 103.176 252.965 103.659 253.073C104.158 253.195 104.596 253.259 105.147 253.433C108.649 254.419 112.504 255.902 115.955 257.683C119.412 259.564 122.628 261.881 125.488 264.494C126.164 265.186 126.837 265.87 127.51 266.554C127.837 266.904 128.191 267.227 128.495 267.591L129.399 268.688C129.99 269.424 130.611 270.131 131.169 270.874C131.693 271.64 132.217 272.399 132.734 273.153C132.99 273.533 133.247 273.908 133.5 274.28C133.727 274.67 133.953 275.061 134.176 275.447C134.623 276.221 135.069 276.987 135.508 277.745C136.329 279.288 137.043 280.838 137.775 282.326C138.396 283.857 139.002 285.352 139.59 286.795C140.118 288.256 140.575 289.683 141.044 291.044C141.285 291.721 141.49 292.394 141.661 293.059C141.843 293.721 142.021 294.368 142.192 295C142.531 296.264 142.895 297.45 143.126 298.592C143.375 299.726 143.609 300.789 143.828 301.771C144.051 302.752 144.241 303.656 144.375 304.477C144.933 307.76 145.252 309.638 145.252 309.638C145.308 309.976 145.081 310.3 144.743 310.355C144.419 310.411 144.115 310.207 144.033 309.894L144.025 309.868C144.025 309.868 143.568 308.039 142.769 304.834C142.404 303.224 141.78 301.321 141.174 299.112C140.887 298.001 140.467 296.859 140.069 295.64C139.646 294.431 139.285 293.126 138.746 291.832C138.233 290.527 137.731 289.156 137.158 287.758C136.534 286.386 135.89 284.973 135.225 283.515C134.463 282.114 133.745 280.641 132.912 279.195C132.474 278.489 132.031 277.771 131.581 277.05C131.358 276.689 131.131 276.325 130.908 275.96C130.656 275.615 130.406 275.269 130.15 274.919C129.641 274.224 129.131 273.521 128.614 272.819C128.079 272.131 127.484 271.484 126.919 270.804L126.056 269.792C125.766 269.458 125.432 269.164 125.12 268.848C124.487 268.223 123.848 267.599 123.208 266.967C120.506 264.606 117.513 262.524 114.311 260.787C111.006 259.133 107.772 257.88 104.094 256.858C102.499 256.445 100.748 256.069 99.0492 255.991C98.1978 255.895 97.3352 255.939 96.4875 255.913C95.6361 255.965 94.7884 255.965 93.9481 256.077C90.5834 256.382 87.3487 257.174 84.3595 258.185C81.3554 259.159 78.5855 260.36 76.0833 261.587C73.57 262.795 71.3355 264.059 69.3687 265.216C67.4056 266.376 65.74 267.465 64.3717 268.376C63.011 269.294 61.9588 270.041 61.2487 270.558C60.5497 271.083 60.1742 271.361 60.1742 271.361L60.1519 271.376C59.8656 271.592 59.4603 271.532 59.2447 271.246C59.0476 270.99 59.0848 270.618 59.3228 270.395Z" fill="#BAFEA3"/>
<path d="M740.964 457.04C740.964 462.487 736.502 466.945 731.051 466.945H194.992C189.542 466.945 185.08 462.487 185.08 457.04L180.618 148.981C180.618 143.534 187.036 132.901 198.796 133.7L722.69 120.144C729.531 119.966 736.145 122.602 740.99 127.428C745.834 132.257 748.485 138.857 748.321 145.694L740.964 457.04Z" fill="#009035"/>
<path d="M731.18 447.537C731.18 452.694 726.96 456.914 721.804 456.914H207.922C202.765 456.914 198.545 452.694 198.545 447.537L194.336 167.883C194.831 151.055 209.587 145.006 218.529 145.363C218.529 145.363 627.999 134.377 720.636 131.893C725.443 131.763 730.087 133.614 733.493 137.013C736.898 140.407 738.769 145.055 738.65 149.862L731.18 447.537Z" fill="#4EAD2D"/>
<path d="M204.094 314.014C203.708 314.014 203.392 313.701 203.388 313.315L203.053 290.635C203.05 290.245 203.358 289.921 203.752 289.918C203.756 289.918 203.76 289.918 203.764 289.918C204.15 289.918 204.466 290.23 204.47 290.617L204.805 313.296C204.808 313.687 204.496 314.01 204.106 314.014C204.102 314.014 204.098 314.014 204.094 314.014Z" fill="white"/>
<path d="M203.28 258.438C202.893 258.438 202.577 258.125 202.574 257.739L201.298 170.876C201.324 165.091 203.105 160.466 206.596 157.123C212.947 151.037 222.881 151.349 223.305 151.36L383.653 147.059C384.058 147.07 384.371 147.356 384.378 147.746C384.389 148.137 384.081 148.464 383.69 148.471L223.301 152.773C222.851 152.751 213.493 152.468 207.574 158.142C204.373 161.209 202.737 165.489 202.715 170.865L203.99 257.713C203.994 258.103 203.681 258.426 203.291 258.43C203.287 258.438 203.284 258.438 203.28 258.438Z" fill="white"/>
<path d="M221.183 432.026C221.723 408.911 221.522 204.23 220.195 186.555C218.867 168.876 246.399 165.563 288.668 163.574C330.938 161.585 687.572 153.71 696.755 152.963C717.398 151.29 721.67 182.141 719.602 249.117C718.052 299.436 715.479 382.324 714.297 420.444C713.944 431.795 704.667 440.8 693.313 440.83C607.491 441.064 278.567 442.008 256.668 442.659C231.467 443.41 220.972 441.19 221.183 432.026Z" fill="#76CF57"/>
<path d="M780.637 492.517H156.279C154.183 492.517 152.465 490.799 152.465 488.702V469.268C152.465 467.168 154.183 465.454 156.279 465.454H780.637C782.737 465.454 784.451 467.171 784.451 469.268V488.702C784.455 490.799 782.737 492.517 780.637 492.517Z" fill="#007C2E"/>
<path d="M668.269 428.553H403.818C401.364 428.553 399.356 426.545 399.356 424.091V240.777C399.356 238.323 401.364 236.316 403.818 236.316H662.803C673.846 236.316 682.88 245.35 682.88 256.393V413.945C682.877 421.98 676.303 428.553 668.269 428.553Z" fill="#8DD873"/>
<path d="M370.403 193.102C373.63 169.749 382.445 136.392 404.459 113.021H463.946C448.658 135.31 443.936 169.471 442.613 193.288L370.403 193.102Z" fill="#009035"/>
<path d="M305.556 192.931C310.274 170.783 321.632 136.749 348.528 113.021H404.461C382.447 136.392 373.632 169.749 370.405 193.102L305.556 192.931Z" fill="url(#paint0_linear)"/>
<path d="M442.612 193.288C443.935 169.471 448.657 135.31 463.945 113.021H510.792V193.466L442.612 193.288Z" fill="#007C2E"/>
<path d="M262.519 192.819C262.519 192.819 256.154 142.776 316.63 113.021H348.527C321.631 136.749 310.272 170.787 305.554 192.931L262.519 192.819Z" fill="url(#paint1_linear)"/>
<path d="M659.251 193.853C656.109 170.471 647.342 136.645 625.09 113.021H681.023C708.361 137.139 719.649 171.917 724.226 194.024L659.251 193.853Z" fill="#009035"/>
<path d="M724.224 194.024C719.647 171.917 708.36 137.139 681.021 113.021H714.513C714.513 113.021 781.358 137.366 781.358 194.173L724.224 194.024Z" fill="#007C2E"/>
<path d="M510.795 193.466V113.021H565.598C580.968 135.429 585.656 169.831 586.954 193.667L510.795 193.466Z" fill="#009035"/>
<path d="M586.955 193.667C585.658 169.835 580.969 135.429 565.599 113.021H625.087C647.339 136.645 656.105 170.471 659.247 193.853L586.955 193.667Z" fill="#007C2E"/>
<path d="M258.984 196.392C258.984 196.392 255.802 216.536 278.084 216.536C300.365 216.536 305.139 194.715 305.139 194.715L258.984 196.392Z" fill="url(#paint2_linear)"/>
<path d="M370.391 194.712H305.138C305.138 194.712 311.458 216.533 340.15 216.533C359.249 216.536 368.8 209.822 370.391 194.712Z" fill="url(#paint3_linear)"/>
<path d="M442.804 194.712H370.389C370.389 194.712 376.747 219.89 408.583 219.89C429.78 219.894 441.038 209.822 442.804 194.712Z" fill="#009035"/>
<path d="M511.236 194.712H442.007C442.007 194.712 448.083 219.89 478.525 219.89C498.788 219.894 509.548 209.822 511.236 194.712Z" fill="#007C2E"/>
<path d="M780.012 196.392C780.012 196.392 783.95 216.536 756.385 216.536C728.82 216.536 722.912 194.716 722.912 194.716L780.012 196.392Z" fill="#007C2E"/>
<path d="M659.098 194.712H724.351C724.351 194.712 718.031 216.533 689.339 216.533C670.237 216.536 660.689 209.822 659.098 194.712Z" fill="#009035"/>
<path d="M586.042 194.712H659.252C659.252 194.712 652.828 219.89 620.638 219.89C599.211 219.894 587.83 209.822 586.042 194.712Z" fill="#007C2E"/>
<path d="M511.24 194.712H589.068C589.068 194.712 582.238 219.89 548.018 219.89C525.238 219.894 513.139 209.822 511.24 194.712Z" fill="#009035"/>
<path d="M779.05 196.812H259.335L258.416 194.392C258.06 193.451 260.287 192.619 263.168 192.619L777.976 192.611C780.009 192.615 781.824 193.031 782.538 193.66L783.642 194.63C784.843 195.686 782.474 196.812 779.05 196.812Z" fill="#71C653"/>
<path d="M154.617 103.663L394.905 110.348C408.163 110.716 418.804 121.409 419.109 134.667L427.151 483.531C427.389 493.904 418.99 502.418 408.613 502.317L133.075 499.659C123.323 499.566 115.549 491.491 115.82 481.742L125.576 131.127C126.011 115.527 139.013 103.228 154.617 103.663Z" fill="#009035"/>
<path d="M154.851 113.14C187.544 118.419 299.529 126.476 393.017 122.041C397.281 121.84 401.248 129.51 401.36 133.696L410.51 481.843C410.632 486.557 406.859 490.483 402.055 490.628C362.756 491.814 200.921 496.127 143.449 488.598C139.95 488.141 137.37 485.166 137.444 481.705L145.319 120.91C145.423 116.014 149.921 112.344 154.851 113.14Z" fill="#4EAD2D"/>
<path d="M157.178 119.293C188.64 124.375 298.249 135.886 387.766 125.937C394.819 125.152 394.403 139.076 394.507 143.106L403.207 474.113C403.326 478.653 399.693 482.43 395.068 482.568C357.249 483.709 201.507 487.862 146.199 480.616C142.834 480.173 140.347 477.314 140.421 473.983L148.002 126.773C148.11 122.059 152.434 118.527 157.178 119.293Z" fill="#7FDB5F"/>
<path opacity="0.4" d="M385.811 156.606C386.629 156.629 387.272 155.978 387.242 155.16L387.172 153.279C387.142 152.461 386.447 151.769 385.629 151.74L179.992 144.393C179.174 144.363 178.906 144.876 179.401 145.527L182.598 149.78C183.089 150.435 184.16 150.989 184.978 151.011L385.811 156.606Z" fill="#BAFEA3"/>
<path opacity="0.4" d="M179.615 158.001C178.797 157.971 178.529 158.485 179.024 159.135L182.221 163.389C182.712 164.043 183.783 164.597 184.601 164.619L385.437 170.207C386.255 170.23 386.899 169.579 386.869 168.761L386.798 166.88C386.768 166.062 386.073 165.37 385.255 165.34L179.615 158.001Z" fill="#BAFEA3"/>
<path opacity="0.4" d="M212.239 281.18C212.213 281.18 212.19 281.18 212.164 281.18L185.112 281.043C181.212 281.024 177.985 278.355 177.598 274.834L175.115 252.147C174.966 250.797 175.382 249.463 176.278 248.384C177.282 247.18 178.803 246.421 180.454 246.299C182.737 246.131 185.878 245.849 189.332 245.54C196.857 244.863 205.39 244.097 210.402 244.012C210.439 244.012 210.476 244.012 210.513 244.012C214.101 243.997 217.195 246.168 218.065 249.325C219.5 254.538 219.422 264.405 219.202 274.919C219.132 278.37 216.016 281.162 212.239 281.18ZM180.614 248.5C179.558 248.578 178.595 249.046 177.974 249.793C177.465 250.407 177.227 251.154 177.308 251.905L179.792 274.592C180.056 276.998 182.346 278.82 185.124 278.834L212.175 278.972C212.194 278.972 212.213 278.972 212.227 278.972C214.815 278.961 216.946 277.132 216.994 274.875C217.21 264.531 217.291 254.839 215.934 249.912C215.332 247.73 212.975 246.12 210.439 246.22C205.505 246.306 196.645 247.102 189.529 247.737C186.06 248.05 182.908 248.332 180.614 248.5Z" fill="#BAFEA3"/>
<path d="M183.53 250.764C189.211 250.351 201.558 249.039 207.414 248.938C209.898 248.897 212.08 250.385 212.671 252.537C213.82 256.713 213.709 265.044 213.549 272.737C213.501 275.042 211.392 276.89 208.812 276.875L187.192 276.767C184.534 276.752 182.318 274.953 182.061 272.592L180.08 254.463C179.872 252.586 181.422 250.92 183.53 250.764Z" fill="#4EAD2D"/>
<path opacity="0.4" d="M235.143 257.504C234.326 257.49 233.831 258.122 234.043 258.914L236.898 269.543C237.11 270.331 237.954 270.975 238.772 270.971L376.452 270.343C377.27 270.339 377.921 269.666 377.898 268.848L377.709 261.732C377.686 260.914 376.999 260.233 376.184 260.215L235.143 257.504Z" fill="#BAFEA3"/>
<path d="M184.697 254.318C186.701 253.132 189.289 253.824 190.43 255.85L195.81 265.39C196.349 266.346 197.747 266.279 198.19 265.275L211.292 235.751C211.946 234.278 214.136 234.765 214.121 236.375C214.028 245.388 211.716 262.531 197.379 276.934C197.379 276.934 189.43 273.886 182.976 259.88C182.039 257.865 182.779 255.456 184.697 254.318Z" fill="#FFE401"/>
<path opacity="0.4" d="M214.481 220.462C214.455 220.462 214.432 220.462 214.406 220.462L187.355 220.325C183.454 220.306 180.227 217.637 179.841 214.116L177.357 191.429C177.208 190.079 177.625 188.744 178.521 187.666C179.525 186.462 181.045 185.703 182.696 185.581C184.979 185.413 188.12 185.131 191.574 184.822C199.1 184.145 207.632 183.379 212.644 183.294C212.681 183.294 212.718 183.294 212.756 183.294C216.343 183.279 219.437 185.45 220.307 188.607C221.742 193.82 221.664 203.687 221.445 214.201C221.374 217.652 218.255 220.444 214.481 220.462ZM182.856 187.782C181.8 187.86 180.837 188.328 180.216 189.075C179.707 189.689 179.469 190.436 179.551 191.187L182.034 213.874C182.298 216.28 184.588 218.102 187.366 218.116L214.418 218.254C214.436 218.254 214.455 218.254 214.47 218.254C217.057 218.243 219.188 216.414 219.236 214.157C219.452 203.813 219.534 194.121 218.176 189.194C217.574 187.012 215.217 185.402 212.681 185.502C207.748 185.588 198.888 186.384 191.771 187.019C188.303 187.332 185.146 187.614 182.856 187.782Z" fill="#BAFEA3"/>
<path d="M185.767 190.046C191.448 189.633 203.795 188.321 209.651 188.22C212.135 188.179 214.317 189.667 214.908 191.819C216.057 195.995 215.946 204.326 215.786 212.019C215.738 214.324 213.629 216.172 211.045 216.157L189.426 216.049C186.767 216.034 184.551 214.231 184.295 211.874L182.313 193.745C182.109 191.868 183.663 190.202 185.767 190.046Z" fill="#4EAD2D"/>
<path opacity="0.4" d="M237.382 197C236.564 196.985 236.069 197.617 236.281 198.409L239.136 209.039C239.348 209.827 240.192 210.47 241.01 210.467L378.69 209.838C379.508 209.835 380.159 209.162 380.136 208.344L379.947 201.228C379.925 200.41 379.237 199.729 378.419 199.711L237.382 197Z" fill="#BAFEA3"/>
<path d="M186.935 193.6C188.939 192.414 191.527 193.106 192.668 195.132L198.048 204.672C198.587 205.628 199.985 205.561 200.428 204.557L213.53 175.033C214.184 173.56 216.374 174.047 216.359 175.657C216.266 184.67 213.954 201.813 199.617 216.217C199.617 216.217 191.668 213.168 185.214 199.162C184.277 197.147 185.017 194.738 186.935 193.6Z" fill="#FFE401"/>
<path opacity="0.4" d="M212.503 339.158C212.477 339.158 212.455 339.158 212.429 339.158L185.377 339.021C181.477 339.002 178.249 336.333 177.863 332.812L175.379 310.125C175.23 308.775 175.643 307.437 176.543 306.358C177.547 305.154 179.067 304.395 180.718 304.273C183.001 304.105 186.143 303.823 189.597 303.514C197.122 302.838 205.655 302.072 210.666 301.986C210.704 301.986 210.741 301.986 210.778 301.986C214.366 301.971 217.459 304.143 218.329 307.303C219.764 312.515 219.686 322.383 219.467 332.897C219.396 336.348 216.277 339.143 212.503 339.158ZM180.878 306.481C179.822 306.559 178.859 307.028 178.238 307.775C177.729 308.388 177.491 309.14 177.573 309.887L180.056 332.574C180.32 334.979 182.611 336.801 185.388 336.816L212.44 336.954C212.458 336.954 212.473 336.954 212.492 336.954C215.08 336.942 217.21 335.113 217.258 332.856C217.474 322.513 217.559 312.82 216.202 307.894C215.6 305.712 213.243 304.128 210.707 304.202C205.774 304.288 196.914 305.083 189.794 305.719C186.325 306.031 183.168 306.314 180.878 306.481Z" fill="#BAFEA3"/>
<path d="M183.797 308.745C189.478 308.329 201.826 307.02 207.682 306.92C210.165 306.879 212.348 308.366 212.939 310.519C214.088 314.694 213.976 323.026 213.816 330.719C213.768 333.024 211.66 334.872 209.076 334.857L187.456 334.749C184.798 334.734 182.582 332.934 182.325 330.574L180.343 312.445C180.139 310.567 181.689 308.898 183.797 308.745Z" fill="#4EAD2D"/>
<path opacity="0.4" d="M235.408 315.482C234.59 315.468 234.095 316.1 234.307 316.891L237.163 327.521C237.375 328.309 238.219 328.953 239.036 328.949L376.716 328.32C377.534 328.317 378.185 327.644 378.163 326.826L377.973 319.71C377.951 318.892 377.263 318.211 376.449 318.193L235.408 315.482Z" fill="#BAFEA3"/>
<path d="M184.962 312.3C186.966 311.114 189.553 311.805 190.695 313.832L196.075 323.372C196.614 324.327 198.012 324.26 198.454 323.257L211.556 293.732C212.211 292.26 214.4 292.747 214.386 294.357C214.293 303.369 211.976 320.513 197.644 334.916C197.644 334.916 189.695 331.867 183.24 317.862C182.303 315.843 183.043 313.434 184.962 312.3Z" fill="#FFE401"/>
<path opacity="0.4" d="M210.224 394.846C210.201 394.846 210.175 394.846 210.153 394.846L183.097 394.708C179.201 394.69 175.97 392.02 175.583 388.499L173.1 365.812C172.951 364.463 173.367 363.124 174.263 362.05C175.267 360.845 176.788 360.087 178.439 359.964C180.718 359.8 183.856 359.518 187.31 359.206C194.467 358.562 203.375 357.763 208.391 357.678C211.949 357.644 215.172 359.8 216.053 362.99C217.488 368.203 217.41 378.071 217.191 388.585C217.117 392.035 213.997 394.827 210.224 394.846ZM178.602 362.165C177.546 362.243 176.583 362.715 175.963 363.463C175.453 364.076 175.215 364.827 175.297 365.574L177.781 388.261C178.045 390.667 180.335 392.489 183.108 392.504L210.164 392.641C212.715 392.585 214.938 390.816 214.986 388.54C215.202 378.197 215.284 368.508 213.927 363.578C213.324 361.395 210.967 359.841 208.431 359.886C203.498 359.968 194.634 360.763 187.51 361.403C184.042 361.715 180.889 361.998 178.602 362.165Z" fill="#BAFEA3"/>
<path d="M181.518 364.433C187.199 364.02 199.546 362.708 205.402 362.608C207.886 362.567 210.068 364.054 210.659 366.206C211.808 370.382 211.697 378.714 211.537 386.406C211.488 388.711 209.38 390.559 206.796 390.544L185.176 390.436C182.518 390.422 180.302 388.622 180.046 386.261L178.064 368.132C177.859 366.255 179.414 364.585 181.518 364.433Z" fill="#4EAD2D"/>
<path opacity="0.4" d="M233.134 371.17C232.316 371.155 231.822 371.787 232.033 372.579L234.889 383.209C235.101 383.997 235.945 384.64 236.763 384.636L374.443 384.008C375.26 384.004 375.911 383.331 375.889 382.514L375.699 375.397C375.677 374.579 374.989 373.899 374.175 373.88L233.134 371.17Z" fill="#BAFEA3"/>
<path d="M182.684 367.987C184.688 366.801 187.276 367.493 188.417 369.519L193.797 379.06C194.336 380.015 195.734 379.948 196.176 378.944L209.279 349.42C209.933 347.948 212.123 348.435 212.108 350.045C212.015 359.057 209.699 376.2 195.366 390.604C195.366 390.604 187.417 387.555 180.963 373.55C180.029 371.531 180.769 369.121 182.684 367.987Z" fill="#FFE401"/>
<path opacity="0.4" d="M207.415 452.274C207.389 452.274 207.367 452.274 207.341 452.274L180.285 452.136C176.385 452.117 173.158 449.448 172.771 445.927L170.288 423.24C170.139 421.89 170.552 420.556 171.452 419.477C172.455 418.273 173.976 417.514 175.627 417.392C177.91 417.224 181.051 416.942 184.505 416.633C192.03 415.957 200.563 415.191 205.575 415.105C209.252 415.139 212.36 417.228 213.238 420.418C214.673 425.631 214.595 435.502 214.375 446.013C214.308 449.463 211.193 452.259 207.415 452.274ZM175.79 419.596C174.734 419.675 173.772 420.143 173.151 420.89C172.641 421.504 172.403 422.251 172.485 423.002L174.969 445.689C175.233 448.095 177.523 449.916 180.3 449.931L207.356 450.069C207.374 450.069 207.393 450.069 207.408 450.069C209.992 450.058 212.126 448.228 212.174 445.972C212.39 435.628 212.472 425.936 211.118 421.009C210.516 418.827 208.159 417.299 205.623 417.317C200.69 417.403 191.83 418.199 184.71 418.834C181.237 419.147 178.084 419.429 175.79 419.596Z" fill="#BAFEA3"/>
<path d="M178.706 421.861C184.387 421.448 196.734 420.136 202.59 420.035C205.074 419.994 207.256 421.481 207.847 423.634C208.996 427.809 208.885 436.141 208.725 443.834C208.676 446.139 206.568 447.987 203.984 447.972L182.364 447.864C179.706 447.849 177.49 446.05 177.234 443.689L175.252 425.56C175.048 423.682 176.598 422.013 178.706 421.861Z" fill="#4EAD2D"/>
<path opacity="0.4" d="M230.318 428.598C229.5 428.583 229.006 429.215 229.217 430.007L232.073 440.636C232.285 441.425 233.129 442.068 233.947 442.064L371.627 441.436C372.445 441.432 373.095 440.759 373.073 439.941L372.883 432.825C372.861 432.007 372.173 431.327 371.359 431.308L230.318 428.598Z" fill="#BAFEA3"/>
<path d="M179.874 425.415C181.878 424.229 184.465 424.92 185.607 426.947L190.987 436.487C191.526 437.443 192.924 437.376 193.366 436.372L206.468 406.847C207.123 405.375 209.312 405.862 209.298 407.472C209.205 416.484 206.888 433.628 192.556 448.031C192.556 448.031 184.607 444.983 178.152 430.977C177.215 428.958 177.959 426.549 179.874 425.415Z" fill="#FFE401"/>
<path d="M290.984 59.9208C282.473 53.6412 274.922 53.552 269.565 54.9722C264.679 56.2661 261.407 60.8577 261.727 65.903L263.322 90.9732L290.519 94.1521C290.523 94.1521 307.677 72.2347 290.984 59.9208ZM278.436 79.7636C274.681 79.6595 271.721 76.5327 271.825 72.7775C271.929 69.0224 275.06 66.0629 278.811 66.167C282.563 66.2711 285.526 69.4016 285.422 73.153C285.318 76.9082 282.187 79.8677 278.436 79.7636Z" fill="#007C2E"/>
<path d="M225.665 106.098L226.015 93.5238C226.134 89.1849 229.829 85.809 234.164 86.0767L320.767 91.4603C324.611 91.6983 327.641 94.8214 327.764 98.6694L328.151 110.771L225.665 106.098Z" fill="#007C2E"/>
<path d="M198.638 100.74L350.223 104.957C355.673 105.109 360.224 109.162 361.005 114.556L361.113 115.3C361.968 121.211 357.287 126.465 351.32 126.301L195.801 121.974C192.228 121.873 189.466 118.81 189.733 115.244L190.261 108.292C190.592 103.942 194.277 100.621 198.638 100.74Z" fill="#007C2E"/>
<path d="M384.751 514.141C388.264 514.445 394.362 514.936 399.169 515.148C402.058 515.275 403.723 514.992 404.679 514.609C404.679 514.717 404.675 514.817 404.672 514.914C404.649 515.42 404.237 515.825 403.727 515.854C394.644 516.36 387.42 516.029 384.851 515.873C384.319 515.84 384.003 515.263 384.275 514.81C384.405 514.583 384.572 514.36 384.751 514.141Z" fill="#4EAD2D"/>
<path d="M399.168 515.152C394.36 514.94 388.263 514.445 384.75 514.144C388.203 509.906 399.168 507.05 399.168 507.05H402.265C404.395 510.121 404.704 513.044 404.678 514.613C403.722 514.996 402.06 515.278 399.168 515.152Z" fill="#009035"/>
<path d="M402.783 501.994L402.493 507.727C402.463 508.348 401.999 508.868 401.374 508.958C400.757 509.047 399.928 509.058 399.047 508.764C398.507 508.586 398.106 508.129 398.005 507.575L397.005 501.994H402.783Z" fill="white"/>
<path d="M442.995 515.107C444.52 514.895 445.207 514.103 445.497 513.256C445.501 513.263 445.501 513.271 445.505 513.278C445.728 514.17 445.211 515.096 444.17 515.535C442.913 516.066 441.542 516.156 440.474 516.115C439.329 516.066 438.281 515.594 437.705 514.836L437.697 514.825C438.846 515.393 440.456 515.46 442.995 515.107Z" fill="#009035"/>
<path d="M435.812 501.957H438.367C442.256 501.879 444.698 510.08 445.498 513.259C445.208 514.107 444.52 514.895 442.995 515.111C440.456 515.464 438.843 515.397 437.697 514.832C435.597 512.066 434.556 508.017 434.054 505.652C433.485 502.961 435.812 501.957 435.812 501.957Z" fill="#009035"/>
<path d="M438.042 496.636L439.459 502.277C439.634 502.968 439.303 503.682 438.663 504.013C437.871 504.418 436.752 504.849 435.726 504.723C435.243 504.663 434.841 504.325 434.681 503.871L432.599 497.938L438.042 496.636Z" fill="white"/>
<path d="M439.734 498.265C437.971 499.83 432.231 500.035 432.231 500.035C411.563 450.426 403.108 443.38 403.108 443.38C406.093 462.104 403.588 503.555 403.588 503.555C400.178 505.061 395.78 503.555 395.78 503.555C395.505 472.901 390.79 446.169 385.224 425.092C399.193 424.779 406.621 419.998 409.049 418.08C420.694 436.855 439.734 498.265 439.734 498.265Z" fill="#009035"/>
<path d="M405.502 361.035C408.145 374.222 407.197 397.832 406.576 408.599C406.401 411.625 408.513 415.819 410.22 418.682C410.487 419.132 410.324 419.704 409.859 419.946C407 421.415 397.315 425.969 386.09 426.534C385.343 426.571 384.674 426.062 384.48 425.337C376.152 394.247 366.482 374.379 366.482 374.379C377.16 357.328 405.502 361.035 405.502 361.035Z" fill="#FFE401"/>
<path d="M401.696 442.205C401.815 442.205 401.934 442.172 402.038 442.109C402.35 441.919 402.447 441.51 402.257 441.202C402.146 441.019 399.473 436.699 394.063 434.085C393.736 433.929 393.338 434.063 393.178 434.394C393.018 434.725 393.156 435.119 393.487 435.279C398.532 437.714 401.101 441.848 401.127 441.889C401.257 442.094 401.473 442.205 401.696 442.205Z" fill="url(#paint4_linear)"/>
<path d="M422.542 398.853C421.694 404.998 419.185 411.698 414.162 418.818L412.255 417.264C412.255 417.264 414.459 408.326 413.206 398.183C416.303 397.577 419.958 398.198 422.542 398.853Z" fill="white"/>
<path d="M403 377.274L405.953 361C405.953 361 425.684 376.084 422.538 398.853C419.954 398.198 416.3 397.577 413.203 398.18C412.299 390.874 409.604 382.94 403 377.274Z" fill="#FFE401"/>
<path d="M366.483 374.379L374.101 390.782C372.871 400.687 367.55 404.966 361.814 406.61C361.457 402.096 360.315 398.449 359.256 395.928C366.584 388.362 366.483 374.379 366.483 374.379Z" fill="#FFE401"/>
<path d="M359.252 395.928C360.311 398.449 361.453 402.096 361.81 406.61C346.506 412.547 342.458 401.033 342.458 401.033L345.287 400.534C351.674 401.207 356.136 399.148 359.252 395.928Z" fill="white"/>
<path d="M373.497 354.127L377.174 367.645C377.587 369.162 379.23 369.98 380.691 369.397C382.268 368.764 384.268 367.906 385.993 366.976C387.83 365.983 388.406 363.619 387.243 361.883L379.598 350.483L373.497 354.127Z" fill="white"/>
<path d="M365.455 343.858C365.422 344.088 368.522 359.284 368.522 359.284L377.159 357.328L376.36 342.49C376.363 342.493 366.016 339.973 365.455 343.858Z" fill="white"/>
<path d="M374.418 345.799L375.452 353.577C375.467 353.677 375.467 353.774 375.452 353.874C375.366 354.484 374.913 356.558 372.816 355.967C370.916 355.428 369.172 354.967 367.967 355.335C367.428 355.499 367.101 356.049 367.213 356.603C367.495 357.982 368.187 361.083 369.202 363.682C369.406 364.21 369.986 364.485 370.529 364.329C372.169 363.853 375.593 362.749 378.144 361.213C378.489 361.005 378.694 360.63 378.679 360.228C378.597 358.265 378.367 352.298 378.56 350.625C378.742 349.056 380.668 348.115 381.505 347.777C381.78 347.665 381.995 347.449 382.103 347.174C382.49 346.204 383.025 343.955 380.192 343.032C379.601 342.839 379.285 342.2 379.497 341.612C379.917 340.445 380.092 338.66 377.902 337.679C375.675 336.678 374.009 337.868 373.109 338.835C372.745 339.225 372.165 339.285 371.711 338.998C371.455 338.835 371.124 338.783 370.726 339.032C370.187 339.367 369.477 339.14 369.198 338.567C368.663 337.47 367.577 336.299 365.395 336.671C361.524 337.333 361.086 341.623 362.108 344.137C363.13 346.65 367.283 345.695 369.369 344.427C370.953 343.464 373.009 344.471 373.905 345.014C374.188 345.178 374.374 345.471 374.418 345.799Z" fill="#009035"/>
<path d="M378.9 353.454C378.9 353.454 377.309 349 378.945 347.907C380.581 346.814 383.001 347.382 382.469 350.61C381.804 354.625 378.9 353.454 378.9 353.454Z" fill="white"/>
<path d="M343.594 403.141C342.824 403.743 340.184 402.486 338.571 401.616C337.783 401.193 337.403 400.274 337.671 399.419C338.062 398.192 338.708 396.612 339.504 396.411C340.828 396.084 346.769 400.661 343.594 403.141Z" fill="url(#paint5_linear)"/>
<path d="M473.54 440.365L272.005 368.686L261.341 398.304L462.81 471.983C467.09 473.548 471.864 471.812 474.158 467.874C476.511 463.829 478.764 457.512 478.898 448.046C478.946 444.607 476.783 441.518 473.54 440.365Z" fill="#007C2E"/>
<path d="M209.653 361.031L237.493 364.448C237.463 368.281 236.21 373.237 231.96 378.922L208.712 363.585C207.478 362.775 208.184 360.849 209.653 361.031Z" fill="#007C2E"/>
<path d="M272.004 368.686C273.279 387.25 261.341 398.304 261.341 398.304L231.961 378.922C236.207 373.233 237.464 368.277 237.494 364.448L272.004 368.686Z" fill="#76CF57"/>
<path d="M471.04 449.444C471.285 449.444 471.512 449.292 471.598 449.05C471.706 448.742 471.546 448.403 471.237 448.295L278.42 380.153C278.111 380.045 277.773 380.205 277.665 380.513C277.557 380.822 277.717 381.16 278.026 381.268L470.843 449.411C470.906 449.433 470.973 449.444 471.04 449.444Z" fill="#76CF57"/>
<path d="M467.716 461.067C467.961 461.067 468.188 460.914 468.274 460.673C468.382 460.364 468.222 460.026 467.913 459.918L275.096 391.775C274.787 391.667 274.449 391.827 274.341 392.136C274.233 392.444 274.393 392.783 274.702 392.89L467.519 461.033C467.582 461.055 467.649 461.067 467.716 461.067Z" fill="#76CF57"/>
<path d="M412.59 417.024L403.682 416.299L399.823 419.853C399.823 419.853 400.734 421.113 403.589 420.388C406.441 419.663 410.352 419.485 410.352 419.485C410.352 419.485 414.289 421.262 414.338 417.938L412.59 417.024Z" fill="white"/>
<path d="M742.339 519.167L724.604 511.017L721.474 510.512C721.474 510.512 720.801 514.319 720.47 518.089L742.339 519.167Z" fill="#009035"/>
<path d="M720.924 508.274L721.463 512.828C721.463 512.828 724.571 514.274 726.691 512.646L725.404 507.571L720.924 508.274Z" fill="white"/>
<path d="M721.329 422.656C721.094 423.846 720.076 482.002 726.292 508.065C726.392 508.489 726.177 508.928 725.771 509.095C724.82 509.486 722.95 510.051 720.708 510.125C720.012 510.147 719.391 509.698 719.194 509.032C717.417 502.987 708.903 472.689 707.791 443.748C706.55 411.41 707.791 442.648 707.791 442.648L708.52 422.656H721.329Z" fill="#009035"/>
<path d="M708.175 520.019C707.948 518.156 707.242 515.096 705.063 512.713L701.07 512.497C701.07 512.497 699.999 514.419 698.962 519.528L708.175 520.019Z" fill="#009035"/>
<path d="M700.13 506.638L701.395 513.523C701.395 513.523 702.644 514.453 705.113 513.78L704.51 506.37L700.13 506.638Z" fill="white"/>
<path d="M696.72 424.441C691.634 455.125 697.825 500.28 699.91 509.118C700.037 509.66 700.476 510.073 701.022 510.162C701.955 510.318 703.487 510.441 705 510.002C705.521 509.85 705.889 509.382 705.908 508.839C706.186 501.693 705.684 457.828 710.421 440.495C710.663 439.618 711.198 438.852 711.942 438.324L721.136 431.788L721.843 421.221L696.72 424.441Z" fill="#009035"/>
<path d="M726.688 367.396C726.688 367.396 703.332 361.574 686.995 370.226L696.722 424.441C696.722 424.441 712.192 425.687 721.84 422.619L726.688 367.396Z" fill="#FFE401"/>
<path d="M700.496 351.153L698.708 366.537C698.593 366.757 698.648 367.024 698.845 367.173C700.043 368.095 704.433 370.895 710.65 368.155C711.297 367.868 711.791 367.318 711.988 366.638L709.46 353.305L700.496 351.153Z" fill="white"/>
<path d="M738.881 378.048C738.881 378.048 747.693 382.142 757.996 371.211C765.037 363.742 769.346 368.322 770.707 371.337C772.068 374.353 768.811 374.104 767.677 374.104C766.543 374.104 766.402 370.824 764.398 371.27C762.394 371.717 762.985 371.118 762.859 373.129C762.732 375.141 751.965 397.843 738.647 386.786L738.881 378.048Z" fill="white"/>
<path d="M779.148 379.524L755.867 378.056C753.744 377.922 751.881 379.457 751.61 381.569L746.397 422.058C746.085 424.471 747.966 426.609 750.401 426.609H780.781C783.086 426.609 784.923 424.679 784.811 422.377L782.926 383.354C782.826 381.305 781.197 379.654 779.148 379.524Z" fill="#009035"/>
<path d="M775.714 383.64C776.115 383.64 776.45 383.324 776.465 382.919C776.487 382.398 776.896 370.17 768.289 368.824C766.449 368.538 764.813 368.969 763.434 370.11C759.243 373.576 758.89 382.484 758.875 382.863C758.86 383.279 759.188 383.629 759.604 383.644C760.017 383.651 760.37 383.331 760.385 382.915C760.388 382.83 760.73 374.304 764.396 371.274C765.445 370.408 766.642 370.096 768.059 370.315C775.35 371.453 774.967 382.744 774.959 382.859C774.941 383.276 775.264 383.625 775.68 383.644C775.695 383.64 775.703 383.64 775.714 383.64Z" fill="#8DD873"/>
<path d="M726.693 367.396L740.906 378.048C740.906 378.048 741.159 386.031 739.274 389.804L723.443 385.915L726.693 367.396Z" fill="#FFE401"/>
<path d="M682.729 399.988C682.729 399.988 684.32 420.348 697.724 421.225C697.724 421.225 703.468 420.697 705.963 422.656C708.457 424.616 707.249 427.631 707.249 427.631L696.437 426.311C696.437 426.311 680.974 428.888 671.676 403.003L682.729 399.988Z" fill="white"/>
<path d="M687.001 370.226C687.001 370.226 668.657 381.138 671.672 403.003C671.672 403.003 678.227 405.844 682.989 402.037C682.989 402.037 686.704 387.83 694.768 387.124L687.001 370.226Z" fill="#FFE401"/>
<path d="M706.993 337.169C707.161 337.329 714.084 350.922 714.084 350.922L706.235 354.711L697.758 342.798C697.762 342.798 704.179 334.522 706.993 337.169Z" fill="white"/>
<path d="M701.238 343.109C701.096 343.47 701.133 343.875 701.33 344.209L705.246 350.734C705.305 350.835 705.376 350.924 705.461 351.002C705.926 351.437 707.521 352.698 708.755 350.98C709.807 349.515 710.793 348.184 711.849 347.637C712.466 347.318 713.224 347.574 713.537 348.191C714.18 349.47 715.429 352.073 716.213 354.545C716.411 355.166 716.091 355.828 715.489 356.073C713.901 356.717 710.759 357.88 707.971 358.267C707.513 358.33 707.06 358.137 706.788 357.765C705.591 356.122 702.212 351.534 701.055 350.385C699.985 349.318 698.007 349.719 697.114 349.976C696.776 350.073 696.415 350.028 696.114 349.846C695.211 349.303 693.631 347.946 695.077 345.648C695.438 345.076 695.252 344.317 694.69 343.945C693.683 343.28 692.586 342.034 693.631 340.016C694.686 337.971 696.575 337.788 697.858 337.945C698.427 338.015 699.003 337.714 699.222 337.186C699.319 336.952 699.512 336.751 699.869 336.677C700.542 336.539 700.985 335.926 700.851 335.249C700.624 334.093 700.795 332.591 702.639 331.576C706.026 329.713 708.989 332.747 709.744 335.309C710.499 337.87 706.714 339.677 704.331 339.982C702.58 340.201 701.62 342.112 701.238 343.109Z" fill="#009035"/>
<path d="M702.527 352.796C702.527 352.796 701.022 348.39 699.096 348.554C697.17 348.714 695.653 350.636 698.04 352.792C701.011 355.477 702.527 352.796 702.527 352.796Z" fill="white"/>
<defs>
<linearGradient id="paint0_linear" x1="356.914" y1="187.273" x2="340.959" y2="-99.9196" gradientUnits="userSpaceOnUse">
<stop stop-color="#A737D5"/>
<stop offset="1" stop-color="#EF497A"/>
</linearGradient>
<linearGradient id="paint1_linear" x1="299.587" y1="43.4972" x2="304.48" y2="134.013" gradientUnits="userSpaceOnUse">
<stop stop-color="#A737D5"/>
<stop offset="1" stop-color="#EF497A"/>
</linearGradient>
<linearGradient id="paint2_linear" x1="282.965" y1="234.563" x2="279.967" y2="120.008" gradientUnits="userSpaceOnUse">
<stop stop-color="#A737D5"/>
<stop offset="1" stop-color="#EF497A"/>
</linearGradient>
<linearGradient id="paint3_linear" x1="336.281" y1="245.921" x2="337.476" y2="204.702" gradientUnits="userSpaceOnUse">
<stop stop-color="#A737D5"/>
<stop offset="1" stop-color="#EF497A"/>
</linearGradient>
<linearGradient id="paint4_linear" x1="416.243" y1="475.123" x2="412.935" y2="468.507" gradientUnits="userSpaceOnUse">
<stop stop-color="#53D8FF"/>
<stop offset="1" stop-color="#3840F7"/>
</linearGradient>
<linearGradient id="paint5_linear" x1="344.515" y1="399.848" x2="337.585" y2="399.848" gradientUnits="userSpaceOnUse">
<stop stop-color="#F9B776"/>
<stop offset="1" stop-color="#F47960"/>
</linearGradient>
</defs>
</svg>
