<svg width="256" height="200" viewBox="0 0 256 200" fill="none" xmlns="http://www.w3.org/2000/svg">
<path d="M197.416 290.091C204.174 268.847 186.285 269.414 176.236 255.615C162.972 237.4 191.235 236.333 198.749 236.266C211.679 236.104 233.473 234.557 240.224 222.105C254.783 194.846 191.317 197.995 207.023 178.495C217.625 165.305 237.014 164.5 248.561 152.37C253.73 146.942 259.196 136.69 251.864 125.432C245.825 116.029 233.079 117.711 228.302 106.791C221.473 91.547 237.971 74.9578 238.481 62.1798C239.156 45.7446 234.234 24.953 218.18 15.0369C208.712 9.1715 204.173 15.3062 195.974 14.9086C188.145 14.6223 185.522 3.4879 178.466 0.934256C173.345 -0.864829 165.164 3.91558 162.704 7.83067C158.621 14.2751 158.318 27.891 149.878 29.1453C140.221 30.5504 135.85 14.3214 126.882 10.3302C91.4969 -4.88406 108.876 67.5011 103.654 86.0167C100.656 96.4082 93.5783 78.7615 90.2436 73.7064C83.0853 62.8458 76.2924 57.9573 68.8284 63.6431C54.5206 74.5978 61.3611 103.812 67.196 125.223C69.0399 131.64 89.3608 181.03 77.423 177.956C67.8222 176.188 60.5877 150.477 49.6376 150.027C31.2277 149.403 43.069 195.552 46.2014 209.685C49.0409 222.781 51.9171 230.456 46.6689 239.74C41.2247 249.309 34.1283 258.037 36.5315 273.07C38.458 285.547 47.5938 298.727 45.8016 310.774C44.0095 322.821 32.544 328.165 25.482 334.403C18.2786 340.685 -9.83746 348.692 4.55808 366.558C15.44 356.21 26.5178 345.577 37.8017 335.782C47.3119 327.436 52.6247 319.034 68.1377 325.511C79.7806 330.479 93.9204 326.112 101.287 319.104C107.305 313.414 103.237 299.345 109.689 294.648C122.397 285.54 143.123 300.999 158.594 305.912C174.663 311.091 192.174 306.359 197.416 290.091Z" fill="#4EAD2D"/>
</svg>
